<svg width="40" height="40" viewBox="0 0 40 40" fill="none" xmlns="http://www.w3.org/2000/svg">
<path d="M20 2L2 20L20 38L38 20L20 2Z" fill="#684A3A"/>
<path d="M20 2L2 20L20 38L38 20L20 2Z" fill="url(#paint0_radial_39991_116954)" fill-opacity="0.2"/>
<mask id="path-2-inside-1_39991_116954" fill="white">
<path d="M38 20L20 38L2 20L20 2L38 20ZM6.05078 20L20.001 33.9502L33.9512 20L20.001 6.0498L6.05078 20Z"/>
</mask>
<path d="M38 20L20 38L2 20L20 2L38 20ZM6.05078 20L20.001 33.9502L33.9512 20L20.001 6.0498L6.05078 20Z" fill="url(#paint1_linear_39991_116954)"/>
<path d="M38 20L38.3182 20.3182L38.6364 20L38.3182 19.6818L38 20ZM20 38L19.6818 38.3182L20 38.6364L20.3182 38.3182L20 38ZM2 20L1.6818 19.6818L1.3636 20L1.6818 20.3182L2 20ZM20 2L20.3182 1.6818L20 1.3636L19.6818 1.6818L20 2ZM6.05078 20L5.73258 19.6818L5.41439 20L5.73258 20.3182L6.05078 20ZM20.001 33.9502L19.6828 34.2684L20.001 34.5866L20.3192 34.2684L20.001 33.9502ZM33.9512 20L34.2694 20.3182L34.5876 20L34.2694 19.6818L33.9512 20ZM20.001 6.0498L20.3192 5.73161L20.001 5.41341L19.6828 5.73161L20.001 6.0498ZM38 20L37.6818 19.6818L19.6818 37.6818L20 38L20.3182 38.3182L38.3182 20.3182L38 20ZM20 38L20.3182 37.6818L2.3182 19.6818L2 20L1.6818 20.3182L19.6818 38.3182L20 38ZM2 20L2.3182 20.3182L20.3182 2.3182L20 2L19.6818 1.6818L1.6818 19.6818L2 20ZM20 2L19.6818 2.3182L37.6818 20.3182L38 20L38.3182 19.6818L20.3182 1.6818L20 2ZM6.05078 20L5.73258 20.3182L19.6828 34.2684L20.001 33.9502L20.3192 33.632L6.36898 19.6818L6.05078 20ZM20.001 33.9502L20.3192 34.2684L34.2694 20.3182L33.9512 20L33.633 19.6818L19.6828 33.632L20.001 33.9502ZM33.9512 20L34.2694 19.6818L20.3192 5.73161L20.001 6.0498L19.6828 6.368L33.633 20.3182L33.9512 20ZM20.001 6.0498L19.6828 5.73161L5.73258 19.6818L6.05078 20L6.36898 20.3182L20.3192 6.368L20.001 6.0498Z" fill="url(#paint2_linear_39991_116954)" mask="url(#path-2-inside-1_39991_116954)"/>
<mask id="mask0_39991_116954" style="mask-type:alpha" maskUnits="userSpaceOnUse" x="2" y="2" width="36" height="37">
<mask id="path-4-inside-2_39991_116954" fill="white">
<path d="M38 20.0006L20 38.0006L2 20.0006L20 2.00061L38 20.0006ZM6.05078 20.0006L20.001 33.9508L33.9512 20.0006L20.001 6.05042L6.05078 20.0006Z"/>
</mask>
<path d="M38 20.0006L20 38.0006L2 20.0006L20 2.00061L38 20.0006ZM6.05078 20.0006L20.001 33.9508L33.9512 20.0006L20.001 6.05042L6.05078 20.0006Z" fill="url(#paint3_linear_39991_116954)"/>
<path d="M38 20.0006L38.3182 20.3188L38.6364 20.0006L38.3182 19.6824L38 20.0006ZM20 38.0006L19.6818 38.3188L20 38.637L20.3182 38.3188L20 38.0006ZM2 20.0006L1.6818 19.6824L1.3636 20.0006L1.6818 20.3188L2 20.0006ZM20 2.00061L20.3182 1.68241L20 1.36421L19.6818 1.68241L20 2.00061ZM6.05078 20.0006L5.73258 19.6824L5.41439 20.0006L5.73258 20.3188L6.05078 20.0006ZM20.001 33.9508L19.6828 34.269L20.001 34.5872L20.3192 34.269L20.001 33.9508ZM33.9512 20.0006L34.2694 20.3188L34.5876 20.0006L34.2694 19.6824L33.9512 20.0006ZM20.001 6.05042L20.3192 5.73222L20.001 5.41402L19.6828 5.73222L20.001 6.05042ZM38 20.0006L37.6818 19.6824L19.6818 37.6824L20 38.0006L20.3182 38.3188L38.3182 20.3188L38 20.0006ZM20 38.0006L20.3182 37.6824L2.3182 19.6824L2 20.0006L1.6818 20.3188L19.6818 38.3188L20 38.0006ZM2 20.0006L2.3182 20.3188L20.3182 2.31881L20 2.00061L19.6818 1.68241L1.6818 19.6824L2 20.0006ZM20 2.00061L19.6818 2.31881L37.6818 20.3188L38 20.0006L38.3182 19.6824L20.3182 1.68241L20 2.00061ZM6.05078 20.0006L5.73258 20.3188L19.6828 34.269L20.001 33.9508L20.3192 33.6326L6.36898 19.6824L6.05078 20.0006ZM20.001 33.9508L20.3192 34.269L34.2694 20.3188L33.9512 20.0006L33.633 19.6824L19.6828 33.6326L20.001 33.9508ZM33.9512 20.0006L34.2694 19.6824L20.3192 5.73222L20.001 6.05042L19.6828 6.36861L33.633 20.3188L33.9512 20.0006ZM20.001 6.05042L19.6828 5.73222L5.73258 19.6824L6.05078 20.0006L6.36898 20.3188L20.3192 6.36861L20.001 6.05042Z" fill="url(#paint4_linear_39991_116954)" mask="url(#path-4-inside-2_39991_116954)"/>
</mask>
<g mask="url(#mask0_39991_116954)">
<rect x="36.6475" y="-4.5719" width="5.08948" height="56.7" transform="rotate(59.7745 36.6475 -4.5719)" fill="white" fill-opacity="0.2"/>
<rect x="36.5663" y="-4.26422" width="4.63948" height="56.25" transform="rotate(59.7745 36.5663 -4.26422)" stroke="white" stroke-opacity="0.15" stroke-width="0.45"/>
<rect x="35.917" y="3.02332" width="1.2122" height="56.7" transform="rotate(59.7745 35.917 3.02332)" fill="white" fill-opacity="0.2"/>
<rect x="35.8358" y="3.33099" width="0.762198" height="56.25" transform="rotate(59.7745 35.8358 3.33099)" stroke="white" stroke-opacity="0.15" stroke-width="0.45"/>
<rect width="5.08948" height="56.7" transform="matrix(-0.503405 -0.864051 -0.864051 0.503405 49.3857 16.0321)" fill="white" fill-opacity="0.2"/>
<rect x="-0.307677" y="-0.0811453" width="4.63948" height="56.25" transform="matrix(-0.503405 -0.864051 -0.864051 0.503405 48.8531 15.726)" stroke="white" stroke-opacity="0.15" stroke-width="0.45"/>
</g>
<mask id="path-12-inside-3_39991_116954" fill="white">
<path d="M23.6045 20.2252L20.2295 23.6002L16.8545 20.2252L20.2295 16.8502L23.6045 20.2252Z"/>
</mask>
<path d="M23.6045 20.2252L20.2295 23.6002L16.8545 20.2252L20.2295 16.8502L23.6045 20.2252Z" fill="url(#paint5_linear_39991_116954)"/>
<path d="M23.6045 20.2252L23.9227 20.5434L24.2409 20.2252L23.9227 19.907L23.6045 20.2252ZM20.2295 23.6002L19.9113 23.9184L20.2295 24.2366L20.5477 23.9184L20.2295 23.6002ZM16.8545 20.2252L16.5363 19.907L16.2181 20.2252L16.5363 20.5434L16.8545 20.2252ZM20.2295 16.8502L20.5477 16.532L20.2295 16.2138L19.9113 16.532L20.2295 16.8502ZM23.6045 20.2252L23.2863 19.907L19.9113 23.282L20.2295 23.6002L20.5477 23.9184L23.9227 20.5434L23.6045 20.2252ZM20.2295 23.6002L20.5477 23.282L17.1727 19.907L16.8545 20.2252L16.5363 20.5434L19.9113 23.9184L20.2295 23.6002ZM16.8545 20.2252L17.1727 20.5434L20.5477 17.1684L20.2295 16.8502L19.9113 16.532L16.5363 19.907L16.8545 20.2252ZM20.2295 16.8502L19.9113 17.1684L23.2863 20.5434L23.6045 20.2252L23.9227 19.907L20.5477 16.532L20.2295 16.8502Z" fill="url(#paint6_linear_39991_116954)" mask="url(#path-12-inside-3_39991_116954)"/>
<defs>
<radialGradient id="paint0_radial_39991_116954" cx="0" cy="0" r="1" gradientUnits="userSpaceOnUse" gradientTransform="translate(20 38) rotate(-90) scale(36)">
<stop/>
<stop offset="1" stop-opacity="0"/>
</radialGradient>
<linearGradient id="paint1_linear_39991_116954" x1="20" y1="2" x2="20" y2="38" gradientUnits="userSpaceOnUse">
<stop stop-color="#E38A59"/>
<stop offset="0.514197" stop-color="#D99068"/>
<stop offset="1" stop-color="#D09575"/>
</linearGradient>
<linearGradient id="paint2_linear_39991_116954" x1="24.0425" y1="2" x2="24.0425" y2="30.1565" gradientUnits="userSpaceOnUse">
<stop stop-color="white" stop-opacity="0.3"/>
<stop offset="1" stop-color="white" stop-opacity="0.3"/>
</linearGradient>
<linearGradient id="paint3_linear_39991_116954" x1="20" y1="2.00061" x2="20" y2="38.0006" gradientUnits="userSpaceOnUse">
<stop stop-color="#E38A59"/>
<stop offset="0.514197" stop-color="#D99068"/>
<stop offset="1" stop-color="#D09575"/>
</linearGradient>
<linearGradient id="paint4_linear_39991_116954" x1="24.0425" y1="2.00061" x2="24.0425" y2="30.1571" gradientUnits="userSpaceOnUse">
<stop stop-color="white" stop-opacity="0.3"/>
<stop offset="1" stop-color="white" stop-opacity="0.3"/>
</linearGradient>
<linearGradient id="paint5_linear_39991_116954" x1="20.229" y1="16.8502" x2="20.229" y2="23.6002" gradientUnits="userSpaceOnUse">
<stop stop-color="#D09575"/>
<stop offset="1" stop-color="#D09575"/>
</linearGradient>
<linearGradient id="paint6_linear_39991_116954" x1="20.229" y1="16.8502" x2="20.229" y2="23.6002" gradientUnits="userSpaceOnUse">
<stop stop-color="white"/>
<stop offset="1" stop-color="white" stop-opacity="0"/>
</linearGradient>
</defs>
</svg>
