<svg width="20" height="20" viewBox="0 0 20 20" fill="none" xmlns="http://www.w3.org/2000/svg">
<g clip-path="url(#clip0_45433_16191)">
<path d="M6.39288 3.31677H0.00170898V7.49476H6.39288V3.31677Z" fill="#E8E5FF"/>
<path d="M13.5494 7.49476H19.8981V3.31677H13.5494V7.49476Z" fill="#E8E5FF"/>
<path d="M9.84572 10.6965L10.2067 10.7592L11.3041 11.2078V19.9999H8.59271V11.209L9.84572 10.6965Z" fill="#E8E5FF"/>
<path d="M7.47058 10.5877L7.99249 10.3742L7.36298 10.2648C7.36746 10.2852 7.37297 10.3077 7.37954 10.3319C7.40238 10.4161 7.43441 10.5073 7.47058 10.5877Z" fill="#E8E5FF"/>
<path d="M13.5517 10.1753L13.5519 8.497H18.7361V19.9999H12.3039V11.6166L12.3165 11.6217C12.6737 11.7677 12.9522 11.5486 13.0594 11.4384C13.1802 11.3141 13.2686 11.1555 13.33 11.0231C13.395 10.8828 13.4482 10.7317 13.4856 10.5936C13.5207 10.4639 13.5516 10.3109 13.5517 10.1753Z" fill="#E8E5FF"/>
<path d="M7.59286 19.9999V11.6179L7.58403 11.6215C7.22692 11.7676 6.94833 11.5486 6.84111 11.4384C6.72022 11.3142 6.6318 11.1556 6.57034 11.0232C6.5052 10.883 6.45204 10.7319 6.41456 10.5937C6.37937 10.464 6.34841 10.3109 6.34841 10.1753V8.497H1.16428V19.9999H7.59286Z" fill="#E8E5FF"/>
<path d="M5.29834 1.15798C5.29834 0.518425 5.81676 0 6.45632 0H6.63108C8.01552 0 9.16661 0.999093 9.40267 2.31561H6.42712C5.80106 2.30011 5.29834 1.78775 5.29834 1.15798Z" fill="#36FF63"/>
<path d="M13.4664 2.31561C14.0925 2.30011 14.5952 1.78775 14.5952 1.15798C14.5952 0.518425 14.0768 0 13.4372 0H13.2625C11.8781 0 10.7272 0.999061 10.4911 2.31561H13.4664Z" fill="#36FF63"/>
<path d="M7.34404 3.31582V10.6779L9.94595 9.58694L12.5479 10.6779V3.31582H7.34404Z" fill="#36FF63"/>
</g>
<defs>
<clipPath id="clip0_45433_16191">
<rect width="20" height="20" fill="white"/>
</clipPath>
</defs>
</svg>
