<svg width="40" height="41" viewBox="0 0 40 41" fill="none" xmlns="http://www.w3.org/2000/svg">
<mask id="mask0_39991_117098" style="mask-type:alpha" maskUnits="userSpaceOnUse" x="5" y="11" width="12" height="13">
<path d="M6 12.3999L13.8788 16.3393L15.697 22.3999L7.21212 17.8544L6 12.3999Z" fill="#D9D9D9" stroke="url(#paint0_linear_39991_117098)" stroke-width="0.802621"/>
</mask>
<g mask="url(#mask0_39991_117098)">
<path d="M6 12.3999L13.8788 16.3393L15.697 22.3999L7.21212 17.8544L6 12.3999Z" fill="url(#paint1_linear_39991_117098)" stroke="url(#paint2_linear_39991_117098)" stroke-width="0.802621"/>
<rect width="3.60866" height="40.2028" transform="matrix(0.277962 -0.960592 -0.960592 -0.277962 33.9922 21.8896)" fill="white" fill-opacity="0.2"/>
<rect x="-0.108903" y="-0.197593" width="3.28959" height="39.8837" transform="matrix(0.277962 -0.960592 -0.960592 -0.277962 33.7237 21.5325)" stroke="white" stroke-opacity="0.15" stroke-width="0.31907"/>
<rect width="3.60866" height="40.2028" transform="matrix(0.277962 -0.960592 -0.960592 -0.277962 28.8594 26.7822)" fill="white" fill-opacity="0.2"/>
<rect x="-0.108903" y="-0.197593" width="3.28959" height="39.8837" transform="matrix(0.277962 -0.960592 -0.960592 -0.277962 28.5909 26.4251)" stroke="white" stroke-opacity="0.15" stroke-width="0.31907"/>
</g>
<mask id="mask1_39991_117098" style="mask-type:alpha" maskUnits="userSpaceOnUse" x="23" y="11" width="12" height="13">
<path d="M34.0972 12.3998L26.2184 16.3392L24.4002 22.3998L32.885 17.8543L34.0972 12.3998Z" fill="#D9D9D9" stroke="url(#paint3_linear_39991_117098)" stroke-width="0.802621"/>
</mask>
<g mask="url(#mask1_39991_117098)">
<path d="M34.0972 12.3998L26.2184 16.3392L24.4002 22.3998L32.885 17.8543L34.0972 12.3998Z" fill="url(#paint4_linear_39991_117098)" stroke="url(#paint5_linear_39991_117098)" stroke-width="0.802621"/>
<rect x="6.10498" y="21.8895" width="3.60866" height="40.2028" transform="rotate(-106.139 6.10498 21.8895)" fill="white" fill-opacity="0.2"/>
<rect x="6.21388" y="21.6919" width="3.28959" height="39.8837" transform="rotate(-106.139 6.21388 21.6919)" stroke="white" stroke-opacity="0.15" stroke-width="0.31907"/>
<rect x="11.2378" y="26.7821" width="3.60866" height="40.2028" transform="rotate(-106.139 11.2378 26.7821)" fill="white" fill-opacity="0.2"/>
<rect x="11.3467" y="26.5845" width="3.28959" height="39.8837" transform="rotate(-106.139 11.3467 26.5845)" stroke="white" stroke-opacity="0.15" stroke-width="0.31907"/>
</g>
<mask id="mask2_39991_117098" style="mask-type:alpha" maskUnits="userSpaceOnUse" x="7" y="20" width="12" height="13">
<path d="M17.6499 21.6002L9.77111 25.5396L7.95293 31.6002L16.4378 27.0548L17.6499 21.6002Z" fill="#D9D9D9" stroke="url(#paint6_linear_39991_117098)" stroke-width="0.802621"/>
</mask>
<g mask="url(#mask2_39991_117098)">
<path d="M17.6499 21.6002L9.77111 25.5396L7.95293 31.6002L16.4378 27.0548L17.6499 21.6002Z" fill="url(#paint7_linear_39991_117098)" stroke="url(#paint8_linear_39991_117098)" stroke-width="0.802621"/>
<rect x="-10.3423" y="31.09" width="3.60866" height="40.2028" transform="rotate(-106.139 -10.3423 31.09)" fill="white" fill-opacity="0.2"/>
<rect x="-10.2334" y="30.8924" width="3.28959" height="39.8837" transform="rotate(-106.139 -10.2334 30.8924)" stroke="white" stroke-opacity="0.15" stroke-width="0.31907"/>
<rect x="-5.20947" y="35.9825" width="3.60866" height="40.2028" transform="rotate(-106.139 -5.20947 35.9825)" fill="white" fill-opacity="0.2"/>
<rect x="-5.10057" y="35.785" width="3.28959" height="39.8837" transform="rotate(-106.139 -5.10057 35.785)" stroke="white" stroke-opacity="0.15" stroke-width="0.31907"/>
</g>
<mask id="mask3_39991_117098" style="mask-type:alpha" maskUnits="userSpaceOnUse" x="21" y="20" width="12" height="13">
<path d="M22.4502 21.6002L30.329 25.5396L32.1472 31.6002L23.6623 27.0548L22.4502 21.6002Z" fill="#D9D9D9" stroke="url(#paint9_linear_39991_117098)" stroke-width="0.802621"/>
</mask>
<g mask="url(#mask3_39991_117098)">
<path d="M22.4502 21.6002L30.329 25.5396L32.1472 31.6002L23.6623 27.0548L22.4502 21.6002Z" fill="url(#paint10_linear_39991_117098)" stroke="url(#paint11_linear_39991_117098)" stroke-width="0.802621"/>
<rect width="3.60867" height="40.2028" transform="matrix(0.277962 -0.960592 -0.960592 -0.277962 50.4424 31.09)" fill="white" fill-opacity="0.2"/>
<rect x="-0.108903" y="-0.197593" width="3.2896" height="39.8837" transform="matrix(0.277962 -0.960592 -0.960592 -0.277962 50.1739 30.7328)" stroke="white" stroke-opacity="0.15" stroke-width="0.31907"/>
<rect width="3.60867" height="40.2028" transform="matrix(0.277962 -0.960592 -0.960592 -0.277962 45.3096 35.9824)" fill="white" fill-opacity="0.2"/>
<rect x="-0.108903" y="-0.197593" width="3.2896" height="39.8837" transform="matrix(0.277962 -0.960592 -0.960592 -0.277962 45.0411 35.6253)" stroke="white" stroke-opacity="0.15" stroke-width="0.31907"/>
</g>
<g filter="url(#filter0_d_39991_117098)">
<mask id="mask4_39991_117098" style="mask-type:alpha" maskUnits="userSpaceOnUse" x="3" y="3" width="14" height="15">
<path d="M4.53125 4.79993L13.6706 9.36962L15.7797 16.3999L5.93731 11.1272L4.53125 4.79993Z" fill="#D9D9D9" stroke="url(#paint12_linear_39991_117098)" stroke-width="0.93104"/>
</mask>
<g mask="url(#mask4_39991_117098)">
<path d="M4.53125 4.79993L13.6706 9.36962L15.7797 16.3999L5.93731 11.1272L4.53125 4.79993Z" fill="url(#paint13_linear_39991_117098)" stroke="url(#paint14_linear_39991_117098)" stroke-width="0.93104"/>
<rect width="4.18605" height="46.6353" transform="matrix(0.277962 -0.960592 -0.960592 -0.277962 37 15.8083)" fill="white" fill-opacity="0.2"/>
<rect x="-0.126328" y="-0.229207" width="3.81593" height="46.2651" transform="matrix(0.277962 -0.960592 -0.960592 -0.277962 36.6886 15.3941)" stroke="white" stroke-opacity="0.15" stroke-width="0.370121"/>
<rect width="4.18605" height="46.6353" transform="matrix(0.277962 -0.960592 -0.960592 -0.277962 31.0469 21.4835)" fill="white" fill-opacity="0.2"/>
<rect x="-0.126328" y="-0.229207" width="3.81593" height="46.2651" transform="matrix(0.277962 -0.960592 -0.960592 -0.277962 30.7355 21.0693)" stroke="white" stroke-opacity="0.15" stroke-width="0.370121"/>
</g>
<mask id="mask5_39991_117098" style="mask-type:alpha" maskUnits="userSpaceOnUse" x="23" y="3" width="14" height="15">
<path d="M35.4282 4.7998L26.2888 9.3695L24.1797 16.3998L34.0222 11.1271L35.4282 4.7998Z" fill="#D9D9D9" stroke="url(#paint15_linear_39991_117098)" stroke-width="0.93104"/>
</mask>
<g mask="url(#mask5_39991_117098)">
<path d="M35.4282 4.7998L26.2888 9.3695L24.1797 16.3998L34.0222 11.1271L35.4282 4.7998Z" fill="url(#paint16_linear_39991_117098)" stroke="url(#paint17_linear_39991_117098)" stroke-width="0.93104"/>
<rect x="2.95557" y="15.808" width="4.18605" height="46.6353" transform="rotate(-106.139 2.95557 15.808)" fill="white" fill-opacity="0.2"/>
<rect x="3.08189" y="15.5788" width="3.81593" height="46.2651" transform="rotate(-106.139 3.08189 15.5788)" stroke="white" stroke-opacity="0.15" stroke-width="0.370121"/>
<rect x="8.90869" y="21.4834" width="4.18605" height="46.6353" transform="rotate(-106.139 8.90869 21.4834)" fill="white" fill-opacity="0.2"/>
<rect x="9.03502" y="21.2542" width="3.81593" height="46.2651" transform="rotate(-106.139 9.03502 21.2542)" stroke="white" stroke-opacity="0.15" stroke-width="0.370121"/>
</g>
</g>
<path d="M20 2L2 20L20 38L38 20L20 2Z" fill="#2EB1EA"/>
<path d="M20 2L2 20L20 38L38 20L20 2Z" fill="url(#paint18_radial_39991_117098)" fill-opacity="0.5"/>
<mask id="path-38-inside-1_39991_117098" fill="white">
<path d="M38 20L20 38L2 20L20 2L38 20ZM6.05078 20L20.001 33.9502L33.9512 20L20.001 6.0498L6.05078 20Z"/>
</mask>
<path d="M38 20L20 38L2 20L20 2L38 20ZM6.05078 20L20.001 33.9502L33.9512 20L20.001 6.0498L6.05078 20Z" fill="url(#paint19_linear_39991_117098)"/>
<path d="M38 20L38.3182 20.3182L38.6364 20L38.3182 19.6818L38 20ZM20 38L19.6818 38.3182L20 38.6364L20.3182 38.3182L20 38ZM2 20L1.6818 19.6818L1.3636 20L1.6818 20.3182L2 20ZM20 2L20.3182 1.6818L20 1.3636L19.6818 1.6818L20 2ZM6.05078 20L5.73258 19.6818L5.41439 20L5.73258 20.3182L6.05078 20ZM20.001 33.9502L19.6828 34.2684L20.001 34.5866L20.3192 34.2684L20.001 33.9502ZM33.9512 20L34.2694 20.3182L34.5876 20L34.2694 19.6818L33.9512 20ZM20.001 6.0498L20.3192 5.73161L20.001 5.41341L19.6828 5.73161L20.001 6.0498ZM38 20L37.6818 19.6818L19.6818 37.6818L20 38L20.3182 38.3182L38.3182 20.3182L38 20ZM20 38L20.3182 37.6818L2.3182 19.6818L2 20L1.6818 20.3182L19.6818 38.3182L20 38ZM2 20L2.3182 20.3182L20.3182 2.3182L20 2L19.6818 1.6818L1.6818 19.6818L2 20ZM20 2L19.6818 2.3182L37.6818 20.3182L38 20L38.3182 19.6818L20.3182 1.6818L20 2ZM6.05078 20L5.73258 20.3182L19.6828 34.2684L20.001 33.9502L20.3192 33.632L6.36898 19.6818L6.05078 20ZM20.001 33.9502L20.3192 34.2684L34.2694 20.3182L33.9512 20L33.633 19.6818L19.6828 33.632L20.001 33.9502ZM33.9512 20L34.2694 19.6818L20.3192 5.73161L20.001 6.0498L19.6828 6.368L33.633 20.3182L33.9512 20ZM20.001 6.0498L19.6828 5.73161L5.73258 19.6818L6.05078 20L6.36898 20.3182L20.3192 6.368L20.001 6.0498Z" fill="url(#paint20_linear_39991_117098)" mask="url(#path-38-inside-1_39991_117098)"/>
<mask id="mask6_39991_117098" style="mask-type:alpha" maskUnits="userSpaceOnUse" x="2" y="2" width="36" height="36">
<mask id="path-40-inside-2_39991_117098" fill="white">
<path d="M38 20L20 38L2 20L20 2L38 20ZM6.05078 20L20.001 33.9502L33.9512 20L20.001 6.0498L6.05078 20Z"/>
</mask>
<path d="M38 20L20 38L2 20L20 2L38 20ZM6.05078 20L20.001 33.9502L33.9512 20L20.001 6.0498L6.05078 20Z" fill="url(#paint21_linear_39991_117098)"/>
<path d="M38 20L38.3182 20.3182L38.6364 20L38.3182 19.6818L38 20ZM20 38L19.6818 38.3182L20 38.6364L20.3182 38.3182L20 38ZM2 20L1.6818 19.6818L1.3636 20L1.6818 20.3182L2 20ZM20 2L20.3182 1.6818L20 1.3636L19.6818 1.6818L20 2ZM6.05078 20L5.73258 19.6818L5.41439 20L5.73258 20.3182L6.05078 20ZM20.001 33.9502L19.6828 34.2684L20.001 34.5866L20.3192 34.2684L20.001 33.9502ZM33.9512 20L34.2694 20.3182L34.5876 20L34.2694 19.6818L33.9512 20ZM20.001 6.0498L20.3192 5.73161L20.001 5.41341L19.6828 5.73161L20.001 6.0498ZM38 20L37.6818 19.6818L19.6818 37.6818L20 38L20.3182 38.3182L38.3182 20.3182L38 20ZM20 38L20.3182 37.6818L2.3182 19.6818L2 20L1.6818 20.3182L19.6818 38.3182L20 38ZM2 20L2.3182 20.3182L20.3182 2.3182L20 2L19.6818 1.6818L1.6818 19.6818L2 20ZM20 2L19.6818 2.3182L37.6818 20.3182L38 20L38.3182 19.6818L20.3182 1.6818L20 2ZM6.05078 20L5.73258 20.3182L19.6828 34.2684L20.001 33.9502L20.3192 33.632L6.36898 19.6818L6.05078 20ZM20.001 33.9502L20.3192 34.2684L34.2694 20.3182L33.9512 20L33.633 19.6818L19.6828 33.632L20.001 33.9502ZM33.9512 20L34.2694 19.6818L20.3192 5.73161L20.001 6.0498L19.6828 6.368L33.633 20.3182L33.9512 20ZM20.001 6.0498L19.6828 5.73161L5.73258 19.6818L6.05078 20L6.36898 20.3182L20.3192 6.368L20.001 6.0498Z" fill="url(#paint22_linear_39991_117098)" mask="url(#path-40-inside-2_39991_117098)"/>
</mask>
<g mask="url(#mask6_39991_117098)">
<rect x="36.6514" y="-4.5719" width="5.08948" height="56.7" transform="rotate(59.7745 36.6514 -4.5719)" fill="white" fill-opacity="0.2"/>
<rect x="36.5702" y="-4.26422" width="4.63948" height="56.25" transform="rotate(59.7745 36.5702 -4.26422)" stroke="white" stroke-opacity="0.15" stroke-width="0.45"/>
<rect x="35.9209" y="3.02332" width="1.2122" height="56.7" transform="rotate(59.7745 35.9209 3.02332)" fill="white" fill-opacity="0.2"/>
<rect x="35.8398" y="3.33099" width="0.762198" height="56.25" transform="rotate(59.7745 35.8398 3.33099)" stroke="white" stroke-opacity="0.15" stroke-width="0.45"/>
<rect width="5.08948" height="56.7" transform="matrix(-0.503405 -0.864051 -0.864051 0.503405 49.3896 16.0316)" fill="white" fill-opacity="0.2"/>
<rect x="-0.307677" y="-0.0811453" width="4.63948" height="56.25" transform="matrix(-0.503405 -0.864051 -0.864051 0.503405 48.857 15.7255)" stroke="white" stroke-opacity="0.15" stroke-width="0.45"/>
</g>
<mask id="path-48-inside-3_39991_117098" fill="white">
<path d="M25.9248 20.1754L20.1494 25.9508L14.373 20.1754L20.1494 14.399L25.9248 20.1754Z"/>
</mask>
<path d="M25.9248 20.1754L20.1494 25.9508L14.373 20.1754L20.1494 14.399L25.9248 20.1754Z" fill="url(#paint23_linear_39991_117098)"/>
<path d="M25.9248 20.1754L26.4694 20.72L27.0139 20.1755L26.4694 19.6309L25.9248 20.1754ZM20.1494 25.9508L19.6049 26.4954L20.1495 27.0399L20.694 26.4954L20.1494 25.9508ZM14.373 20.1754L13.8285 19.6308L13.2839 20.1755L13.8285 20.72L14.373 20.1754ZM20.1494 14.399L20.694 13.8545L20.1495 13.3099L19.6048 13.8545L20.1494 14.399ZM25.9248 20.1754L25.3802 19.6308L19.6048 25.4062L20.1494 25.9508L20.694 26.4954L26.4694 20.72L25.9248 20.1754ZM20.1494 25.9508L20.6939 25.4062L14.9176 19.6308L14.373 20.1754L13.8285 20.72L19.6049 26.4954L20.1494 25.9508ZM14.373 20.1754L14.9176 20.72L20.694 14.9436L20.1494 14.399L19.6048 13.8545L13.8285 19.6308L14.373 20.1754ZM20.1494 14.399L19.6048 14.9436L25.3802 20.7199L25.9248 20.1754L26.4694 19.6309L20.694 13.8545L20.1494 14.399Z" fill="url(#paint24_linear_39991_117098)" mask="url(#path-48-inside-3_39991_117098)"/>
<g filter="url(#filter1_d_39991_117098)">
<mask id="mask7_39991_117098" style="mask-type:alpha" maskUnits="userSpaceOnUse" x="11" y="15" width="5" height="10">
<path d="M15.146 21.9539L13.3316 20.1161L15.146 18.2783L15.146 16.1161L11.1971 20.1161L15.146 24.1161L15.146 21.9539Z" fill="url(#paint25_linear_39991_117098)" stroke="url(#paint26_linear_39991_117098)" stroke-width="0.216216"/>
</mask>
<g mask="url(#mask7_39991_117098)">
<path d="M15.146 21.9539L13.3316 20.1161L15.146 18.2783L15.146 16.1161L11.1971 20.1161L15.146 24.1161L15.146 21.9539Z" fill="url(#paint27_linear_39991_117098)" stroke="url(#paint28_linear_39991_117098)" stroke-width="0.216216"/>
<rect width="2.05757" height="23.0683" transform="matrix(0.861214 -0.508242 -0.498583 -0.866842 19.5791 30.3828)" fill="white" fill-opacity="0.2"/>
<rect x="0.0333029" y="-0.126283" width="1.87389" height="22.8847" transform="matrix(0.861214 -0.508242 -0.498583 -0.866842 19.5208 30.164)" stroke="white" stroke-opacity="0.15" stroke-width="0.183673"/>
<rect width="2.05757" height="23.0683" transform="matrix(0.861214 -0.508242 -0.498583 -0.866842 15.5479 30.3834)" fill="white" fill-opacity="0.2"/>
<rect x="0.0333029" y="-0.126283" width="1.87389" height="22.8847" transform="matrix(0.861214 -0.508242 -0.498583 -0.866842 15.4895 30.1646)" stroke="white" stroke-opacity="0.15" stroke-width="0.183673"/>
</g>
</g>
<g filter="url(#filter2_d_39991_117098)">
<mask id="mask8_39991_117098" style="mask-type:alpha" maskUnits="userSpaceOnUse" x="25" y="15" width="5" height="10">
<path d="M25.2485 18.2787L27.0629 20.1166L25.2485 21.9544L25.2485 24.1166L29.1975 20.1166L25.2485 16.1166L25.2485 18.2787Z" fill="url(#paint29_linear_39991_117098)" stroke="url(#paint30_linear_39991_117098)" stroke-width="0.216216"/>
</mask>
<g mask="url(#mask8_39991_117098)">
<path d="M25.2485 18.2787L27.0629 20.1166L25.2485 21.9544L25.2485 24.1166L29.1975 20.1166L25.2485 16.1166L25.2485 18.2787Z" fill="url(#paint31_linear_39991_117098)" stroke="url(#paint32_linear_39991_117098)" stroke-width="0.216216"/>
<rect width="2.05757" height="23.0683" transform="matrix(-0.861214 0.508242 0.498583 0.866842 20.8154 9.84985)" fill="white" fill-opacity="0.2"/>
<rect x="-0.0333029" y="0.126283" width="1.87389" height="22.8847" transform="matrix(-0.861214 0.508242 0.498583 0.866842 20.6905 9.8836)" stroke="white" stroke-opacity="0.15" stroke-width="0.183673"/>
<rect width="2.05757" height="23.0683" transform="matrix(-0.861214 0.508242 0.498583 0.866842 24.8467 9.84937)" fill="white" fill-opacity="0.2"/>
<rect x="-0.0333029" y="0.126283" width="1.87389" height="22.8847" transform="matrix(-0.861214 0.508242 0.498583 0.866842 24.7217 9.88311)" stroke="white" stroke-opacity="0.15" stroke-width="0.183673"/>
</g>
</g>
<g filter="url(#filter3_d_39991_117098)">
<mask id="mask9_39991_117098" style="mask-type:alpha" maskUnits="userSpaceOnUse" x="15" y="11" width="10" height="5">
<path d="M18.3619 15.149L20.1997 13.3347L22.0375 15.149L24.1997 15.149L20.1997 11.2001L16.1997 15.149L18.3619 15.149Z" fill="url(#paint33_linear_39991_117098)" stroke="url(#paint34_linear_39991_117098)" stroke-width="0.216216"/>
</mask>
<g mask="url(#mask9_39991_117098)">
<path d="M18.3619 15.149L20.1997 13.3347L22.0375 15.149L24.1997 15.149L20.1997 11.2001L16.1997 15.149L18.3619 15.149Z" fill="url(#paint35_linear_39991_117098)" stroke="url(#paint36_linear_39991_117098)" stroke-width="0.216216"/>
<rect width="2.05757" height="23.0683" transform="matrix(0.508242 0.861214 0.866842 -0.498582 9.93213 19.5826)" fill="white" fill-opacity="0.2"/>
<rect x="0.126283" y="0.0333029" width="1.87389" height="22.8847" transform="matrix(0.508242 0.861214 0.866842 -0.498582 9.96536 19.5238)" stroke="white" stroke-opacity="0.15" stroke-width="0.183673"/>
<rect width="2.05757" height="23.0683" transform="matrix(0.508242 0.861214 0.866842 -0.498582 9.93213 15.553)" fill="white" fill-opacity="0.2"/>
<rect x="0.126283" y="0.0333029" width="1.87389" height="22.8847" transform="matrix(0.508242 0.861214 0.866842 -0.498582 9.96536 15.4941)" stroke="white" stroke-opacity="0.15" stroke-width="0.183673"/>
</g>
</g>
<g filter="url(#filter4_d_39991_117098)">
<mask id="mask10_39991_117098" style="mask-type:alpha" maskUnits="userSpaceOnUse" x="15" y="25" width="10" height="5">
<path d="M22.0375 25.2511L20.1997 27.0655L18.3619 25.2511L16.1997 25.2511L20.1997 29.2L24.1997 25.2511L22.0375 25.2511Z" fill="url(#paint37_linear_39991_117098)" stroke="url(#paint38_linear_39991_117098)" stroke-width="0.216216"/>
</mask>
<g mask="url(#mask10_39991_117098)">
<path d="M22.0375 25.2511L20.1997 27.0655L18.3619 25.2511L16.1997 25.2511L20.1997 29.2L24.1997 25.2511L22.0375 25.2511Z" fill="url(#paint39_linear_39991_117098)" stroke="url(#paint40_linear_39991_117098)" stroke-width="0.216216"/>
<rect width="2.05757" height="23.0683" transform="matrix(-0.508242 -0.861214 -0.866842 0.498583 30.4634 20.8175)" fill="white" fill-opacity="0.2"/>
<rect x="-0.126283" y="-0.0333029" width="1.87389" height="22.8847" transform="matrix(-0.508242 -0.861214 -0.866842 0.498583 30.244 20.692)" stroke="white" stroke-opacity="0.15" stroke-width="0.183673"/>
<rect width="2.05757" height="23.0683" transform="matrix(-0.508242 -0.861214 -0.866842 0.498583 30.4634 24.847)" fill="white" fill-opacity="0.2"/>
<rect x="-0.126283" y="-0.0333029" width="1.87389" height="22.8847" transform="matrix(-0.508242 -0.861214 -0.866842 0.498583 30.244 24.7216)" stroke="white" stroke-opacity="0.15" stroke-width="0.183673"/>
</g>
</g>
<g filter="url(#filter5_d_39991_117098)">
<mask id="mask11_39991_117098" style="mask-type:alpha" maskUnits="userSpaceOnUse" x="0" y="13" width="8" height="14">
<path d="M7 17.4433L4.24324 20.2001L7 22.9568L7 26.2001L1 20.2001L7 14.2001L7 17.4433Z" fill="url(#paint41_linear_39991_117098)" stroke="url(#paint42_linear_39991_117098)" stroke-width="0.324324"/>
</mask>
<g mask="url(#mask11_39991_117098)">
<path d="M7 17.4433L4.24324 20.2001L7 22.9568L7 26.2001L1 20.2001L7 14.2001L7 17.4433Z" fill="url(#paint43_linear_39991_117098)" stroke="url(#paint44_linear_39991_117098)" stroke-width="0.324324"/>
<rect x="13.7383" y="4.79968" width="3.11601" height="34.7143" transform="rotate(30.2255 13.7383 4.79968)" fill="white" fill-opacity="0.2"/>
<rect x="13.788" y="4.98806" width="2.8405" height="34.4388" transform="rotate(30.2255 13.788 4.98806)" stroke="white" stroke-opacity="0.15" stroke-width="0.27551"/>
<rect x="7.61328" y="4.79968" width="3.11601" height="34.7143" transform="rotate(30.2255 7.61328 4.79968)" fill="white" fill-opacity="0.2"/>
<rect x="7.66296" y="4.98806" width="2.8405" height="34.4388" transform="rotate(30.2255 7.66296 4.98806)" stroke="white" stroke-opacity="0.15" stroke-width="0.27551"/>
</g>
</g>
<g filter="url(#filter6_d_39991_117098)">
<mask id="mask12_39991_117098" style="mask-type:alpha" maskUnits="userSpaceOnUse" x="33" y="13" width="7" height="14">
<path d="M33.1978 17.2432L35.9545 20L33.1978 22.7568L33.1978 26L39.1978 20L33.1978 14L33.1978 17.2432Z" fill="url(#paint45_linear_39991_117098)" stroke="url(#paint46_linear_39991_117098)" stroke-width="0.324324"/>
</mask>
<g mask="url(#mask12_39991_117098)">
<path d="M33.1978 17.2432L35.9545 20L33.1978 22.7568L33.1978 26L39.1978 20L33.1978 14L33.1978 17.2432Z" fill="url(#paint47_linear_39991_117098)" stroke="url(#paint48_linear_39991_117098)" stroke-width="0.324324"/>
<rect width="3.11601" height="34.7143" transform="matrix(-0.864051 0.503405 0.503405 0.864051 26.4634 4.59961)" fill="white" fill-opacity="0.2"/>
<rect x="-0.0496808" y="0.188374" width="2.8405" height="34.4388" transform="matrix(-0.864051 0.503405 0.503405 0.864051 26.2759 4.65023)" stroke="white" stroke-opacity="0.15" stroke-width="0.27551"/>
<rect width="3.11601" height="34.7143" transform="matrix(-0.864051 0.503405 0.503405 0.864051 32.5845 4.59961)" fill="white" fill-opacity="0.2"/>
<rect x="-0.0496808" y="0.188374" width="2.8405" height="34.4388" transform="matrix(-0.864051 0.503405 0.503405 0.864051 32.397 4.65023)" stroke="white" stroke-opacity="0.15" stroke-width="0.27551"/>
</g>
</g>
<g filter="url(#filter7_d_39991_117098)">
<mask id="mask13_39991_117098" style="mask-type:alpha" maskUnits="userSpaceOnUse" x="12" y="32" width="16" height="9">
<path d="M16.5087 32.3997L20.0006 35.8916L23.4925 32.3997L27.6006 32.3997L20.0006 39.9997L12.4006 32.3997L16.5087 32.3997Z" fill="url(#paint49_linear_39991_117098)" stroke="url(#paint50_linear_39991_117098)" stroke-width="0.324324"/>
</mask>
<g mask="url(#mask13_39991_117098)">
<path d="M16.5087 32.3997L20.0006 35.8916L23.4925 32.3997L27.6006 32.3997L20.0006 39.9997L12.4006 32.3997L16.5087 32.3997Z" fill="url(#paint51_linear_39991_117098)" stroke="url(#paint52_linear_39991_117098)" stroke-width="0.324324"/>
<rect x="0.491211" y="23.8674" width="3.94694" height="43.9714" transform="rotate(-59.7745 0.491211 23.8674)" fill="white" fill-opacity="0.2"/>
<rect x="0.679585" y="23.8178" width="3.67143" height="43.6959" transform="rotate(-59.7745 0.679585 23.8178)" stroke="white" stroke-opacity="0.15" stroke-width="0.27551"/>
<rect x="0.491211" y="31.6223" width="3.94694" height="43.9714" transform="rotate(-59.7745 0.491211 31.6223)" fill="white" fill-opacity="0.2"/>
<rect x="0.679585" y="31.5726" width="3.67143" height="43.6959" transform="rotate(-59.7745 0.679585 31.5726)" stroke="white" stroke-opacity="0.15" stroke-width="0.27551"/>
</g>
</g>
<defs>
<filter id="filter0_d_39991_117098" x="3.68359" y="3.94604" width="32.5923" height="14.1666" filterUnits="userSpaceOnUse" color-interpolation-filters="sRGB">
<feFlood flood-opacity="0" result="BackgroundImageFix"/>
<feColorMatrix in="SourceAlpha" type="matrix" values="0 0 0 0 0 0 0 0 0 0 0 0 0 0 0 0 0 0 127 0" result="hardAlpha"/>
<feOffset dy="0.773333"/>
<feComposite in2="hardAlpha" operator="out"/>
<feColorMatrix type="matrix" values="0 0 0 0 0 0 0 0 0 0 0 0 0 0 0 0 0 0 0.17 0"/>
<feBlend mode="normal" in2="BackgroundImageFix" result="effect1_dropShadow_39991_117098"/>
<feBlend mode="normal" in="SourceGraphic" in2="effect1_dropShadow_39991_117098" result="shape"/>
</filter>
<filter id="filter1_d_39991_117098" x="11.0449" y="15.8527" width="4.60898" height="8.52686" filterUnits="userSpaceOnUse" color-interpolation-filters="sRGB">
<feFlood flood-opacity="0" result="BackgroundImageFix"/>
<feColorMatrix in="SourceAlpha" type="matrix" values="0 0 0 0 0 0 0 0 0 0 0 0 0 0 0 0 0 0 127 0" result="hardAlpha"/>
<feOffset dx="0.4"/>
<feComposite in2="hardAlpha" operator="out"/>
<feColorMatrix type="matrix" values="0 0 0 0 0 0 0 0 0 0 0 0 0 0 0 0 0 0 0.15 0"/>
<feBlend mode="normal" in2="BackgroundImageFix" result="effect1_dropShadow_39991_117098"/>
<feBlend mode="normal" in="SourceGraphic" in2="effect1_dropShadow_39991_117098" result="shape"/>
</filter>
<filter id="filter2_d_39991_117098" x="24.7406" y="15.8531" width="4.60898" height="8.52686" filterUnits="userSpaceOnUse" color-interpolation-filters="sRGB">
<feFlood flood-opacity="0" result="BackgroundImageFix"/>
<feColorMatrix in="SourceAlpha" type="matrix" values="0 0 0 0 0 0 0 0 0 0 0 0 0 0 0 0 0 0 127 0" result="hardAlpha"/>
<feOffset dx="-0.4"/>
<feComposite in2="hardAlpha" operator="out"/>
<feColorMatrix type="matrix" values="0 0 0 0 0 0 0 0 0 0 0 0 0 0 0 0 0 0 0.15 0"/>
<feBlend mode="normal" in2="BackgroundImageFix" result="effect1_dropShadow_39991_117098"/>
<feBlend mode="normal" in="SourceGraphic" in2="effect1_dropShadow_39991_117098" result="shape"/>
</filter>
<filter id="filter3_d_39991_117098" x="15.9365" y="11.0482" width="8.52637" height="4.60898" filterUnits="userSpaceOnUse" color-interpolation-filters="sRGB">
<feFlood flood-opacity="0" result="BackgroundImageFix"/>
<feColorMatrix in="SourceAlpha" type="matrix" values="0 0 0 0 0 0 0 0 0 0 0 0 0 0 0 0 0 0 127 0" result="hardAlpha"/>
<feOffset dy="0.4"/>
<feComposite in2="hardAlpha" operator="out"/>
<feColorMatrix type="matrix" values="0 0 0 0 0 0 0 0 0 0 0 0 0 0 0 0 0 0 0.15 0"/>
<feBlend mode="normal" in2="BackgroundImageFix" result="effect1_dropShadow_39991_117098"/>
<feBlend mode="normal" in="SourceGraphic" in2="effect1_dropShadow_39991_117098" result="shape"/>
</filter>
<filter id="filter4_d_39991_117098" x="15.9365" y="24.7429" width="8.52637" height="4.60898" filterUnits="userSpaceOnUse" color-interpolation-filters="sRGB">
<feFlood flood-opacity="0" result="BackgroundImageFix"/>
<feColorMatrix in="SourceAlpha" type="matrix" values="0 0 0 0 0 0 0 0 0 0 0 0 0 0 0 0 0 0 127 0" result="hardAlpha"/>
<feOffset dy="-0.4"/>
<feComposite in2="hardAlpha" operator="out"/>
<feColorMatrix type="matrix" values="0 0 0 0 0 0 0 0 0 0 0 0 0 0 0 0 0 0 0.15 0"/>
<feBlend mode="normal" in2="BackgroundImageFix" result="effect1_dropShadow_39991_117098"/>
<feBlend mode="normal" in="SourceGraphic" in2="effect1_dropShadow_39991_117098" result="shape"/>
</filter>
<filter id="filter5_d_39991_117098" x="0.770508" y="13.8086" width="7.1916" height="12.783" filterUnits="userSpaceOnUse" color-interpolation-filters="sRGB">
<feFlood flood-opacity="0" result="BackgroundImageFix"/>
<feColorMatrix in="SourceAlpha" type="matrix" values="0 0 0 0 0 0 0 0 0 0 0 0 0 0 0 0 0 0 127 0" result="hardAlpha"/>
<feOffset dx="0.8"/>
<feComposite in2="hardAlpha" operator="out"/>
<feColorMatrix type="matrix" values="0 0 0 0 0 0 0 0 0 0 0 0 0 0 0 0 0 0 0.17 0"/>
<feBlend mode="normal" in2="BackgroundImageFix" result="effect1_dropShadow_39991_117098"/>
<feBlend mode="normal" in="SourceGraphic" in2="effect1_dropShadow_39991_117098" result="shape"/>
</filter>
<filter id="filter6_d_39991_117098" x="32.2356" y="13.6085" width="7.1916" height="12.783" filterUnits="userSpaceOnUse" color-interpolation-filters="sRGB">
<feFlood flood-opacity="0" result="BackgroundImageFix"/>
<feColorMatrix in="SourceAlpha" type="matrix" values="0 0 0 0 0 0 0 0 0 0 0 0 0 0 0 0 0 0 127 0" result="hardAlpha"/>
<feOffset dx="-0.8"/>
<feComposite in2="hardAlpha" operator="out"/>
<feColorMatrix type="matrix" values="0 0 0 0 0 0 0 0 0 0 0 0 0 0 0 0 0 0 0.17 0"/>
<feBlend mode="normal" in2="BackgroundImageFix" result="effect1_dropShadow_39991_117098"/>
<feBlend mode="normal" in="SourceGraphic" in2="effect1_dropShadow_39991_117098" result="shape"/>
</filter>
<filter id="filter7_d_39991_117098" x="12.0093" y="32.2375" width="16.7829" height="7.99146" filterUnits="userSpaceOnUse" color-interpolation-filters="sRGB">
<feFlood flood-opacity="0" result="BackgroundImageFix"/>
<feColorMatrix in="SourceAlpha" type="matrix" values="0 0 0 0 0 0 0 0 0 0 0 0 0 0 0 0 0 0 127 0" result="hardAlpha"/>
<feOffset dx="0.8"/>
<feComposite in2="hardAlpha" operator="out"/>
<feColorMatrix type="matrix" values="0 0 0 0 0 0 0 0 0 0 0 0 0 0 0 0 0 0 0.17 0"/>
<feBlend mode="normal" in2="BackgroundImageFix" result="effect1_dropShadow_39991_117098"/>
<feBlend mode="normal" in="SourceGraphic" in2="effect1_dropShadow_39991_117098" result="shape"/>
</filter>
<linearGradient id="paint0_linear_39991_117098" x1="11.9374" y1="12.3999" x2="11.9374" y2="20.2212" gradientUnits="userSpaceOnUse">
<stop stop-color="white" stop-opacity="0.3"/>
<stop offset="1" stop-color="white" stop-opacity="0.3"/>
</linearGradient>
<linearGradient id="paint1_linear_39991_117098" x1="6" y1="17.1637" x2="15.7011" y2="17.2748" gradientUnits="userSpaceOnUse">
<stop offset="0.494056" stop-color="#69D3F0"/>
<stop offset="0.499826" stop-color="#A7E4F5"/>
</linearGradient>
<linearGradient id="paint2_linear_39991_117098" x1="11.9374" y1="12.3999" x2="11.9374" y2="20.2212" gradientUnits="userSpaceOnUse">
<stop stop-color="white" stop-opacity="0.3"/>
<stop offset="1" stop-color="white" stop-opacity="0.3"/>
</linearGradient>
<linearGradient id="paint3_linear_39991_117098" x1="28.1598" y1="12.3998" x2="28.1598" y2="20.221" gradientUnits="userSpaceOnUse">
<stop stop-color="white" stop-opacity="0.3"/>
<stop offset="1" stop-color="white" stop-opacity="0.3"/>
</linearGradient>
<linearGradient id="paint4_linear_39991_117098" x1="34.0972" y1="17.1636" x2="24.3961" y2="17.2747" gradientUnits="userSpaceOnUse">
<stop offset="0.494056" stop-color="#69D3F0"/>
<stop offset="0.499826" stop-color="#A7E4F5"/>
</linearGradient>
<linearGradient id="paint5_linear_39991_117098" x1="28.1598" y1="12.3998" x2="28.1598" y2="20.221" gradientUnits="userSpaceOnUse">
<stop stop-color="white" stop-opacity="0.3"/>
<stop offset="1" stop-color="white" stop-opacity="0.3"/>
</linearGradient>
<linearGradient id="paint6_linear_39991_117098" x1="11.7125" y1="21.6002" x2="11.7125" y2="29.4215" gradientUnits="userSpaceOnUse">
<stop stop-color="white" stop-opacity="0.3"/>
<stop offset="1" stop-color="white" stop-opacity="0.3"/>
</linearGradient>
<linearGradient id="paint7_linear_39991_117098" x1="17.6499" y1="26.364" x2="7.94879" y2="26.4751" gradientUnits="userSpaceOnUse">
<stop offset="0.494056" stop-color="#69D3F0"/>
<stop offset="0.499826" stop-color="#A7E4F5"/>
</linearGradient>
<linearGradient id="paint8_linear_39991_117098" x1="11.7125" y1="21.6002" x2="11.7125" y2="29.4215" gradientUnits="userSpaceOnUse">
<stop stop-color="white" stop-opacity="0.3"/>
<stop offset="1" stop-color="white" stop-opacity="0.3"/>
</linearGradient>
<linearGradient id="paint9_linear_39991_117098" x1="28.3876" y1="21.6002" x2="28.3876" y2="29.4215" gradientUnits="userSpaceOnUse">
<stop stop-color="white" stop-opacity="0.3"/>
<stop offset="1" stop-color="white" stop-opacity="0.3"/>
</linearGradient>
<linearGradient id="paint10_linear_39991_117098" x1="22.4502" y1="26.364" x2="32.1513" y2="26.4751" gradientUnits="userSpaceOnUse">
<stop offset="0.494056" stop-color="#69D3F0"/>
<stop offset="0.499826" stop-color="#A7E4F5"/>
</linearGradient>
<linearGradient id="paint11_linear_39991_117098" x1="28.3876" y1="21.6002" x2="28.3876" y2="29.4215" gradientUnits="userSpaceOnUse">
<stop stop-color="white" stop-opacity="0.3"/>
<stop offset="1" stop-color="white" stop-opacity="0.3"/>
</linearGradient>
<linearGradient id="paint12_linear_39991_117098" x1="11.4186" y1="4.79993" x2="11.4186" y2="13.8726" gradientUnits="userSpaceOnUse">
<stop stop-color="white" stop-opacity="0.3"/>
<stop offset="1" stop-color="white" stop-opacity="0.3"/>
</linearGradient>
<linearGradient id="paint13_linear_39991_117098" x1="4.53125" y1="10.3259" x2="15.7845" y2="10.4548" gradientUnits="userSpaceOnUse">
<stop offset="0.341346" stop-color="#93DEF3"/>
<stop offset="0.600962" stop-color="#6DD7F4"/>
</linearGradient>
<linearGradient id="paint14_linear_39991_117098" x1="11.4186" y1="4.79993" x2="11.4186" y2="13.8726" gradientUnits="userSpaceOnUse">
<stop stop-color="white" stop-opacity="0.3"/>
<stop offset="1" stop-color="white" stop-opacity="0.3"/>
</linearGradient>
<linearGradient id="paint15_linear_39991_117098" x1="28.5409" y1="4.7998" x2="28.5409" y2="13.8725" gradientUnits="userSpaceOnUse">
<stop stop-color="white" stop-opacity="0.3"/>
<stop offset="1" stop-color="white" stop-opacity="0.3"/>
</linearGradient>
<linearGradient id="paint16_linear_39991_117098" x1="35.4282" y1="10.3258" x2="24.1749" y2="10.4547" gradientUnits="userSpaceOnUse">
<stop offset="0.341346" stop-color="#93DEF3"/>
<stop offset="0.600962" stop-color="#6DD7F4"/>
</linearGradient>
<linearGradient id="paint17_linear_39991_117098" x1="28.5409" y1="4.7998" x2="28.5409" y2="13.8725" gradientUnits="userSpaceOnUse">
<stop stop-color="white" stop-opacity="0.3"/>
<stop offset="1" stop-color="white" stop-opacity="0.3"/>
</linearGradient>
<radialGradient id="paint18_radial_39991_117098" cx="0" cy="0" r="1" gradientUnits="userSpaceOnUse" gradientTransform="translate(20 38) rotate(-90) scale(36)">
<stop/>
<stop offset="1" stop-opacity="0"/>
</radialGradient>
<linearGradient id="paint19_linear_39991_117098" x1="20" y1="2" x2="20" y2="38" gradientUnits="userSpaceOnUse">
<stop stop-color="#B9E7FB"/>
<stop offset="0.514197" stop-color="#77D0F7"/>
<stop offset="1" stop-color="#B9E7FB"/>
</linearGradient>
<linearGradient id="paint20_linear_39991_117098" x1="24.0425" y1="2" x2="24.0425" y2="30.1565" gradientUnits="userSpaceOnUse">
<stop stop-color="white" stop-opacity="0.3"/>
<stop offset="1" stop-color="white" stop-opacity="0.3"/>
</linearGradient>
<linearGradient id="paint21_linear_39991_117098" x1="20" y1="2" x2="20" y2="38" gradientUnits="userSpaceOnUse">
<stop stop-color="#E38A59"/>
<stop offset="0.514197" stop-color="#D99068"/>
<stop offset="1" stop-color="#D09575"/>
</linearGradient>
<linearGradient id="paint22_linear_39991_117098" x1="24.0425" y1="2" x2="24.0425" y2="30.1565" gradientUnits="userSpaceOnUse">
<stop stop-color="white" stop-opacity="0.3"/>
<stop offset="1" stop-color="white" stop-opacity="0.3"/>
</linearGradient>
<linearGradient id="paint23_linear_39991_117098" x1="20.1489" y1="14.399" x2="20.1489" y2="25.9508" gradientUnits="userSpaceOnUse">
<stop stop-color="white"/>
<stop offset="1" stop-color="#B7B7B7"/>
</linearGradient>
<linearGradient id="paint24_linear_39991_117098" x1="20.1489" y1="14.399" x2="20.1489" y2="25.9508" gradientUnits="userSpaceOnUse">
<stop stop-color="white"/>
<stop offset="1" stop-color="white" stop-opacity="0"/>
</linearGradient>
<linearGradient id="paint25_linear_39991_117098" x1="15.146" y1="20.1161" x2="11.1971" y2="20.1161" gradientUnits="userSpaceOnUse">
<stop stop-color="#DDD8D5"/>
<stop offset="1" stop-color="#A79C96"/>
</linearGradient>
<linearGradient id="paint26_linear_39991_117098" x1="15.146" y1="21.0144" x2="12.0574" y2="21.0144" gradientUnits="userSpaceOnUse">
<stop stop-color="white" stop-opacity="0.3"/>
<stop offset="1" stop-color="white" stop-opacity="0.3"/>
</linearGradient>
<linearGradient id="paint27_linear_39991_117098" x1="13.2648" y1="16.1161" x2="13.0734" y2="24.116" gradientUnits="userSpaceOnUse">
<stop offset="0.494056" stop-color="#69D3F0"/>
<stop offset="0.499826" stop-color="#A7E4F5"/>
</linearGradient>
<linearGradient id="paint28_linear_39991_117098" x1="15.146" y1="21.0144" x2="12.0574" y2="21.0144" gradientUnits="userSpaceOnUse">
<stop stop-color="white" stop-opacity="0.3"/>
<stop offset="1" stop-color="white" stop-opacity="0.3"/>
</linearGradient>
<linearGradient id="paint29_linear_39991_117098" x1="25.2485" y1="20.1166" x2="29.1975" y2="20.1166" gradientUnits="userSpaceOnUse">
<stop stop-color="#DDD8D5"/>
<stop offset="1" stop-color="#A79C96"/>
</linearGradient>
<linearGradient id="paint30_linear_39991_117098" x1="25.2485" y1="19.2182" x2="28.3371" y2="19.2182" gradientUnits="userSpaceOnUse">
<stop stop-color="white" stop-opacity="0.3"/>
<stop offset="1" stop-color="white" stop-opacity="0.3"/>
</linearGradient>
<linearGradient id="paint31_linear_39991_117098" x1="27.1297" y1="24.1166" x2="27.3211" y2="16.1167" gradientUnits="userSpaceOnUse">
<stop offset="0.494056" stop-color="#69D3F0"/>
<stop offset="0.499826" stop-color="#A7E4F5"/>
</linearGradient>
<linearGradient id="paint32_linear_39991_117098" x1="25.2485" y1="19.2182" x2="28.3371" y2="19.2182" gradientUnits="userSpaceOnUse">
<stop stop-color="white" stop-opacity="0.3"/>
<stop offset="1" stop-color="white" stop-opacity="0.3"/>
</linearGradient>
<linearGradient id="paint33_linear_39991_117098" x1="20.1997" y1="15.149" x2="20.1997" y2="11.2001" gradientUnits="userSpaceOnUse">
<stop stop-color="#DDD8D5"/>
<stop offset="1" stop-color="#A79C96"/>
</linearGradient>
<linearGradient id="paint34_linear_39991_117098" x1="19.3014" y1="15.149" x2="19.3014" y2="12.0605" gradientUnits="userSpaceOnUse">
<stop stop-color="white" stop-opacity="0.3"/>
<stop offset="1" stop-color="white" stop-opacity="0.3"/>
</linearGradient>
<linearGradient id="paint35_linear_39991_117098" x1="24.1997" y1="13.2679" x2="16.1998" y2="13.0764" gradientUnits="userSpaceOnUse">
<stop offset="0.494056" stop-color="#69D3F0"/>
<stop offset="0.499826" stop-color="#A7E4F5"/>
</linearGradient>
<linearGradient id="paint36_linear_39991_117098" x1="19.3014" y1="15.149" x2="19.3014" y2="12.0605" gradientUnits="userSpaceOnUse">
<stop stop-color="white" stop-opacity="0.3"/>
<stop offset="1" stop-color="white" stop-opacity="0.3"/>
</linearGradient>
<linearGradient id="paint37_linear_39991_117098" x1="20.1997" y1="25.2511" x2="20.1997" y2="29.2" gradientUnits="userSpaceOnUse">
<stop stop-color="#DDD8D5"/>
<stop offset="1" stop-color="#A79C96"/>
</linearGradient>
<linearGradient id="paint38_linear_39991_117098" x1="21.098" y1="25.2511" x2="21.098" y2="28.3397" gradientUnits="userSpaceOnUse">
<stop stop-color="white" stop-opacity="0.3"/>
<stop offset="1" stop-color="white" stop-opacity="0.3"/>
</linearGradient>
<linearGradient id="paint39_linear_39991_117098" x1="16.1997" y1="27.1323" x2="24.1996" y2="27.3237" gradientUnits="userSpaceOnUse">
<stop offset="0.494056" stop-color="#69D3F0"/>
<stop offset="0.499826" stop-color="#A7E4F5"/>
</linearGradient>
<linearGradient id="paint40_linear_39991_117098" x1="21.098" y1="25.2511" x2="21.098" y2="28.3397" gradientUnits="userSpaceOnUse">
<stop stop-color="white" stop-opacity="0.3"/>
<stop offset="1" stop-color="white" stop-opacity="0.3"/>
</linearGradient>
<linearGradient id="paint41_linear_39991_117098" x1="7" y1="20.2001" x2="1" y2="20.2001" gradientUnits="userSpaceOnUse">
<stop stop-color="#DDD8D5"/>
<stop offset="1" stop-color="#A79C96"/>
</linearGradient>
<linearGradient id="paint42_linear_39991_117098" x1="7" y1="18.8526" x2="2.30725" y2="18.8526" gradientUnits="userSpaceOnUse">
<stop stop-color="white" stop-opacity="0.3"/>
<stop offset="1" stop-color="white" stop-opacity="0.3"/>
</linearGradient>
<linearGradient id="paint43_linear_39991_117098" x1="4.14173" y1="26.2001" x2="3.85827" y2="14.2001" gradientUnits="userSpaceOnUse">
<stop offset="0.494056" stop-color="#69D3F0"/>
<stop offset="0.499826" stop-color="#A7E4F5"/>
</linearGradient>
<linearGradient id="paint44_linear_39991_117098" x1="7" y1="18.8526" x2="2.30725" y2="18.8526" gradientUnits="userSpaceOnUse">
<stop stop-color="white" stop-opacity="0.3"/>
<stop offset="1" stop-color="white" stop-opacity="0.3"/>
</linearGradient>
<linearGradient id="paint45_linear_39991_117098" x1="33.1978" y1="20" x2="39.1978" y2="20" gradientUnits="userSpaceOnUse">
<stop stop-color="#DDD8D5"/>
<stop offset="1" stop-color="#A79C96"/>
</linearGradient>
<linearGradient id="paint46_linear_39991_117098" x1="33.1978" y1="18.6525" x2="37.8905" y2="18.6525" gradientUnits="userSpaceOnUse">
<stop stop-color="white" stop-opacity="0.3"/>
<stop offset="1" stop-color="white" stop-opacity="0.3"/>
</linearGradient>
<linearGradient id="paint47_linear_39991_117098" x1="36.056" y1="26" x2="36.3395" y2="14" gradientUnits="userSpaceOnUse">
<stop offset="0.494056" stop-color="#69D3F0"/>
<stop offset="0.499826" stop-color="#A7E4F5"/>
</linearGradient>
<linearGradient id="paint48_linear_39991_117098" x1="33.1978" y1="18.6525" x2="37.8905" y2="18.6525" gradientUnits="userSpaceOnUse">
<stop stop-color="white" stop-opacity="0.3"/>
<stop offset="1" stop-color="white" stop-opacity="0.3"/>
</linearGradient>
<linearGradient id="paint49_linear_39991_117098" x1="20.0006" y1="32.3997" x2="20.0006" y2="39.9997" gradientUnits="userSpaceOnUse">
<stop stop-color="#DDD8D5"/>
<stop offset="1" stop-color="#A79C96"/>
</linearGradient>
<linearGradient id="paint50_linear_39991_117098" x1="18.2937" y1="32.3997" x2="18.2937" y2="38.3438" gradientUnits="userSpaceOnUse">
<stop stop-color="white" stop-opacity="0.3"/>
<stop offset="1" stop-color="white" stop-opacity="0.3"/>
</linearGradient>
<linearGradient id="paint51_linear_39991_117098" x1="27.6006" y1="36.0201" x2="12.4006" y2="36.3792" gradientUnits="userSpaceOnUse">
<stop offset="0.494056" stop-color="#69D3F0"/>
<stop offset="0.499826" stop-color="#A7E4F5"/>
</linearGradient>
<linearGradient id="paint52_linear_39991_117098" x1="18.2937" y1="32.3997" x2="18.2937" y2="38.3438" gradientUnits="userSpaceOnUse">
<stop stop-color="white" stop-opacity="0.3"/>
<stop offset="1" stop-color="white" stop-opacity="0.3"/>
</linearGradient>
</defs>
</svg>
