<svg xmlns="http://www.w3.org/2000/svg" xmlns:xlink="http://www.w3.org/1999/xlink" width="20" height="20" viewBox="0 0 20 20">
  <g clip-path="url(#clip0_26292_93675)">
    <g clip-path="url(#clip1_26292_93675)">
      <path
        d="M10.8652 4.27319L10.9072 4.3064L15.5322 9.90698C15.5553 9.93491 15.5693 9.9726 15.5693 10.0154C15.5693 10.0367 15.5659 10.057 15.5596 10.075L15.5332 10.1228L15.5322 10.1238L10.9072 15.7244C10.8717 15.7674 10.8143 15.7817 10.7646 15.7654L10.7188 15.739C10.6792 15.7039 10.666 15.65 10.6807 15.6023L10.7041 15.5574L14.3613 11.1296C14.8622 10.5231 14.8936 9.66327 14.4551 9.02515L14.3613 8.90112L10.7041 4.47339C10.6707 4.43272 10.6659 4.37749 10.6875 4.33276L10.7188 4.29175C10.7604 4.25488 10.8187 4.2495 10.8652 4.27319ZM14.5459 4.27319L14.5869 4.3064L19.2129 9.90698C19.2358 9.9349 19.2499 9.97268 19.25 10.0154C19.25 10.0367 19.2465 10.057 19.2402 10.075L19.2129 10.1228V10.1238L14.5869 15.7244C14.5515 15.7672 14.4949 15.7816 14.4453 15.7654L14.3984 15.739C14.3591 15.7039 14.3458 15.6499 14.3604 15.6023L14.3848 15.5574L18.042 11.1296C18.5427 10.5231 18.5741 9.66319 18.1357 9.02515L18.042 8.90112L14.3848 4.47339C14.3512 4.43266 14.3464 4.37758 14.3682 4.33276L14.3984 4.29175C14.4402 4.25461 14.4992 4.24929 14.5459 4.27319ZM6.02246 4.0603C6.10975 3.96031 6.25632 3.94796 6.3584 4.02319L6.39941 4.0603L11.2832 9.6687C11.3549 9.75109 11.3644 9.86856 11.3105 9.95972L11.2832 9.99683L6.39941 15.6052C6.31218 15.7053 6.16461 15.7175 6.0625 15.6423L6.02246 15.6052L1.1377 9.99683C1.06605 9.91457 1.05676 9.79693 1.11035 9.70581L1.1377 9.6687L6.02246 4.0603Z"
        fill="url(#paint0_linear_26292_93675)"
        fill-opacity="0.3"
        stroke="url(#paint1_linear_26292_93675)"
        stroke-width="1.5"
      />
    </g>
  </g>
  <defs>
    <linearGradient
      id="paint0_linear_26292_93675"
      x1="10"
      y1="2.7019"
      x2="10"
      y2="16.9631"
      gradientUnits="userSpaceOnUse"
    >
      <stop stop-color="#2099FF" />
      <stop offset="1" stop-color="#0077DB" />
    </linearGradient>
    <linearGradient
      id="paint1_linear_26292_93675"
      x1="10"
      y1="2.7019"
      x2="10"
      y2="16.9631"
      gradientUnits="userSpaceOnUse"
    >
      <stop stop-color="#85C7FF" />
      <stop offset="1" stop-color="#42A9FF" />
    </linearGradient>
    <clipPath id="clip0_26292_93675">
      <rect width="20" height="20" fill="white" />
    </clipPath>
    <clipPath id="clip1_26292_93675">
      <rect width="20" height="20" fill="white" />
    </clipPath>
  </defs>
</svg>
