<svg width="47" height="46" viewBox="0 0 47 46" fill="none" xmlns="http://www.w3.org/2000/svg">
<g style="mix-blend-mode:luminosity">
<path d="M28.4681 4.0426L35.379 21.5039C34.234 21.3812 33.0481 21.2994 31.8622 21.2994C30.1038 21.2994 28.4272 21.4221 26.7506 21.7083L24.1334 15.0428L20.9029 23.2622C16.4865 24.898 12.479 27.4742 9.16664 30.7865L19.717 4.0426H28.4681Z" fill="#053634"/>
<path d="M31.8618 24.0801C33.4567 24.0801 35.0106 24.2028 36.5236 24.4481L40.3676 34.1397C37.7504 32.9947 34.8879 32.3814 31.8618 32.3814C25.0327 32.3814 18.9397 35.6119 14.9731 40.6826H5.36328C10.2704 30.8274 20.2892 24.121 31.8618 24.121V24.0801Z" fill="#00D5B9"/>
<path d="M31.8623 22.9362C33.3092 22.9362 34.7268 23.0336 36.1143 23.2291L36.707 23.319L37.3477 23.4235L37.5869 24.026L41.4307 33.7184L42.4551 36.3014L39.9092 35.1871C37.4375 34.1058 34.7312 33.5251 31.8623 33.525C25.4044 33.525 19.6361 36.5781 15.874 41.3873L15.5303 41.8268H3.5166L4.33984 40.1725C9.26795 30.2756 19.1754 23.4249 30.7178 22.9987V22.9362H31.8623ZM29.2451 2.89905L29.5312 3.6217L36.4424 21.0826L37.1387 22.8424L35.2568 22.6412C34.1404 22.5216 32.9968 22.443 31.8623 22.443C30.1584 22.443 28.547 22.5618 26.9434 22.8356L26.0264 22.9918L25.6855 22.1266L24.1328 18.1715L21.9678 23.6803L21.7803 24.1569L21.2998 24.3346C17.0386 25.9129 13.1717 28.3993 9.97559 31.5953L8.10254 30.3668L18.6533 3.62268L18.9385 2.89905H29.2451Z" stroke="#33395B" stroke-width="2.28744"/>
</g>
</svg>
