<svg width="20" height="20" viewBox="0 0 20 20" fill="none" xmlns="http://www.w3.org/2000/svg">
<mask id="mask0_37576_56844" style="mask-type:luminance" maskUnits="userSpaceOnUse" x="0" y="0" width="20" height="20">
<path d="M19.1654 0.791016H0.832031V19.1243H19.1654V0.791016Z" fill="white"/>
</mask>
<g mask="url(#mask0_37576_56844)">
<path d="M9.9987 19.1243C15.0613 19.1243 19.1654 15.0203 19.1654 9.95768C19.1654 4.89508 15.0613 0.791016 9.9987 0.791016C4.93609 0.791016 0.832031 4.89508 0.832031 9.95768C0.832031 15.0203 4.93609 19.1243 9.9987 19.1243Z" fill="#F63933"/>
</g>
<path d="M7.262 13.108C6.776 13.108 6.323 13.03 5.903 12.874C5.489 12.712 5.129 12.484 4.823 12.19C4.517 11.896 4.277 11.551 4.103 11.155C3.935 10.759 3.851 10.324 3.851 9.85C3.851 9.376 3.935 8.941 4.103 8.545C4.277 8.149 4.517 7.804 4.823 7.51C5.135 7.216 5.498 6.991 5.912 6.835C6.326 6.673 6.779 6.592 7.271 6.592C7.817 6.592 8.309 6.688 8.747 6.88C9.191 7.066 9.563 7.342 9.863 7.708L8.927 8.572C8.711 8.326 8.471 8.143 8.207 8.023C7.943 7.897 7.655 7.834 7.343 7.834C7.049 7.834 6.779 7.882 6.533 7.978C6.287 8.074 6.074 8.212 5.894 8.392C5.714 8.572 5.573 8.785 5.471 9.031C5.375 9.277 5.327 9.55 5.327 9.85C5.327 10.15 5.375 10.423 5.471 10.669C5.573 10.915 5.714 11.128 5.894 11.308C6.074 11.488 6.287 11.626 6.533 11.722C6.779 11.818 7.049 11.866 7.343 11.866C7.655 11.866 7.943 11.806 8.207 11.686C8.471 11.56 8.711 11.371 8.927 11.119L9.863 11.983C9.563 12.349 9.191 12.628 8.747 12.82C8.309 13.012 7.814 13.108 7.262 13.108ZM12.5584 14.08V5.62H13.4584V14.08H12.5584ZM12.8824 13.108C12.3784 13.108 11.8954 13.042 11.4334 12.91C10.9714 12.772 10.5994 12.595 10.3174 12.379L10.8124 11.281C11.0824 11.473 11.4004 11.632 11.7664 11.758C12.1384 11.878 12.5134 11.938 12.8914 11.938C13.1794 11.938 13.4104 11.911 13.5844 11.857C13.7644 11.797 13.8964 11.716 13.9804 11.614C14.0644 11.512 14.1064 11.395 14.1064 11.263C14.1064 11.095 14.0404 10.963 13.9084 10.867C13.7764 10.765 13.6024 10.684 13.3864 10.624C13.1704 10.558 12.9304 10.498 12.6664 10.444C12.4084 10.384 12.1474 10.312 11.8834 10.228C11.6254 10.144 11.3884 10.036 11.1724 9.904C10.9564 9.772 10.7794 9.598 10.6414 9.382C10.5094 9.166 10.4434 8.89 10.4434 8.554C10.4434 8.194 10.5394 7.867 10.7314 7.573C10.9294 7.273 11.2234 7.036 11.6134 6.862C12.0094 6.682 12.5044 6.592 13.0984 6.592C13.4944 6.592 13.8844 6.64 14.2684 6.736C14.6524 6.826 14.9914 6.964 15.2854 7.15L14.8354 8.257C14.5414 8.089 14.2474 7.966 13.9534 7.888C13.6594 7.804 13.3714 7.762 13.0894 7.762C12.8074 7.762 12.5764 7.795 12.3964 7.861C12.2164 7.927 12.0874 8.014 12.0094 8.122C11.9314 8.224 11.8924 8.344 11.8924 8.482C11.8924 8.644 11.9584 8.776 12.0904 8.878C12.2224 8.974 12.3964 9.052 12.6124 9.112C12.8284 9.172 13.0654 9.232 13.3234 9.292C13.5874 9.352 13.8484 9.421 14.1064 9.499C14.3704 9.577 14.6104 9.682 14.8264 9.814C15.0424 9.946 15.2164 10.12 15.3484 10.336C15.4864 10.552 15.5554 10.825 15.5554 11.155C15.5554 11.509 15.4564 11.833 15.2584 12.127C15.0604 12.421 14.7634 12.658 14.3674 12.838C13.9774 13.018 13.4824 13.108 12.8824 13.108Z" fill="white"/>
</svg>
