<svg width="15" height="15" viewBox="0 0 15 15" fill="none" xmlns="http://www.w3.org/2000/svg">
<path d="M14.2222 13.3333C14.2222 13.8243 13.8243 14.2222 13.3333 14.2222H0.888889C0.397972 14.2222 0 13.8243 0 13.3333C0 12.8424 0.397972 12.4444 0.888889 12.4444H13.3333C13.8243 12.4444 14.2222 12.8424 14.2222 13.3333ZM6.48258 10.5174C6.65617 10.691 6.88361 10.7778 7.11111 10.7778C7.33856 10.7778 7.56611 10.691 7.73964 10.5174L10.889 7.36808C11.2362 7.02094 11.2362 6.45814 10.889 6.111C10.5419 5.76386 9.97908 5.76386 9.63194 6.111L8 7.74294V0.888889C8 0.397972 7.60203 0 7.11111 0C6.62019 0 6.22222 0.397972 6.22222 0.888889V7.74294L4.59028 6.111C4.24314 5.76386 3.68033 5.76386 3.33319 6.111C2.98606 6.45814 2.98606 7.02094 3.33319 7.36808L6.48258 10.5174Z" fill="white"/>
</svg>
