<svg width="59" height="28" viewBox="0 0 59 28" fill="none" xmlns="http://www.w3.org/2000/svg">
    <title>Mesh Icon</title>
    <path d="M49.9844 15.4649L52.6924 18.1719L53.1631 18.6426L52.6924 19.1143L45.3398 26.4717L44.8682 26.9434L44.3975 26.4717L37.0449 19.1143L36.5742 18.6426L37.0449 18.1719L39.7529 15.4649L40.2246 14.9942L40.6953 15.4649L44.8682 19.6368L49.042 15.4649L49.5127 14.9942L49.9844 15.4649ZM54.6289 10.8214L57.3369 13.5284L57.8086 14.0001L57.3369 14.4717L54.6289 17.1788L54.1572 17.6495L53.6865 17.1788L50.9785 14.4717L50.5068 14.0001L50.9785 13.5284L53.6865 10.8214L54.1572 10.3506L54.6289 10.8214ZM36.0439 10.8214L38.7578 13.5284L39.2305 13.9991L38.7588 14.4717L36.0508 17.1788L35.5801 17.6485L35.1094 17.1788L32.3945 14.4717L31.9219 14.001L32.3936 13.5284L35.1016 10.8214L35.5723 10.3516L36.0439 10.8214ZM45.3398 10.8214L48.0479 13.5284L48.5195 14.0001L48.0479 14.4717L45.3398 17.1788L44.8691 17.6485L44.3975 17.1788L41.6836 14.4717L41.21 14.0001L41.6836 13.5284L44.3975 10.8214L44.8691 10.3516L45.3398 10.8214ZM45.3398 1.52838L52.6924 8.8858L53.1631 9.35748L52.6924 9.82819L49.9844 12.5352L49.5127 13.0059L49.042 12.5352L44.8682 8.36237L40.6885 12.5352L40.2168 13.0059L39.7461 12.5352L37.0381 9.82819L36.5664 9.35651L37.0381 8.8858L44.3975 1.52838L44.8691 1.0567L45.3398 1.52838Z" fill="#F0B90B" stroke="#33395B" stroke-width="1.33333"/>
<path d="M39.5171 3.50214L30.9941 9.83226L32.5703 6.09758L39.5171 3.50214Z" fill="#E2761B" stroke="#E2761B" stroke-width="1.24048" stroke-linecap="round" stroke-linejoin="round"/>
<path d="M19.8428 3.50214L28.2972 9.89222L26.7982 6.09756L19.8428 3.50214ZM36.4519 18.1753L34.1819 21.6531L39.0387 22.9894L40.435 18.2525L36.4519 18.1753ZM18.9434 18.2525L20.331 22.9894L25.1878 21.6531L22.9179 18.1753L18.9434 18.2525Z" fill="#E4761B" stroke="#E4761B" stroke-width="1.24048" stroke-linecap="round" stroke-linejoin="round"/>
<path d="M24.9139 12.302L23.5605 14.3492L28.3831 14.5633L28.2118 9.38101L24.9139 12.302ZM34.4477 12.302L31.107 9.32104L30.9956 14.5633L35.8096 14.3492L34.4477 12.302ZM25.188 21.6558L28.0833 20.2424L25.5821 18.2894L25.188 21.6558ZM31.2783 20.2424L34.1822 21.6558L33.7795 18.2894L31.2783 20.2424Z" fill="#E4761B" stroke="#E4761B" stroke-width="1.24048" stroke-linecap="round" stroke-linejoin="round"/>
<path d="M34.1816 21.6541L31.2778 20.2407L31.509 22.1336L31.4833 22.9303L34.1816 21.6541ZM25.1875 21.6541L27.8857 22.9303L27.8686 22.1336L28.0827 20.2407L25.1875 21.6541Z" fill="#D7C1B3" stroke="#D7C1B3" stroke-width="1.24048" stroke-linecap="round" stroke-linejoin="round"/>
<path d="M27.9292 17.0354L25.5137 16.3243L27.2183 15.5449L27.9292 17.0354ZM31.4326 17.0354L32.1437 15.5449L33.8568 16.3243L31.4326 17.0354Z" fill="#233447" stroke="#233447" stroke-width="1.24048" stroke-linecap="round" stroke-linejoin="round"/>
<path d="M25.1899 21.656L25.601 18.1783L22.9199 18.2553L25.1899 21.656ZM33.7728 18.1783L34.184 21.656L36.454 18.2553L33.7728 18.1783ZM35.8115 14.3494L30.9974 14.5635L31.4429 17.039L32.1538 15.5486L33.867 16.3281L35.8115 14.3494ZM25.5154 16.3281L27.2285 15.5486L27.9309 17.039L28.3849 14.5635L23.5624 14.3494L25.5154 16.3281Z" fill="#CD6116" stroke="#CD6116" stroke-width="1.24048" stroke-linecap="round" stroke-linejoin="round"/>
<path d="M23.5605 14.3494L25.5821 18.2897L25.5136 16.3281L23.5605 14.3494ZM33.8652 16.3281L33.7795 18.2897L35.8096 14.3494L33.8652 16.3281ZM28.3831 14.5635L27.9291 17.039L28.4944 19.96L28.623 16.1139L28.3831 14.5635ZM30.9956 14.5635L30.7644 16.1053L30.8671 19.96L31.4411 17.039L30.9956 14.5635Z" fill="#E4751F" stroke="#E4751F" stroke-width="1.24048" stroke-linecap="round" stroke-linejoin="round"/>
<path d="M31.4431 17.0378L30.8693 19.9586L31.2804 20.2413L33.7816 18.2883L33.8673 16.3267L31.4431 17.0378ZM25.5156 16.3267L25.5841 18.2883L28.0854 20.2413L28.4965 19.9586L27.9312 17.0378L25.5156 16.3267Z" fill="#F6851B" stroke="#F6851B" stroke-width="1.24048" stroke-linecap="round" stroke-linejoin="round"/>
<path d="M31.4853 22.9319L31.511 22.1352L31.2969 21.9468H28.0676L27.8705 22.1352L27.8877 22.9319L25.1895 21.6555L26.1317 22.4265L28.0419 23.7542H31.3225L33.2413 22.4265L34.1836 21.6555L31.4853 22.9319Z" fill="#C0AD9E" stroke="#C0AD9E" stroke-width="1.24048" stroke-linecap="round" stroke-linejoin="round"/>
<path d="M31.2783 20.2422L30.8672 19.9595H28.4944L28.0833 20.2422L27.8691 22.1352L28.0662 21.9468H31.2954L31.5096 22.1352L31.2783 20.2422Z" fill="#161616" stroke="#161616" stroke-width="1.24048" stroke-linecap="round" stroke-linejoin="round"/>
<path d="M39.8783 10.2435L40.6065 6.74863L39.5186 3.5022L31.2783 9.61818L34.4476 12.2993L38.9276 13.6099L39.9213 12.4535L39.4929 12.1451L40.1782 11.5198L39.6471 11.1086L40.3324 10.5861L39.8783 10.2435ZM18.7637 6.74863L19.4918 10.2435L19.0292 10.5861L19.7145 11.1086L19.192 11.5198L19.8772 12.1451L19.4489 12.4535L20.434 13.6099L24.9139 12.2993L28.0833 9.61818L19.843 3.5022L18.7637 6.74863Z" fill="#763D16" stroke="#763D16" stroke-width="1.24048" stroke-linecap="round" stroke-linejoin="round"/>
<path d="M38.9274 13.6096L34.4474 12.299L35.8095 14.3462L33.7793 18.2865L36.4519 18.2522H40.435L38.9274 13.6096ZM24.9137 12.299L20.4338 13.6096L18.9434 18.2522H22.9179L25.5819 18.2865L23.5603 14.3462L24.9137 12.299ZM30.9955 14.5603L31.2781 9.61789L32.5801 6.09735H26.7982L28.0831 9.61789L28.3829 14.5603L28.4856 16.1193L28.4942 19.9568H30.867L30.8841 16.1193L30.9955 14.5603Z" fill="#F6851B" stroke="#F6851B" stroke-width="1.24048" stroke-linecap="round" stroke-linejoin="round"/>
<mask id="path-14-outside-1_33748_125837" maskUnits="userSpaceOnUse" x="16.7637" y="1.50214" width="26" height="24" fill="black">
<rect fill="white" x="16.7637" y="1.50214" width="26" height="24"/>
<path d="M39.5168 3.50214L30.9938 9.83226L32.5699 6.09758L39.5168 3.50214Z"/>
<path d="M19.8421 3.50214L28.2965 9.89222L26.7975 6.09756L19.8421 3.50214ZM36.4512 18.1753L34.1812 21.6531L39.038 22.9894L40.4343 18.2525L36.4512 18.1753ZM18.9426 18.2525L20.3303 22.9894L25.1871 21.6531L22.9172 18.1753L18.9426 18.2525Z"/>
<path d="M24.9132 12.3019L23.5598 14.3492L28.3824 14.5633L28.2111 9.38099L24.9132 12.3019ZM34.4469 12.3019L31.1063 9.32103L30.9949 14.5633L35.8089 14.3492L34.4469 12.3019ZM25.1873 21.6558L28.0826 20.2424L25.5814 18.2894L25.1873 21.6558ZM31.2776 20.2424L34.1815 21.6558L33.7788 18.2894L31.2776 20.2424Z"/>
<path d="M34.1812 21.6531L31.278 20.2406L31.5092 22.1336L31.4835 22.9303L34.1812 21.6531ZM25.1871 21.6531L27.8859 22.9303L27.8688 22.1336L28.0829 20.2406L25.1871 21.6531Z"/>
<path d="M27.9292 17.0353L25.5137 16.3243L27.2183 15.5449L27.9292 17.0353ZM31.4326 17.0353L32.1437 15.5449L33.8568 16.3243L31.4326 17.0353Z"/>
<path d="M25.1873 21.6558L25.5975 18.1783L22.9164 18.2554L25.1873 21.6558ZM33.7692 18.1783L34.1815 21.6558L36.4504 18.2554L33.7692 18.1783ZM35.8089 14.3492L30.9949 14.5633L31.4393 17.0391L32.1503 15.5486L33.8635 16.3281L35.8089 14.3492ZM25.5118 16.3281L27.225 15.5486L27.9274 17.0391L28.3824 14.5633L23.5598 14.3492L25.5118 16.3281Z"/>
<path d="M23.5598 14.3492L25.5814 18.2894L25.5118 16.3281L23.5598 14.3492ZM33.8635 16.3281L33.7788 18.2894L35.8089 14.3492L33.8635 16.3281ZM28.3824 14.5633L27.9274 17.0391L28.4937 19.96L28.6223 16.1139L28.3824 14.5633ZM30.9949 14.5633L30.7637 16.1053L30.8664 19.96L31.4393 17.0391L30.9949 14.5633Z"/>
<path d="M31.4433 17.0378L30.8695 19.9586L31.2806 20.2413L33.7817 18.2883L33.8675 16.3267L31.4433 17.0378ZM25.5158 16.3267L25.5843 18.2883L28.0855 20.2413L28.4967 19.9586L27.9314 17.0378L25.5158 16.3267Z"/>
<path d="M31.4856 22.9319L31.5113 22.1352L31.2972 21.9468H28.0679L27.8709 22.1352L27.888 22.9319L25.1898 21.6555L26.132 22.4265L28.0422 23.7542H31.3229L33.2417 22.4265L34.1839 21.6555L31.4856 22.9319Z"/>
<path d="M31.2794 20.2422L30.8683 19.9595H28.4955L28.0844 20.2422L27.8709 22.1352L28.0679 21.9468H31.2972L31.5113 22.1352L31.2794 20.2422Z"/>
<path d="M39.8783 10.2434L40.6065 6.74857L39.5186 3.50214L31.2783 9.61812L34.4476 12.2992L38.9276 13.6098L39.9213 12.4534L39.4929 12.145L40.1782 11.5197L39.6471 11.1086L40.3323 10.586L39.8783 10.2434ZM18.7637 6.74857L19.4918 10.2434L19.0292 10.586L19.7145 11.1086L19.192 11.5197L19.8772 12.145L19.4489 12.4534L20.434 13.6098L24.9139 12.2992L28.0833 9.61812L19.8421 3.50214L18.7637 6.74857Z"/>
<path d="M38.9276 13.6098L34.4476 12.2992L35.8087 14.3462L33.7786 18.2864L36.4512 18.2522L40.4343 18.2525L38.9276 13.6098ZM24.9139 12.2992L20.434 13.6098L18.9426 18.2525L22.9172 18.2522L25.5811 18.2864L23.5596 14.3462L24.9139 12.2992ZM30.9948 14.5603L31.2783 9.61812L32.5794 6.09731L26.7975 6.09756L28.0833 9.61812L28.3822 14.5603L28.4849 16.1193L28.4935 19.9567H30.8663L30.8834 16.1193L30.9948 14.5603Z"/>
</mask>
<path d="M39.5168 3.50214L30.9938 9.83226L32.5699 6.09758L39.5168 3.50214Z" fill="#E2761B"/>
<path d="M19.8421 3.50214L28.2965 9.89222L26.7975 6.09756L19.8421 3.50214ZM36.4512 18.1753L34.1812 21.6531L39.038 22.9894L40.4343 18.2525L36.4512 18.1753ZM18.9426 18.2525L20.3303 22.9894L25.1871 21.6531L22.9172 18.1753L18.9426 18.2525Z" fill="#E4761B"/>
<path d="M24.9132 12.3019L23.5598 14.3492L28.3824 14.5633L28.2111 9.38099L24.9132 12.3019ZM34.4469 12.3019L31.1063 9.32103L30.9949 14.5633L35.8089 14.3492L34.4469 12.3019ZM25.1873 21.6558L28.0826 20.2424L25.5814 18.2894L25.1873 21.6558ZM31.2776 20.2424L34.1815 21.6558L33.7788 18.2894L31.2776 20.2424Z" fill="#E4761B"/>
<path d="M34.1812 21.6531L31.278 20.2406L31.5092 22.1336L31.4835 22.9303L34.1812 21.6531ZM25.1871 21.6531L27.8859 22.9303L27.8688 22.1336L28.0829 20.2406L25.1871 21.6531Z" fill="#D7C1B3"/>
<path d="M27.9292 17.0353L25.5137 16.3243L27.2183 15.5449L27.9292 17.0353ZM31.4326 17.0353L32.1437 15.5449L33.8568 16.3243L31.4326 17.0353Z" fill="#233447"/>
<path d="M25.1873 21.6558L25.5975 18.1783L22.9164 18.2554L25.1873 21.6558ZM33.7692 18.1783L34.1815 21.6558L36.4504 18.2554L33.7692 18.1783ZM35.8089 14.3492L30.9949 14.5633L31.4393 17.0391L32.1503 15.5486L33.8635 16.3281L35.8089 14.3492ZM25.5118 16.3281L27.225 15.5486L27.9274 17.0391L28.3824 14.5633L23.5598 14.3492L25.5118 16.3281Z" fill="#CD6116"/>
<path d="M23.5598 14.3492L25.5814 18.2894L25.5118 16.3281L23.5598 14.3492ZM33.8635 16.3281L33.7788 18.2894L35.8089 14.3492L33.8635 16.3281ZM28.3824 14.5633L27.9274 17.0391L28.4937 19.96L28.6223 16.1139L28.3824 14.5633ZM30.9949 14.5633L30.7637 16.1053L30.8664 19.96L31.4393 17.0391L30.9949 14.5633Z" fill="#E4751F"/>
<path d="M31.4433 17.0378L30.8695 19.9586L31.2806 20.2413L33.7817 18.2883L33.8675 16.3267L31.4433 17.0378ZM25.5158 16.3267L25.5843 18.2883L28.0855 20.2413L28.4967 19.9586L27.9314 17.0378L25.5158 16.3267Z" fill="#F6851B"/>
<path d="M31.4856 22.9319L31.5113 22.1352L31.2972 21.9468H28.0679L27.8709 22.1352L27.888 22.9319L25.1898 21.6555L26.132 22.4265L28.0422 23.7542H31.3229L33.2417 22.4265L34.1839 21.6555L31.4856 22.9319Z" fill="#C0AD9E"/>
<path d="M31.2794 20.2422L30.8683 19.9595H28.4955L28.0844 20.2422L27.8709 22.1352L28.0679 21.9468H31.2972L31.5113 22.1352L31.2794 20.2422Z" fill="#161616"/>
<path d="M39.8783 10.2434L40.6065 6.74857L39.5186 3.50214L31.2783 9.61812L34.4476 12.2992L38.9276 13.6098L39.9213 12.4534L39.4929 12.145L40.1782 11.5197L39.6471 11.1086L40.3323 10.586L39.8783 10.2434ZM18.7637 6.74857L19.4918 10.2434L19.0292 10.586L19.7145 11.1086L19.192 11.5197L19.8772 12.145L19.4489 12.4534L20.434 13.6098L24.9139 12.2992L28.0833 9.61812L19.8421 3.50214L18.7637 6.74857Z" fill="#763D16"/>
<path d="M38.9276 13.6098L34.4476 12.2992L35.8087 14.3462L33.7786 18.2864L36.4512 18.2522L40.4343 18.2525L38.9276 13.6098ZM24.9139 12.2992L20.434 13.6098L18.9426 18.2525L22.9172 18.2522L25.5811 18.2864L23.5596 14.3462L24.9139 12.2992ZM30.9948 14.5603L31.2783 9.61812L32.5794 6.09731L26.7975 6.09756L28.0833 9.61812L28.3822 14.5603L28.4849 16.1193L28.4935 19.9567H30.8663L30.8834 16.1193L30.9948 14.5603Z" fill="#F6851B"/>
<path d="M23.5598 14.3492L23.5873 13.7296C23.3325 13.7183 23.0967 13.8642 22.9931 14.0973C22.8894 14.3304 22.9391 14.6032 23.1183 14.7848L23.5598 14.3492ZM28.3824 14.5633L28.9924 14.6754C29.0248 14.4991 28.9793 14.3173 28.8676 14.177C28.756 14.0367 28.589 13.9516 28.4099 13.9437L28.3824 14.5633ZM30.9949 14.5633L30.9674 13.9437C30.7887 13.9516 30.6221 14.0363 30.5105 14.176C30.3988 14.3158 30.3528 14.4969 30.3844 14.6729L30.9949 14.5633ZM35.8089 14.3492L36.2512 14.784C36.4299 14.6022 36.4792 14.3296 36.3754 14.0968C36.2717 13.8639 36.036 13.7183 35.7813 13.7296L35.8089 14.3492ZM30.8289 17.1486C30.8894 17.4858 31.2118 17.7101 31.5489 17.6495C31.8861 17.589 32.1103 17.2666 32.0498 16.9295L31.4393 17.0391L30.8289 17.1486ZM33.4212 15.8933C33.181 16.1376 33.1844 16.5303 33.4287 16.7704C33.673 17.0106 34.0657 17.0072 34.3058 16.7629L33.8635 16.3281L33.4212 15.8933ZM25.0702 16.7637C25.3108 17.0076 25.7035 17.0103 25.9474 16.7697C26.1912 16.5292 26.1939 16.1364 25.9534 15.8926L25.5118 16.3281L25.0702 16.7637ZM27.3173 16.9269C27.2554 17.2638 27.4783 17.5872 27.8153 17.6491C28.1522 17.711 28.4755 17.4881 28.5374 17.1512L27.9274 17.0391L27.3173 16.9269ZM31.1015 22.6008C31.3587 22.8272 31.7506 22.8022 31.9769 22.545C32.2032 22.2879 32.1782 21.8959 31.9211 21.6696L31.5113 22.1352L31.1015 22.6008ZM31.2972 21.9468L31.707 21.4812C31.5937 21.3815 31.4481 21.3266 31.2972 21.3266V21.9468ZM28.0679 21.9468V21.3266C27.9082 21.3266 27.7546 21.3882 27.6392 21.4986L28.0679 21.9468ZM27.4422 21.687C27.1946 21.9238 27.1859 22.3164 27.4227 22.5639C27.6594 22.8115 28.0521 22.8202 28.2996 22.5835L27.8709 22.1352L27.4422 21.687ZM34.6218 11.7039C34.293 11.6077 33.9485 11.7963 33.8523 12.1251C33.7561 12.4538 33.9447 12.7983 34.2735 12.8945L34.4476 12.2992L34.6218 11.7039ZM38.7535 14.2051C39.0822 14.3013 39.4267 14.1127 39.5229 13.784C39.6191 13.4552 39.4305 13.1107 39.1018 13.0145L38.9276 13.6098L38.7535 14.2051ZM20.2599 13.0145C19.9311 13.1107 19.7425 13.4552 19.8387 13.784C19.9349 14.1127 20.2794 14.3013 20.6082 14.2051L20.434 13.6098L20.2599 13.0145ZM25.0881 12.8945C25.4168 12.7983 25.6054 12.4538 25.5092 12.1251C25.413 11.7963 25.0685 11.6077 24.7398 11.7039L24.9139 12.2992L25.0881 12.8945ZM23.5598 14.3492L23.5323 14.9689L28.3549 15.183L28.3824 14.5633L28.4099 13.9437L23.5873 13.7296L23.5598 14.3492ZM30.9949 14.5633L31.0225 15.183L35.8364 14.9688L35.8089 14.3492L35.7813 13.7296L30.9674 13.9437L30.9949 14.5633ZM30.9949 14.5633L30.3844 14.6729L30.8289 17.1486L31.4393 17.0391L32.0498 16.9295L31.6054 14.4537L30.9949 14.5633ZM33.8635 16.3281L34.3058 16.7629L36.2512 14.784L35.8089 14.3492L35.3666 13.9144L33.4212 15.8933L33.8635 16.3281ZM27.9274 17.0391L28.5374 17.1512L28.9924 14.6754L28.3824 14.5633L27.7724 14.4512L27.3173 16.9269L27.9274 17.0391ZM23.5598 14.3492L23.1183 14.7848L25.0702 16.7637L25.5118 16.3281L25.9534 15.8926L24.0014 13.9137L23.5598 14.3492ZM31.5113 22.1352L31.9211 21.6696L31.707 21.4812L31.2972 21.9468L30.8874 22.4124L31.1015 22.6008L31.5113 22.1352ZM31.2972 21.9468V21.3266H28.0679V21.9468V22.5671H31.2972V21.9468ZM28.0679 21.9468L27.6392 21.4986L27.4422 21.687L27.8709 22.1352L28.2996 22.5835L28.4966 22.395L28.0679 21.9468ZM34.4476 12.2992L34.2735 12.8945L38.7535 14.2051L38.9276 13.6098L39.1018 13.0145L34.6218 11.7039L34.4476 12.2992ZM20.434 13.6098L20.6082 14.2051L25.0881 12.8945L24.9139 12.2992L24.7398 11.7039L20.2599 13.0145L20.434 13.6098ZM39.5168 3.50214L40.2564 4.498C40.7525 4.12956 40.9017 3.4522 40.6065 2.90939C40.3112 2.36658 39.6615 2.12384 39.0826 2.34011L39.5168 3.50214ZM30.9938 9.83226L29.8509 9.34994C29.6334 9.86529 29.7877 10.4625 30.2277 10.8079C30.6676 11.1534 31.2844 11.1616 31.7334 10.8281L30.9938 9.83226ZM32.5699 6.09758L32.1358 4.93555C31.8161 5.05498 31.5598 5.30084 31.4271 5.61525L32.5699 6.09758ZM19.8421 3.50214L20.2757 2.33993C19.9602 2.22217 19.6103 2.23781 19.3064 2.38325C19.0026 2.52869 18.771 2.79142 18.6648 3.11109L19.8421 3.50214ZM28.2965 9.89222L27.5485 10.8818C27.9921 11.2171 28.6045 11.2162 29.0471 10.8798C29.4898 10.5434 29.6545 9.95355 29.4502 9.43646L28.2965 9.89222ZM36.4512 18.1753L36.4752 16.9351C36.0477 16.9268 35.6461 17.1392 35.4124 17.4973L36.4512 18.1753ZM39.038 22.9894L38.7089 24.1854C39.361 24.3648 40.0366 23.9888 40.2278 23.3401L39.038 22.9894ZM40.4343 18.2525L41.6241 18.6032C41.6949 18.3632 41.6914 18.1075 41.6142 17.8696L40.4343 18.2525ZM18.9426 18.2525L17.7616 17.8731C17.6857 18.1094 17.6824 18.363 17.7522 18.6012L18.9426 18.2525ZM20.3303 22.9894L19.1398 23.3381C19.3302 23.9879 20.0065 24.365 20.6594 24.1854L20.3303 22.9894ZM22.9172 18.1753L23.956 17.4973C23.7223 17.1392 23.3206 16.9268 22.8931 16.9351L22.9172 18.1753ZM24.9132 12.3019L24.0907 11.3733C24.0096 11.4452 23.9382 11.5274 23.8784 11.6179L24.9132 12.3019ZM23.5598 14.3492L22.525 13.6651C22.2779 14.0389 22.2516 14.5168 22.4561 14.9155L23.5598 14.3492ZM28.3824 14.5633L27.1426 14.6043C27.1442 14.6541 27.1489 14.7037 27.1565 14.753L28.3824 14.5633ZM28.2111 9.38099L29.4509 9.34001C29.435 8.8596 29.143 8.4316 28.7015 8.24157C28.26 8.05154 27.7484 8.13368 27.3886 8.45238L28.2111 9.38099ZM34.4469 12.3019L35.4798 11.6149C35.4212 11.5269 35.3517 11.4467 35.2729 11.3764L34.4469 12.3019ZM31.1063 9.32103L31.9322 8.39546C31.571 8.07311 31.0552 7.99039 30.6113 8.1836C30.1674 8.37681 29.8764 8.81063 29.8661 9.29467L31.1063 9.32103ZM30.9949 14.5633L32.2217 14.7473C32.2295 14.6951 32.234 14.6424 32.2351 14.5897L30.9949 14.5633ZM35.8089 14.3492L36.9116 14.9174C37.1177 14.5173 37.091 14.0369 36.8417 13.6621L35.8089 14.3492ZM25.1873 21.6558L24.1558 22.3447C24.5005 22.8609 25.1737 23.0429 25.7315 22.7705L25.1873 21.6558ZM28.0826 20.2424L28.6268 21.3571C29.0112 21.1695 29.2717 20.7971 29.3163 20.3717C29.3609 19.9463 29.1832 19.5279 28.846 19.2647L28.0826 20.2424ZM31.2776 20.2424L30.5142 19.2647C30.1769 19.5281 29.9991 19.9467 30.044 20.3724C30.0888 20.798 30.3499 21.1705 30.7347 21.3578L31.2776 20.2424ZM34.1815 21.6558L33.6386 22.7712C34.1964 23.0427 34.869 22.8604 35.2134 22.3443L34.1815 21.6558ZM31.278 20.2406L31.8207 19.1252C31.412 18.9264 30.9274 18.9669 30.5574 19.2309C30.1875 19.4948 29.9915 19.94 30.0466 20.391L31.278 20.2406ZM31.5092 22.1336L32.749 22.1736C32.7511 22.11 32.7482 22.0464 32.7405 21.9832L31.5092 22.1336ZM31.4835 22.9303L30.2437 22.8903C30.2297 23.3224 30.4417 23.7305 30.8032 23.9676C31.1647 24.2046 31.6236 24.2364 32.0143 24.0514L31.4835 22.9303ZM27.8859 22.9303L27.3553 24.0515C27.7439 24.2354 28.2 24.205 28.5607 23.9712C28.9214 23.7373 29.1353 23.3334 29.1261 22.9036L27.8859 22.9303ZM27.8688 22.1336L26.6362 21.9942C26.6299 22.0493 26.6274 22.1048 26.6286 22.1603L27.8688 22.1336ZM28.0829 20.2406L29.3155 20.3801C29.3664 19.9303 29.1682 19.4884 28.7984 19.2273C28.4286 18.9662 27.946 18.9273 27.5391 19.1257L28.0829 20.2406ZM27.9292 17.0353L27.5789 18.2253C28.0486 18.3636 28.5556 18.2127 28.8732 17.8401C29.1908 17.4676 29.2596 16.9431 29.0489 16.5012L27.9292 17.0353ZM25.5137 16.3243L24.9978 15.1961C24.5271 15.4114 24.2395 15.8963 24.2763 16.4126C24.3132 16.929 24.6668 17.3681 25.1634 17.5143L25.5137 16.3243ZM27.2183 15.5449L28.3379 15.0108C28.0463 14.3995 27.3184 14.1351 26.7024 14.4167L27.2183 15.5449ZM31.4326 17.0353L30.313 16.5012C30.1023 16.9429 30.1709 17.4671 30.4882 17.8397C30.8055 18.2122 31.3122 18.3634 31.7818 18.2257L31.4326 17.0353ZM32.1437 15.5449L32.6574 14.4158C32.0418 14.1357 31.3153 14.4003 31.0241 15.0108L32.1437 15.5449ZM33.8568 16.3243L34.2059 17.5146C34.7032 17.3687 35.0575 16.929 35.0941 16.4121C35.1308 15.8951 34.8422 15.4098 34.3705 15.1952L33.8568 16.3243ZM25.5975 18.1783L26.8294 18.3236C26.8716 17.9656 26.756 17.6069 26.5126 17.3409C26.2693 17.0749 25.9222 16.928 25.5618 16.9383L25.5975 18.1783ZM22.9164 18.2554L22.8807 17.0154C22.4297 17.0283 22.0212 17.2853 21.8141 17.6862C21.6071 18.0872 21.6342 18.569 21.8848 18.9443L22.9164 18.2554ZM33.7692 18.1783L33.8048 16.9383C33.4443 16.928 33.0972 17.075 32.8538 17.3412C32.6104 17.6073 32.4949 17.9662 32.5374 18.3244L33.7692 18.1783ZM36.4504 18.2554L37.4823 18.9439C37.7327 18.5685 37.7596 18.0869 37.5525 17.686C37.3454 17.2851 36.937 17.0283 36.486 17.0154L36.4504 18.2554ZM31.4393 17.0391L30.3197 16.505C30.2749 16.5989 30.2421 16.6982 30.222 16.8003L31.4393 17.0391ZM32.1503 15.5486L32.664 14.4195C32.0484 14.1394 31.3218 14.4041 31.0306 15.0146L32.1503 15.5486ZM33.8635 16.3281L35.1028 16.3816C35.1246 15.8764 34.8375 15.4085 34.3772 15.199L33.8635 16.3281ZM25.5118 16.3281L24.9981 15.199C24.5409 15.407 24.2543 15.8702 24.2721 16.3721L25.5118 16.3281ZM27.225 15.5486L28.3471 15.0198C28.0578 14.4059 27.3289 14.1385 26.7112 14.4195L27.225 15.5486ZM27.9274 17.0391L29.1452 16.8029C29.1256 16.7018 29.0934 16.6034 29.0495 16.5102L27.9274 17.0391ZM28.4937 19.96L27.2759 20.1962C27.3961 20.8158 27.9624 21.2465 28.5917 21.1966C29.221 21.1468 29.7125 20.6323 29.7335 20.0014L28.4937 19.96ZM28.6223 16.1139L29.862 16.1553C29.8646 16.078 29.86 16.0007 29.8482 15.9243L28.6223 16.1139ZM30.7637 16.1053L29.5369 15.9214C29.5262 15.9932 29.5217 16.0658 29.5237 16.1384L30.7637 16.1053ZM30.8664 19.96L29.6264 19.9931C29.6432 20.6252 30.1328 21.1434 30.7629 21.1962C31.393 21.2489 31.962 20.8193 32.0837 20.1988L30.8664 19.96ZM31.4433 17.0378L31.0942 15.8474C30.65 15.9777 30.3153 16.3444 30.2261 16.7986L31.4433 17.0378ZM30.8695 19.9586L29.6522 19.7195C29.5569 20.2048 29.759 20.7004 30.1666 20.9807L30.8695 19.9586ZM31.2806 20.2413L30.5777 21.2634C31.0238 21.5702 31.6173 21.5522 32.044 21.219L31.2806 20.2413ZM33.7817 18.2883L34.5452 19.266C34.8313 19.0426 35.0052 18.7051 35.021 18.3424L33.7817 18.2883ZM33.8675 16.3267L35.1068 16.3809C35.1242 15.9809 34.9476 15.5971 34.6325 15.3502C34.3174 15.1033 33.9025 15.0237 33.5183 15.1364L33.8675 16.3267ZM25.5158 16.3267L25.8661 15.1367C25.4837 15.0241 25.0705 15.1022 24.7555 15.3465C24.4405 15.5908 24.2622 15.9716 24.2761 16.37L25.5158 16.3267ZM25.5843 18.2883L24.3446 18.3316C24.3574 18.6982 24.5318 19.0403 24.8209 19.266L25.5843 18.2883ZM28.0855 20.2413L27.3221 21.219C27.7488 21.5522 28.3423 21.5702 28.7884 21.2634L28.0855 20.2413ZM28.4967 19.9586L29.1995 20.9807C29.6061 20.7012 29.8083 20.2073 29.7145 19.7229L28.4967 19.9586ZM27.9314 17.0378L29.1492 16.802C29.0611 16.3468 28.7265 15.9787 28.2816 15.8478L27.9314 17.0378ZM31.4856 22.9319L30.2458 22.8919C30.2319 23.3239 30.4438 23.732 30.8052 23.9691C31.1666 24.2062 31.6253 24.2381 32.0161 24.0532L31.4856 22.9319ZM31.5113 22.1352L32.7512 22.1752C32.7532 22.1115 32.7503 22.0477 32.7426 21.9844L31.5113 22.1352ZM27.8709 22.1352L26.6382 21.9963C26.632 22.0512 26.6295 22.1066 26.6307 22.1619L27.8709 22.1352ZM27.888 22.9319L27.3576 24.0532C27.7462 24.237 28.2022 24.2066 28.5629 23.9727C28.9236 23.7389 29.1375 23.335 29.1282 22.9052L27.888 22.9319ZM25.1898 21.6555L25.7202 20.5342C25.1537 20.2662 24.4762 20.4629 24.1413 20.9926C23.8064 21.5224 23.9192 22.2187 24.4043 22.6156L25.1898 21.6555ZM26.132 22.4265L25.3465 23.3866C25.3716 23.4071 25.3974 23.4266 25.4241 23.4451L26.132 22.4265ZM28.0422 23.7542L27.3342 24.7728C27.5421 24.9173 27.7891 24.9947 28.0422 24.9947V23.7542ZM31.3229 23.7542V24.9947C31.5751 24.9947 31.8213 24.9178 32.0287 24.7743L31.3229 23.7542ZM33.2417 22.4265L33.9475 23.4466C33.9749 23.4277 34.0014 23.4076 34.0272 23.3866L33.2417 22.4265ZM34.1839 21.6555L34.9695 22.6156C35.4545 22.2187 35.5674 21.5224 35.2324 20.9926C34.8975 20.4629 34.2201 20.2662 33.6535 20.5342L34.1839 21.6555ZM31.2794 20.2422L32.5107 20.0914C32.4675 19.7387 32.2751 19.4215 31.9823 19.2201L31.2794 20.2422ZM30.8683 19.9595L31.5712 18.9374C31.3644 18.7952 31.1193 18.719 30.8683 18.719V19.9595ZM28.4955 19.9595V18.719C28.2445 18.719 27.9995 18.7952 27.7927 18.9374L28.4955 19.9595ZM28.0844 20.2422L27.3815 19.2201C27.0853 19.4238 26.892 19.746 26.8517 20.1032L28.0844 20.2422ZM39.8783 10.2434L38.6639 9.9904C38.566 10.4603 38.748 10.9445 39.1311 11.2336L39.8783 10.2434ZM40.6065 6.74857L41.8209 7.0016C41.8658 6.7863 41.8526 6.56294 41.7827 6.35442L40.6065 6.74857ZM39.5186 3.50214L40.6948 3.10798C40.5686 2.73127 40.2695 2.43782 39.8905 2.31871C39.5115 2.1996 39.0983 2.26925 38.7793 2.50603L39.5186 3.50214ZM31.2783 9.61812L30.1147 9.18813C30.0721 9.30341 30.0469 9.42438 30.0399 9.54707L31.2783 9.61812ZM34.4476 12.2992L35.4806 11.6123C35.4159 11.5151 35.3379 11.4275 35.2488 11.3522L34.4476 12.2992ZM38.9276 13.6098L37.9867 12.8014C37.7047 13.1296 37.6141 13.5811 37.7477 13.9927L38.9276 13.6098ZM39.9213 12.4534L40.8621 13.2618C41.0886 12.9983 41.1941 12.6518 41.153 12.3067C41.112 11.9617 40.928 11.6497 40.646 11.4467L39.9213 12.4534ZM39.4929 12.145L38.6568 11.2287C38.3807 11.4806 38.2329 11.8436 38.2545 12.2168C38.2761 12.5899 38.4648 12.9334 38.7681 13.1518L39.4929 12.145ZM40.1782 11.5197L41.0143 12.436C41.2848 12.1892 41.4324 11.8355 41.4176 11.4696C41.4028 11.1037 41.2271 10.763 40.9376 10.5389L40.1782 11.5197ZM39.6471 11.1086L38.8949 10.1221C38.5885 10.3558 38.4081 10.7186 38.4066 11.104C38.4052 11.4894 38.583 11.8535 38.8877 12.0894L39.6471 11.1086ZM40.3323 10.586L41.0845 11.5725C41.3931 11.3372 41.5738 10.971 41.5728 10.5829C41.5719 10.1949 41.3893 9.82963 41.0796 9.59587L40.3323 10.586ZM18.7637 6.74857L17.5864 6.35752C17.5175 6.56517 17.5046 6.78736 17.5493 7.00157L18.7637 6.74857ZM19.4918 10.2434L20.2301 11.2402C20.619 10.9522 20.8049 10.4642 20.7062 9.99042L19.4918 10.2434ZM19.0292 10.586L18.2909 9.58923C17.9774 9.82138 17.7915 10.1874 17.7888 10.5774C17.786 10.9674 17.9669 11.336 18.2771 11.5725L19.0292 10.586ZM19.7145 11.1086L20.4816 12.0834C20.7831 11.8462 20.9578 11.4828 20.9549 11.0991C20.952 10.7155 20.7717 10.3548 20.4666 10.1221L19.7145 11.1086ZM19.192 11.5197L18.4249 10.5449C18.1384 10.7703 17.9656 11.1102 17.9523 11.4745C17.939 11.8387 18.0866 12.1904 18.3558 12.436L19.192 11.5197ZM19.8772 12.145L20.6021 13.1517C20.9054 12.9333 21.094 12.5898 21.1156 12.2167C21.1372 11.8436 20.9895 11.4806 20.7134 11.2287L19.8772 12.145ZM19.4489 12.4534L18.7241 11.4467C18.4429 11.6492 18.2592 11.9601 18.2175 12.3041C18.1758 12.6482 18.2799 12.994 18.5046 13.2578L19.4489 12.4534ZM20.434 13.6098L21.6151 13.9892C21.7464 13.5802 21.6569 13.1324 21.3783 12.8054L20.434 13.6098ZM24.9139 12.2992L24.1128 11.3521C24.0229 11.4282 23.9443 11.5166 23.8794 11.6147L24.9139 12.2992ZM28.0833 9.61812L29.3215 9.54323C29.3142 9.42343 29.2896 9.30531 29.2485 9.19256L28.0833 9.61812ZM35.8087 14.3462L36.9115 14.9143C37.1176 14.5143 37.0909 14.034 36.8417 13.6593L35.8087 14.3462ZM33.7786 18.2864L32.6758 17.7183C32.4764 18.1053 32.4945 18.5686 32.7236 18.939C32.9526 19.3093 33.3591 19.5324 33.7945 19.5268L33.7786 18.2864ZM36.4512 18.2522L36.4513 17.0117C36.4459 17.0117 36.4406 17.0117 36.4353 17.0118L36.4512 18.2522ZM22.9172 18.2522L22.9331 17.0118C22.9278 17.0117 22.9224 17.0117 22.9171 17.0117L22.9172 18.2522ZM25.5811 18.2864L25.5652 19.5268C26.0002 19.5324 26.4064 19.3097 26.6356 18.9399C26.8647 18.5701 26.8834 18.1073 26.6849 17.7202L25.5811 18.2864ZM23.5596 14.3462L22.5251 13.6617C22.2778 14.0355 22.2513 14.5136 22.4559 14.9124L23.5596 14.3462ZM30.9948 14.5603L32.2321 14.6487C32.2325 14.6429 32.2329 14.6371 32.2332 14.6313L30.9948 14.5603ZM32.5794 6.09731L33.743 6.5273C33.8836 6.14664 33.8292 5.72126 33.5973 5.38827C33.3653 5.05528 32.9851 4.8568 32.5793 4.85682L32.5794 6.09731ZM28.3822 14.5603L27.1439 14.6351L27.1444 14.6418L28.3822 14.5603ZM28.4849 16.1193L29.7254 16.1165C29.7253 16.0902 29.7245 16.064 29.7227 16.0377L28.4849 16.1193ZM28.4935 19.9567L27.253 19.9595C27.2545 20.6435 27.8095 21.1972 28.4935 21.1972V19.9567ZM30.8663 19.9567V21.1972C31.5492 21.1972 32.1037 20.6452 32.1068 19.9623L30.8663 19.9567ZM30.8834 16.1193L29.6461 16.0309C29.6441 16.0585 29.6431 16.0861 29.6429 16.1138L30.8834 16.1193ZM39.5168 3.50214L38.7771 2.50628L30.2541 8.8364L30.9938 9.83226L31.7334 10.8281L40.2564 4.498L39.5168 3.50214ZM30.9938 9.83226L32.1367 10.3146L33.7128 6.57991L32.5699 6.09758L31.4271 5.61525L29.8509 9.34994L30.9938 9.83226ZM32.5699 6.09758L33.0041 7.25961L39.9509 4.66417L39.5168 3.50214L39.0826 2.34011L32.1358 4.93555L32.5699 6.09758ZM19.8421 3.50214L19.0941 4.49175L27.5485 10.8818L28.2965 9.89222L29.0445 8.90261L20.59 2.51252L19.8421 3.50214ZM28.2965 9.89222L29.4502 9.43646L27.9512 5.6418L26.7975 6.09756L25.6438 6.55332L27.1428 10.348L28.2965 9.89222ZM26.7975 6.09756L27.2312 4.93536L20.2757 2.33993L19.8421 3.50214L19.4084 4.66434L26.3638 7.25977L26.7975 6.09756ZM36.4512 18.1753L35.4124 17.4973L33.1424 20.9751L34.1812 21.6531L35.22 22.3311L37.49 18.8533L36.4512 18.1753ZM34.1812 21.6531L33.8522 22.8492L38.7089 24.1854L39.038 22.9894L39.367 21.7933L34.5103 20.4571L34.1812 21.6531ZM39.038 22.9894L40.2278 23.3401L41.6241 18.6032L40.4343 18.2525L39.2444 17.9017L37.8481 22.6386L39.038 22.9894ZM40.4343 18.2525L40.4583 17.0122L36.4752 16.9351L36.4512 18.1753L36.4272 19.4156L40.4102 19.4927L40.4343 18.2525ZM18.9426 18.2525L17.7522 18.6012L19.1398 23.3381L20.3303 22.9894L21.5208 22.6406L20.1331 17.9037L18.9426 18.2525ZM20.3303 22.9894L20.6594 24.1854L25.5162 22.8492L25.1871 21.6531L24.8581 20.4571L20.0012 21.7933L20.3303 22.9894ZM25.1871 21.6531L26.2259 20.9751L23.956 17.4973L22.9172 18.1753L21.8784 18.8533L24.1483 22.3311L25.1871 21.6531ZM22.9172 18.1753L22.8931 16.9351L18.9186 17.0122L18.9426 18.2525L18.9667 19.4927L22.9413 19.4156L22.9172 18.1753ZM24.9132 12.3019L23.8784 11.6179L22.525 13.6651L23.5598 14.3492L24.5946 15.0333L25.948 12.986L24.9132 12.3019ZM28.3824 14.5633L29.6222 14.5223L29.4509 9.34001L28.2111 9.38099L26.9713 9.42198L27.1426 14.6043L28.3824 14.5633ZM28.2111 9.38099L27.3886 8.45238L24.0907 11.3733L24.9132 12.3019L25.7357 13.2305L29.0336 10.3096L28.2111 9.38099ZM34.4469 12.3019L35.2729 11.3764L31.9322 8.39546L31.1063 9.32103L30.2804 10.2466L33.621 13.2275L34.4469 12.3019ZM31.1063 9.32103L29.8661 9.29467L29.7547 14.537L30.9949 14.5633L32.2351 14.5897L32.3465 9.34738L31.1063 9.32103ZM35.8089 14.3492L36.8417 13.6621L35.4798 11.6149L34.4469 12.3019L33.4141 12.989L34.776 15.0363L35.8089 14.3492ZM25.1873 21.6558L25.7315 22.7705L28.6268 21.3571L28.0826 20.2424L27.5384 19.1276L24.6431 20.5411L25.1873 21.6558ZM28.0826 20.2424L28.846 19.2647L26.3448 17.3116L25.5814 18.2894L24.8179 19.2671L27.3191 21.2201L28.0826 20.2424ZM25.5814 18.2894L24.3493 18.1452L23.9553 21.5116L25.1873 21.6558L26.4194 21.8L26.8134 18.4336L25.5814 18.2894ZM31.2776 20.2424L30.7347 21.3578L33.6386 22.7712L34.1815 21.6558L34.7244 20.5404L31.8205 19.127L31.2776 20.2424ZM34.1815 21.6558L35.4132 21.5085L35.0105 18.142L33.7788 18.2894L32.5471 18.4367L32.9498 21.8031L34.1815 21.6558ZM33.7788 18.2894L33.0154 17.3116L30.5142 19.2647L31.2776 20.2424L32.0411 21.2201L34.5423 19.2671L33.7788 18.2894ZM34.1812 21.6531L34.7239 20.5376L31.8207 19.1252L31.278 20.2406L30.7353 21.3561L33.6385 22.7686L34.1812 21.6531ZM31.278 20.2406L30.0466 20.391L30.2779 22.284L31.5092 22.1336L32.7405 21.9832L32.5093 20.0902L31.278 20.2406ZM31.5092 22.1336L30.2693 22.0937L30.2437 22.8903L31.4835 22.9303L32.7233 22.9702L32.749 22.1736L31.5092 22.1336ZM31.4835 22.9303L32.0143 24.0514L34.712 22.7743L34.1812 21.6531L33.6504 20.5319L30.9527 21.8091L31.4835 22.9303ZM25.1871 21.6531L24.6565 22.7744L27.3553 24.0515L27.8859 22.9303L28.4165 21.809L25.7177 20.5319L25.1871 21.6531ZM27.8859 22.9303L29.1261 22.9036L29.109 22.1069L27.8688 22.1336L26.6286 22.1603L26.6457 22.9569L27.8859 22.9303ZM27.8688 22.1336L29.1014 22.2731L29.3155 20.3801L28.0829 20.2406L26.8503 20.1012L26.6362 21.9942L27.8688 22.1336ZM28.0829 20.2406L27.5391 19.1257L24.6433 20.5382L25.1871 21.6531L25.731 22.768L28.6267 21.3556L28.0829 20.2406ZM27.9292 17.0353L28.2795 15.8453L25.864 15.1343L25.5137 16.3243L25.1634 17.5143L27.5789 18.2253L27.9292 17.0353ZM25.5137 16.3243L26.0295 17.4524L27.7341 16.673L27.2183 15.5449L26.7024 14.4167L24.9978 15.1961L25.5137 16.3243ZM27.2183 15.5449L26.0986 16.079L26.8096 17.5694L27.9292 17.0353L29.0489 16.5012L28.3379 15.0108L27.2183 15.5449ZM31.4326 17.0353L32.5522 17.5695L33.2633 16.079L32.1437 15.5449L31.0241 15.0108L30.313 16.5012L31.4326 17.0353ZM32.1437 15.5449L31.63 16.674L33.3431 17.4534L33.8568 16.3243L34.3705 15.1952L32.6574 14.4158L32.1437 15.5449ZM33.8568 16.3243L33.5076 15.1339L31.0835 15.845L31.4326 17.0353L31.7818 18.2257L34.2059 17.5146L33.8568 16.3243ZM25.1873 21.6558L26.4193 21.8011L26.8294 18.3236L25.5975 18.1783L24.3655 18.033L23.9554 21.5105L25.1873 21.6558ZM25.5975 18.1783L25.5618 16.9383L22.8807 17.0154L22.9164 18.2554L22.952 19.4953L25.6331 19.4183L25.5975 18.1783ZM22.9164 18.2554L21.8848 18.9443L24.1558 22.3447L25.1873 21.6558L26.2189 20.9669L23.948 17.5664L22.9164 18.2554ZM33.7692 18.1783L32.5374 18.3244L32.9496 21.8018L34.1815 21.6558L35.4133 21.5098L35.0011 18.0323L33.7692 18.1783ZM34.1815 21.6558L35.2134 22.3443L37.4823 18.9439L36.4504 18.2554L35.4185 17.5668L33.1496 20.9673L34.1815 21.6558ZM36.4504 18.2554L36.486 17.0154L33.8048 16.9383L33.7692 18.1783L33.7336 19.4183L36.4148 19.4953L36.4504 18.2554ZM31.4393 17.0391L32.559 17.5731L33.2699 16.0827L32.1503 15.5486L31.0306 15.0146L30.3197 16.505L31.4393 17.0391ZM32.1503 15.5486L31.6365 16.6777L33.3498 17.4572L33.8635 16.3281L34.3772 15.199L32.664 14.4195L32.1503 15.5486ZM25.5118 16.3281L26.0256 17.4572L27.7387 16.6777L27.225 15.5486L26.7112 14.4195L24.9981 15.199L25.5118 16.3281ZM27.225 15.5486L26.1028 16.0774L26.8052 17.5679L27.9274 17.0391L29.0495 16.5102L28.3471 15.0198L27.225 15.5486ZM23.5598 14.3492L22.4561 14.9155L24.4777 18.8556L25.5814 18.2894L26.6851 17.7231L24.6635 13.783L23.5598 14.3492ZM25.5814 18.2894L26.8211 18.2454L26.7515 16.2842L25.5118 16.3281L24.2721 16.3721L24.3417 18.3333L25.5814 18.2894ZM33.8635 16.3281L32.6242 16.2746L32.5395 18.2359L33.7788 18.2894L35.0182 18.3429L35.1028 16.3816L33.8635 16.3281ZM33.7788 18.2894L34.8815 18.8575L36.9116 14.9174L35.8089 14.3492L34.7061 13.7811L32.6761 17.7212L33.7788 18.2894ZM27.9274 17.0391L26.7096 17.2752L27.2759 20.1962L28.4937 19.96L29.7115 19.7239L29.1452 16.8029L27.9274 17.0391ZM28.4937 19.96L29.7335 20.0014L29.862 16.1553L28.6223 16.1139L27.3825 16.0725L27.2539 19.9186L28.4937 19.96ZM28.6223 16.1139L29.8482 15.9243L29.6083 14.3737L28.3824 14.5633L27.1565 14.753L27.3964 16.3035L28.6223 16.1139ZM30.9949 14.5633L29.7682 14.3794L29.5369 15.9214L30.7637 16.1053L31.9905 16.2893L32.2217 14.7473L30.9949 14.5633ZM30.7637 16.1053L29.5237 16.1384L29.6264 19.9931L30.8664 19.96L32.1065 19.927L32.0037 16.0723L30.7637 16.1053ZM30.8664 19.96L32.0837 20.1988L32.6566 17.2778L31.4393 17.0391L30.222 16.8003L29.6491 19.7213L30.8664 19.96ZM31.4433 17.0378L30.2261 16.7986L29.6522 19.7195L30.8695 19.9586L32.0867 20.1977L32.6605 17.2769L31.4433 17.0378ZM30.8695 19.9586L30.1666 20.9807L30.5777 21.2634L31.2806 20.2413L31.9835 19.2192L31.5724 18.9365L30.8695 19.9586ZM31.2806 20.2413L32.044 21.219L34.5452 19.266L33.7817 18.2883L33.0183 17.3106L30.5171 19.2636L31.2806 20.2413ZM33.7817 18.2883L35.021 18.3424L35.1068 16.3809L33.8675 16.3267L32.6282 16.2726L32.5424 18.2341L33.7817 18.2883ZM33.8675 16.3267L33.5183 15.1364L31.0942 15.8474L31.4433 17.0378L31.7925 18.2281L34.2166 17.517L33.8675 16.3267ZM25.5158 16.3267L24.2761 16.37L24.3446 18.3316L25.5843 18.2883L26.8241 18.245L26.7555 16.2834L25.5158 16.3267ZM25.5843 18.2883L24.8209 19.266L27.3221 21.219L28.0855 20.2413L28.849 19.2636L26.3478 17.3106L25.5843 18.2883ZM28.0855 20.2413L28.7884 21.2634L29.1995 20.9807L28.4967 19.9586L27.7938 18.9365L27.3827 19.2192L28.0855 20.2413ZM28.4967 19.9586L29.7145 19.7229L29.1492 16.802L27.9314 17.0378L26.7135 17.2735L27.2788 20.1943L28.4967 19.9586ZM27.9314 17.0378L28.2816 15.8478L25.8661 15.1367L25.5158 16.3267L25.1655 17.5167L27.5811 18.2278L27.9314 17.0378ZM31.4856 22.9319L32.7255 22.9718L32.7512 22.1752L31.5113 22.1352L30.2715 22.0953L30.2458 22.8919L31.4856 22.9319ZM27.8709 22.1352L26.6307 22.1619L26.6478 22.9585L27.888 22.9319L29.1282 22.9052L29.1111 22.1086L27.8709 22.1352ZM27.888 22.9319L28.4185 21.8105L25.7202 20.5342L25.1898 21.6555L24.6594 22.7769L27.3576 24.0532L27.888 22.9319ZM25.1898 21.6555L24.4043 22.6156L25.3465 23.3866L26.132 22.4265L26.9176 21.4664L25.9754 20.6955L25.1898 21.6555ZM26.132 22.4265L25.4241 23.4451L27.3342 24.7728L28.0422 23.7542L28.7502 22.7356L26.84 21.4079L26.132 22.4265ZM28.0422 23.7542V24.9947H31.3229V23.7542V22.5137H28.0422V23.7542ZM31.3229 23.7542L32.0287 24.7743L33.9475 23.4466L33.2417 22.4265L32.5358 21.4064L30.617 22.7341L31.3229 23.7542ZM33.2417 22.4265L34.0272 23.3866L34.9695 22.6156L34.1839 21.6555L33.3984 20.6955L32.4561 21.4664L33.2417 22.4265ZM34.1839 21.6555L33.6535 20.5342L30.9552 21.8105L31.4856 22.9319L32.0161 24.0532L34.7144 22.7769L34.1839 21.6555ZM31.2794 20.2422L31.9823 19.2201L31.5712 18.9374L30.8683 19.9595L30.1654 20.9816L30.5765 21.2643L31.2794 20.2422ZM30.8683 19.9595V18.719H28.4955V19.9595V21.2H30.8683V19.9595ZM28.4955 19.9595L27.7927 18.9374L27.3815 19.2201L28.0844 20.2422L28.7872 21.2644L29.1983 20.9817L28.4955 19.9595ZM28.0844 20.2422L26.8517 20.1032L26.6382 21.9963L27.8709 22.1352L29.1036 22.2742L29.317 20.3812L28.0844 20.2422ZM31.5113 22.1352L32.7426 21.9844L32.5107 20.0914L31.2794 20.2422L30.0481 20.3931L30.28 22.2861L31.5113 22.1352ZM39.8783 10.2434L41.0927 10.4964L41.8209 7.0016L40.6065 6.74857L39.3921 6.49554L38.6639 9.9904L39.8783 10.2434ZM40.6065 6.74857L41.7827 6.35442L40.6948 3.10798L39.5186 3.50214L38.3424 3.89629L39.4303 7.14272L40.6065 6.74857ZM39.5186 3.50214L38.7793 2.50603L30.539 8.62202L31.2783 9.61812L32.0176 10.6142L40.2579 4.49824L39.5186 3.50214ZM31.2783 9.61812L30.4771 10.5652L33.6464 13.2463L34.4476 12.2992L35.2488 11.3522L32.0795 8.67106L31.2783 9.61812ZM38.9276 13.6098L39.8685 14.4182L40.8621 13.2618L39.9213 12.4534L38.9804 11.645L37.9867 12.8014L38.9276 13.6098ZM39.9213 12.4534L40.646 11.4467L40.2177 11.1383L39.4929 12.145L38.7681 13.1518L39.1965 13.4601L39.9213 12.4534ZM39.4929 12.145L40.3291 13.0613L41.0143 12.436L40.1782 11.5197L39.342 10.6034L38.6568 11.2287L39.4929 12.145ZM40.1782 11.5197L40.9376 10.5389L40.4065 10.1277L39.6471 11.1086L38.8877 12.0894L39.4187 12.5006L40.1782 11.5197ZM39.6471 11.1086L40.3993 12.095L41.0845 11.5725L40.3323 10.586L39.5802 9.59962L38.8949 10.1221L39.6471 11.1086ZM40.3323 10.586L41.0796 9.59587L40.6256 9.25325L39.8783 10.2434L39.1311 11.2336L39.5851 11.5762L40.3323 10.586ZM18.7637 6.74857L17.5493 7.00157L18.2774 10.4964L19.4918 10.2434L20.7062 9.99042L19.9781 6.49557L18.7637 6.74857ZM19.4918 10.2434L18.7534 9.24661L18.2909 9.58923L19.0292 10.586L19.7676 11.5829L20.2301 11.2402L19.4918 10.2434ZM19.0292 10.586L18.2771 11.5725L18.9623 12.095L19.7145 11.1086L20.4666 10.1221L19.7814 9.59961L19.0292 10.586ZM19.7145 11.1086L18.9474 10.1337L18.4249 10.5449L19.192 11.5197L19.9591 12.4946L20.4816 12.0834L19.7145 11.1086ZM19.192 11.5197L18.3558 12.436L19.0411 13.0614L19.8772 12.145L20.7134 11.2287L20.0281 10.6034L19.192 11.5197ZM19.8772 12.145L19.1524 11.1383L18.7241 11.4467L19.4489 12.4534L20.1738 13.4601L20.6021 13.1517L19.8772 12.145ZM19.4489 12.4534L18.5046 13.2578L19.4897 14.4142L20.434 13.6098L21.3783 12.8054L20.3933 11.649L19.4489 12.4534ZM24.9139 12.2992L25.7151 13.2463L28.8844 10.5652L28.0833 9.61812L27.2821 8.67105L24.1128 11.3521L24.9139 12.2992ZM28.0833 9.61812L28.8225 8.62198L20.5813 2.506L19.8421 3.50214L19.1028 4.49828L27.344 10.6143L28.0833 9.61812ZM19.8421 3.50214L18.6648 3.11109L17.5864 6.35752L18.7637 6.74857L19.9409 7.13962L21.0193 3.89319L19.8421 3.50214ZM34.4476 12.2992L33.4147 12.9861L34.7758 15.033L35.8087 14.3462L36.8417 13.6593L35.4806 11.6123L34.4476 12.2992ZM35.8087 14.3462L34.706 13.778L32.6758 17.7183L33.7786 18.2864L34.8813 18.8546L36.9115 14.9143L35.8087 14.3462ZM33.7786 18.2864L33.7945 19.5268L36.4671 19.4926L36.4512 18.2522L36.4353 17.0118L33.7627 17.046L33.7786 18.2864ZM36.4512 18.2522L36.4511 19.4927L40.4342 19.4929L40.4343 18.2525L40.4343 17.012L36.4513 17.0117L36.4512 18.2522ZM40.4343 18.2525L41.6142 17.8696L40.1075 13.2269L38.9276 13.6098L37.7477 13.9927L39.2544 18.6354L40.4343 18.2525ZM20.434 13.6098L19.253 13.2304L17.7616 17.8731L18.9426 18.2525L20.1237 18.6318L21.6151 13.9892L20.434 13.6098ZM18.9426 18.2525L18.9427 19.4929L22.9173 19.4927L22.9172 18.2522L22.9171 17.0117L18.9426 17.012L18.9426 18.2525ZM22.9172 18.2522L22.9012 19.4926L25.5652 19.5268L25.5811 18.2864L25.5971 17.046L22.9331 17.0118L22.9172 18.2522ZM25.5811 18.2864L26.6849 17.7202L24.6633 13.7799L23.5596 14.3462L22.4559 14.9124L24.4774 18.8527L25.5811 18.2864ZM23.5596 14.3462L24.5942 15.0306L25.9485 12.9837L24.9139 12.2992L23.8794 11.6147L22.5251 13.6617L23.5596 14.3462ZM30.9948 14.5603L32.2332 14.6313L32.5168 9.68916L31.2783 9.61812L30.0399 9.54707L29.7563 14.4892L30.9948 14.5603ZM31.2783 9.61812L32.4419 10.0481L33.743 6.5273L32.5794 6.09731L31.4158 5.66732L30.1147 9.18813L31.2783 9.61812ZM32.5794 6.09731L32.5793 4.85682L26.7974 4.85708L26.7975 6.09756L26.7976 7.33805L32.5794 7.33779L32.5794 6.09731ZM26.7975 6.09756L25.6323 6.52312L26.9181 10.0437L28.0833 9.61812L29.2485 9.19256L27.9627 5.67201L26.7975 6.09756ZM28.0833 9.61812L26.845 9.69301L27.1439 14.6351L28.3822 14.5603L29.6204 14.4854L29.3215 9.54323L28.0833 9.61812ZM28.3822 14.5603L27.1444 14.6418L27.2471 16.2009L28.4849 16.1193L29.7227 16.0377L29.62 14.4787L28.3822 14.5603ZM28.4849 16.1193L27.2444 16.1221L27.253 19.9595L28.4935 19.9567L29.734 19.954L29.7254 16.1165L28.4849 16.1193ZM28.4935 19.9567V21.1972H30.8663V19.9567V18.7163H28.4935V19.9567ZM30.8663 19.9567L32.1068 19.9623L32.1239 16.1248L30.8834 16.1193L29.6429 16.1138L29.6258 19.9512L30.8663 19.9567ZM30.8834 16.1193L32.1207 16.2077L32.2321 14.6487L30.9948 14.5603L29.7575 14.4719L29.6461 16.0309L30.8834 16.1193Z" fill="#33395B" mask="url(#path-14-outside-1_33748_125837)"/>
<path d="M13.666 1.33301C20.6616 1.33301 26.333 7.00439 26.333 14C26.333 20.9956 20.6616 26.667 13.666 26.667C6.67041 26.667 0.999023 20.9956 0.999023 14C0.999023 7.00439 6.67041 1.33301 13.666 1.33301Z" fill="#0052FF" stroke="#33395B" stroke-width="1.33333"/>
<path d="M13.7668 10.4804C15.1796 10.4804 16.3004 11.3518 16.726 12.6477H19.5723C19.0566 9.87711 16.7708 8 13.7895 8C10.404 8 7.75977 10.5699 7.75977 14.0115C7.75977 17.453 10.3379 20 13.7895 20C16.704 20 19.0353 18.1229 19.5514 15.3294H16.7258C16.3222 16.6255 15.2023 17.5196 13.7886 17.5196C11.8379 17.5196 10.4708 16.0222 10.4708 14.0115C10.4717 11.9778 11.8168 10.4804 13.7668 10.4804Z" fill="white"/>
</svg>
