<svg width="40" height="31" viewBox="0 0 40 31" fill="none" xmlns="http://www.w3.org/2000/svg">
<path d="M38.3683 10.821L30.1507 2.14315C29.7562 1.49995 29.1804 1.11108 28.5737 1.11108H10.9059C10.2992 1.11108 9.72335 1.49995 9.32891 2.14233L1.11133 10.821V19.1599H38.3683V10.821Z" fill="#222948" stroke="#5E679E" stroke-width="2.22222"/>
<path d="M27.5257 14.0983C27.5257 12.7816 28.3308 11.6945 29.3294 11.6937H38.3683V26.5733C38.3683 28.315 37.2992 29.7425 35.979 29.7425H3.50063C2.18044 29.7425 1.11133 28.3142 1.11133 26.5733V11.6937H10.1502C11.1488 11.6937 11.9539 12.7791 11.9539 14.0959V14.1139C11.9539 15.4306 12.7679 16.4939 13.7657 16.4939H25.7139C26.7117 16.4939 27.5257 15.4208 27.5257 14.1041V14.0983Z" fill="#222948" stroke="#5E679E" stroke-width="2.22222"/>
</svg>
