<svg width="19" height="21" viewBox="0 0 19 21" fill="none" xmlns="http://www.w3.org/2000/svg">
<path d="M18.0251 11.2502C18.0249 12.1662 17.803 13.0661 17.3818 13.8606C16.9606 14.6551 16.3545 15.3165 15.6238 15.7792C14.8932 16.242 14.0634 16.4898 13.2167 16.4982C12.3701 16.5066 11.5361 16.2753 10.7978 15.8271L11.7562 19.2846C11.7873 19.3966 11.7937 19.5148 11.775 19.63C11.7563 19.7451 11.713 19.854 11.6485 19.9477C11.584 20.0416 11.5001 20.1178 11.4036 20.1703C11.307 20.2228 11.2005 20.2501 11.0924 20.2503H6.93275C6.82468 20.2501 6.71811 20.2228 6.62156 20.1703C6.525 20.1178 6.44113 20.0416 6.37664 19.9477C6.31216 19.854 6.26883 19.7451 6.25012 19.63C6.23143 19.5148 6.23786 19.3966 6.26894 19.2846L7.22739 15.8271C6.489 16.2753 5.65508 16.5066 4.80846 16.4982C3.96184 16.4898 3.13198 16.242 2.40131 15.7792C1.67064 15.3165 1.06458 14.6551 0.643317 13.8606C0.22207 13.0661 0.000291175 12.1662 0 11.2502C0 8.25024 1.52954 5.35899 4.41963 2.88118C5.7465 1.74915 7.19888 0.800865 8.74306 0.058365C8.82754 0.019845 8.9183 0 9.00998 0C9.10164 0 9.19241 0.019845 9.27689 0.058365C10.8229 0.80046 12.2771 1.74874 13.6055 2.88118C16.4956 5.35899 18.0251 8.25024 18.0251 11.2502Z" fill="white"/>
<path d="M18.0251 11.2502C18.0249 12.1662 17.803 13.0661 17.3818 13.8606C16.9606 14.6551 16.3545 15.3165 15.6238 15.7792C14.8932 16.242 14.0634 16.4898 13.2167 16.4982C12.3701 16.5066 11.5361 16.2753 10.7978 15.8271L11.7562 19.2846C11.7873 19.3966 11.7937 19.5148 11.775 19.63C11.7563 19.7451 11.713 19.854 11.6485 19.9477C11.584 20.0416 11.5001 20.1178 11.4036 20.1703C11.307 20.2228 11.2005 20.2501 11.0924 20.2503H6.93275C6.82468 20.2501 6.71811 20.2228 6.62156 20.1703C6.525 20.1178 6.44113 20.0416 6.37664 19.9477C6.31216 19.854 6.26883 19.7451 6.25012 19.63C6.23143 19.5148 6.23786 19.3966 6.26894 19.2846L7.22739 15.8271C6.489 16.2753 5.65508 16.5066 4.80846 16.4982C3.96184 16.4898 3.13198 16.242 2.40131 15.7792C1.67064 15.3165 1.06458 14.6551 0.643317 13.8606C0.22207 13.0661 0.000291175 12.1662 0 11.2502C0 8.25024 1.52954 5.35899 4.41963 2.88118C5.7465 1.74915 7.19888 0.800865 8.74306 0.058365C8.82754 0.019845 8.9183 0 9.00998 0C9.10164 0 9.19241 0.019845 9.27689 0.058365C10.8229 0.80046 12.2771 1.74874 13.6055 2.88118C16.4956 5.35899 18.0251 8.25024 18.0251 11.2502Z" fill="url(#paint0_linear_37059_144345)"/>
<defs>
<linearGradient id="paint0_linear_37059_144345" x1="9.01257" y1="0" x2="9.01257" y2="20.2503" gradientUnits="userSpaceOnUse">
<stop stop-color="#66B9FF"/>
<stop offset="1" stop-color="#0088FA"/>
</linearGradient>
</defs>
</svg>
