<svg width="32" height="32" viewBox="0 0 32 32" fill="none" xmlns="http://www.w3.org/2000/svg">
<g clip-path="url(#clip0_36059_79745)">
<path d="M26.0928 6.71545L25.2148 7.59338C27.3112 9.88626 28.4737 12.8806 28.4737 15.9874C28.4737 19.0941 27.3112 22.0885 25.2148 24.3813L26.0928 25.2593C28.4232 22.7303 29.717 19.4172 29.717 15.9783C29.717 12.5393 28.4232 9.2262 26.0928 6.69727V6.71545Z" fill="#5A5564"/>
<path d="M7.61472 6.79118C9.90746 4.69454 12.9018 3.53184 16.0087 3.53184C19.1156 3.53184 22.1099 4.69454 24.4027 6.79118L25.2806 5.91324C22.7515 3.58161 19.4376 2.28711 15.9977 2.28711C12.5578 2.28711 9.24393 3.58161 6.71484 5.91324L7.61472 6.79118Z" fill="#5A5564"/>
<path d="M6.79313 24.3934C4.69884 22.1013 3.53758 19.1087 3.53758 16.0038C3.53758 12.899 4.69884 9.90642 6.79313 7.61426L5.9152 6.73633C3.58356 9.26541 2.28906 12.5793 2.28906 16.0192C2.28906 19.4591 3.58356 22.773 5.9152 25.3021L6.79313 24.3934Z" fill="#5A5564"/>
<path d="M24.3924 25.2031C22.0997 27.2998 19.1053 28.4625 15.9985 28.4625C12.8916 28.4625 9.89723 27.2998 7.60449 25.2031L6.72656 26.0811C9.25565 28.4127 12.5696 29.7072 16.0094 29.7072C19.4493 29.7072 22.7632 28.4127 25.2923 26.0811L24.3924 25.2031Z" fill="#5A5564"/>
<path d="M21.5465 13.0686C21.3709 11.2356 19.7906 10.6229 17.789 10.4348V7.9082H16.2413V10.3859H15.0065V7.9082H13.472V10.4504H10.3366V12.1035C10.3366 12.1035 11.4785 12.0828 11.4609 12.1035C11.6667 12.081 11.8732 12.1392 12.037 12.2659C12.2007 12.3925 12.3089 12.5778 12.3389 12.7826V19.7434C12.3292 19.889 12.2621 20.0249 12.1522 20.1211C12.0424 20.2173 11.8989 20.266 11.7532 20.2563C11.7739 20.2739 10.6288 20.2563 10.6288 20.2563L10.3359 22.1044H13.4432V24.6874H14.9871V22.142H16.2231V24.6755H17.7727V22.1219C20.3851 21.9633 22.2068 21.3192 22.4351 18.8736C22.6195 16.9058 21.6939 16.0266 20.2152 15.6754C21.1163 15.2302 21.6726 14.4099 21.5465 13.0686ZM19.3768 18.5688C19.3768 20.4902 16.0851 20.2707 15.0366 20.2707V16.8619C16.0876 16.8644 19.3768 16.5627 19.3768 18.5688ZM18.6619 13.7659C18.6619 15.5218 15.9146 15.3092 15.0417 15.3092V12.2107C15.9146 12.2107 18.6619 11.9354 18.6619 13.7659Z" fill="#F09242"/>
<path d="M15.9972 32C7.16079 31.9981 0 24.8329 0 15.9972C0 7.16142 7.16643 0 16.0028 0C24.8392 0 31.9981 7.16267 32 15.9972C32.0019 24.8317 24.8392 31.9981 16.0028 32H15.9972ZM15.9972 1.24792C7.85436 1.25419 1.26046 7.86 1.26548 16.0028C1.27049 24.1456 7.87756 30.7395 16.0204 30.7345C24.1632 30.7295 30.7489 24.1325 30.7521 15.9978C30.7552 7.86314 24.1569 1.25419 16.0147 1.24792H15.9972Z" fill="#282138"/>
</g>
<defs>
<clipPath id="clip0_36059_79745">
<rect width="32" height="32" fill="white"/>
</clipPath>
</defs>
</svg>
