<svg width="48" height="48" viewBox="0 0 48 48" fill="none" xmlns="http://www.w3.org/2000/svg">
<rect x="0.25" y="0.25" width="47.5" height="47.5" rx="23.75" fill="white"/>
<rect x="0.25" y="0.25" width="47.5" height="47.5" rx="23.75" stroke="#E0E2E6" stroke-width="0.5"/>
<g clip-path="url(#clip0_4739_7542)">
<path d="M24 47.5C37.023 47.5 47.5 37.023 47.5 24C47.5 10.977 37.023 0.5 24 0.5C10.977 0.5 0.5 10.977 0.5 24C0.5 37.023 10.977 47.5 24 47.5Z" fill="#2775CA"/>
<path d="M30.4626 27.7208C30.4626 24.2938 28.4063 23.1188 24.2938 22.6293C21.3563 22.2375 20.7688 21.4543 20.7688 20.0833C20.7688 18.7123 21.748 17.8313 23.7063 17.8313C25.4688 17.8313 26.448 18.4188 26.9376 19.8875C27.0355 20.1813 27.3293 20.3771 27.623 20.3771H29.1896C29.5813 20.3771 29.8751 20.0833 29.8751 19.6918V19.5938C29.4833 17.4396 27.7208 15.775 25.4688 15.5793V13.2293C25.4688 12.8375 25.1751 12.5438 24.6855 12.4458H23.2168C22.8251 12.4458 22.5313 12.7396 22.4333 13.2293V15.4813C19.4958 15.873 17.6355 17.8313 17.6355 20.2793C17.6355 23.5105 19.5938 24.7833 23.7063 25.273C26.448 25.7625 27.3293 26.35 27.3293 27.9168C27.3293 29.4835 25.9583 30.5605 24.098 30.5605C21.5521 30.5605 20.6708 29.4833 20.3771 28.0146C20.2793 27.623 19.9855 27.4271 19.6918 27.4271H18.0271C17.6355 27.4271 17.3418 27.7208 17.3418 28.1125V28.2105C17.7333 30.6583 19.3001 32.4208 22.5313 32.9105V35.2605C22.5313 35.6521 22.8251 35.9458 23.3146 36.0438H24.7833C25.1751 36.0438 25.4688 35.75 25.5668 35.2605V32.9105C28.5043 32.4208 30.4626 30.3645 30.4626 27.7208Z" fill="white"/>
<path d="M19.0062 38.0023C11.3687 35.2607 7.45196 26.742 10.2917 19.2023C11.7605 15.0898 14.9917 11.9565 19.0062 10.4877C19.398 10.292 19.5937 9.99824 19.5937 9.5085V8.13775C19.5937 7.746 19.398 7.45225 19.0062 7.35449C18.9082 7.35449 18.7125 7.35449 18.6145 7.45225C9.31246 10.3898 4.22071 20.2795 7.15821 29.5815C8.92071 35.0648 13.1312 39.2752 18.6145 41.0377C19.0062 41.2335 19.398 41.0377 19.4957 40.646C19.5937 40.5482 19.5937 40.4502 19.5937 40.2545V38.8835C19.5937 38.5898 19.3 38.1982 19.0062 38.0023ZM29.3855 7.45225C28.9937 7.2565 28.602 7.45225 28.5042 7.844C28.4062 7.94199 28.4062 8.03975 28.4062 8.23574V9.6065C28.4062 9.99824 28.7 10.3898 28.9937 10.5857C36.6312 13.3273 40.548 21.846 37.7082 29.3857C36.2395 33.4982 33.0082 36.6315 28.9937 38.1002C28.602 38.296 28.4062 38.5898 28.4062 39.0795V40.4502C28.4062 40.842 28.602 41.1357 28.9937 41.2335C29.0917 41.2335 29.2875 41.2335 29.3855 41.1357C38.6875 38.1982 43.7792 28.3085 40.8417 19.0065C39.0792 13.4252 34.7707 9.21475 29.3855 7.45225Z" fill="white"/>
</g>
<defs>
<clipPath id="clip0_4739_7542">
<rect width="47" height="47" fill="white" transform="translate(0.5 0.5)"/>
</clipPath>
</defs>
</svg>
