<svg width="48" height="48" viewBox="0 0 48 48" fill="none" xmlns="http://www.w3.org/2000/svg">
<rect x="0.25" y="0.25" width="47.5" height="47.5" rx="23.75" fill="#0052FF"/>
<rect x="0.25" y="0.25" width="47.5" height="47.5" rx="23.75" stroke="#33333E" stroke-width="0.5"/>
<path fill-rule="evenodd" clip-rule="evenodd" d="M23.9999 10.3999C31.511 10.3999 37.5999 16.4888 37.5999 23.9999C37.5999 31.511 31.511 37.5999 23.9999 37.5999C16.4888 37.5999 10.3999 31.511 10.3999 23.9999C10.3999 16.4888 16.4888 10.3999 23.9999 10.3999ZM19.2226 23.9999C19.2226 26.6415 21.3622 28.7812 24.0038 28.7812C26.3706 28.7812 28.3309 27.0559 28.7094 24.7968H33.5305C33.1241 29.7055 29.0162 33.5624 24.0038 33.5624C18.7245 33.5624 14.4413 29.2792 14.4413 23.9999C14.4413 18.7206 18.7245 14.4374 24.0038 14.4374C29.0162 14.4374 33.1241 18.2943 33.5305 23.203H28.7134C28.3349 20.9439 26.3706 19.2187 24.0038 19.2187C21.3622 19.2187 19.2226 21.3583 19.2226 23.9999Z" fill="white"/>
</svg>
