<svg width="20" height="20" viewBox="0 0 20 20" fill="none" xmlns="http://www.w3.org/2000/svg">
<path d="M10.0002 19.125C15.0628 19.125 19.1668 15.021 19.1668 9.95835C19.1668 4.89575 15.0628 0.791687 10.0002 0.791687C4.93756 0.791687 0.833496 4.89575 0.833496 9.95835C0.833496 15.021 4.93756 19.125 10.0002 19.125Z" fill="#0F8FF8"/>
<path d="M4.89146 11.3027V10.3927H11.8855V11.3027H4.89146ZM4.89146 9.50867V8.59867H11.8855V9.50867H4.89146ZM11.0535 14.6307C10.3515 14.6307 9.70146 14.518 9.10346 14.2927C8.51413 14.0587 8.0028 13.7337 7.56947 13.3177C7.13613 12.893 6.79813 12.3947 6.55546 11.8227C6.3128 11.2507 6.19146 10.6267 6.19146 9.95067C6.19146 9.27467 6.3128 8.65067 6.55546 8.07867C6.79813 7.50667 7.13613 7.01267 7.56947 6.59667C8.0028 6.172 8.51413 5.847 9.10346 5.62167C9.70146 5.38767 10.3515 5.27067 11.0535 5.27067C11.7988 5.27067 12.4791 5.40067 13.0945 5.66067C13.7185 5.912 14.2385 6.289 14.6545 6.79167L13.5755 7.81867C13.2461 7.46334 12.8778 7.199 12.4705 7.02567C12.0631 6.84367 11.6211 6.75267 11.1445 6.75267C10.6678 6.75267 10.2301 6.83067 9.83147 6.98667C9.44147 7.14267 9.09913 7.36367 8.80447 7.64967C8.51847 7.93567 8.29313 8.27367 8.12847 8.66367C7.9638 9.05367 7.88147 9.48267 7.88147 9.95067C7.88147 10.4187 7.9638 10.8477 8.12847 11.2377C8.29313 11.6277 8.51847 11.9657 8.80447 12.2517C9.09913 12.5377 9.44147 12.7587 9.83147 12.9147C10.2301 13.0707 10.6678 13.1487 11.1445 13.1487C11.6211 13.1487 12.0631 13.062 12.4705 12.8887C12.8778 12.7067 13.2461 12.4337 13.5755 12.0697L14.6545 13.1097C14.2385 13.6037 13.7185 13.9807 13.0945 14.2407C12.4791 14.5007 11.7988 14.6307 11.0535 14.6307Z" fill="#FFEB65"/>
</svg>
