<svg width="19" height="19" viewBox="0 0 19 19" fill="none" xmlns="http://www.w3.org/2000/svg">
<mask id="mask0_29364_64407" style="mask-type:luminance" maskUnits="userSpaceOnUse" x="0" y="0" width="19" height="19">
<path d="M18.3333 0H0V18.3333H18.3333V0Z" fill="white"/>
</mask>
<g mask="url(#mask0_29364_64407)">
<path d="M9.16667 18.3333C14.2293 18.3333 18.3333 14.2293 18.3333 9.16667C18.3333 4.10406 14.2293 0 9.16667 0C4.10406 0 0 4.10406 0 9.16667C0 14.2293 4.10406 18.3333 9.16667 18.3333Z" fill="#74ACDF"/>
</g>
<path d="M1.60498 11.709L3.78898 6.80899H4.90898L7.09998 11.709H5.90998L4.11798 7.38299H4.56598L2.76698 11.709H1.60498ZM2.69698 10.659L2.99798 9.79799H5.51798L5.82598 10.659H2.69698Z" fill="white"/>
<path d="M7.60836 11.709V6.80899H9.72936C10.168 6.80899 10.546 6.88133 10.8634 7.02599C11.1807 7.16599 11.4257 7.36899 11.5984 7.63499C11.771 7.90099 11.8574 8.21833 11.8574 8.58699C11.8574 8.95099 11.771 9.26599 11.5984 9.53199C11.4257 9.79333 11.1807 9.99399 10.8634 10.134C10.546 10.274 10.168 10.344 9.72936 10.344H8.23836L8.74236 9.84699V11.709H7.60836ZM10.7234 11.709L9.49836 9.93099H10.7094L11.9484 11.709H10.7234ZM8.74236 9.97299L8.23836 9.44099H9.66636C10.0164 9.44099 10.2777 9.36633 10.4504 9.21699C10.623 9.06299 10.7094 8.85299 10.7094 8.58699C10.7094 8.31633 10.623 8.10633 10.4504 7.95699C10.2777 7.80766 10.0164 7.73299 9.66636 7.73299H8.23836L8.74236 7.19399V9.97299Z" fill="white"/>
<path d="M14.1138 12.549V5.96899H14.8138V12.549H14.1138ZM14.3658 11.793C13.9738 11.793 13.5981 11.7417 13.2388 11.639C12.8795 11.5317 12.5901 11.394 12.3708 11.226L12.7558 10.372C12.9658 10.5213 13.2131 10.645 13.4978 10.743C13.7871 10.8363 14.0788 10.883 14.3728 10.883C14.5968 10.883 14.7765 10.862 14.9118 10.82C15.0518 10.7733 15.1545 10.7103 15.2198 10.631C15.2851 10.5517 15.3178 10.4607 15.3178 10.358C15.3178 10.2273 15.2665 10.1247 15.1638 10.05C15.0611 9.97066 14.9258 9.90766 14.7578 9.86099C14.5898 9.80966 14.4032 9.76299 14.1978 9.72099C13.9972 9.67433 13.7942 9.61833 13.5888 9.55299C13.3882 9.48766 13.2038 9.40366 13.0358 9.30099C12.8678 9.19833 12.7301 9.06299 12.6228 8.89499C12.5201 8.72699 12.4688 8.51233 12.4688 8.25099C12.4688 7.97099 12.5435 7.71666 12.6928 7.48799C12.8468 7.25466 13.0755 7.07033 13.3788 6.93499C13.6868 6.79499 14.0718 6.72499 14.5338 6.72499C14.8418 6.72499 15.1451 6.76233 15.4438 6.83699C15.7425 6.90699 16.0061 7.01433 16.2348 7.15899L15.8848 8.01999C15.6561 7.88933 15.4275 7.79366 15.1988 7.73299C14.9701 7.66766 14.7462 7.63499 14.5268 7.63499C14.3075 7.63499 14.1278 7.66066 13.9878 7.71199C13.8478 7.76333 13.7475 7.83099 13.6868 7.91499C13.6261 7.99433 13.5958 8.08766 13.5958 8.19499C13.5958 8.32099 13.6472 8.42366 13.7498 8.50299C13.8525 8.57766 13.9878 8.63833 14.1558 8.68499C14.3238 8.73166 14.5082 8.77833 14.7088 8.82499C14.9142 8.87166 15.1172 8.92533 15.3178 8.98599C15.5232 9.04666 15.7098 9.12833 15.8778 9.23099C16.0458 9.33366 16.1811 9.46899 16.2838 9.63699C16.3911 9.80499 16.4448 10.0173 16.4448 10.274C16.4448 10.5493 16.3678 10.8013 16.2138 11.03C16.0598 11.2587 15.8288 11.443 15.5208 11.583C15.2175 11.723 14.8325 11.793 14.3658 11.793Z" fill="white"/>
</svg>
