<svg xmlns="http://www.w3.org/2000/svg" width="18" height="18" viewBox="0 0 20 20" fill="none">
  <title>Send Icon</title>
  <g clipPath="url(#clip0_12315_44210)">
    <path
      d="M18.4162 8.80248L2.29287 0.936641C2.13792 0.861136 1.96631 0.826297 1.79419 0.835403C1.62207 0.84451 1.4551 0.897263 1.30899 0.988697C1.16288 1.08013 1.04243 1.20724 0.958995 1.35806C0.875556 1.50888 0.831864 1.67845 0.832032 1.85081V1.87997C0.832114 2.01623 0.848906 2.15197 0.882032 2.28414L2.4287 8.47081C2.44943 8.55322 2.49487 8.62733 2.55892 8.68319C2.62297 8.73904 2.70256 8.77398 2.78703 8.78331L9.58453 9.53914C9.69763 9.55274 9.80183 9.60732 9.87741 9.69254C9.953 9.77776 9.99474 9.88773 9.99474 10.0016C9.99474 10.1156 9.953 10.2255 9.87741 10.3107C9.80183 10.396 9.69763 10.4505 9.58453 10.4641L2.78703 11.22C2.70256 11.2293 2.62297 11.2642 2.55892 11.3201C2.49487 11.376 2.44943 11.4501 2.4287 11.5325L0.882032 17.7183C0.848906 17.8505 0.832114 17.9862 0.832032 18.1225V18.1516C0.832005 18.3239 0.8758 18.4934 0.959298 18.6441C1.0428 18.7948 1.16325 18.9218 1.30934 19.0131C1.45543 19.1045 1.62235 19.1572 1.7944 19.1662C1.96645 19.1753 2.13799 19.1405 2.29287 19.065L18.4154 11.1991C18.6399 11.0896 18.8291 10.9192 18.9615 10.7073C19.0939 10.4954 19.1641 10.2506 19.1641 10.0008C19.1641 9.75098 19.0939 9.50618 18.9615 9.29431C18.8291 9.08243 18.6407 8.91201 18.4162 8.80248Z"
      fill="white" />
  </g>
  <defs>
    <clipPath id="clip0_12315_44210">
      <rect width="20" height="20" fill="white" />
    </clipPath>
  </defs>
</svg>
