<svg width="19" height="20" viewBox="0 0 19 20" fill="none" xmlns="http://www.w3.org/2000/svg">
<mask id="mask0_37576_56833" style="mask-type:luminance" maskUnits="userSpaceOnUse" x="0" y="0" width="19" height="20">
<path d="M18.6668 0.791687H0.333496V19.125H18.6668V0.791687Z" fill="white"/>
</mask>
<g mask="url(#mask0_37576_56833)">
<path d="M9.50016 19.125C14.5628 19.125 18.6668 15.021 18.6668 9.95835C18.6668 4.89575 14.5628 0.791687 9.50016 0.791687C4.43756 0.791687 0.333496 4.89575 0.333496 9.95835C0.333496 15.021 4.43756 19.125 9.50016 19.125Z" fill="#88F237"/>
<path d="M9.14146 16.0607V3.84067H10.2075V16.0607H9.14146ZM9.54447 14.6307C8.8338 14.6307 8.15347 14.531 7.50347 14.3317C6.85346 14.1237 6.3378 13.8593 5.95646 13.5387L6.54146 12.2257C6.90546 12.5117 7.35613 12.75 7.89347 12.9407C8.4308 13.1313 8.98113 13.2267 9.54447 13.2267C10.0211 13.2267 10.4068 13.1747 10.7015 13.0707C10.9961 12.9667 11.2128 12.828 11.3515 12.6547C11.4901 12.4727 11.5595 12.269 11.5595 12.0437C11.5595 11.7663 11.4598 11.5453 11.2605 11.3807C11.0611 11.2073 10.8011 11.073 10.4805 10.9777C10.1685 10.8737 9.81746 10.7783 9.42747 10.6917C9.04613 10.605 8.66047 10.5053 8.27047 10.3927C7.88913 10.2713 7.53813 10.1197 7.21746 9.93767C6.90546 9.747 6.6498 9.49567 6.45046 9.18367C6.25113 8.87167 6.15146 8.473 6.15146 7.98767C6.15146 7.49367 6.28146 7.043 6.54146 6.63567C6.81013 6.21967 7.21313 5.89034 7.75046 5.64767C8.29647 5.39634 8.98547 5.27067 9.81747 5.27067C10.3635 5.27067 10.9051 5.34 11.4425 5.47867C11.9798 5.61734 12.4478 5.81667 12.8465 6.07667L12.3135 7.38967C11.9061 7.147 11.4858 6.96934 11.0525 6.85667C10.6191 6.73534 10.2031 6.67467 9.80447 6.67467C9.33647 6.67467 8.95513 6.731 8.66047 6.84367C8.37446 6.95634 8.16213 7.10367 8.02346 7.28567C7.89346 7.46767 7.82846 7.67567 7.82846 7.90967C7.82846 8.187 7.9238 8.41234 8.11446 8.58567C8.3138 8.75034 8.56946 8.88034 8.88147 8.97567C9.20213 9.071 9.55747 9.16634 9.94746 9.26167C10.3375 9.34834 10.7231 9.448 11.1045 9.56067C11.4945 9.67334 11.8455 9.82067 12.1575 10.0027C12.4781 10.1847 12.7338 10.4317 12.9245 10.7437C13.1238 11.0557 13.2235 11.45 13.2235 11.9267C13.2235 12.412 13.0891 12.8627 12.8205 13.2787C12.5605 13.686 12.1575 14.0153 11.6115 14.2667C11.0655 14.5093 10.3765 14.6307 9.54447 14.6307Z" fill="#0E4D3A"/>
</g>
</svg>
