<svg width="20" height="20" viewBox="0 0 20 20" fill="none" xmlns="http://www.w3.org/2000/svg">
<mask id="mask0_37576_56996" style="mask-type:luminance" maskUnits="userSpaceOnUse" x="0" y="0" width="20" height="20">
<path d="M19.1654 0.791016H0.832031V19.1243H19.1654V0.791016Z" fill="white"/>
</mask>
<g mask="url(#mask0_37576_56996)">
<path d="M9.9987 19.1243C15.0613 19.1243 19.1654 15.0203 19.1654 9.95768C19.1654 4.89508 15.0613 0.791016 9.9987 0.791016C4.93609 0.791016 0.832031 4.89508 0.832031 9.95768C0.832031 15.0203 4.93609 19.1243 9.9987 19.1243Z" fill="#FB5A4B"/>
</g>
<path d="M13.7585 5.11368C13.7112 5.03791 13.6472 5 13.5668 5H12.2103C12.1108 5 12.0421 5.04508 12.0043 5.13493L10.6477 8.11793C10.6145 8.19845 10.5494 8.34286 10.4525 8.55125C10.3555 8.75959 10.2833 8.92054 10.2359 9.03419C10.0607 8.6222 9.92815 8.32627 9.83818 8.14634L8.3111 5.12786C8.26362 5.04261 8.19506 5 8.10508 5H6.72719C6.64206 5 6.57572 5.03791 6.52838 5.11368C6.49054 5.18941 6.49054 5.26518 6.52838 5.34095L8.8082 9.44609H7.28825C7.2267 9.44609 7.17344 9.46848 7.12847 9.51346C7.08351 9.55853 7.061 9.61169 7.061 9.67324V10.4119C7.061 10.4783 7.08351 10.5327 7.12847 10.5753C7.17347 10.6179 7.2267 10.6391 7.28825 10.6391H9.33371V11.2429H7.28825C7.2267 11.2429 7.17344 11.2654 7.12847 11.3103C7.08351 11.3553 7.061 11.4086 7.061 11.4702V12.2016C7.061 12.268 7.08351 12.3225 7.12847 12.3651C7.17347 12.4077 7.2267 12.4289 7.28825 12.4289H9.33379V14.7727C9.33379 14.839 9.35625 14.8935 9.40125 14.936C9.44625 14.9785 9.49949 14.9999 9.56103 14.9999H10.7827C10.8442 14.9999 10.8974 14.9775 10.9427 14.9324C10.9874 14.8874 11.0099 14.8342 11.0099 14.7727V12.4289H13.0696C13.1311 12.4289 13.1844 12.4076 13.2293 12.365C13.2744 12.3225 13.2968 12.268 13.2968 12.2016V11.4702C13.2968 11.4085 13.2745 11.3553 13.2293 11.3103C13.1844 11.2653 13.1311 11.2429 13.0696 11.2429H11.0099V10.6392H13.0696C13.1311 10.6392 13.1844 10.6179 13.2293 10.5753C13.2744 10.5328 13.2968 10.4783 13.2968 10.412V9.67329C13.2968 9.61174 13.2745 9.55858 13.2293 9.51351C13.1844 9.46861 13.1311 9.44614 13.0696 9.44614H11.5426L13.7657 5.33384C13.8035 5.25339 13.8012 5.18 13.7585 5.11368Z" fill="#FACD65"/>
</svg>
