<svg width="32" height="32" viewBox="0 0 32 32" fill="none" xmlns="http://www.w3.org/2000/svg">
<circle cx="16" cy="16" r="16" fill="#F00500"/>
<g clip-path="url(#clip0_8326_39694)">
<path d="M21.5726 7.11095C20.948 7.72851 20.3758 8.39785 19.8672 9.11156L19.7063 9.05979C18.7788 8.76025 17.8176 8.57535 16.8489 8.51249C16.5572 8.4903 15.4688 8.4903 15.1135 8.51249C14.0401 8.58275 13.2173 8.74176 12.2823 9.06349C12.2449 9.07828 12.2112 9.08938 12.1776 9.10047C11.6502 8.39045 11.063 7.72482 10.416 7.11465C13.5203 5.543 17.1519 5.3544 20.402 6.59323C20.7498 6.72266 21.0902 6.87428 21.423 7.03699L21.5726 7.11095Z" fill="#F00500"/>
<path d="M27.3617 21.1378C26.8905 22.4654 26.1836 23.6969 25.2673 24.7693C24.7699 25.3462 24.2201 25.875 23.6292 26.3557C22.2453 27.4577 20.6296 28.2454 18.9055 28.6596C16.998 29.1144 15.0083 29.1144 13.1009 28.6596C11.373 28.2454 9.761 27.4577 8.37717 26.3557C7.78624 25.875 7.23645 25.3462 6.73902 24.7693C4.10228 21.6888 3.3019 17.4583 4.64459 13.6457C4.89891 12.9394 5.21682 12.259 5.5983 11.6118C5.77409 11.316 5.99101 10.9831 6.09573 10.8463C6.45478 12.3736 6.89611 13.716 7.06067 14.2004C7.04945 14.2263 7.03449 14.2559 7.01953 14.2818C6.14809 16.0272 5.67685 17.7098 5.56464 19.4996C5.56464 19.5218 5.5609 19.5477 5.5609 19.5699C5.53098 20.1061 5.54594 20.3613 5.6357 20.6978C5.91621 21.7517 6.78017 22.9129 8.13407 24.0519C10.3519 25.9157 13.3589 27.2617 15.6366 27.417C18.0116 27.5761 21.516 26.2041 23.8498 24.1998C24.2163 23.8781 24.5604 23.5378 24.8821 23.1754C25.114 22.9092 25.4581 22.4506 25.4319 22.4506C25.4244 22.4506 25.4319 22.4432 25.4468 22.4358C25.4581 22.4284 25.4693 22.4174 25.4618 22.41C25.4581 22.4063 25.4655 22.3952 25.4768 22.3915C25.488 22.3878 25.4955 22.3804 25.4917 22.373C25.488 22.3656 25.4917 22.3582 25.5067 22.3545C25.5179 22.3508 25.5216 22.3397 25.5179 22.3323C25.5142 22.3249 25.5179 22.3175 25.5254 22.3175C25.5329 22.3175 25.5403 22.3064 25.5403 22.299C25.5403 22.2916 25.5478 22.2805 25.5553 22.2805C25.5628 22.2805 25.5703 22.2731 25.5703 22.2657C25.5815 22.2362 25.6002 22.2066 25.6189 22.1807C25.675 22.0956 25.8994 21.6999 25.9293 21.6334C26.1425 21.1563 26.2771 20.7311 26.3407 20.3058C26.3706 20.1024 26.3893 19.7289 26.3744 19.6402C26.3706 19.6254 26.3706 19.5995 26.3669 19.5588C26.3594 19.4848 26.3557 19.3739 26.3482 19.263C26.3407 19.0966 26.3257 18.8636 26.3145 18.7489C26.1537 17.07 25.7199 15.6981 24.897 14.2448C24.8634 14.1893 24.8335 14.1338 24.8148 14.0895C24.8073 14.0784 24.8035 14.0673 24.7998 14.0599C24.9157 13.716 25.3907 12.2774 25.7685 10.6318L25.776 10.6392L25.8321 10.7132C25.9293 10.8426 26.1874 11.2272 26.3033 11.4121C26.8307 12.2627 27.2421 13.1761 27.5338 14.1301C28.2107 16.4266 28.1546 18.8747 27.3617 21.1378Z" fill="#F00500"/>
<path d="M22.5064 16.7181C22.4952 16.7773 22.3194 16.9548 22.1436 17.0842C21.6275 17.4577 20.7037 17.8054 19.765 17.9718C19.2301 18.0679 18.6953 18.0827 18.5345 18.005C18.4297 17.9533 18.4148 17.9126 18.4522 17.7795C18.5307 17.5021 18.7851 17.1989 19.1815 16.9141C19.3835 16.7699 20.2025 16.2781 20.584 16.071C21.2124 15.7308 21.721 15.5274 22.0651 15.4793C22.1736 15.4645 22.3045 15.4608 22.3456 15.4793C22.4129 15.5052 22.4877 15.7012 22.5176 15.9379C22.5326 16.0636 22.5251 16.6183 22.5064 16.7181Z" fill="black"/>
<path d="M13.6948 17.9428C13.6724 17.9872 13.5602 18.0353 13.433 18.0538C13.3058 18.0723 12.9169 18.0612 12.6962 18.0353C11.9033 17.9317 11.0618 17.6914 10.4484 17.3955C10.1044 17.2291 9.85751 17.0627 9.67425 16.8815L9.56953 16.7743L9.55831 16.6337C9.5396 16.3897 9.54335 16.0051 9.57327 15.8683C9.59197 15.7536 9.63311 15.6427 9.68921 15.5428C9.71913 15.5059 9.71913 15.5059 9.85377 15.5059C10.0183 15.5059 10.1567 15.5317 10.3811 15.602C10.8411 15.7425 11.5256 16.0827 12.3596 16.5783C13.0478 16.9851 13.3059 17.1848 13.5041 17.4584C13.6387 17.6285 13.7285 17.8689 13.6948 17.9428Z" fill="black"/>
<path d="M18.9917 23.0896C18.9917 23.1007 18.9469 23.2782 18.8908 23.489C18.8347 23.6998 18.7898 23.8699 18.7898 23.8773C18.7486 23.881 18.7112 23.8847 18.6701 23.881H18.5504L18.3859 24.2656C18.2961 24.4764 18.2138 24.6723 18.2026 24.7019L18.1802 24.7537L18.1016 24.628L18.0231 24.5022V23.4779L17.9932 23.4853C17.9296 23.5001 17.477 23.5593 17.2788 23.5777C16.4597 23.6591 15.6369 23.6406 14.8216 23.526C14.6907 23.5075 14.5785 23.4927 14.5747 23.4964C14.571 23.5001 14.5747 23.7368 14.5822 24.0289L14.5934 24.554L14.5299 24.6502C14.4962 24.7019 14.4625 24.7463 14.4625 24.75C14.4513 24.7611 14.4139 24.7019 14.3279 24.5318C14.2344 24.3543 14.1671 24.1657 14.1184 23.9697L14.0923 23.8625L13.9763 23.8699L13.8604 23.881L13.8305 23.7442C13.8155 23.6702 13.7968 23.5556 13.7893 23.4927L13.7781 23.3744L13.6809 23.2893C13.6248 23.2412 13.5687 23.1932 13.5574 23.1858C13.5387 23.171 13.5312 23.1451 13.5312 23.1229V23.0785L13.9988 23.0822L14.4663 23.0859L14.4812 23.134L14.4962 23.1821L14.657 23.1895C14.7468 23.1932 15.031 23.2005 15.2853 23.2079L15.7528 23.219L15.8725 23.0341L15.996 22.8492H16.153L16.1493 22.4646L16.1456 22.0801L15.9399 21.9913C15.2779 21.7029 14.8889 21.3737 14.743 20.9744C14.7131 20.893 14.7131 20.8634 14.7056 20.4936C14.7019 20.1275 14.7019 20.0942 14.7281 20.0129C14.7804 19.828 14.9263 19.6838 15.1133 19.6357C15.1769 19.6172 15.3452 19.6172 16.2278 19.6172L17.2676 19.6209L17.3835 19.6764C17.5219 19.7429 17.5855 19.791 17.664 19.8945C17.7538 20.0129 17.78 20.1053 17.78 20.3309C17.78 20.6526 17.7575 20.93 17.7239 21.0409C17.6752 21.1925 17.6004 21.3368 17.5069 21.4662C17.3199 21.7029 16.9796 21.9395 16.6692 22.0468L16.5794 22.0801L16.5831 22.4683L16.5869 22.8566L16.6692 22.864L16.7515 22.8714L16.8637 23.0378L16.9721 23.2042H17.4733C17.75 23.2042 17.9931 23.2079 18.0156 23.2116C18.053 23.219 18.0605 23.2153 18.0979 23.1525L18.1428 23.0859H18.5729C18.8945 23.0711 18.9917 23.0785 18.9917 23.0896Z" fill="black"/>
<path d="M17.0161 24.1512C16.945 24.1919 16.8964 24.2104 16.8852 24.203C16.8739 24.1993 16.8216 24.1549 16.7655 24.1143L16.6645 24.0329L16.5598 24.1438C16.3316 24.3879 16.3241 24.399 16.2568 24.4027C16.1521 24.4138 16.1297 24.3953 16.0025 24.2067C15.9352 24.1106 15.8828 24.0292 15.8828 24.0292C15.8828 24.0292 15.8342 24.0218 15.7781 24.0181L15.6734 24.007L15.6248 24.1069L15.5761 24.2067L15.4901 24.1808C15.4228 24.1586 15.3555 24.1328 15.2919 24.1032L15.1797 24.0477V23.8369L16.1745 23.8406L17.1694 23.8443L17.1731 23.9442C17.1769 24.0625 17.1806 24.0588 17.0161 24.1512Z" fill="black"/>
<path d="M26.3669 19.6395C26.3631 19.6247 26.3631 19.5988 26.3594 19.5581C25.4618 19.462 22.8998 19.4028 20.5211 21.3443C20.5211 21.3443 19.7544 17.8682 16.164 17.8682C12.5735 17.8682 11.242 21.3443 11.242 21.3443C9.22988 19.2031 6.53704 19.3585 5.56462 19.499C5.56462 19.5212 5.56088 19.5471 5.56088 19.5692C5.53096 20.1055 5.54592 20.3606 5.63568 20.6971C5.91619 21.7511 6.78014 22.9122 8.13405 24.0512C10.3519 25.915 13.3589 27.2611 15.6366 27.4164C18.0116 27.5754 21.516 26.2034 23.8498 24.1991C24.2163 23.8774 24.5604 23.5372 24.8821 23.1748C25.1139 22.9085 25.458 22.45 25.4318 22.45C25.4244 22.45 25.4319 22.4426 25.4468 22.4352C25.458 22.4278 25.4692 22.4167 25.4618 22.4093C25.458 22.4056 25.4655 22.3945 25.4767 22.3908C25.4879 22.3871 25.4954 22.3797 25.4917 22.3723C25.4879 22.3649 25.4917 22.3575 25.5067 22.3538C25.5179 22.3501 25.5216 22.339 25.5179 22.3316C25.5141 22.3243 25.5179 22.3169 25.5254 22.3169C25.5328 22.3169 25.5403 22.3058 25.5403 22.2984C25.5403 22.291 25.5478 22.2799 25.5553 22.2799C25.5627 22.2799 25.5702 22.2725 25.5702 22.2651C25.5815 22.2355 25.6002 22.2059 25.6189 22.18C25.675 22.095 25.8994 21.6993 25.9293 21.6327C26.1425 21.1557 26.2771 20.7304 26.3407 20.3051C26.3631 20.1018 26.3818 19.7283 26.3669 19.6395ZM17.0167 24.1511C16.9456 24.1917 16.897 24.2102 16.8858 24.2028C16.8746 24.1991 16.8222 24.1548 16.7661 24.1141L16.6651 24.0327L16.5604 24.1437C16.3323 24.3877 16.3248 24.3988 16.2575 24.4025C16.1527 24.4136 16.1303 24.3951 16.0031 24.2065C15.9358 24.1104 15.8835 24.029 15.8835 24.029C15.8835 24.029 15.8348 24.0216 15.7787 24.0179L15.674 24.0068L15.6254 24.1067L15.5768 24.2065L15.4908 24.1806C15.4234 24.1585 15.3561 24.1326 15.2925 24.103L15.1803 24.0475V23.8367L16.1752 23.8404L17.17 23.8441L17.1738 23.944C17.1775 24.0623 17.1813 24.0586 17.0167 24.1511ZM18.8867 23.4854C18.8306 23.6962 18.7857 23.8663 18.7857 23.8737C18.7446 23.8774 18.7072 23.8811 18.6661 23.8774H18.5464L18.3856 24.2657C18.2958 24.4765 18.2135 24.6725 18.2023 24.7021L18.1799 24.7538L18.1013 24.6281L18.0228 24.5024V23.478L17.9929 23.4854C17.9293 23.5002 17.4767 23.5594 17.2785 23.5779C16.4594 23.6592 15.6366 23.6407 14.8213 23.5261C14.6904 23.5076 14.5782 23.4928 14.5744 23.4965C14.5707 23.5002 14.5744 23.7369 14.5819 24.029L14.5931 24.5541L14.5296 24.6503C14.4959 24.7021 14.4622 24.7464 14.4622 24.7501C14.451 24.7612 14.4136 24.7021 14.3276 24.532C14.2341 24.3545 14.1668 24.1659 14.1182 23.9699L14.092 23.8626L13.976 23.87L13.8601 23.8811L13.8302 23.7443C13.8152 23.6703 13.7965 23.5557 13.789 23.4928L13.7778 23.3745L13.6806 23.2894C13.6245 23.2414 13.5684 23.1933 13.5571 23.1859C13.5384 23.1711 13.531 23.1452 13.531 23.123V23.0786L13.9985 23.0823L14.466 23.086L14.4809 23.1341L14.4959 23.1822L14.6567 23.1896C14.7465 23.1933 15.0307 23.2007 15.285 23.2081L15.7526 23.2192L15.8722 23.0343L15.9957 22.8494H16.1527L16.149 22.4648L16.1453 22.0802L15.9396 21.9914C15.2776 21.703 14.8886 21.3739 14.7427 20.9745C14.7128 20.8931 14.7128 20.8635 14.7053 20.4937C14.7016 20.1276 14.7016 20.0944 14.7278 20.013C14.7801 19.8281 14.926 19.6839 15.113 19.6358C15.1766 19.6173 15.3449 19.6173 16.2275 19.6173L17.2673 19.621L17.3832 19.6765C17.5216 19.743 17.5852 19.7911 17.6637 19.8947C17.7535 20.013 17.7797 20.1055 17.7797 20.331C17.7797 20.6528 17.7572 20.9301 17.7236 21.041C17.675 21.1927 17.6002 21.3369 17.5066 21.4663C17.3196 21.703 16.9793 21.9397 16.6689 22.0469L16.5791 22.0802L16.5829 22.4685L16.5866 22.8568L16.6689 22.8642L16.7512 22.8716L16.8634 23.038L16.9718 23.2044H17.473C17.7498 23.2044 17.9929 23.2081 18.0153 23.2118C18.0527 23.2192 18.0602 23.2155 18.0976 23.1526L18.1425 23.086H18.5726C18.9054 23.086 19.0027 23.0897 19.0027 23.1008C18.9915 23.0971 18.9428 23.2783 18.8867 23.4854Z" fill="white"/>
<path d="M26.3364 19.2626C26.329 19.0962 26.314 18.8632 26.3028 18.7486C26.142 17.0697 25.7081 15.6977 24.8853 14.2444C24.8516 14.189 24.8217 14.1335 24.803 14.0891C24.7955 14.078 24.7918 14.0669 24.7881 14.0595C24.904 13.7156 25.379 12.2771 25.7567 10.6315C26.2691 8.39789 26.5945 5.7871 25.5997 5.00313C25.5997 5.00313 23.8792 4.8774 21.5753 7.11099C20.9508 7.72855 20.3785 8.39789 19.8699 9.1116L19.709 9.05983C18.7815 8.76029 17.8203 8.57539 16.8516 8.51253C16.5599 8.49034 15.4716 8.49034 15.1162 8.51253C14.0428 8.58279 13.22 8.7418 12.285 9.06353C12.2476 9.07832 12.214 9.08941 12.1803 9.10051C11.6529 8.39049 11.0658 7.72485 10.4187 7.11469C8.02134 4.87 6.23733 4.99943 6.23733 4.99943C5.18263 5.80929 5.54168 8.53841 6.08773 10.846C6.44678 12.3732 6.8881 13.7156 7.05267 14.2C7.04145 14.2259 7.02649 14.2555 7.01153 14.2814C6.14009 16.0269 5.66884 17.7094 5.55664 19.4993C6.5328 19.3588 9.22191 19.1997 11.2378 21.3446C11.2378 21.3446 12.5693 17.8685 16.1597 17.8685C19.7502 17.8685 20.5169 21.3446 20.5169 21.3446C22.8956 19.4031 25.4575 19.466 26.3551 19.5584C26.3514 19.4845 26.3439 19.3735 26.3364 19.2626ZM7.75954 12.8059C7.75954 12.8059 6.36075 9.34828 6.7198 7.37354C6.77964 7.04073 6.89184 6.74858 7.06763 6.5267C7.06763 6.5267 8.65341 6.68202 11.2116 9.4925C11.2116 9.4925 10.7254 9.72547 10.0746 10.221C10.0746 10.221 10.0709 10.2247 10.0672 10.2247C9.36029 10.7609 8.45519 11.6114 7.75954 12.8059ZM13.695 17.9424C13.6726 17.9868 13.5604 18.0349 13.4332 18.0534C13.3061 18.0718 12.9171 18.0608 12.6964 18.0349C11.9035 17.9313 11.062 17.691 10.4486 17.3951C10.1046 17.2287 9.85771 17.0623 9.67445 16.8811L9.56973 16.7739L9.55851 16.6333C9.53981 16.3893 9.54355 16.0047 9.57347 15.8678C9.59217 15.7532 9.63331 15.6423 9.68941 15.5424C9.71933 15.5054 9.71933 15.5054 9.85398 15.5054C10.0185 15.5054 10.1569 15.5313 10.3813 15.6016C10.8414 15.7421 11.5258 16.0823 12.3598 16.5779C13.048 16.9846 13.3061 17.1843 13.5043 17.458C13.6389 17.6281 13.7287 17.8685 13.695 17.9424ZM22.5066 16.7184C22.4954 16.7776 22.3196 16.9551 22.1438 17.0845C21.6277 17.458 20.7039 17.8056 19.7651 17.972C19.2303 18.0682 18.6955 18.0829 18.5347 18.0053C18.4299 17.9535 18.415 17.9128 18.4524 17.7797C18.5309 17.5024 18.7853 17.1991 19.1817 16.9144C19.3837 16.7702 20.2027 16.2783 20.5842 16.0712C21.2126 15.731 21.7212 15.5276 22.0653 15.4796C22.1738 15.4648 22.3047 15.4611 22.3458 15.4796C22.4131 15.5054 22.4879 15.7014 22.5178 15.9381C22.5328 16.0638 22.5253 16.6185 22.5066 16.7184ZM21.8858 10.221L21.8783 10.2173C21.25 9.72177 20.7787 9.4888 20.7787 9.4888C23.2509 6.67832 24.7806 6.52301 24.7806 6.52301C24.9489 6.74858 25.0573 7.03703 25.1172 7.36985C25.465 9.34458 24.1148 12.8059 24.1148 12.8059C23.5501 11.8111 22.7909 10.931 21.8858 10.221Z" fill="#FFA409"/>
<path d="M25.1215 7.37028C24.8298 7.3333 23.4497 7.3259 21.8864 10.2214L21.8789 10.2177C21.2505 9.7222 20.7793 9.48923 20.7793 9.48923C23.2515 6.67875 24.7812 6.52344 24.7812 6.52344C24.9532 6.74902 25.0617 7.03746 25.1215 7.37028Z" fill="#FF9300"/>
<path d="M24.1195 12.8067C23.5511 11.8082 22.7956 10.9318 21.8867 10.2218C23.4501 7.32625 24.8264 7.33365 25.1219 7.37063C25.4697 9.34906 24.1195 12.8067 24.1195 12.8067Z" fill="#FF8300"/>
<path d="M25.1778 7.38134C25.1589 7.3776 25.14 7.37386 25.1211 7.37012L25.1778 7.38134Z" fill="#FF8300"/>
<path d="M11.2124 9.48923C11.2124 9.48923 10.7261 9.7222 10.0754 10.2177C10.0754 10.2177 10.0716 10.2214 10.0679 10.2214C8.44845 7.3222 7.02348 7.3333 6.7168 7.37028C6.77664 7.03746 6.88884 6.74532 7.06462 6.52344C7.06836 6.52344 8.65415 6.67875 11.2124 9.48923Z" fill="#FF9300"/>
<path d="M10.0702 10.2218C9.35958 10.7617 8.45448 11.6085 7.75883 12.8067C7.75883 12.8067 6.36005 9.34906 6.71909 7.37063C7.02204 7.33365 8.45074 7.32625 10.0702 10.2218Z" fill="#FF8300"/>
<path d="M6.72068 7.37012C6.70176 7.37386 6.67907 7.3776 6.66016 7.38134L6.72068 7.37012Z" fill="#FF8300"/>
<path d="M20.3336 14.7251C20.3336 14.7251 19.1368 14.7991 19.2864 13.8746C19.436 12.9501 20.371 12.8391 20.6328 12.8761C20.8946 12.9131 21.9418 13.2829 21.7548 14.0595C21.5678 14.836 21.306 14.6881 21.1564 14.7251C21.0068 14.7621 20.3336 14.7251 20.3336 14.7251Z" fill="white"/>
<path d="M11.5074 14.7251C11.5074 14.7251 10.3106 14.7991 10.4602 13.8746C10.6098 12.9501 11.5448 12.8391 11.8066 12.8761C12.0684 12.9131 13.1157 13.2829 12.9287 14.0595C12.7416 14.836 12.4798 14.6881 12.3302 14.7251C12.1806 14.7621 11.5074 14.7251 11.5074 14.7251Z" fill="white"/>
</g>
<defs>
<clipPath id="clip0_8326_39694">
<rect width="24" height="24" fill="white" transform="translate(4 5)"/>
</clipPath>
</defs>
</svg>
