<svg xmlns="http://www.w3.org/2000/svg" width="15" height="15" viewBox="0 0 18 17" fill="none">
<title>Chat Moderator Icon</title>
  <path
    d="M9.00031 16.3622L8.71697 16.2914C1.27947 13.2456 1.91697 3.61224 1.91697 3.47057L1.98781 2.83307H2.62531C5.88364 2.83307 8.57531 0.84974 8.57531 0.84974L9.00031 0.566406L9.42531 0.84974C9.42531 0.84974 12.117 2.83307 15.3753 2.83307H16.0128L16.0836 3.47057C16.0836 3.54141 16.7211 13.2456 9.28364 16.2206L9.00031 16.3622ZM3.33364 4.24974C3.33364 6.23307 3.75864 12.5372 9.00031 14.8747C14.242 12.6081 14.667 6.30391 14.667 4.24974C12.0461 4.03724 9.85031 2.83307 9.00031 2.26641C8.15031 2.83307 5.95447 4.03724 3.33364 4.24974Z"
    fill="#5DD750" />
  <path
    d="M9.00014 14.1673C3.47514 11.9007 4.04181 4.53398 4.04181 4.53398C6.80431 4.53398 9.00014 2.83398 9.00014 2.83398V14.1673Z"
    fill="#5DD750" />
</svg>
