<svg width="19" height="20" viewBox="0 0 19 20" fill="none" xmlns="http://www.w3.org/2000/svg">
<mask id="mask0_37576_56868" style="mask-type:luminance" maskUnits="userSpaceOnUse" x="0" y="0" width="19" height="20">
<path d="M18.6668 0.791687H0.333496V19.125H18.6668V0.791687Z" fill="white"/>
</mask>
<g mask="url(#mask0_37576_56868)">
<path d="M9.50016 19.125C14.5628 19.125 18.6668 15.021 18.6668 9.95835C18.6668 4.89575 14.5628 0.791687 9.50016 0.791687C4.43756 0.791687 0.333496 4.89575 0.333496 9.95835C0.333496 15.021 4.43756 19.125 9.50016 19.125Z" fill="#BE334E"/>
<path d="M11.0729 11.4007C11.9822 11.4007 12.8543 11.0635 13.4973 10.4634C14.1402 9.8633 14.5015 9.04936 14.5015 8.20067C14.5015 7.35198 14.1402 6.53805 13.4973 5.93793C12.8543 5.33781 11.9822 5.00067 11.0729 5.00067H7.85861C7.68811 5.00068 7.52461 5.0639 7.40405 5.17642C7.28349 5.28894 7.21576 5.44154 7.21575 5.60067V10.2007H6.14432C5.97383 10.2007 5.81031 10.2639 5.68975 10.3764C5.56919 10.4889 5.50146 10.6415 5.50146 10.8007C5.50146 10.9598 5.56919 11.1124 5.68975 11.2249C5.81031 11.3375 5.97383 11.4007 6.14432 11.4007H7.21575V12.2007H6.14432C5.97383 12.2007 5.81031 12.2639 5.68975 12.3764C5.56919 12.4889 5.50146 12.6415 5.50146 12.8007C5.50146 12.9598 5.56919 13.1124 5.68975 13.2249C5.81031 13.3375 5.97383 13.4007 6.14432 13.4007H7.21575V14.4007C7.21575 14.5598 7.28348 14.7124 7.40404 14.8249C7.5246 14.9375 7.68811 15.0007 7.85861 15.0007C8.0291 15.0007 8.19262 14.9375 8.31318 14.8249C8.43374 14.7124 8.50146 14.5598 8.50146 14.4007V13.4007H10.8586C11.0291 13.4007 11.1926 13.3375 11.3132 13.2249C11.4337 13.1124 11.5015 12.9598 11.5015 12.8007C11.5015 12.6415 11.4337 12.4889 11.3132 12.3764C11.1926 12.2639 11.0291 12.2007 10.8586 12.2007H8.50146V11.4007H11.0729ZM8.50146 6.20067H11.0729C11.6412 6.20067 12.1863 6.41139 12.5881 6.78646C12.99 7.16153 13.2158 7.67024 13.2158 8.20067C13.2158 8.7311 12.99 9.23981 12.5881 9.61488C12.1863 9.98996 11.6412 10.2007 11.0729 10.2007H8.50146V6.20067Z" fill="white"/>
</g>
</svg>
