<svg width="100" height="100" viewBox="0 0 100 100" fill="none" xmlns="http://www.w3.org/2000/svg">
<path d="M83.6525 54.1867C86.3233 48.3027 73.1198 31.8642 60.5058 25.0156C52.5549 19.71 44.27 20.4389 42.592 22.7685C38.9095 27.8809 54.7856 32.2128 65.403 37.268C63.1207 38.2454 60.9699 39.9997 59.7051 42.2433C55.7468 37.9817 47.059 34.3119 36.8645 37.268C29.9947 39.26 24.2855 43.9564 22.0788 51.0498C21.5426 50.8148 20.9491 50.6841 20.3245 50.6841C17.9361 50.6841 16 52.5935 16 54.9487C16 57.304 17.9361 59.2132 20.3245 59.2132C20.7672 59.2132 22.1513 58.9205 22.1513 58.9205L44.27 59.0785C35.4242 72.9171 28.4336 74.9401 28.4336 77.3376C28.4336 79.735 35.1225 79.0854 37.6339 78.1917C49.6567 73.9136 62.5697 60.5808 64.7856 56.7428C74.0908 57.8876 81.9111 58.0231 83.6525 54.1867Z" fill="white"/>
<path fill-rule="evenodd" clip-rule="evenodd" d="M65.4047 37.2694C65.8969 37.0783 65.8172 36.3614 65.6821 35.7986C65.3715 34.5047 60.0125 29.2861 54.9799 26.9486C48.123 23.7638 43.0736 23.9277 42.3271 25.3955C43.7238 28.2188 50.1995 30.8695 56.963 33.6379C59.8484 34.819 62.7866 36.023 65.4047 37.2694Z" fill="white"/>
<path fill-rule="evenodd" clip-rule="evenodd" d="M56.7005 65.6835C55.3137 65.1608 53.7471 64.6814 51.9661 64.2463C53.8652 60.8954 54.2637 55.9346 52.4702 52.7981C49.9532 48.3965 46.7937 46.0537 39.4518 46.0537C35.4137 46.0537 24.5413 47.395 24.3483 56.3453C24.3281 57.2844 24.3479 58.1451 24.4168 58.9366L44.27 59.0785C41.5934 63.2657 39.087 66.3712 36.8924 68.7327C39.5275 69.3985 41.7019 69.9576 43.6981 70.4707C45.5925 70.9577 47.3262 71.4034 49.1408 71.86C51.8782 69.8933 54.4518 67.7487 56.7005 65.6835Z" fill="white"/>
<path d="M21.8144 58.0171C22.6254 64.8162 26.5438 67.4808 34.5506 68.2694C42.5573 69.0579 47.1502 68.5288 53.2646 69.0774C58.3715 69.5356 62.9313 72.1021 64.6228 71.2152C66.1453 70.4171 65.2936 67.5334 63.2565 65.6834C60.6159 63.2853 56.9614 61.6179 50.5309 61.0261C51.8123 57.5659 51.4532 52.7144 49.463 50.0747C46.5852 46.2581 41.2734 44.5325 34.5506 45.2864C27.5268 46.0742 20.7966 49.4843 21.8144 58.0171Z" fill="white"/>
</svg>
