<svg width="35" height="35" viewBox="0 0 35 35" fill="none" xmlns="http://www.w3.org/2000/svg">
<title>Tip Received Icon</title>
<path d="M22.4219 16.4062C25.1402 16.4062 27.3438 14.2027 27.3438 11.4844C27.3438 8.7661 25.1402 6.5625 22.4219 6.5625C19.7036 6.5625 17.5 8.7661 17.5 11.4844C17.5 14.2027 19.7036 16.4062 22.4219 16.4062Z" fill="#C1C4DC"/>
<path d="M32.7031 18.0469C32.4844 17.7187 32.1562 17.5 31.7187 17.5C29.3125 17.5 27.0156 18.5937 25.5937 20.5625L24.6094 21.875C23.4062 23.2969 21.5469 24.0625 19.6875 24.0625H16.4063C15.75 24.0625 15.3125 23.625 15.3125 22.9688C15.3125 22.3125 15.75 21.875 16.4063 21.875H18.4844C20.2344 21.875 21.875 20.4531 21.875 18.7031V18.5938C21.875 18.0469 21.3281 17.5 20.7812 17.5H14.1094C10.1719 17.5 7 19.25 5.25 22.0938L2.29688 26.6875C2.07813 27.0156 2.07813 27.4531 2.29688 27.7812L5.57813 33.25C5.6875 33.4687 6.01562 33.6875 6.23438 33.7969C6.34375 33.7969 6.34375 33.7969 6.45313 33.7969C6.67188 33.7969 6.89063 33.6875 7.10938 33.5781C11.2656 30.8438 16.0781 29.4219 21 29.4219C24.6094 29.4219 27.8906 27.4531 29.6406 24.2813L32.5937 19.0312C32.8125 18.8125 32.8125 18.375 32.7031 18.0469Z" fill="#C1C4DC"/>
<path d="M15.3125 11.4844C15.3125 8.75 16.9531 6.34375 19.25 5.14062C18.4844 3.39062 16.7344 2.1875 14.7656 2.1875C12.0312 2.1875 9.84375 4.375 9.84375 7.10938C9.84375 9.84375 12.0312 12.0312 14.7656 12.0312C14.9844 12.0312 15.0937 12.0312 15.3125 11.9219C15.3125 11.8125 15.3125 11.7031 15.3125 11.4844Z" fill="#C1C4DC"/>
</svg>
