<svg width="48" height="48" viewBox="0 0 48 48" fill="none" xmlns="http://www.w3.org/2000/svg">
<rect x="0.25" y="0.25" width="47.5" height="47.5" rx="23.75" fill="white"/>
<rect x="0.25" y="0.25" width="47.5" height="47.5" rx="23.75" stroke="#33333E" stroke-width="0.5"/>
<path d="M27.6433 19.3337H20.3642C20.0552 19.3337 19.8042 19.6122 19.8042 19.9559V28.0448C19.8042 28.3885 20.0552 28.6671 20.3642 28.6671H27.6433C27.9528 28.6671 28.2033 28.3885 28.2033 28.0448V19.9559C28.2033 19.6122 27.9528 19.3337 27.6433 19.3337Z" fill="black"/>
<path d="M19.2405 10H11.9614C11.6524 10 11.4014 10.2785 11.4014 10.6223V18.711C11.4014 19.0547 11.6524 19.3333 11.9614 19.3333H19.2405C19.55 19.3333 19.8005 19.0547 19.8005 18.711V10.6223C19.8005 10.2785 19.55 10 19.2405 10Z" fill="black"/>
<path d="M36.0388 10H28.7597C28.4502 10 28.1997 10.2785 28.1997 10.6223V18.711C28.1997 19.0547 28.4502 19.3333 28.7597 19.3333H36.0388C36.3484 19.3333 36.5989 19.0547 36.5989 18.711V10.6223C36.5989 10.2785 36.3484 10 36.0388 10Z" fill="black"/>
<path d="M19.2405 28.6665H11.9614C11.6524 28.6665 11.4014 28.9451 11.4014 29.2887V37.3777C11.4014 37.7213 11.6524 37.9999 11.9614 37.9999H19.2405C19.55 37.9999 19.8005 37.7213 19.8005 37.3777V29.2887C19.8005 28.9451 19.55 28.6665 19.2405 28.6665Z" fill="black"/>
<path d="M36.0388 28.6665H28.7597C28.4502 28.6665 28.1997 28.9451 28.1997 29.2887V37.3777C28.1997 37.7213 28.4502 37.9999 28.7597 37.9999H36.0388C36.3484 37.9999 36.5989 37.7213 36.5989 37.3777V29.2887C36.5989 28.9451 36.3484 28.6665 36.0388 28.6665Z" fill="black"/>
</svg>
