<svg width="20" height="20" viewBox="0 0 20 20" fill="none" xmlns="http://www.w3.org/2000/svg">
<mask id="mask0_37576_56919" style="mask-type:luminance" maskUnits="userSpaceOnUse" x="0" y="0" width="20" height="20">
<path d="M19.1654 0.791016H0.832031V19.1243H19.1654V0.791016Z" fill="white"/>
</mask>
<g mask="url(#mask0_37576_56919)">
<path d="M9.9987 19.1243C15.0613 19.1243 19.1654 15.0203 19.1654 9.95768C19.1654 4.89508 15.0613 0.791016 9.9987 0.791016C4.93609 0.791016 0.832031 4.89508 0.832031 9.95768C0.832031 15.0203 4.93609 19.1243 9.9987 19.1243Z" fill="#FB5A4B"/>
</g>
<path d="M3.419 13L6.227 6.7H7.667L10.484 13H8.954L6.65 7.438H7.226L4.913 13H3.419ZM4.823 11.65L5.21 10.543H8.45L8.846 11.65H4.823ZM12.8836 14.08V5.62H13.7836V14.08H12.8836ZM13.2076 13.108C12.7036 13.108 12.2206 13.042 11.7586 12.91C11.2966 12.772 10.9246 12.595 10.6426 12.379L11.1376 11.281C11.4076 11.473 11.7256 11.632 12.0916 11.758C12.4636 11.878 12.8386 11.938 13.2166 11.938C13.5046 11.938 13.7356 11.911 13.9096 11.857C14.0896 11.797 14.2216 11.716 14.3056 11.614C14.3896 11.512 14.4316 11.395 14.4316 11.263C14.4316 11.095 14.3656 10.963 14.2336 10.867C14.1016 10.765 13.9276 10.684 13.7116 10.624C13.4956 10.558 13.2556 10.498 12.9916 10.444C12.7336 10.384 12.4726 10.312 12.2086 10.228C11.9506 10.144 11.7136 10.036 11.4976 9.904C11.2816 9.772 11.1046 9.598 10.9666 9.382C10.8346 9.166 10.7686 8.89 10.7686 8.554C10.7686 8.194 10.8646 7.867 11.0566 7.573C11.2546 7.273 11.5486 7.036 11.9386 6.862C12.3346 6.682 12.8296 6.592 13.4236 6.592C13.8196 6.592 14.2096 6.64 14.5936 6.736C14.9776 6.826 15.3166 6.964 15.6106 7.15L15.1606 8.257C14.8666 8.089 14.5726 7.966 14.2786 7.888C13.9846 7.804 13.6966 7.762 13.4146 7.762C13.1326 7.762 12.9016 7.795 12.7216 7.861C12.5416 7.927 12.4126 8.014 12.3346 8.122C12.2566 8.224 12.2176 8.344 12.2176 8.482C12.2176 8.644 12.2836 8.776 12.4156 8.878C12.5476 8.974 12.7216 9.052 12.9376 9.112C13.1536 9.172 13.3906 9.232 13.6486 9.292C13.9126 9.352 14.1736 9.421 14.4316 9.499C14.6956 9.577 14.9356 9.682 15.1516 9.814C15.3676 9.946 15.5416 10.12 15.6736 10.336C15.8116 10.552 15.8806 10.825 15.8806 11.155C15.8806 11.509 15.7816 11.833 15.5836 12.127C15.3856 12.421 15.0886 12.658 14.6926 12.838C14.3026 13.018 13.8076 13.108 13.2076 13.108Z" fill="white"/>
</svg>
