<svg width="19" height="20" viewBox="0 0 19 20" fill="none" xmlns="http://www.w3.org/2000/svg">
<mask id="mask0_37576_56970" style="mask-type:luminance" maskUnits="userSpaceOnUse" x="0" y="0" width="19" height="20">
<path d="M18.6654 0.791016H0.332031V19.1243H18.6654V0.791016Z" fill="white"/>
</mask>
<g mask="url(#mask0_37576_56970)">
<path d="M9.4987 19.1243C14.5613 19.1243 18.6654 15.0203 18.6654 9.95768C18.6654 4.89508 14.5613 0.791016 9.4987 0.791016C4.43609 0.791016 0.332031 4.89508 0.332031 9.95768C0.332031 15.0203 4.43609 19.1243 9.4987 19.1243Z" fill="#FACD65"/>
<path d="M6.7169 13.2076C6.2129 13.2076 5.7299 13.1416 5.2679 13.0096C4.8059 12.8716 4.4339 12.6946 4.1519 12.4786L4.6469 11.3806C4.9169 11.5726 5.2349 11.7316 5.6009 11.8576C5.9729 11.9776 6.3479 12.0376 6.7259 12.0376C7.0139 12.0376 7.2449 12.0106 7.4189 11.9566C7.5989 11.8966 7.7309 11.8156 7.8149 11.7136C7.8989 11.6116 7.9409 11.4946 7.9409 11.3626C7.9409 11.1946 7.8749 11.0626 7.7429 10.9666C7.6109 10.8646 7.4369 10.7836 7.2209 10.7236C7.0049 10.6576 6.7649 10.5976 6.5009 10.5436C6.2429 10.4836 5.9819 10.4116 5.7179 10.3276C5.4599 10.2436 5.2229 10.1356 5.0069 10.0036C4.7909 9.87161 4.6139 9.69761 4.4759 9.48161C4.3439 9.26561 4.2779 8.98961 4.2779 8.65361C4.2779 8.29361 4.3739 7.96661 4.5659 7.67261C4.7639 7.37261 5.0579 7.13561 5.4479 6.96161C5.8439 6.78161 6.3389 6.69161 6.9329 6.69161C7.3289 6.69161 7.7189 6.73961 8.1029 6.83561C8.4869 6.92561 8.8259 7.06361 9.1199 7.24961L8.6699 8.35661C8.3759 8.18861 8.0819 8.06561 7.7879 7.98761C7.4939 7.90361 7.2059 7.86161 6.9239 7.86161C6.6419 7.86161 6.4109 7.89461 6.2309 7.96061C6.0509 8.02661 5.9219 8.11361 5.8439 8.22161C5.7659 8.32361 5.7269 8.44361 5.7269 8.58161C5.7269 8.74361 5.7929 8.87561 5.9249 8.97761C6.0569 9.07361 6.2309 9.15161 6.4469 9.21161C6.6629 9.27161 6.8999 9.33161 7.1579 9.39161C7.4219 9.45161 7.6829 9.52061 7.9409 9.59861C8.2049 9.67661 8.4449 9.78161 8.6609 9.91361C8.8769 10.0456 9.0509 10.2196 9.1829 10.4356C9.3209 10.6516 9.3899 10.9246 9.3899 11.2546C9.3899 11.6086 9.2909 11.9326 9.0929 12.2266C8.8949 12.5206 8.5979 12.7576 8.2019 12.9376C7.8119 13.1176 7.3169 13.2076 6.7169 13.2076ZM12.1322 14.1796V5.71961H13.0322V14.1796H12.1322ZM12.4562 13.2076C11.9522 13.2076 11.4692 13.1416 11.0072 13.0096C10.5452 12.8716 10.1732 12.6946 9.89116 12.4786L10.3862 11.3806C10.6562 11.5726 10.9742 11.7316 11.3402 11.8576C11.7122 11.9776 12.0872 12.0376 12.4652 12.0376C12.7532 12.0376 12.9842 12.0106 13.1582 11.9566C13.3382 11.8966 13.4702 11.8156 13.5542 11.7136C13.6382 11.6116 13.6802 11.4946 13.6802 11.3626C13.6802 11.1946 13.6142 11.0626 13.4822 10.9666C13.3502 10.8646 13.1762 10.7836 12.9602 10.7236C12.7442 10.6576 12.5042 10.5976 12.2402 10.5436C11.9822 10.4836 11.7212 10.4116 11.4572 10.3276C11.1992 10.2436 10.9622 10.1356 10.7462 10.0036C10.5302 9.87161 10.3532 9.69761 10.2152 9.48161C10.0832 9.26561 10.0172 8.98961 10.0172 8.65361C10.0172 8.29361 10.1132 7.96661 10.3052 7.67261C10.5032 7.37261 10.7972 7.13561 11.1872 6.96161C11.5832 6.78161 12.0782 6.69161 12.6722 6.69161C13.0682 6.69161 13.4582 6.73961 13.8422 6.83561C14.2262 6.92561 14.5652 7.06361 14.8592 7.24961L14.4092 8.35661C14.1152 8.18861 13.8212 8.06561 13.5272 7.98761C13.2332 7.90361 12.9452 7.86161 12.6632 7.86161C12.3812 7.86161 12.1502 7.89461 11.9702 7.96061C11.7902 8.02661 11.6612 8.11361 11.5832 8.22161C11.5052 8.32361 11.4662 8.44361 11.4662 8.58161C11.4662 8.74361 11.5322 8.87561 11.6642 8.97761C11.7962 9.07361 11.9702 9.15161 12.1862 9.21161C12.4022 9.27161 12.6392 9.33161 12.8972 9.39161C13.1612 9.45161 13.4222 9.52061 13.6802 9.59861C13.9442 9.67661 14.1842 9.78161 14.4002 9.91361C14.6162 10.0456 14.7902 10.2196 14.9222 10.4356C15.0602 10.6516 15.1292 10.9246 15.1292 11.2546C15.1292 11.6086 15.0302 11.9326 14.8322 12.2266C14.6342 12.5206 14.3372 12.7576 13.9412 12.9376C13.5512 13.1176 13.0562 13.2076 12.4562 13.2076Z" fill="black"/>
</g>
</svg>
