<svg width="48" height="48" viewBox="0 0 48 48" fill="none" xmlns="http://www.w3.org/2000/svg">
<rect x="0.25" y="0.25" width="47.5" height="47.5" rx="23.75" fill="#FEF4FF"/>
<rect x="0.25" y="0.25" width="47.5" height="47.5" rx="23.75" stroke="#E0E2E6" stroke-width="0.5"/>
<path d="M19.3146 12.381C18.9653 12.3263 18.9505 12.3207 19.1158 12.2962C19.4317 12.2471 20.1749 12.3131 20.6877 12.4356C21.8842 12.7221 22.973 13.4573 24.1361 14.7635L24.4445 15.1104L24.8867 15.0387C26.7484 14.7371 28.6398 14.9765 30.2246 15.7135C30.6612 15.9171 31.3487 16.3205 31.4323 16.4242C31.462 16.4581 31.5122 16.6692 31.5438 16.8973C31.6627 17.6852 31.6051 18.2865 31.3654 18.737C31.2354 18.982 31.2279 19.0593 31.3153 19.2704C31.357 19.3574 31.422 19.4307 31.5028 19.482C31.5836 19.5333 31.677 19.5606 31.7723 19.5607C32.1662 19.5607 32.5898 18.9198 32.7849 18.0264L32.8629 17.6701L33.0172 17.8473C33.8662 18.8162 34.5314 20.1356 34.6447 21.0743L34.6745 21.3194L34.5333 21.0969C34.328 20.7563 34.0522 20.4649 33.725 20.2431C33.1565 19.8642 32.5545 19.7341 30.9641 19.6493C29.526 19.5739 28.7122 19.4495 27.9059 19.1837C26.5328 18.7313 25.8417 18.1319 24.2104 15.9756C23.4858 15.0161 23.0399 14.4864 22.5939 14.0605C21.5814 13.0897 20.5873 12.5808 19.3146 12.3829V12.381Z" fill="url(#paint0_linear_1807_2194)"/>
<path d="M31.7593 14.5204C31.7946 13.8795 31.8801 13.4554 32.0547 13.069C32.093 12.9713 32.1409 12.8779 32.1978 12.79C32.2071 12.79 32.1773 12.9031 32.1309 13.0407C32.0046 13.4177 31.9823 13.9304 32.0714 14.5279C32.1829 15.2857 32.2442 15.395 33.0376 16.2131C33.411 16.5976 33.8439 17.0801 34.0019 17.2894L34.288 17.6663L34.0019 17.3968C33.6526 17.0669 32.8499 16.4223 32.6716 16.3299C32.5527 16.2696 32.5341 16.2696 32.4616 16.3431C32.3929 16.411 32.3799 16.5128 32.3687 16.9953C32.3557 17.7474 32.2535 18.2299 32.0083 18.7106C31.8764 18.9745 31.8559 18.9179 31.9748 18.622C32.064 18.4034 32.0733 18.3053 32.0733 17.5777C32.0733 16.1169 31.8987 15.7644 30.8898 15.165C30.5855 14.9867 30.273 14.8232 29.9534 14.6749C29.7959 14.6107 29.6431 14.5351 29.4963 14.4488C29.5242 14.4205 30.5089 14.7108 30.9046 14.8634C31.4955 15.0934 31.5921 15.1217 31.6645 15.0953C31.711 15.0764 31.7351 14.9351 31.7574 14.5204H31.7593ZM19.9928 17.0217C19.2849 16.0378 18.8446 14.5279 18.9412 13.3988L18.969 13.0501L19.1307 13.0784C19.4354 13.1349 19.9575 13.331 20.2027 13.4818C20.8735 13.8927 21.1652 14.4337 21.4606 15.8248C21.5479 16.2319 21.6612 16.6918 21.7133 16.8502C21.7969 17.1009 22.1164 17.6871 22.3747 18.0678C22.5605 18.343 22.4379 18.4731 22.0254 18.4354C21.3956 18.3788 20.5427 17.7851 19.9928 17.0217ZM30.8972 24.3484C27.5826 23.0045 26.4158 21.8358 26.4158 19.8661C26.4158 19.5758 26.4251 19.3383 26.4381 19.3383C26.4492 19.3383 26.5774 19.4325 26.7224 19.5513C27.3949 20.0941 28.1474 20.326 30.2321 20.6332C31.4583 20.8142 32.1458 20.9593 32.783 21.1723C34.8082 21.849 36.0586 23.2213 36.3578 25.093C36.4432 25.6359 36.3949 26.6537 36.2519 27.1909C36.1404 27.615 35.8022 28.3784 35.7131 28.4086C35.687 28.418 35.6629 28.3219 35.6573 28.19C35.6239 27.4888 35.2709 26.8045 34.68 26.2918C34.0074 25.7094 33.1045 25.2438 30.8972 24.3484ZM28.571 24.9083C28.5321 24.6696 28.4787 24.4335 28.4112 24.2014L28.3258 23.947L28.4837 24.126C28.7011 24.3711 28.8739 24.6859 29.0188 25.1062C29.1303 25.4266 29.1414 25.5209 29.1414 26.0411C29.1414 26.5519 29.1266 26.6594 29.0225 26.9459C28.8797 27.3708 28.6404 27.7556 28.3239 28.0693C27.7182 28.6913 26.9397 29.0344 25.8157 29.1777C25.6206 29.2022 25.052 29.2436 24.5522 29.27C23.2907 29.336 22.4602 29.4736 21.7151 29.7375C21.6476 29.7676 21.5752 29.7848 21.5015 29.7884C21.4717 29.7582 21.9808 29.4529 22.3989 29.2493C22.9897 28.9609 23.5787 28.8044 24.8978 28.5839C25.5481 28.4746 26.2226 28.3407 26.3935 28.288C28.0062 27.7903 28.8367 26.5029 28.571 24.9083Z" fill="url(#paint1_linear_1807_2194)"/>
<path d="M30.0908 27.6301C29.6505 26.6763 29.5483 25.7546 29.7899 24.8951C29.8159 24.8008 29.8567 24.7273 29.8828 24.7273C29.9069 24.7273 30.0128 24.7839 30.1131 24.8536C30.3175 24.9912 30.7226 25.2231 31.8076 25.8187C33.1602 26.5633 33.9331 27.1382 34.4571 27.7979C34.916 28.3728 35.2003 29.0306 35.3377 29.8299C35.4158 30.2822 35.3693 31.3755 35.2541 31.8317C34.89 33.2717 34.0465 34.4027 32.8388 35.0624C32.6623 35.1586 32.5043 35.2377 32.4858 35.2377C32.469 35.2377 32.5341 35.0738 32.6288 34.8721C33.0357 34.0163 33.0822 33.185 32.7756 32.2595C32.5861 31.6922 32.2034 31.0004 31.4304 29.8299C30.5312 28.4727 30.3119 28.1089 30.0908 27.6301ZM17.6387 32.7817C18.8706 31.7336 20.3997 30.991 21.795 30.761C22.5137 30.6675 23.2427 30.6962 23.9521 30.8458C24.8439 31.0758 25.6429 31.5923 26.0572 32.2049C26.4622 32.8062 26.6369 33.3283 26.819 34.4932C26.8896 34.9512 26.9676 35.413 26.9899 35.5167C27.1255 36.1199 27.3912 36.6024 27.7182 36.8437C28.2385 37.2282 29.1377 37.2527 30.0202 36.9059C30.1119 36.863 30.2087 36.8326 30.3082 36.8154C30.3398 36.8475 29.8958 37.1472 29.5836 37.3055C29.2133 37.5053 28.799 37.6065 28.3797 37.5996C27.5714 37.5996 26.9007 37.1849 26.3396 36.3404C26.1338 35.9829 25.9502 35.6127 25.7896 35.2321C25.1988 33.873 24.9071 33.4602 24.2215 33.006C23.6233 32.6101 22.8522 32.5404 22.2725 32.8269C21.5107 33.2039 21.2989 34.1841 21.8452 34.8061C22.1004 35.0734 22.4342 35.2493 22.7965 35.3075C22.9403 35.3275 23.0868 35.3159 23.2258 35.2734C23.3649 35.2309 23.4933 35.1586 23.6024 35.0614C23.7115 34.9641 23.7987 34.8442 23.8581 34.7097C23.9175 34.5753 23.9476 34.4294 23.9465 34.2821C23.9465 33.873 23.7905 33.6412 23.3984 33.4602C22.8615 33.2171 22.2874 33.5017 22.2892 34.0088C22.2892 34.2255 22.384 34.3612 22.5995 34.4611C22.737 34.5234 22.7407 34.5271 22.6274 34.5045C22.1369 34.4008 22.0217 33.8033 22.4156 33.4075C22.8912 32.9325 23.8722 33.1417 24.2085 33.792C24.3497 34.0653 24.3664 34.6082 24.2438 34.9362C23.9651 35.6713 23.1625 36.0577 22.345 35.8466C21.7876 35.7033 21.5628 35.5488 20.892 34.8532C19.7271 33.6431 19.2756 33.4075 17.596 33.1436L17.2727 33.0927L17.6387 32.7817Z" fill="url(#paint2_linear_1807_2194)"/>
<path fill-rule="evenodd" clip-rule="evenodd" d="M12.1726 11.1237C16.0632 15.8851 18.7442 17.8492 19.0415 18.2639C19.2868 18.6069 19.1939 18.9161 18.774 19.1573C18.4754 19.3095 18.1503 19.4011 17.8171 19.4269C17.544 19.4269 17.4492 19.3213 17.4492 19.3213C17.2913 19.1705 17.2021 19.1969 16.3902 17.7436C15.6999 16.6537 15.0013 15.5692 14.2944 14.4902C14.2349 14.4337 14.2368 14.4337 16.2768 18.115C16.6057 18.8821 16.3419 19.163 16.3419 19.2723C16.3419 19.4947 16.2806 19.6116 16.0093 19.9188C15.556 20.4278 15.3534 21.0008 15.2067 22.1864C15.0432 23.5153 14.5824 24.454 13.3041 26.0619C12.5572 27.0024 12.4346 27.174 12.2451 27.5547C12.0072 28.0316 11.9422 28.2993 11.9162 28.9006C11.8883 29.5396 11.9422 29.9505 12.1354 30.5593C12.3027 31.0946 12.481 31.4452 12.9325 32.1502C13.3227 32.759 13.5456 33.2114 13.5456 33.3886C13.5456 33.5281 13.5716 33.5281 14.1773 33.3905C15.6191 33.0625 16.7915 32.4857 17.4511 31.7751C17.8598 31.3359 17.9546 31.0946 17.9583 30.4933C17.9602 30.1013 17.9472 30.0183 17.8413 29.7922C17.6703 29.4246 17.3582 29.1173 16.6707 28.6423C15.7678 28.0203 15.3813 27.5208 15.2773 26.8328C15.1881 26.2673 15.2903 25.8696 15.7882 24.8159C16.3047 23.7227 16.4329 23.2571 16.5202 22.1582C16.576 21.4475 16.6522 21.1667 16.8547 20.9405C17.0665 20.7067 17.256 20.6276 17.7799 20.556C18.6328 20.4372 19.1734 20.2167 19.6193 19.802C19.7981 19.6523 19.9423 19.4647 20.0418 19.2524C20.1413 19.04 20.1937 18.8081 20.1953 18.573L20.2139 18.1772L19.9965 17.9246C19.2143 17.0047 11.6486 10.3999 11.6003 10.3999C11.5911 10.3999 11.8475 10.726 12.1726 11.1237ZM13.986 29.6244C14.0712 29.4717 14.0966 29.292 14.057 29.1211C14.0173 28.9503 13.9157 28.8008 13.7723 28.7027C13.4936 28.5142 13.057 28.6046 13.057 28.8478C13.057 28.9232 13.0979 28.9779 13.1908 29.025C13.3468 29.106 13.358 29.1965 13.2354 29.3831C13.1109 29.5697 13.122 29.7337 13.2632 29.8468C13.4918 30.0259 13.815 29.9279 13.986 29.6244ZM20.7508 20.7652C20.3514 20.8877 19.9631 21.3156 19.8404 21.7642C19.768 22.0375 19.8107 22.5182 19.9203 22.6652C20.0987 22.9046 20.2696 22.9668 20.736 22.9649C21.6464 22.9592 22.4379 22.5653 22.5308 22.0714C22.6051 21.6681 22.2577 21.1101 21.7783 20.8632C21.4527 20.7291 21.0954 20.695 20.7508 20.7652ZM21.8173 21.604C21.9567 21.4023 21.8953 21.1855 21.6557 21.0385C21.2023 20.7576 20.513 20.9895 20.513 21.423C20.513 21.6398 20.8716 21.8754 21.2005 21.8754C21.4197 21.8754 21.7207 21.7435 21.8173 21.604Z" fill="url(#paint3_linear_1807_2194)"/>
<defs>
<linearGradient id="paint0_linear_1807_2194" x1="11.6001" y1="13.4929" x2="40.712" y2="37.5999" gradientUnits="userSpaceOnUse">
<stop stop-color="#F31CCD"/>
<stop offset="1" stop-color="#FC9CDE"/>
</linearGradient>
<linearGradient id="paint1_linear_1807_2194" x1="11.6001" y1="13.4929" x2="40.712" y2="37.5999" gradientUnits="userSpaceOnUse">
<stop stop-color="#F31CCD"/>
<stop offset="1" stop-color="#FC9CDE"/>
</linearGradient>
<linearGradient id="paint2_linear_1807_2194" x1="11.6001" y1="13.4929" x2="40.712" y2="37.5999" gradientUnits="userSpaceOnUse">
<stop stop-color="#F31CCD"/>
<stop offset="1" stop-color="#FC9CDE"/>
</linearGradient>
<linearGradient id="paint3_linear_1807_2194" x1="11.6001" y1="13.4929" x2="40.712" y2="37.5999" gradientUnits="userSpaceOnUse">
<stop stop-color="#F31CCD"/>
<stop offset="1" stop-color="#FC9CDE"/>
</linearGradient>
</defs>
</svg>
