<svg width="19" height="19" viewBox="0 0 19 19" fill="none" xmlns="http://www.w3.org/2000/svg">
<mask id="mask0_37934_77500" style="mask-type:luminance" maskUnits="userSpaceOnUse" x="0" y="0" width="19" height="19">
<path d="M18.3333 0H0V18.3333H18.3333V0Z" fill="white"/>
</mask>
<g mask="url(#mask0_37934_77500)">
<path d="M9.16667 18.3333C14.2293 18.3333 18.3333 14.2293 18.3333 9.16667C18.3333 4.10406 14.2293 0 9.16667 0C4.10406 0 0 4.10406 0 9.16667C0 14.2293 4.10406 18.3333 9.16667 18.3333Z" fill="#11A375"/>
</g>
<path d="M2.9135 12.7083V6.40825H4.1195L6.8015 10.8543H6.1625L8.7995 6.40825H9.9965L10.0145 12.7083H8.6465L8.6375 8.50525H8.8895L6.7835 12.0423H6.1265L3.9755 8.50525H4.2815V12.7083H2.9135ZM13.2552 13.7883V5.32825H14.1552V13.7883H13.2552ZM13.5792 12.8163C13.0752 12.8163 12.5922 12.7503 12.1302 12.6183C11.6682 12.4803 11.2962 12.3033 11.0142 12.0873L11.5092 10.9893C11.7792 11.1813 12.0972 11.3403 12.4632 11.4663C12.8352 11.5863 13.2102 11.6463 13.5882 11.6463C13.8762 11.6463 14.1072 11.6193 14.2812 11.5653C14.4612 11.5053 14.5932 11.4243 14.6772 11.3223C14.7612 11.2203 14.8032 11.1033 14.8032 10.9713C14.8032 10.8033 14.7372 10.6713 14.6052 10.5753C14.4732 10.4733 14.2992 10.3923 14.0832 10.3323C13.8672 10.2663 13.6272 10.2063 13.3632 10.1523C13.1052 10.0923 12.8442 10.0203 12.5802 9.93625C12.3222 9.85225 12.0852 9.74425 11.8692 9.61225C11.6532 9.48025 11.4762 9.30625 11.3382 9.09025C11.2062 8.87425 11.1402 8.59825 11.1402 8.26225C11.1402 7.90225 11.2362 7.57525 11.4282 7.28125C11.6262 6.98125 11.9202 6.74425 12.3102 6.57025C12.7062 6.39025 13.2012 6.30025 13.7952 6.30025C14.1912 6.30025 14.5812 6.34825 14.9652 6.44425C15.3492 6.53425 15.6882 6.67225 15.9822 6.85825L15.5322 7.96525C15.2382 7.79725 14.9442 7.67425 14.6502 7.59625C14.3562 7.51225 14.0682 7.47025 13.7862 7.47025C13.5042 7.47025 13.2732 7.50325 13.0932 7.56925C12.9132 7.63525 12.7842 7.72225 12.7062 7.83025C12.6282 7.93225 12.5892 8.05225 12.5892 8.19025C12.5892 8.35225 12.6552 8.48425 12.7872 8.58625C12.9192 8.68225 13.0932 8.76025 13.3092 8.82025C13.5252 8.88025 13.7622 8.94025 14.0202 9.00025C14.2842 9.06025 14.5452 9.12925 14.8032 9.20725C15.0672 9.28525 15.3072 9.39025 15.5232 9.52225C15.7392 9.65425 15.9132 9.82825 16.0452 10.0443C16.1832 10.2603 16.2522 10.5333 16.2522 10.8633C16.2522 11.2173 16.1532 11.5413 15.9552 11.8353C15.7572 12.1293 15.4602 12.3663 15.0642 12.5463C14.6742 12.7263 14.1792 12.8163 13.5792 12.8163Z" fill="#CE1126"/>
</svg>
