<svg width="19" height="20" viewBox="0 0 19 20" fill="none" xmlns="http://www.w3.org/2000/svg">
<path d="M9.50016 19.125C14.5628 19.125 18.6668 15.021 18.6668 9.95835C18.6668 4.89575 14.5628 0.791687 9.50016 0.791687C4.43756 0.791687 0.333496 4.89575 0.333496 9.95835C0.333496 15.021 4.43756 19.125 9.50016 19.125Z" fill="#23B4C8"/>
<g clip-path="url(#clip0_37576_56894)">
<path d="M10.145 5.13599C11.1118 5.13609 11.8777 5.4599 12.4214 6.11841L12.4263 6.12427L12.4302 6.1311L12.6401 6.44458L12.646 6.45239L12.73 6.61646C12.9138 7.01785 13.0039 7.5474 13.0112 8.1936L13.0132 8.34497H11.6284L11.6245 8.19849C11.6085 7.5732 11.465 7.13088 11.2173 6.84595C10.9733 6.56545 10.608 6.41431 10.0952 6.41431C9.40316 6.41432 8.94595 6.65967 8.68213 7.12817C8.56477 7.33714 8.50441 7.57859 8.50439 7.85669V7.86938C8.50445 8.15808 8.58655 8.46929 8.75928 8.80396L8.76123 8.80786L8.76416 8.81079L8.77197 8.82935L8.77588 8.83618V8.83716L8.90674 9.10278L9.01416 9.2854L9.01611 9.28735L9.17041 9.56177H11.2085V10.552H9.5835C9.66786 10.8329 9.71435 11.0762 9.71436 11.2795V11.2922C9.71428 11.8028 9.44991 12.3548 8.96338 12.9426L8.9624 12.9417C8.90467 13.013 8.8398 13.0856 8.77197 13.1633C9.04669 13.0706 9.32725 13.0227 9.61377 13.0227C9.92257 13.0227 10.2763 13.0896 10.6724 13.218C11.1231 13.3509 11.4287 13.4114 11.6021 13.4114C11.8918 13.4113 12.2039 13.3011 12.5405 13.0627L12.6694 12.9709L12.7544 13.1057L13.2729 13.9329L13.3364 14.0344L13.2515 14.1194C12.7568 14.6126 12.1804 14.8645 11.5278 14.8645C11.1396 14.8645 10.5971 14.7404 9.91064 14.5051L9.90674 14.5042L9.67627 14.4172C9.41954 14.3303 9.16404 14.2883 8.90967 14.2883C8.51046 14.2883 8.09001 14.4295 7.64697 14.7268L7.52686 14.8079L7.44189 14.6897L6.84912 13.8616L6.77002 13.7512L6.87256 13.6614C7.70841 12.929 8.17231 12.3226 8.30811 11.8411C8.34544 11.7045 8.36474 11.559 8.36475 11.4045V11.3792C8.36465 11.116 8.28704 10.8415 8.12842 10.552H6.70947V9.56177H7.60205C7.47269 9.33517 7.36442 9.13452 7.28271 8.95728C7.17582 8.72536 7.10533 8.52724 7.08154 8.36841V8.36743C7.06381 8.28281 7.05518 8.19175 7.05518 8.09497V7.96899C7.05526 7.0951 7.40665 6.37578 8.1001 5.82153C8.67222 5.36394 9.35209 5.136 10.1323 5.13599H10.145Z" fill="white" stroke="white" stroke-width="0.3"/>
</g>
<defs>
<clipPath id="clip0_37576_56894">
<rect width="11" height="11" fill="white" transform="translate(4.50146 4.50067)"/>
</clipPath>
</defs>
</svg>
