<svg width="19" height="20" viewBox="0 0 19 20" fill="none" xmlns="http://www.w3.org/2000/svg">
<path d="M9.50016 19.125C14.5628 19.125 18.6668 15.021 18.6668 9.95835C18.6668 4.89575 14.5628 0.791687 9.50016 0.791687C4.43756 0.791687 0.333496 4.89575 0.333496 9.95835C0.333496 15.021 4.43756 19.125 9.50016 19.125Z" fill="#286DC1"/>
<g clip-path="url(#clip0_37576_56909)">
<path d="M13.1121 5.61436C13.0647 5.53858 13.0008 5.50067 12.9203 5.50067H11.5638C11.4644 5.50067 11.3956 5.54575 11.3578 5.6356L10.0012 8.6186C9.96803 8.69913 9.9029 8.84353 9.80604 9.05192C9.70897 9.26026 9.63678 9.42121 9.58944 9.53487C9.41426 9.12287 9.28167 8.82694 9.19169 8.64701L7.66462 5.62853C7.61713 5.54328 7.54857 5.50067 7.4586 5.50067H6.0807C5.99558 5.50067 5.92923 5.53858 5.88189 5.61436C5.84406 5.69008 5.84406 5.76585 5.88189 5.84162L8.16172 9.94677H6.64176C6.58022 9.94677 6.52696 9.96915 6.48198 10.0141C6.43703 10.0592 6.41452 10.1124 6.41452 10.1739V10.9126C6.41452 10.9789 6.43703 11.0334 6.48198 11.076C6.52698 11.1185 6.58022 11.1398 6.64176 11.1398H8.68723V11.7436H6.64176C6.58022 11.7436 6.52696 11.766 6.48198 11.811C6.43703 11.856 6.41452 11.9092 6.41452 11.9709V12.7023C6.41452 12.7687 6.43703 12.8232 6.48198 12.8657C6.52698 12.9083 6.58022 12.9296 6.64176 12.9296H8.6873V15.2734C8.6873 15.3396 8.70977 15.3941 8.75477 15.4367C8.79977 15.4792 8.853 15.5006 8.91455 15.5006H10.1362C10.1977 15.5006 10.2509 15.4781 10.2962 15.4331C10.3409 15.388 10.3634 15.3348 10.3634 15.2734V12.9296H12.4232C12.4846 12.9296 12.5379 12.9083 12.5829 12.8657C12.6279 12.8231 12.6503 12.7687 12.6503 12.7023V11.9708C12.6503 11.9092 12.628 11.8559 12.5829 11.811C12.5379 11.7659 12.4846 11.7435 12.4232 11.7435H10.3634V11.1399H12.4232C12.4846 11.1399 12.5379 11.1186 12.5829 11.076C12.6279 11.0335 12.6503 10.979 12.6503 10.9127V10.174C12.6503 10.1124 12.628 10.0593 12.5829 10.0142C12.5379 9.96928 12.4846 9.94682 12.4232 9.94682H10.8962L13.1192 5.83451C13.157 5.75406 13.1547 5.68068 13.1121 5.61436Z" fill="black"/>
</g>
<defs>
<clipPath id="clip0_37576_56909">
<rect width="10" height="10" fill="white" transform="translate(4.50146 5.50067)"/>
</clipPath>
</defs>
</svg>
