<svg width="48" height="48" viewBox="0 0 48 48" fill="none" xmlns="http://www.w3.org/2000/svg">
<rect x="0.25" y="0.25" width="47.5" height="47.5" rx="23.75" fill="#275FF2"/>
<rect x="0.25" y="0.25" width="47.5" height="47.5" rx="23.75" stroke="#33333E" stroke-width="0.5"/>
<path fill-rule="evenodd" clip-rule="evenodd" d="M23.9999 37.5999C31.511 37.5999 37.5999 31.511 37.5999 23.9999C37.5999 16.4888 31.511 10.3999 23.9999 10.3999C16.4888 10.3999 10.3999 16.4888 10.3999 23.9999C10.3999 31.511 16.4888 37.5999 23.9999 37.5999ZM23.9999 31.9999C28.4182 31.9999 31.9999 28.4182 31.9999 23.9999C31.9999 19.5816 28.4182 15.9999 23.9999 15.9999C19.5816 15.9999 15.9999 19.5816 15.9999 23.9999C15.9999 28.4182 19.5816 31.9999 23.9999 31.9999Z" fill="white"/>
<rect x="21.2002" y="21.2" width="5.6" height="5.6" rx="2" fill="white"/>
</svg>
