<svg width="48" height="48" viewBox="0 0 48 48" fill="none" xmlns="http://www.w3.org/2000/svg">
<rect x="0.25" y="0.25" width="47.5" height="47.5" rx="23.75" fill="#FFEF46"/>
<rect x="0.25" y="0.25" width="47.5" height="47.5" rx="23.75" stroke="#E0E2E6" stroke-width="0.5"/>
<path d="M24.1022 24.8839L26.1053 22.9487L29.8399 24.1709C32.2844 24.9858 33.5067 26.4797 33.5067 28.5846C33.5067 30.1804 32.8955 31.2329 31.6733 32.591L31.2999 32.9983L31.4356 32.0477C31.9788 28.5846 30.9604 27.0908 27.5991 26.0042L24.1022 24.8839ZM19.0773 13.0349L29.2628 16.43L27.0559 18.535L21.7595 16.7695C19.9262 16.1584 19.315 15.1738 19.0773 13.1028V13.0349ZM18.4661 30.2822L20.7749 28.0753L25.1207 29.5014C27.3954 30.2483 28.1762 31.2329 27.9387 33.7113L18.4661 30.2822ZM15.5464 20.4362C15.5464 19.7913 15.8859 19.1801 16.4631 18.6708C17.0742 19.5536 18.1267 20.3344 19.7903 20.8777L23.3892 22.0659L21.386 24.0012L17.8551 22.8468C16.2254 22.3036 15.5464 21.4887 15.5464 20.4362ZM26.2071 38.2608C33.6764 33.3039 37.6827 29.9427 37.6827 25.8006C37.6827 23.0506 36.053 21.5227 32.4542 20.3344L29.7381 19.4177L37.1735 12.2879L35.6795 10.6922L33.4727 12.6275L23.0497 9.19836C19.8242 10.2509 15.7501 13.3404 15.7501 16.43C15.7501 16.7695 15.784 17.109 15.8859 17.4825C13.2037 19.0103 12.1173 20.4362 12.1173 22.2017C12.1173 23.8653 13 25.529 15.818 26.4457L18.0588 27.1926L10.3179 34.6279L11.8117 36.2237L14.2223 34.0169L26.2071 38.2608Z" fill="#02050A"/>
</svg>
