<svg width="48" height="48" viewBox="0 0 48 48" fill="none" xmlns="http://www.w3.org/2000/svg">
<rect x="0.25" y="0.25" width="47.5" height="47.5" rx="23.75" fill="url(#paint0_linear_762_2770)"/>
<rect x="0.25" y="0.25" width="47.5" height="47.5" rx="23.75" stroke="#33333E" stroke-width="0.5"/>
<path d="M12 17.3999H13.8C23.0783 17.3999 30.5998 24.9215 30.5998 34.1998V35.9998H34.1998C35.1939 35.9998 35.9998 35.1939 35.9998 34.1998C35.9998 21.9392 26.0606 12 13.8 12C12.8059 12 12 12.8059 12 13.8V17.3999Z" fill="url(#paint1_radial_762_2770)"/>
<path d="M31.2002 34.2002H36.0002C36.0002 35.1943 35.1943 36.0002 34.2002 36.0002H31.2002V34.2002Z" fill="url(#paint2_linear_762_2770)"/>
<path d="M13.8 12L13.8 16.8H12L12 13.8C12 12.8059 12.8059 12 13.8 12Z" fill="url(#paint3_linear_762_2770)"/>
<path d="M12 16.7998H13.8C23.4096 16.7998 31.1998 24.59 31.1998 34.1996V35.9996H25.7999V34.1996C25.7999 27.5723 20.4273 22.1997 13.8 22.1997H12V16.7998Z" fill="url(#paint4_radial_762_2770)"/>
<path d="M26.4004 34.2002H31.2003V36.0002H26.4004V34.2002Z" fill="url(#paint5_linear_762_2770)"/>
<path d="M12 21.5998L12 16.7998L13.8 16.7998L13.8 21.5998H12Z" fill="url(#paint6_linear_762_2770)"/>
<path d="M12 24.6001C12 25.5942 12.8059 26.4 13.8 26.4C18.1078 26.4 21.5999 29.8922 21.5999 34.2C21.5999 35.1941 22.4058 35.9999 23.3999 35.9999H26.3999V34.2C26.3999 27.2413 20.7587 21.6001 13.8 21.6001H12V24.6001Z" fill="url(#paint7_radial_762_2770)"/>
<path d="M21.5996 34.2002H26.3996V36.0002H23.3996C22.4055 36.0002 21.5996 35.1943 21.5996 34.2002Z" fill="url(#paint8_radial_762_2770)"/>
<path d="M13.8 26.4C12.8059 26.4 12 25.5942 12 24.6001L12 21.6001L13.8 21.6001L13.8 26.4Z" fill="url(#paint9_radial_762_2770)"/>
<defs>
<linearGradient id="paint0_linear_762_2770" x1="24" y1="0" x2="24" y2="48" gradientUnits="userSpaceOnUse">
<stop stop-color="#174299"/>
<stop offset="1" stop-color="#001E59"/>
</linearGradient>
<radialGradient id="paint1_radial_762_2770" cx="0" cy="0" r="1" gradientUnits="userSpaceOnUse" gradientTransform="translate(13.8 34.1998) rotate(-90) scale(22.1998 22.1998)">
<stop offset="0.770277" stop-color="#FF4000"/>
<stop offset="1" stop-color="#8754C9"/>
</radialGradient>
<linearGradient id="paint2_linear_762_2770" x1="30.9002" y1="35.1002" x2="36.0002" y2="35.1002" gradientUnits="userSpaceOnUse">
<stop stop-color="#FF4000"/>
<stop offset="1" stop-color="#8754C9"/>
</linearGradient>
<linearGradient id="paint3_linear_762_2770" x1="12.9" y1="12" x2="12.9" y2="17.0999" gradientUnits="userSpaceOnUse">
<stop stop-color="#8754C9"/>
<stop offset="1" stop-color="#FF4000"/>
</linearGradient>
<radialGradient id="paint4_radial_762_2770" cx="0" cy="0" r="1" gradientUnits="userSpaceOnUse" gradientTransform="translate(13.8 34.1996) rotate(-90) scale(17.3998 17.3998)">
<stop offset="0.723929" stop-color="#FFF700"/>
<stop offset="1" stop-color="#FF9901"/>
</radialGradient>
<linearGradient id="paint5_linear_762_2770" x1="26.4004" y1="35.1002" x2="31.2003" y2="35.1002" gradientUnits="userSpaceOnUse">
<stop stop-color="#FFF700"/>
<stop offset="1" stop-color="#FF9901"/>
</linearGradient>
<linearGradient id="paint6_linear_762_2770" x1="12.9" y1="21.5998" x2="12.9" y2="16.7998" gradientUnits="userSpaceOnUse">
<stop stop-color="#FFF700"/>
<stop offset="1" stop-color="#FF9901"/>
</linearGradient>
<radialGradient id="paint7_radial_762_2770" cx="0" cy="0" r="1" gradientUnits="userSpaceOnUse" gradientTransform="translate(13.8 34.2) rotate(-90) scale(12.5999 12.5999)">
<stop offset="0.59513" stop-color="#00AAFF"/>
<stop offset="1" stop-color="#01DA40"/>
</radialGradient>
<radialGradient id="paint8_radial_762_2770" cx="0" cy="0" r="1" gradientUnits="userSpaceOnUse" gradientTransform="translate(21.2996 35.1002) scale(5.09995 13.5999)">
<stop stop-color="#00AAFF"/>
<stop offset="1" stop-color="#01DA40"/>
</radialGradient>
<radialGradient id="paint9_radial_762_2770" cx="0" cy="0" r="1" gradientUnits="userSpaceOnUse" gradientTransform="translate(12.9 26.7) rotate(-90) scale(5.09995 96.7102)">
<stop stop-color="#00AAFF"/>
<stop offset="1" stop-color="#01DA40"/>
</radialGradient>
</defs>
</svg>
