<svg width="19" height="20" viewBox="0 0 19 20" fill="none" xmlns="http://www.w3.org/2000/svg">
<mask id="mask0_37576_56945" style="mask-type:luminance" maskUnits="userSpaceOnUse" x="0" y="0" width="19" height="20">
<path d="M18.6668 0.791687H0.333496V19.125H18.6668V0.791687Z" fill="white"/>
</mask>
<g mask="url(#mask0_37576_56945)">
<path d="M9.50016 19.125C14.5628 19.125 18.6668 15.021 18.6668 9.95835C18.6668 4.89575 14.5628 0.791687 9.50016 0.791687C4.43756 0.791687 0.333496 4.89575 0.333496 9.95835C0.333496 15.021 4.43756 19.125 9.50016 19.125Z" fill="#F63933"/>
<path d="M12.4702 4.95087C12.6394 4.9509 12.8017 5.0178 12.9214 5.13739C13.041 5.257 13.1078 5.41942 13.1079 5.58856C13.1079 5.75772 13.0409 5.92006 12.9214 6.03973C12.8017 6.1594 12.6394 6.2272 12.4702 6.22723H8.94092C8.79824 6.22723 8.66098 6.28361 8.56006 6.38446C8.45913 6.48539 8.40285 6.62259 8.40283 6.76532V9.06805H11.8823C12.0514 9.06818 12.2139 9.13597 12.3335 9.25555C12.453 9.37522 12.52 9.5376 12.52 9.70673C12.52 9.87587 12.4531 10.0383 12.3335 10.1579C12.2139 10.2775 12.0514 10.3443 11.8823 10.3444H8.40283V11.4216H10.7056C10.8748 11.4216 11.0371 11.4885 11.1567 11.6081C11.2764 11.7277 11.3432 11.8901 11.3433 12.0593C11.3433 12.2284 11.2763 12.3908 11.1567 12.5104C11.0371 12.6301 10.8748 12.6979 10.7056 12.6979H8.40283V14.4128C8.40274 14.5819 8.33494 14.7443 8.21533 14.864C8.09566 14.9835 7.93334 15.0505 7.76416 15.0505C7.59498 15.0505 7.43265 14.9835 7.31299 14.864C7.19338 14.7443 7.12656 14.5819 7.12646 14.4128V12.6979H6.5874C6.41826 12.6978 6.25584 12.63 6.13623 12.5104C6.01672 12.3908 5.94971 12.2284 5.94971 12.0593C5.94977 11.8901 6.01663 11.7277 6.13623 11.6081C6.25584 11.4885 6.41826 11.4217 6.5874 11.4216H7.12646V6.76532C7.12648 6.28405 7.3174 5.82243 7.65771 5.48212C7.99802 5.14188 8.4597 4.95087 8.94092 4.95087H12.4702Z" fill="white" stroke="white" stroke-width="0.1"/>
</g>
</svg>
