<svg width="20" height="20" viewBox="0 0 20 20" fill="none" xmlns="http://www.w3.org/2000/svg">
<mask id="mask0_37576_56959" style="mask-type:luminance" maskUnits="userSpaceOnUse" x="0" y="0" width="20" height="20">
<path d="M19.1654 0.791016H0.832031V19.1243H19.1654V0.791016Z" fill="white"/>
</mask>
<g mask="url(#mask0_37576_56959)">
<path d="M9.9987 19.1243C15.0613 19.1243 19.1654 15.0203 19.1654 9.95768C19.1654 4.89508 15.0613 0.791016 9.9987 0.791016C4.93609 0.791016 0.832031 4.89508 0.832031 9.95768C0.832031 15.0203 4.93609 19.1243 9.9987 19.1243Z" fill="#0F8FF8"/>
<path d="M6.85278 11.66L6.77178 9.97698L9.78678 6.79998H11.4068L8.68878 9.72498L7.87878 10.589L6.85278 11.66ZM5.54778 13.1V6.79998H6.99678V13.1H5.54778ZM9.85878 13.1L7.61778 10.355L8.57178 9.31998L11.5598 13.1H9.85878ZM12.023 13.1V8.25798H13.364V9.62598L13.175 9.22998C13.319 8.88798 13.55 8.62998 13.868 8.45598C14.186 8.27598 14.573 8.18598 15.029 8.18598V9.48198C14.969 9.47598 14.915 9.47298 14.867 9.47298C14.819 9.46698 14.768 9.46398 14.714 9.46398C14.33 9.46398 14.018 9.57498 13.778 9.79698C13.544 10.013 13.427 10.352 13.427 10.814V13.1H12.023Z" fill="#FFDA84"/>
</g>
</svg>
