<svg width="100" height="100" viewBox="0 0 100 100" fill="none" xmlns="http://www.w3.org/2000/svg">
<path d="M38.0025 41.2749L67.8681 65.5122C68.1842 65.7639 68.5469 66.0691 68.9195 66.3828C69.539 66.9042 70.1859 67.4488 70.6927 67.8087C70.6098 68.9864 70.4823 69.897 70.3432 70.8903C70.2824 71.3239 70.2195 71.7733 70.1571 72.2676L69.3216 79.296C69.2568 79.8213 69.1861 80.3427 69.1156 80.8634C68.9745 81.9039 68.8339 82.9413 68.7412 84H55.3751L43.0579 53.6837L39.237 44.3077C39.1032 43.9712 38.9385 43.5826 38.7694 43.1834C38.4844 42.5109 38.1867 41.8083 38.0025 41.2749Z" fill="white"/>
<path d="M40.8183 37.6718C44.453 38.2737 48.0857 38.8869 51.7165 39.5114C57.1977 40.454 62.6744 41.4223 68.1465 42.4163L77.9939 44.1308C78.409 44.206 78.9274 44.3085 79.4917 44.4201C81.0466 44.7274 82.95 45.1037 84 45.1699V53.2863C83.5293 53.5683 82.5401 54.3824 81.8166 54.9779C81.597 55.1587 81.4018 55.3193 81.2531 55.4387L75.6103 59.9234C75.4479 60.0527 75.2536 60.2104 75.0408 60.3836C75.0116 60.4073 74.9822 60.4312 74.9524 60.4555C74.9493 60.458 74.9462 60.4605 74.9432 60.463C74.095 61.153 72.9883 62.0534 72.3495 62.4503C71.7009 61.9909 70.9267 61.3675 70.2169 60.796L70.2137 60.7934C69.9947 60.617 69.7818 60.4456 69.5807 60.2855C69.5708 60.2776 69.5609 60.2698 69.551 60.2619C69.534 60.2484 69.517 60.2349 69.5002 60.2216C69.4898 60.2133 69.4794 60.2051 69.4691 60.1969L48.2548 43.4146L43.4803 39.6287C43.385 39.5537 43.2706 39.4625 43.1429 39.3607L43.1406 39.3588C42.4489 38.8072 41.3694 37.9465 40.8183 37.6718Z" fill="white"/>
<path d="M84 68.1754V84H73.0963C73.1224 83.3712 73.2682 82.358 73.3938 81.485C73.4448 81.1308 73.4924 80.7997 73.5274 80.5267L74.349 73.7195C74.3999 73.3095 74.4622 72.8789 74.5254 72.4414C74.6564 71.5354 74.7916 70.6002 74.8381 69.7593C76.1424 69.5257 77.4419 69.3087 78.7424 69.0916C78.9606 69.0552 79.179 69.0187 79.3973 68.9822C80.9256 68.7265 82.4567 68.4667 84 68.1754Z" fill="white"/>
<path d="M78.8149 64.0102C79.0381 63.8056 79.3058 63.5971 79.5599 63.3992C79.6388 63.3378 79.7164 63.2773 79.791 63.2184C80.314 62.8045 80.829 62.3753 81.3444 61.9458C82.2145 61.2207 83.0859 60.4945 84 59.8385V63.1229C82.638 63.1927 80.1935 63.7154 78.8149 64.0102Z" fill="white"/>
<path fill-rule="evenodd" clip-rule="evenodd" d="M84 16H16V84H50.0799L31.3555 37.7935L29.4083 32.9285C29.3277 32.7318 29.2468 32.5298 29.165 32.3255C28.9061 31.679 28.6381 31.0096 28.3403 30.4144C29.1785 30.5108 29.9635 30.6564 30.7581 30.8039C31.1907 30.8841 31.6261 30.9649 32.0744 31.0386C36.2077 31.7518 40.3344 32.5025 44.454 33.2903L70.6948 38C74.0721 38.6372 77.4552 39.2432 80.8436 39.8182C81.2663 39.8918 81.6795 39.9718 82.0914 40.0516C82.7209 40.1736 83.3473 40.295 84 40.3917V16ZM84 45.1699C82.95 45.1037 81.0466 44.7274 79.4917 44.4201C78.9274 44.3085 78.409 44.206 77.9939 44.1308L68.1465 42.4163C62.6744 41.4223 57.1977 40.454 51.7165 39.5114C48.0857 38.8869 44.453 38.2737 40.8183 37.6718C41.3694 37.9465 42.4489 38.8072 43.1406 39.3588L43.1429 39.3607C43.2706 39.4625 43.385 39.5537 43.4803 39.6287L48.2548 43.4146L69.4691 60.1969C69.4794 60.2051 69.4898 60.2133 69.5002 60.2216C69.517 60.2349 69.534 60.2484 69.551 60.2619C69.5609 60.2698 69.5708 60.2776 69.5807 60.2855C69.7818 60.4456 69.9947 60.617 70.2137 60.7934L70.2169 60.796C70.9267 61.3675 71.7009 61.9909 72.3495 62.4503C72.9883 62.0534 74.095 61.153 74.9432 60.463C74.9462 60.4605 74.9493 60.458 74.9524 60.4555C74.9822 60.4312 75.0116 60.4073 75.0408 60.3836C75.2536 60.2104 75.4479 60.0527 75.6103 59.9234L81.2531 55.4387C81.4018 55.3193 81.597 55.1587 81.8166 54.9779C82.5401 54.3824 83.5293 53.5683 84 53.2863V45.1699ZM55.3751 84H68.7412C68.8339 82.9413 68.9745 81.9039 69.1156 80.8634C69.1861 80.3427 69.2568 79.8213 69.3216 79.296L70.1571 72.2676C70.2195 71.7733 70.2824 71.3239 70.3432 70.8903C70.4823 69.897 70.6098 68.9864 70.6927 67.8087C70.1859 67.4488 69.539 66.9042 68.9195 66.3828C68.5469 66.0691 68.1842 65.7639 67.8681 65.5122L38.0025 41.2749C38.1867 41.8083 38.4844 42.5109 38.7694 43.1834C38.9385 43.5826 39.1032 43.9712 39.237 44.3077L43.0579 53.6837L55.3751 84ZM73.0963 84H84V68.1754C82.4567 68.4667 80.9256 68.7265 79.3973 68.9822C79.179 69.0187 78.9606 69.0552 78.7424 69.0916C77.4419 69.3087 76.1424 69.5257 74.8381 69.7593C74.7916 70.6002 74.6564 71.5354 74.5254 72.4414C74.4622 72.8789 74.3999 73.3095 74.349 73.7195L73.5274 80.5267C73.4924 80.7997 73.4448 81.1308 73.3938 81.485C73.2682 82.358 73.1224 83.3712 73.0963 84ZM84 63.1229V59.8385C83.0859 60.4945 82.2145 61.2207 81.3444 61.9458C80.829 62.3753 80.314 62.8045 79.791 63.2184C79.7164 63.2773 79.6388 63.3378 79.5599 63.3992C79.3058 63.5971 79.0381 63.8056 78.8149 64.0102C80.1935 63.7154 82.638 63.1927 84 63.1229Z" fill="white"/>
</svg>
