<svg width="19" height="20" viewBox="0 0 19 20" fill="none" xmlns="http://www.w3.org/2000/svg">
<mask id="mask0_37576_57009" style="mask-type:luminance" maskUnits="userSpaceOnUse" x="0" y="0" width="19" height="20">
<path d="M18.6654 0.791016H0.332031V19.1243H18.6654V0.791016Z" fill="white"/>
</mask>
<g mask="url(#mask0_37576_57009)">
<path d="M9.4987 19.1243C14.5613 19.1243 18.6654 15.0203 18.6654 9.95768C18.6654 4.89508 14.5613 0.791016 9.4987 0.791016C4.43609 0.791016 0.332031 4.89508 0.332031 9.95768C0.332031 15.0203 4.43609 19.1243 9.4987 19.1243Z" fill="#F63933"/>
<path d="M5.8409 7.6H6.9749V12.5H5.8409V7.6ZM3.6149 12.5H2.4809V7.6H3.6149V12.5ZM5.9249 10.491H3.5309V9.532H5.9249V10.491ZM9.14922 11.38L9.08622 10.071L11.4312 7.6H12.6912L10.5772 9.875L9.94722 10.547L9.14922 11.38ZM8.13422 12.5V7.6H9.26122V12.5H8.13422ZM11.4872 12.5L9.74422 10.365L10.4862 9.56L12.8102 12.5H11.4872ZM14.5713 13.34V6.76H15.2713V13.34H14.5713ZM14.8233 12.584C14.4313 12.584 14.0557 12.5327 13.6963 12.43C13.337 12.3227 13.0477 12.185 12.8283 12.017L13.2133 11.163C13.4233 11.3123 13.6707 11.436 13.9553 11.534C14.2447 11.6273 14.5363 11.674 14.8303 11.674C15.0543 11.674 15.234 11.653 15.3693 11.611C15.5093 11.5643 15.612 11.5013 15.6773 11.422C15.7427 11.3427 15.7753 11.2517 15.7753 11.149C15.7753 11.0183 15.724 10.9157 15.6213 10.841C15.5187 10.7617 15.3833 10.6987 15.2153 10.652C15.0473 10.6007 14.8607 10.554 14.6553 10.512C14.4547 10.4653 14.2517 10.4093 14.0463 10.344C13.8457 10.2787 13.6613 10.1947 13.4933 10.092C13.3253 9.98933 13.1877 9.854 13.0803 9.686C12.9777 9.518 12.9263 9.30333 12.9263 9.042C12.9263 8.762 13.001 8.50767 13.1503 8.279C13.3043 8.04567 13.533 7.86133 13.8363 7.726C14.1443 7.586 14.5293 7.516 14.9913 7.516C15.2993 7.516 15.6027 7.55333 15.9013 7.628C16.2 7.698 16.4637 7.80533 16.6923 7.95L16.3423 8.811C16.1137 8.68033 15.885 8.58467 15.6563 8.524C15.4277 8.45867 15.2037 8.426 14.9843 8.426C14.765 8.426 14.5853 8.45167 14.4453 8.503C14.3053 8.55433 14.205 8.622 14.1443 8.706C14.0837 8.78533 14.0533 8.87867 14.0533 8.986C14.0533 9.112 14.1047 9.21467 14.2073 9.294C14.31 9.36867 14.4453 9.42933 14.6133 9.476C14.7813 9.52267 14.9657 9.56933 15.1663 9.616C15.3717 9.66267 15.5747 9.71633 15.7753 9.777C15.9807 9.83767 16.1673 9.91933 16.3353 10.022C16.5033 10.1247 16.6387 10.26 16.7413 10.428C16.8487 10.596 16.9023 10.8083 16.9023 11.065C16.9023 11.3403 16.8253 11.5923 16.6713 11.821C16.5173 12.0497 16.2863 12.234 15.9783 12.374C15.675 12.514 15.29 12.584 14.8233 12.584Z" fill="white"/>
</g>
</svg>
