<svg width="48" height="48" viewBox="0 0 48 48" fill="none" xmlns="http://www.w3.org/2000/svg">
<rect x="0.25" y="0.25" width="47.5" height="47.5" rx="23.75" fill="white"/>
<rect x="0.25" y="0.25" width="47.5" height="47.5" rx="23.75" stroke="#E0E2E6" stroke-width="0.5"/>
<path d="M26.4199 35.4244C26.8776 35.2833 27.3576 35.5559 27.4926 36.0342C27.6278 36.5124 27.3665 37.0147 26.9092 37.1561C25.9554 37.4508 24.9988 37.6 24.0654 37.6H23.9515C23.0121 37.6 22.0492 37.4493 21.0896 37.1504C20.6326 37.0086 20.3721 36.5058 20.508 36.0279C20.6441 35.55 21.125 35.2782 21.5818 35.4196C22.3815 35.6685 23.1787 35.7943 23.9515 35.7943H24.0655C24.8327 35.7943 25.6251 35.6697 26.4199 35.4244Z" fill="#49CC68"/>
<path fill-rule="evenodd" clip-rule="evenodd" d="M32.7424 17.0477C33.562 19.5435 33.2691 22.8928 31.9573 26.0128C30.1669 30.2697 26.9182 33.2269 24.041 33.2272C24.0272 33.2272 24.0137 33.2272 24.0002 33.2269C23.9863 33.2272 23.9725 33.2272 23.959 33.2272C21.0818 33.2272 17.8332 30.2701 16.0428 26.0128C14.7309 22.8934 14.4382 19.5441 15.2576 17.0483L15.2559 17.0477C16.4756 13.0715 19.9893 10.4 23.9993 10.4C27.9989 10.4 31.5034 13.058 32.732 17.0171C32.7326 17.0189 32.7332 17.0207 32.7339 17.0226L32.736 17.0276L32.7378 17.0321C32.7383 17.0345 32.739 17.0369 32.7398 17.0393L32.7424 17.0477ZM24.0002 31.7218C24.4224 31.7161 24.8224 31.6238 25.1885 31.4468C27.6428 30.261 28.1393 25.5093 26.2727 21.0703C25.6797 19.661 24.8998 18.3987 23.9984 17.3755C23.0976 18.3984 22.3197 19.6621 21.7277 21.0703C19.861 25.5093 20.3575 30.261 22.8118 31.4468C23.1779 31.6238 23.5776 31.7161 24.0002 31.7218ZM16.6223 17.5241C15.9121 19.6723 16.1878 22.6192 17.36 25.407C17.9221 26.7429 18.6479 27.9416 19.4529 28.9284C18.8712 26.5412 19.1513 23.4583 20.4105 20.4647C21.0681 18.9004 21.9401 17.4934 22.9526 16.3462C21.3688 15.0082 19.7194 14.5712 18.4441 15.1872C17.6276 15.5818 16.9976 16.3899 16.6223 17.5241ZM24.0004 15.2995C25.4815 14.003 27.0664 13.3527 28.5206 13.4158C27.2373 12.4561 25.67 11.9048 23.9993 11.9048C22.3292 11.9048 20.7624 12.4555 19.4791 13.4149C20.9339 13.3518 22.5194 14.0027 24.0004 15.2995ZM28.5474 28.9281C29.3521 27.9416 30.0779 26.7429 30.64 25.407C31.8125 22.619 32.0882 19.6721 31.3776 17.5241C31.0026 16.3899 30.3726 15.5818 29.5559 15.1872C28.2809 14.5709 26.6315 15.0079 25.0474 16.3462C26.0596 17.4932 26.932 18.9001 27.5899 20.4648C28.8487 23.4583 29.1287 26.5413 28.5474 28.9281Z" fill="#49CC68"/>
</svg>
