<svg width="48" height="48" viewBox="0 0 48 48" fill="none" xmlns="http://www.w3.org/2000/svg">
<rect x="0.25" y="0.25" width="47.5" height="47.5" rx="23.75" fill="white"/>
<rect x="0.25" y="0.25" width="47.5" height="47.5" rx="23.75" stroke="#E0E2E6" stroke-width="0.5"/>
<path fill-rule="evenodd" clip-rule="evenodd" d="M23.9999 8L9.85205 15.9994V31.9982L23.9999 39.9988L38.1477 31.9982V15.9994L23.9999 8Z" fill="#FEFEFE"/>
<path fill-rule="evenodd" clip-rule="evenodd" d="M23.9999 8L9.85205 15.9994V31.9982L23.9999 39.9988L38.1477 31.9982V15.9994L23.9999 8ZM18.4136 14.9161H29.5473L30.8904 20.4769H17.1215L18.4136 14.9161ZM21.6221 24.4201L20.4077 21.3147H27.6176L26.4287 24.4201L26.7736 27.889L23.9999 27.901H21.2505L21.6221 24.4201ZM25.1633 31.5697V30.4684L27.6553 28.1273V24.4321L30.916 22.3546L34.6357 25.0977L29.5728 33.7375H27.5666L25.1633 31.5709V31.5697ZM13.3641 25.0989L17.096 22.3811L20.3943 24.4345V28.1297L22.8875 30.4696V31.5721L20.4842 33.7627H18.4513L13.3641 25.0989Z" fill="#002D72"/>
<path style="mix-blend-mode:multiply" fill-rule="evenodd" clip-rule="evenodd" d="M29.5727 33.7375H27.5665L25.1632 31.5709V30.4684L27.6563 28.1273V24.4321L30.9158 22.3546L34.6367 25.0977L29.5727 33.7375ZM23.9985 8V14.9161H29.5484L30.8903 20.4769H23.9998V21.3159H27.6175L26.4286 24.4213L26.7735 27.889L23.9998 27.901V40L38.1476 32.0006V15.9994L23.9998 8H23.9985Z" fill="url(#paint0_linear_1757_2997)"/>
<path style="mix-blend-mode:multiply" fill-rule="evenodd" clip-rule="evenodd" d="M22.8875 31.5709L20.4842 33.7615H18.4513L13.3629 25.0977L17.0972 22.3787L20.3955 24.4321V28.1273L22.8887 30.4672V31.5697L22.8875 31.5709ZM21.2505 27.9022L21.6221 24.4201L20.4077 21.3147H23.9999V20.4757H17.1215L18.4136 14.9161H23.9999V8L9.85205 15.9994V31.9994L23.9999 39.9988V27.9034L21.2505 27.9022Z" fill="url(#paint1_linear_1757_2997)"/>
<defs>
<linearGradient id="paint0_linear_1757_2997" x1="36.6393" y1="36.5468" x2="36.6393" y2="11.3726" gradientUnits="userSpaceOnUse">
<stop stop-color="#002D72"/>
<stop offset="1" stop-color="#002D72" stop-opacity="0.01"/>
</linearGradient>
<linearGradient id="paint1_linear_1757_2997" x1="22.4904" y1="36.5468" x2="22.4904" y2="11.3726" gradientUnits="userSpaceOnUse">
<stop stop-color="#002D72" stop-opacity="0.01"/>
<stop offset="1" stop-color="#002D72"/>
</linearGradient>
</defs>
</svg>
