<svg width="32" height="32" viewBox="0 0 32 32" fill="none" xmlns="http://www.w3.org/2000/svg">
<g clip-path="url(#clip0_8326_39974)">
<path d="M16 32C24.8667 32 32 24.8667 32 16C32 7.13328 24.8667 0 16 0C7.13328 0 0 7.13328 0 16C0 24.8667 7.13328 32 16 32Z" fill="#2775CA"/>
<path d="M20.3981 18.5328C20.3981 16.1995 18.9981 15.3995 16.1981 15.0663C14.1981 14.7995 13.7981 14.2663 13.7981 13.3328C13.7981 12.3994 14.4648 11.7995 15.7981 11.7995C16.9981 11.7995 17.6648 12.1995 17.9981 13.1995C18.0648 13.3995 18.2648 13.5328 18.4648 13.5328H19.5314C19.7981 13.5328 19.9981 13.3328 19.9981 13.0663V12.9995C19.7314 11.5328 18.5314 10.3995 16.9981 10.2663V8.66625C16.9981 8.39953 16.7981 8.19953 16.4648 8.13281H15.4648C15.1981 8.13281 14.9981 8.33281 14.9314 8.66625V10.1995C12.9314 10.4663 11.6648 11.7995 11.6648 13.4663C11.6648 15.6663 12.9981 16.5328 15.7981 16.8663C17.6648 17.1995 18.2648 17.5995 18.2648 18.6663C18.2648 19.733 17.3314 20.4663 16.0648 20.4663C14.3314 20.4663 13.7314 19.7328 13.5314 18.7328C13.4648 18.4663 13.2648 18.3328 13.0648 18.3328H11.9314C11.6648 18.3328 11.4648 18.5328 11.4648 18.7995V18.8663C11.7314 20.5328 12.7981 21.7328 14.9981 22.0663V23.6663C14.9981 23.9328 15.1981 24.1328 15.5314 24.1995H16.5314C16.7981 24.1995 16.9981 23.9995 17.0648 23.6663V22.0663C19.0648 21.7328 20.3981 20.3328 20.3981 18.5328Z" fill="white"/>
<path d="M12.6013 25.5336C7.4013 23.667 4.73458 17.867 6.66802 12.7336C7.66802 9.93355 9.86802 7.80027 12.6013 6.80027C12.868 6.66699 13.0013 6.46699 13.0013 6.13355V5.20027C13.0013 4.93355 12.868 4.73355 12.6013 4.66699C12.5346 4.66699 12.4013 4.66699 12.3346 4.73355C6.0013 6.73355 2.53458 13.467 4.53458 19.8003C5.73458 23.5336 8.6013 26.4003 12.3346 27.6003C12.6013 27.7336 12.868 27.6003 12.9346 27.3336C13.0013 27.267 13.0013 27.2003 13.0013 27.067V26.1336C13.0013 25.9336 12.8013 25.667 12.6013 25.5336ZM19.668 4.73355C19.4013 4.60027 19.1346 4.73355 19.068 5.00027C19.0013 5.06699 19.0013 5.13355 19.0013 5.26699V6.20027C19.0013 6.46699 19.2013 6.73355 19.4013 6.86699C24.6013 8.73355 27.268 14.5336 25.3346 19.667C24.3346 22.467 22.1346 24.6003 19.4013 25.6003C19.1346 25.7336 19.0013 25.9336 19.0013 26.267V27.2003C19.0013 27.467 19.1346 27.667 19.4013 27.7336C19.468 27.7336 19.6013 27.7336 19.668 27.667C26.0013 25.667 29.468 18.9336 27.468 12.6003C26.268 8.80027 23.3346 5.93355 19.668 4.73355Z" fill="white"/>
</g>
<defs>
<clipPath id="clip0_8326_39974">
<rect width="32" height="32" fill="white"/>
</clipPath>
</defs>
</svg>
