<svg width="19" height="20" viewBox="0 0 19 20" fill="none" xmlns="http://www.w3.org/2000/svg">
<mask id="mask0_37576_56984" style="mask-type:luminance" maskUnits="userSpaceOnUse" x="0" y="0" width="19" height="20">
<path d="M18.6668 0.791687H0.333496V19.125H18.6668V0.791687Z" fill="white"/>
</mask>
<g mask="url(#mask0_37576_56984)">
<path d="M9.50016 19.125C14.5628 19.125 18.6668 15.021 18.6668 9.95835C18.6668 4.89575 14.5628 0.791687 9.50016 0.791687C4.43756 0.791687 0.333496 4.89575 0.333496 9.95835C0.333496 15.021 4.43756 19.125 9.50016 19.125Z" fill="#0F8FF8"/>
<path d="M9.32275 5.12C9.95191 5.11946 10.5695 5.29331 11.106 5.62195C11.6282 5.94189 12.053 6.39721 12.3384 6.93835H13.5278C13.6695 6.93843 13.8056 6.99442 13.9058 7.0946C14.0059 7.19479 14.0619 7.33086 14.062 7.47253C14.062 7.61418 14.0058 7.75024 13.9058 7.85046C13.8056 7.95065 13.6695 8.00762 13.5278 8.00769H12.6733C12.6773 8.03797 12.682 8.06814 12.6851 8.09851L12.6987 8.28308V8.28503C12.702 8.44279 12.691 8.60022 12.6714 8.75671H13.5278C13.6695 8.75678 13.8056 8.81278 13.9058 8.91296C14.0059 9.01318 14.062 9.1492 14.062 9.29089C14.062 9.43258 14.0059 9.56859 13.9058 9.66882C13.8056 9.76901 13.6695 9.825 13.5278 9.82507H12.3579C12.2074 10.1309 12.0079 10.4097 11.7661 10.6503L11.7671 10.6512C11.4661 10.9658 11.1041 11.216 10.7036 11.3866C10.3032 11.5572 9.87225 11.6433 9.43701 11.6425V11.6434H8.15283V14.746C8.15271 14.8876 8.09672 15.0238 7.99658 15.1239C7.89639 15.224 7.7603 15.2801 7.61865 15.2802C7.47703 15.2802 7.34094 15.224 7.24072 15.1239C7.14058 15.0238 7.08361 14.8876 7.0835 14.746V9.82507H6.25439C6.11278 9.82496 5.97661 9.76897 5.87646 9.66882C5.77638 9.5686 5.72021 9.43254 5.72021 9.29089C5.72024 9.14924 5.77635 9.01317 5.87646 8.91296C5.97661 8.81282 6.11278 8.75683 6.25439 8.75671H7.0835V8.00769H6.25439C6.11278 8.00757 5.97661 7.95061 5.87646 7.85046C5.77644 7.75025 5.72021 7.61414 5.72021 7.47253C5.72029 7.3309 5.77634 7.19478 5.87646 7.0946C5.97661 6.99446 6.11278 6.93847 6.25439 6.93835H7.0835V6.10925C7.0835 5.84701 7.18816 5.59551 7.37354 5.41003C7.55896 5.22461 7.81053 5.12007 8.07275 5.12H9.32275ZM8.15283 10.5751H9.43701C9.73056 10.575 10.0212 10.5157 10.2915 10.4012C10.5618 10.2868 10.8059 10.1188 11.0103 9.90808C11.0362 9.88091 11.0617 9.85337 11.0864 9.82507H8.15283V10.5751ZM8.15283 8.75671H11.5903C11.6157 8.61184 11.6305 8.46539 11.6294 8.31824L11.6118 8.13074C11.606 8.08938 11.5967 8.04864 11.5884 8.00769H8.15283V8.75671ZM8.15283 6.93835H11.0386C10.8391 6.72476 10.6038 6.54761 10.3394 6.42078C10.0221 6.26862 9.67461 6.18942 9.32275 6.18933H8.15283V6.93835Z" fill="white" stroke="white" stroke-width="0.16"/>
</g>
</svg>
