<svg width="19" height="20" viewBox="0 0 19 20" fill="none" xmlns="http://www.w3.org/2000/svg">
<mask id="mask0_37576_57022" style="mask-type:luminance" maskUnits="userSpaceOnUse" x="0" y="0" width="19" height="20">
<path d="M18.6668 0.791687H0.333496V19.125H18.6668V0.791687Z" fill="white"/>
</mask>
<g mask="url(#mask0_37576_57022)">
<path d="M9.50016 19.125C14.5628 19.125 18.6668 15.021 18.6668 9.95835C18.6668 4.89575 14.5628 0.791687 9.50016 0.791687C4.43756 0.791687 0.333496 4.89575 0.333496 9.95835C0.333496 15.021 4.43756 19.125 9.50016 19.125Z" fill="#ED0F2D"/>
<path d="M6.35229 11.6603L6.27129 9.97728L9.28629 6.80028H10.9063L8.18829 9.72528L7.37829 10.5893L6.35229 11.6603ZM5.04729 13.1003V6.80028H6.49629V13.1003H5.04729ZM9.35829 13.1003L7.11729 10.3553L8.07129 9.32028L11.0593 13.1003H9.35829ZM11.5225 13.1003V8.25828H12.8635V9.62628L12.6745 9.23028C12.8185 8.88828 13.0495 8.63028 13.3675 8.45628C13.6855 8.27628 14.0725 8.18628 14.5285 8.18628V9.48228C14.4685 9.47628 14.4145 9.47328 14.3665 9.47328C14.3185 9.46728 14.2675 9.46428 14.2135 9.46428C13.8295 9.46428 13.5175 9.57528 13.2775 9.79728C13.0435 10.0133 12.9265 10.3523 12.9265 10.8143V13.1003H11.5225Z" fill="white"/>
</g>
</svg>
