<svg width="48" height="48" viewBox="0 0 48 48" fill="none" xmlns="http://www.w3.org/2000/svg">
<rect x="0.25" y="0.25" width="47.5" height="47.5" rx="23.75" fill="#AB9FF2"/>
<rect x="0.25" y="0.25" width="47.5" height="47.5" rx="23.75" stroke="#33333E" stroke-width="0.5"/>
<path fill-rule="evenodd" clip-rule="evenodd" d="M21.2547 29.8557C19.698 32.2146 17.0895 35.2001 13.6185 35.2001C11.9777 35.2001 10.4 34.5322 10.3999 31.6305C10.3998 24.2402 20.6023 12.8002 30.0687 12.8C35.4539 12.7999 37.5999 16.4949 37.5999 20.6909C37.5999 26.0769 34.0658 32.2354 30.5528 32.2354C29.4379 32.2354 28.8909 31.63 28.8909 30.6699C28.8909 30.4194 28.9329 30.1479 29.0172 29.8557C27.8179 31.8805 25.504 33.7597 23.3373 33.7597C21.7596 33.7597 20.9602 32.7784 20.9602 31.4004C20.9602 30.8994 21.0654 30.3777 21.2547 29.8557ZM28.2811 18.4822C27.4242 18.4837 26.84 19.2037 26.8419 20.2308C26.8437 21.2578 27.4305 21.9963 28.2874 21.9948C29.1236 21.9933 29.7075 21.2529 29.7057 20.2258C29.7038 19.1987 29.1173 18.4808 28.2811 18.4822ZM32.8264 18.4773C31.9695 18.4788 31.3854 19.1988 31.3872 20.2259C31.389 21.2529 31.9756 21.9914 32.8327 21.9899C33.6689 21.9885 34.2528 21.248 34.251 20.2209C34.2491 19.1938 33.6626 18.4759 32.8264 18.4773Z" fill="white"/>
</svg>
