<svg width="48" height="48" viewBox="0 0 48 48" fill="none" xmlns="http://www.w3.org/2000/svg">
<rect x="0.25" y="0.25" width="47.5" height="47.5" rx="23.75" fill="#141418"/>
<rect x="0.25" y="0.25" width="47.5" height="47.5" rx="23.75" stroke="#33333E" stroke-width="0.5"/>
<path d="M37.0352 37.0414L30.5731 35.1786L25.7 37.9988L22.3 37.9974L17.4239 35.1786L10.9648 37.0414L9 30.62L10.9648 23.4933L9 17.4679L10.9648 10L21.0576 15.8378H26.9422L37.0352 10L39 17.4679L37.0352 23.4933L39 30.62L37.0352 37.0414Z" fill="#FF5C16"/>
<path d="M10.9658 10L21.0588 15.8419L20.6575 19.8512L10.9658 10ZM17.4251 30.6227L21.8659 33.8978L17.4251 35.1786V30.6227ZM21.511 25.2081L20.6575 19.8539L15.1942 23.4949L15.1912 23.4935V23.4962L15.2082 27.2439L17.4236 25.2083L21.511 25.2081ZM37.0349 10L26.9419 15.8419L27.3419 19.8512L37.0349 10ZM30.5758 30.6227L26.1348 33.8978L30.5758 35.1786V30.6227ZM32.808 23.496V23.4933L32.8067 23.4947L27.3434 19.8539L26.4899 25.2081H30.5756L32.7925 27.2435L32.808 23.496Z" fill="#FF5C16"/>
<path d="M17.4239 35.1787L10.9648 37.0415L9 30.6228H17.4239V35.1787ZM21.5098 25.2068L22.7437 32.9474L21.0337 28.6434L15.2057 27.2436L17.4224 25.207H21.5098V25.2068ZM30.5759 35.1787L37.0352 37.0415L39 30.6228H30.5759V35.1787ZM26.4902 25.2068L25.2563 32.9474L26.9661 28.6434L32.7943 27.2436L30.5761 25.207H26.4902V25.2068Z" fill="#E34807"/>
<path d="M9 30.6201L10.9648 23.4934H15.19L15.2055 27.2424L21.0339 28.6422L22.7437 32.946L21.8647 33.8938L17.4239 30.6187H9V30.6201ZM39 30.6201L37.0352 23.4934H32.8097L32.7943 27.2424L26.9663 28.6422L25.2563 32.946L26.1351 33.8938L30.5761 30.6187H39V30.6201ZM26.9422 15.8379H21.0576L20.658 19.8472L22.7439 32.9419H25.2563L27.3435 19.8472L26.9422 15.8379Z" fill="#FF8D5D"/>
<path d="M10.9648 10L9 17.4679L10.9648 23.4933H15.19L20.6563 19.8512L10.9648 10ZM20.2887 26.7614H18.3745L17.3323 27.7505L21.0352 28.6392L20.2887 26.7602V26.7614ZM37.0352 10L39 17.4679L37.0352 23.4933H32.8097L27.3437 19.8512L37.0352 10ZM27.7141 26.7614H29.631L30.6732 27.7517L26.9661 28.6421L27.7141 26.76V26.7614ZM25.6986 35.4444L26.1353 33.8964L25.2563 32.9486H22.742L21.8632 33.8964L22.2997 35.4444" fill="#661800"/>
<path d="M25.6989 35.4441V38H22.3003V35.4441H25.6989Z" fill="#C0C4CD"/>
<path d="M17.4253 35.1758L22.3026 37.9987V35.4428L21.8659 33.895L17.4253 35.1758ZM30.576 35.1758L25.6985 37.9987V35.4428L26.1352 33.895L30.576 35.1758Z" fill="#E7EBF6"/>
</svg>
