<svg width="48" height="48" viewBox="0 0 48 48" fill="none" xmlns="http://www.w3.org/2000/svg">
<g clip-path="url(#clip0_1525_2212)">
<rect width="48" height="48" rx="24" fill="white"/>
<path d="M47.8473 47.9933C31.9872 47.9933 16.1271 47.9933 0.273853 48.0001C0.0330272 48.0001 -0.0151367 47.952 -0.0151367 47.7111C-0.00825598 31.851 -0.00825556 15.9909 -0.00825556 0.137695C0.156882 0.158338 0.23945 0.295953 0.342661 0.399164C3.32202 3.37853 6.30138 6.35101 9.27387 9.33037C9.3702 9.4267 9.48029 9.52303 9.5835 9.61248C9.5835 10.734 9.59726 11.8487 9.59038 12.9703C9.59038 13.2111 9.63855 13.2937 9.90001 13.2868C10.65 13.273 11.4 13.2868 12.15 13.2799C12.3496 13.2799 12.4046 13.335 12.4046 13.5345C12.3977 16.624 12.3977 19.7134 12.4046 22.796C12.4046 23.0162 12.3289 23.0574 12.1294 23.0506C11.3794 23.0437 10.6294 23.0574 9.87937 23.0437C9.65919 23.0368 9.59038 23.0919 9.59038 23.3189C9.59726 24.9978 9.59726 26.6767 9.59038 28.3556C9.59038 28.5964 9.66607 28.6308 9.87937 28.6308C10.6018 28.6171 11.3174 28.6377 12.0399 28.6171C12.322 28.6102 12.4046 28.6721 12.4046 28.968C12.3908 32.6492 12.3977 36.3235 12.3908 40.0047C12.3908 40.2524 12.4596 40.3143 12.7074 40.3143C14.8886 40.3075 17.0629 40.3075 19.2441 40.3143C19.5331 40.3143 19.5812 40.218 19.5812 39.9634C19.5743 36.2822 19.5812 32.6079 19.5675 28.9336C19.5675 28.6859 19.6294 28.624 19.8771 28.624C22.767 28.6102 25.65 28.6859 28.5399 28.5827C28.6363 28.6859 28.7326 28.7891 28.8289 28.8854C35.0766 35.1331 41.3244 41.3809 47.5721 47.6286C47.6753 47.7318 47.8267 47.8144 47.8473 47.9933Z" fill="#5E8323"/>
<path d="M9.58389 9.60552C9.48068 9.50918 9.37747 9.41974 9.27426 9.32341C6.2949 6.34404 3.31553 3.37156 0.343052 0.392203C0.239841 0.288991 0.157274 0.151376 -0.00786398 0.130734C0.019659 0.0894498 -0.0697911 4.19865e-07 0.0540623 0.00688116C0.12287 0.0137619 0.191678 0.00688116 0.267366 0.00688116C16.0793 0.00688116 31.8913 0.00688074 47.7101 0C47.9371 0 47.9853 0.0481652 47.9853 0.27523C47.9784 16.0872 47.9784 31.8991 47.9715 47.7179C47.9715 47.7936 48.1229 47.9932 47.8615 47.9863C47.8408 47.8074 47.6894 47.7248 47.5793 47.6079C41.3316 41.3601 35.0839 35.1124 28.8362 28.8647C28.7399 28.7684 28.6435 28.6583 28.5472 28.562C29.4142 28.4794 30.2743 28.3693 31.1137 28.1216C34.2376 27.1996 36.5564 25.3624 37.678 22.2179C38.483 19.9473 38.5862 17.6353 38.0426 15.289C37.3408 12.2684 35.5862 10.1009 32.7789 8.79359C31.0518 7.98854 29.2146 7.70643 27.3362 7.69955C21.522 7.67891 15.7077 7.69267 9.88664 7.68579C9.6527 7.68579 9.60453 7.76836 9.61141 7.98166C9.59765 8.52524 9.58389 9.06882 9.58389 9.60552Z" fill="#8BA532"/>
<path d="M9.58403 9.60559C9.58403 9.0689 9.59779 8.52532 9.59091 7.98862C9.59091 7.77532 9.6322 7.69275 9.86614 7.69275C15.6804 7.69963 21.4946 7.68587 27.3157 7.70651C29.1941 7.71339 31.0313 7.9955 32.7584 8.80055C35.5657 10.1148 37.3272 12.2822 38.0221 15.296C38.5657 17.6423 38.4694 19.9611 37.6575 22.2249C36.5428 25.3694 34.2171 27.2065 31.0932 28.1286C30.2607 28.3763 29.3937 28.4864 28.5267 28.5689C25.6368 28.679 22.7538 28.5964 19.8639 28.6171C19.6162 28.6171 19.5542 28.679 19.5542 28.9267C19.5611 32.6079 19.5542 36.2822 19.568 39.9634C19.568 40.2249 19.5198 40.3212 19.2308 40.3143C17.0496 40.3006 14.8753 40.3006 12.6941 40.3143C12.4464 40.3143 12.3776 40.2524 12.3776 40.0047C12.3845 36.3235 12.3776 32.6492 12.3914 28.968C12.3914 28.6721 12.3088 28.6102 12.0267 28.6171C11.3111 28.6377 10.5886 28.6171 9.86614 28.6308C9.65284 28.6377 9.57715 28.5964 9.57715 28.3556C9.59091 26.6767 9.59091 24.9978 9.57715 23.3189C9.57715 23.085 9.64596 23.0368 9.86614 23.0437C10.6161 23.0574 11.3661 23.0437 12.1161 23.0506C12.3157 23.0506 12.3914 23.0162 12.3914 22.796C12.3845 19.7065 12.3845 16.6171 12.3914 13.5345C12.3914 13.335 12.3363 13.2799 12.1368 13.2799C11.3868 13.2937 10.6368 13.273 9.88678 13.2868C9.63219 13.2937 9.57715 13.2111 9.57715 12.9703C9.59779 11.8418 9.58403 10.7272 9.58403 9.60559ZM19.5886 19.6721C19.5817 20.7386 19.5817 21.8052 19.568 22.8648C19.568 23.0162 19.6299 23.0437 19.7606 23.0437C20.8272 23.0368 21.8937 23.0368 22.9602 23.0299C23.8891 23.0299 24.818 23.0506 25.7469 23.023C26.5175 22.9955 27.2813 22.9267 28.0313 22.7409C29.7308 22.3074 30.8868 21.3166 31.279 19.5551C31.4373 18.7776 31.4648 17.9863 31.3547 17.2019C31.162 15.7501 30.4602 14.6423 29.1185 13.9749C28.2033 13.5207 27.2125 13.3831 26.2148 13.3281C24.1093 13.2111 21.9969 13.3006 19.8914 13.2662C19.6093 13.2593 19.568 13.3625 19.568 13.6102C19.5749 14.9519 19.568 16.2868 19.5749 17.6285C19.5749 18.3097 19.5817 18.9909 19.5886 19.6721Z" fill="#FEFEFD"/>
<path d="M19.5885 19.672C19.5816 18.9908 19.5748 18.3165 19.5748 17.6353C19.5748 16.2936 19.5816 14.9587 19.5679 13.617C19.5679 13.3693 19.6092 13.2661 19.8913 13.2729C21.9968 13.3073 24.1092 13.2179 26.2147 13.3349C27.2124 13.3899 28.2032 13.5275 29.1183 13.9817C30.4601 14.6491 31.1619 15.75 31.3546 17.2087C31.4647 17.9931 31.444 18.7913 31.2789 19.5619C30.8936 21.3234 29.7307 22.3142 28.0312 22.7477C27.2812 22.9404 26.5174 23.0092 25.7468 23.0298C24.8179 23.0574 23.889 23.0367 22.9601 23.0367C22.1137 22.1835 21.2743 21.3234 20.4211 20.4771C20.1527 20.2019 19.8981 19.906 19.5885 19.672Z" fill="#8CA632"/>
<path d="M19.5885 19.6721C19.8981 19.9061 20.1527 20.2019 20.4279 20.4772C21.2743 21.3304 22.1206 22.1836 22.9669 23.0368C21.9004 23.0368 20.8339 23.0437 19.7674 23.0506C19.6298 23.0506 19.5679 23.0162 19.5747 22.8717C19.5816 21.8051 19.5816 20.7318 19.5885 19.6721Z" fill="#5E8223"/>
</g>
<defs>
<clipPath id="clip0_1525_2212">
<rect width="48" height="48" rx="24" fill="white"/>
</clipPath>
</defs>
</svg>
