<svg width="19" height="20" viewBox="0 0 19 20" fill="none" xmlns="http://www.w3.org/2000/svg">
<mask id="mask0_37576_56931" style="mask-type:luminance" maskUnits="userSpaceOnUse" x="0" y="0" width="19" height="20">
<path d="M18.6654 0.791016H0.332031V19.1243H18.6654V0.791016Z" fill="white"/>
</mask>
<g mask="url(#mask0_37576_56931)">
<path d="M9.4987 19.1243C14.5613 19.1243 18.6654 15.0203 18.6654 9.95768C18.6654 4.89508 14.5613 0.791016 9.4987 0.791016C4.43609 0.791016 0.332031 4.89508 0.332031 9.95768C0.332031 15.0203 4.43609 19.1243 9.4987 19.1243Z" fill="#ED0F2D"/>
</g>
<path d="M7.06 14.5V6.1H8.98V12.928H9.424C10.344 12.928 11.024 12.692 11.464 12.22C11.912 11.74 12.136 11.076 12.136 10.228H14.08C14.088 11.108 13.9 11.868 13.516 12.508C13.132 13.14 12.56 13.632 11.8 13.984C11.048 14.328 10.112 14.5 8.992 14.5H7.06ZM5.86 12.232V11.188L11.896 8.008V9.052L5.86 12.232ZM5.86 10.516V9.484L11.896 6.304V7.336L5.86 10.516Z" fill="white"/>
</svg>
