<svg width="32" height="32" viewBox="0 0 32 32" fill="none" xmlns="http://www.w3.org/2000/svg">
<g clip-path="url(#clip0_8123_138212)">
<path d="M16 32C24.8367 32 32 24.8367 32 16C32 7.16333 24.8367 0 16 0C7.16333 0 0 7.16333 0 16C0 24.8367 7.16333 32 16 32Z" fill="#914FFF"/>
<path d="M21.8529 12.1065C21.4396 11.8665 20.9063 11.8665 20.4263 12.1065L17.0929 14.0665L14.8263 15.3198L11.5596 17.2798C11.1463 17.5198 10.6129 17.5198 10.1329 17.2798L7.57294 15.7331C7.15961 15.4931 6.85294 15.0131 6.85294 14.4798V11.5065C6.85294 11.0265 7.09294 10.5598 7.57294 10.2531L10.1329 8.75979C10.5463 8.51979 11.0796 8.51979 11.5596 8.75979L14.1196 10.3065C14.5329 10.5465 14.8396 11.0265 14.8396 11.5598V13.5198L17.1063 12.2131V10.1865C17.1063 9.70646 16.8663 9.23979 16.3863 8.93313L11.6263 6.13313C11.2129 5.89312 10.6796 5.89312 10.1996 6.13313L5.31961 8.98646C4.83961 9.22646 4.59961 9.70646 4.59961 10.1731V15.7598C4.59961 16.2398 4.83961 16.7065 5.31961 17.0131L10.1329 19.8131C10.5463 20.0531 11.0796 20.0531 11.5596 19.8131L14.8263 17.9065L17.0929 16.5998L20.3596 14.6931C20.7729 14.4531 21.3063 14.4531 21.7863 14.6931L24.3463 16.1865C24.7596 16.4265 25.0663 16.9065 25.0663 17.4398V20.4131C25.0663 20.8931 24.8263 21.3598 24.3463 21.6665L21.8529 23.1598C21.4396 23.3998 20.9063 23.3998 20.4263 23.1598L17.8663 21.6665C17.4529 21.4265 17.1463 20.9465 17.1463 20.4131V18.5065L14.8796 19.8131V21.7731C14.8796 22.2531 15.1196 22.7198 15.5996 23.0265L20.4129 25.8265C20.8263 26.0665 21.3596 26.0665 21.8396 25.8265L26.6529 23.0265C27.0663 22.7865 27.3729 22.3065 27.3729 21.7731V16.1198C27.3729 15.6398 27.1329 15.1731 26.6529 14.8665L21.8396 12.0665L21.8529 12.1065Z" fill="white"/>
</g>
<defs>
<clipPath id="clip0_8123_138212">
<rect width="32" height="32" fill="white"/>
</clipPath>
</defs>
</svg>
