<svg width="19" height="20" viewBox="0 0 19 20" fill="none" xmlns="http://www.w3.org/2000/svg">
<mask id="mask0_37576_56856" style="mask-type:luminance" maskUnits="userSpaceOnUse" x="0" y="0" width="19" height="20">
<path d="M18.6668 0.791687H0.333496V19.125H18.6668V0.791687Z" fill="white"/>
</mask>
<g mask="url(#mask0_37576_56856)">
<path d="M9.50016 19.125C14.5628 19.125 18.6668 15.021 18.6668 9.95835C18.6668 4.89575 14.5628 0.791687 9.50016 0.791687C4.43756 0.791687 0.333496 4.89575 0.333496 9.95835C0.333496 15.021 4.43756 19.125 9.50016 19.125Z" fill="#16795B"/>
<path d="M4.24846 13.5007V7.20067H6.97546C7.53946 7.20067 8.02547 7.29367 8.43347 7.47967C8.84147 7.65967 9.15647 7.92067 9.37847 8.26267C9.60047 8.60467 9.71147 9.01267 9.71147 9.48667C9.71147 9.95467 9.60047 10.3597 9.37847 10.7017C9.15647 11.0377 8.84147 11.2957 8.43347 11.4757C8.02547 11.6557 7.53946 11.7457 6.97546 11.7457H5.05846L5.70646 11.1067V13.5007H4.24846ZM8.25346 13.5007L6.67846 11.2147H8.23547L9.82846 13.5007H8.25346ZM5.70646 11.2687L5.05846 10.5847H6.89446C7.34446 10.5847 7.68047 10.4887 7.90247 10.2967C8.12447 10.0987 8.23547 9.82867 8.23547 9.48667C8.23547 9.13867 8.12447 8.86867 7.90247 8.67667C7.68047 8.48467 7.34446 8.38867 6.89446 8.38867H5.05846L5.70646 7.69567V11.2687ZM12.6126 14.5807V6.12067H13.5126V14.5807H12.6126ZM12.9366 13.6087C12.4326 13.6087 11.9496 13.5427 11.4876 13.4107C11.0256 13.2727 10.6536 13.0957 10.3716 12.8797L10.8666 11.7817C11.1366 11.9737 11.4546 12.1327 11.8206 12.2587C12.1926 12.3787 12.5676 12.4387 12.9456 12.4387C13.2336 12.4387 13.4646 12.4117 13.6386 12.3577C13.8186 12.2977 13.9506 12.2167 14.0346 12.1147C14.1186 12.0127 14.1606 11.8957 14.1606 11.7637C14.1606 11.5957 14.0946 11.4637 13.9626 11.3677C13.8306 11.2657 13.6566 11.1847 13.4406 11.1247C13.2246 11.0587 12.9846 10.9987 12.7206 10.9447C12.4626 10.8847 12.2016 10.8127 11.9376 10.7287C11.6796 10.6447 11.4426 10.5367 11.2266 10.4047C11.0106 10.2727 10.8336 10.0987 10.6956 9.88267C10.5636 9.66667 10.4976 9.39067 10.4976 9.05467C10.4976 8.69467 10.5936 8.36767 10.7856 8.07367C10.9836 7.77367 11.2776 7.53667 11.6676 7.36267C12.0636 7.18267 12.5586 7.09267 13.1526 7.09267C13.5486 7.09267 13.9386 7.14067 14.3226 7.23667C14.7066 7.32667 15.0456 7.46467 15.3396 7.65067L14.8896 8.75767C14.5956 8.58967 14.3016 8.46667 14.0076 8.38867C13.7136 8.30467 13.4256 8.26267 13.1436 8.26267C12.8616 8.26267 12.6306 8.29567 12.4506 8.36167C12.2706 8.42767 12.1416 8.51467 12.0636 8.62267C11.9856 8.72467 11.9466 8.84467 11.9466 8.98267C11.9466 9.14467 12.0126 9.27667 12.1446 9.37867C12.2766 9.47467 12.4506 9.55267 12.6666 9.61267C12.8826 9.67267 13.1196 9.73267 13.3776 9.79267C13.6416 9.85267 13.9026 9.92167 14.1606 9.99967C14.4246 10.0777 14.6646 10.1827 14.8806 10.3147C15.0966 10.4467 15.2706 10.6207 15.4026 10.8367C15.5406 11.0527 15.6096 11.3257 15.6096 11.6557C15.6096 12.0097 15.5106 12.3337 15.3126 12.6277C15.1146 12.9217 14.8176 13.1587 14.4216 13.3387C14.0316 13.5187 13.5366 13.6087 12.9366 13.6087Z" fill="#F7FB0E"/>
</g>
</svg>
