<svg width="180" height="180" viewBox="0 0 180 180" fill="none" xmlns="http://www.w3.org/2000/svg">
<rect width="180" height="180" rx="20" fill="#191F3B"/>
<path d="M123.54 131.337C104.05 125.443 97.5738 102.474 97.5738 102.474C97.5738 102.474 99.3167 102.115 100.004 102.002C117.881 99.0567 133.604 82.8079 132.09 62.1983C131.329 51.811 126.777 43.7833 117.689 38.5825C111.432 35.0052 105.073 34 98.4989 34C77.1635 34 57.945 53.5241 57.945 53.5241C57.945 53.5241 51.894 46.2751 49.1932 44.0759C47.1045 42.3769 44.586 41.6407 41.8432 42.1409C38.063 42.8347 35.2968 45.6427 34.2081 46.9217C33.9137 47.2662 33.9605 47.7806 34.3062 48.0685C35.965 49.4513 40.5816 52.9011 42.7123 55.0485C45.3289 57.6913 49.9502 63.0053 49.9502 63.0053C49.9502 63.0053 43.2917 72.3639 40.5348 77.5269C35.6847 86.6117 32.6101 96.2581 33.04 106.768C33.3297 113.824 38.7919 131.96 56.1601 131.96C79.4765 131.96 83.2335 106.612 79.4531 93.1669C76.1589 81.4487 71.762 71.3823 65.211 61.0846C69.421 56.082 77.7149 49.3852 85.1352 46.7801C90.663 44.8357 96.3122 43.7219 102.186 44.5856C114.984 46.4639 119.787 57.2005 120.021 65.5868C120.488 82.5011 105.284 96.0552 88.6117 93.653C84.7427 93.0961 82.8966 94.8565 83.2424 98.7783C83.2611 99.019 83.3036 99.2597 83.3503 99.5003C84.196 103.781 85.7847 107.797 87.7192 111.662C93.1862 122.606 100.513 131.993 110.779 138.733C117.264 142.989 124.381 145.901 132.24 144.745C143.122 143.141 145.935 133.905 146.973 129.044C147.183 128.057 146.136 127.283 145.267 127.784C141.361 130.044 132.618 134.079 123.558 131.337H123.54ZM68.7201 100.439C69.1687 104.46 68.8603 108.453 67.052 112.158C64.6362 117.118 60.7766 120.016 55.1742 119.883C49.6838 119.751 45.9831 116.731 43.7963 111.799C41.7357 107.155 41.8852 102.294 42.8618 97.438C44.4225 89.6982 47.9176 82.7984 52.0762 76.2055C53.2677 74.3177 54.5387 72.4819 55.9171 70.4053C62.0709 79.778 67.4632 89.2168 68.7154 100.439H68.7201Z" fill="white"/>
<path d="M48.562 96.1684C45.5435 100.307 45.3753 107.788 48.4826 111.926C50.7535 114.956 55.7999 116.334 58.3839 115.315C54.6598 114.074 52.2581 111.294 50.604 108.047C48.9498 104.8 47.5854 100.831 48.562 96.1637V96.1684Z" fill="white"/>
</svg>
