<svg width="79" height="22" viewBox="0 0 79 22" fill="none" xmlns="http://www.w3.org/2000/svg">
    <path
        d="M67.3325 1.375C72.6474 1.375 77.3325 4.94189 77.3325 9.72754C77.3324 11.6317 76.5938 13.316 75.1772 14.8838L75.1782 14.8848C74.1502 16.0739 72.5398 17.3454 71.1118 18.3486C69.6969 19.3426 68.3244 20.1671 67.7319 20.416L67.7329 20.417C67.4349 20.5427 67.0899 20.6465 66.7368 20.6211C66.3103 20.5903 65.9204 20.3696 65.7017 19.9756C65.5281 19.6628 65.5252 19.348 65.5308 19.2002C65.5368 19.0408 65.5667 18.8759 65.5688 18.8613L65.5698 18.8506L65.6899 18.0938C65.6953 18.0513 65.7001 18.0097 65.7036 17.9697C65.6925 17.967 65.6816 17.9634 65.6704 17.9609C61.0368 17.3186 57.3327 13.9887 57.3325 9.72754C57.3325 4.94189 62.0176 1.375 67.3325 1.375Z"
        fill="white" stroke="#33395B" stroke-width="2" />
    <path
        d="M65.1172 13.7587L65.1445 13.7607C65.4918 13.7801 65.8177 13.935 66.0518 14.1923C66.2858 14.4498 66.4092 14.789 66.3955 15.1367V15.1503L66.3945 15.165C66.3745 15.4586 66.2599 15.7383 66.0674 15.9609L66.043 15.9882L66.0166 16.0146L63.002 19.0224L63.001 19.0214C62.853 19.1703 62.6788 19.2903 62.4854 19.372C62.2885 19.4552 62.077 19.4981 61.8633 19.499H46.6016V19.498C46.3469 19.5019 46.096 19.4333 45.8799 19.2968C45.6458 19.149 45.4641 18.9308 45.3613 18.6738C45.2586 18.4168 45.24 18.1336 45.3076 17.8652C45.369 17.6215 45.4994 17.4019 45.6816 17.2304L48.6885 14.2343V14.2353C48.8364 14.0865 49.0117 13.9674 49.2051 13.8857L49.3555 13.831C49.5079 13.7837 49.6669 13.7594 49.8271 13.7587H65.1172Z"
        fill="url(#paint0_linear_40260_3436)" stroke="#33395B" stroke-width="2" />
    <path
        d="M65.0894 2.5V2.50098C65.221 2.50098 65.3518 2.5197 65.4771 2.55859L65.6011 2.60449L65.7192 2.66211C65.8347 2.72558 65.9401 2.80606 66.0317 2.90137C66.1234 2.99667 66.2004 3.10485 66.2593 3.22266L66.312 3.34375L66.3521 3.46875C66.3835 3.58578 66.3969 3.70668 66.395 3.82812L66.397 3.8291C66.3969 3.83549 66.3952 3.84226 66.395 3.84863C66.3949 3.85238 66.3961 3.85661 66.396 3.86035L66.395 3.85938C66.3847 4.17863 66.26 4.48382 66.0415 4.71777L66.0181 4.74121L63.0034 7.7627L63.0024 7.76172C62.8542 7.91119 62.6788 8.03132 62.4849 8.11328C62.2881 8.19638 62.0764 8.23935 61.8628 8.24023H46.5737L46.5454 8.23926C46.1981 8.21982 45.8722 8.06404 45.6382 7.80664C45.4044 7.54934 45.2809 7.21066 45.2944 6.86328L45.2964 6.83398C45.3165 6.54051 45.4311 6.26157 45.6235 6.03906L45.6479 6.01074L45.6733 5.98535L48.688 2.97656V2.97754C48.8361 2.82839 49.0119 2.70878 49.2056 2.62695L49.355 2.57227C49.5074 2.52495 49.6664 2.50071 49.8267 2.5H65.0894Z"
        fill="url(#paint1_linear_40260_3436)" stroke="#33395B" stroke-width="2" />
    <path
        d="M61.8628 8.09245L62.0229 8.10124C62.1289 8.11222 62.2337 8.13313 62.3354 8.16472L62.4849 8.21941L62.6294 8.28972C62.7667 8.36455 62.892 8.45959 63.0024 8.57097L63.0034 8.56999L66.0298 11.5964L66.0415 11.6091C66.2668 11.8503 66.3938 12.1677 66.397 12.4977H66.395C66.397 12.6667 66.3678 12.8344 66.3062 12.9919C66.2433 13.1525 66.1494 13.2991 66.0298 13.4235C65.9101 13.5479 65.767 13.6474 65.6089 13.7165C65.451 13.7855 65.2812 13.8234 65.1089 13.8268H49.8267C49.6133 13.8259 49.4021 13.7829 49.2056 13.6999C49.0123 13.6182 48.8368 13.499 48.689 13.3503V13.3512L45.6743 10.3483L45.6479 10.3219L45.6235 10.2946C45.431 10.072 45.3164 9.79233 45.2964 9.4987L45.2954 9.48405L45.2944 9.47038C45.2808 9.1228 45.4042 8.78346 45.6382 8.52605L45.73 8.43425C45.9539 8.23181 46.2415 8.11143 46.5454 8.09441L46.5737 8.09245H61.8628Z"
        fill="url(#paint2_linear_40260_3436)" stroke="#33395B" stroke-width="2" />
    <path
        d="M52 2.43991C52.3516 2.47048 52.8421 2.60058 53.2119 3.03464C53.5803 3.46724 53.6743 4.02158 53.6289 4.57077L53.6309 4.57175C53.5803 5.27919 53.1926 7.65211 52.8262 10.0796L52.8252 10.0874L51.6543 17.436C51.5581 18.1055 51.3077 18.7115 50.8066 19.1176C50.2925 19.5342 49.6901 19.5991 49.1992 19.5434C48.283 19.4394 47.3722 18.8784 46.8604 18.5161L46.8486 18.5083L46.8379 18.4995C46.8463 18.5058 46.809 18.4806 46.6816 18.3969C46.5718 18.3248 46.4238 18.2282 46.2441 18.1108C45.8866 17.8771 45.4119 17.5654 44.9043 17.226C43.9069 16.5592 42.7236 15.7446 42.0645 15.187L42.0596 15.1831C41.8193 14.9772 41.438 14.5705 41.3428 13.9721C41.2345 13.2914 41.5368 12.6726 42.0811 12.1889L42.3643 11.9262L40.4141 13.2407L40.3994 13.2495L40.3848 13.2592L39.8555 12.4106L40.3838 13.2592L40.3828 13.2602L40.3809 13.2612C40.3794 13.2621 40.3776 13.2632 40.376 13.2641C40.3728 13.2661 40.3698 13.2688 40.3662 13.271C40.359 13.2753 40.3506 13.2796 40.3418 13.2846C40.3241 13.2948 40.3028 13.3062 40.2783 13.3188C40.2294 13.344 40.1674 13.3741 40.0918 13.4048C39.9401 13.4662 39.7347 13.5313 39.4795 13.5766C38.9637 13.6681 38.2674 13.6712 37.415 13.4155C36.7004 13.2011 35.9296 12.9525 35.3408 12.7583C35.046 12.661 34.7954 12.5769 34.6182 12.5171C34.5298 12.4872 34.4594 12.4632 34.4111 12.4467C34.3871 12.4386 34.3682 12.4315 34.3555 12.4272C34.3491 12.425 34.3441 12.4235 34.3408 12.4223C34.3392 12.4218 34.3378 12.4217 34.3369 12.4214H34.3359L34.2266 12.3833L34.1299 12.3227L34.6602 11.4751L34.1289 12.3227L34.1279 12.3217L34.125 12.3198C34.1236 12.3189 34.1216 12.3178 34.1201 12.3169C34.1168 12.3148 34.1132 12.3125 34.1094 12.31C34.1014 12.3048 34.0923 12.2985 34.082 12.2915C34.0614 12.2773 34.0355 12.2588 34.0068 12.2368C33.9506 12.1937 33.8756 12.1313 33.7969 12.0503C33.6553 11.9045 33.4151 11.6104 33.3496 11.1811C33.2743 10.6865 33.4603 10.2276 33.8008 9.8735C34.1066 9.55546 34.5437 9.30767 35.0771 9.09811C37.9358 7.93005 48.2888 3.64207 50.7061 2.64108L50.7158 2.63718L50.7256 2.63229L51.0781 3.53854L51.0889 3.56491C50.7319 2.64697 50.7263 2.63265 50.7266 2.63229H50.7275L50.7295 2.63132C50.7306 2.63089 50.7321 2.63084 50.7334 2.63034C50.7362 2.62928 50.7395 2.62779 50.7432 2.62643C50.7504 2.62374 50.7592 2.62039 50.7695 2.61667C50.7908 2.60906 50.8191 2.59918 50.8525 2.58835C50.9194 2.56674 51.0119 2.53977 51.1211 2.51413C51.3275 2.46567 51.6497 2.40946 52 2.43991Z"
        fill="white" stroke="#33395B" stroke-width="2" />
    <path
        d="M28.3222 12.8776L27.6956 15.2166L25.4056 15.265C24.7212 13.9956 24.333 12.5433 24.333 10.9999C24.333 9.50751 24.696 8.10014 25.3393 6.86092H25.3398L27.3786 7.2347L28.2717 9.26124C28.0848 9.8062 27.9829 10.3912 27.9829 10.9999C27.983 11.6606 28.1026 12.2936 28.3222 12.8776Z"
        fill="#FBBB00" />
    <path
        d="M42.1756 9.31895C42.279 9.86338 42.3329 10.4256 42.3329 11.0003C42.3329 11.6446 42.2652 12.2731 42.1361 12.8794C41.698 14.9425 40.5532 16.744 38.9673 18.0188L38.9668 18.0183L36.3989 17.8873L36.0354 15.6185C37.0877 15.0013 37.9101 14.0356 38.3433 12.8794H33.5308V9.31895H42.1756Z"
        fill="#518EF8" />
    <path
        d="M38.9666 18.0174L38.9671 18.0179C37.4247 19.2576 35.4655 19.9993 33.3327 19.9993C29.9053 19.9993 26.9254 18.0836 25.4053 15.2645L28.3219 12.877C29.0819 14.9054 31.0387 16.3494 33.3327 16.3494C34.3187 16.3494 35.2425 16.0829 36.0352 15.6175L38.9666 18.0174Z"
        fill="#28B446" />
    <path
        d="M39.0782 4.07261L36.1626 6.45958C35.3422 5.94679 34.3725 5.65056 33.3335 5.65056C30.9876 5.65056 28.9942 7.16077 28.2723 9.26195L25.3403 6.86163H25.3398C26.8377 3.97372 29.8552 2.00064 33.3335 2.00064C35.5173 2.00064 37.5195 2.77851 39.0782 4.07261Z"
        fill="#F14336" />
    <path
        d="M28.3222 12.8776L27.6956 15.2166L25.4056 15.265C24.7212 13.9956 24.333 12.5433 24.333 10.9999C24.333 9.50752 24.696 8.10014 25.3393 6.86092L27.3786 7.2347L28.2717 9.26125C28.0848 9.8062 27.9829 10.3912 27.9829 10.9999C27.983 11.6606 28.1026 12.2936 28.3222 12.8776Z"
        fill="#FBBB00" />
    <path
        d="M42.1755 9.31895C42.2788 9.86338 42.3327 10.4256 42.3327 11.0003C42.3327 11.6446 42.265 12.2731 42.1359 12.8794C41.6978 14.9425 40.553 16.7439 38.9671 18.0188L36.3987 17.8873L36.0353 15.6185C37.0875 15.0013 37.9099 14.0355 38.3431 12.8794H33.5306V9.31895H42.1755Z"
        fill="#518EF8" />
    <path
        d="M38.9664 18.0174L38.9671 18.0188C37.4248 19.2585 35.4653 19.9993 33.3325 19.9993C29.9051 19.9993 26.9257 18.0842 25.4056 15.265L28.3222 12.8776C29.0822 14.906 31.0385 16.3494 33.3325 16.3494C34.3186 16.3494 35.2426 16.0838 36.0353 15.6185L38.9664 18.0174Z"
        fill="#28B446" />
    <path
        d="M39.0781 4.07261L36.1625 6.45958C35.3421 5.94679 34.3724 5.65056 33.3334 5.65056C30.9875 5.65056 28.9937 7.16006 28.2717 9.26125L25.3402 6.86163C26.8381 3.97372 29.8551 2.00064 33.3334 2.00064C35.5172 2.00064 37.5194 2.77851 39.0781 4.07261Z"
        fill="#F14336" />
    <path
        d="M33.333 1.00064C35.7585 1.00064 37.9853 1.86576 39.7168 3.30338L40.6504 4.07779L39.7119 4.84634L36.7959 7.23306L36.2412 7.68814L35.6328 7.30728C34.9669 6.89103 34.1793 6.65103 33.333 6.65103C31.4271 6.65122 29.8051 7.87717 29.2178 9.58658C29.0663 10.0286 28.9825 10.5035 28.9824 10.9997C28.9825 11.53 29.0768 12.0363 29.249 12.5026L29.2588 12.527C29.8774 14.1775 31.4694 15.3493 33.333 15.3493C34.1277 15.3492 34.8685 15.1372 35.5059 14.7682L35.5293 14.7555C35.9291 14.5211 36.287 14.2242 36.5918 13.8795H32.5303V8.319H43.0039L43.1582 9.13248C43.2732 9.73833 43.333 10.3634 43.333 11.0006C43.333 11.5366 43.2907 12.0634 43.209 12.5778L43.1143 13.0876C42.6852 15.1075 41.6462 16.8988 40.2031 18.2643L40.2188 18.2956L39.5938 18.7985L39.2969 19.0368L39.2832 19.0358C37.6202 20.269 35.561 20.9996 33.333 20.9997C29.7459 20.9997 26.6018 19.1106 24.8379 16.277L24.8154 16.278L24.5254 15.7399L24.1338 15.0133L24.1621 14.9899C23.6293 13.7666 23.333 12.4168 23.333 10.9997C23.333 9.63383 23.608 8.33042 24.1055 7.14224L24.0791 7.12173L24.4355 6.4313C24.4409 6.42089 24.4468 6.41045 24.4521 6.40005L24.792 5.7438L24.8232 5.74869C26.5837 2.90109 29.7353 1.00079 33.333 1.00064Z"
        stroke="#33395B" stroke-width="2" />
    <path d="M30.0212 3.1266L23.6289 7.8742L24.811 5.07318L30.0212 3.1266Z" fill="#E2761B"
        stroke="#E2761B" stroke-linecap="round" stroke-linejoin="round" />
    <path
        d="M15.2644 3.1266L21.6052 7.91916L20.481 5.07317L15.2644 3.1266ZM27.7212 14.1315L26.0188 16.7398L29.6613 17.742L30.7086 14.1893L27.7212 14.1315ZM14.5898 14.1893L15.6306 17.742L19.2732 16.7398L17.5707 14.1315L14.5898 14.1893Z"
        fill="#E4761B" stroke="#E4761B" stroke-linecap="round" stroke-linejoin="round" />
    <path
        d="M19.0678 9.72645L18.0527 11.2619L21.6696 11.4225L21.5412 7.53574L19.0678 9.72645ZM26.2181 9.72645L23.7126 7.49077L23.6291 11.4225L27.2395 11.2619L26.2181 9.72645ZM19.2734 16.7418L21.4448 15.6818L19.5689 14.217L19.2734 16.7418ZM23.8411 15.6818L26.019 16.7418L25.717 14.217L23.8411 15.6818Z"
        fill="#E4761B" stroke="#E4761B" stroke-linecap="round" stroke-linejoin="round" />
    <path
        d="M26.021 16.7405L23.8431 15.6804L24.0165 17.1002L23.9973 17.6976L26.021 16.7405ZM19.2754 16.7405L21.2991 17.6976L21.2862 17.1002L21.4468 15.6804L19.2754 16.7405Z"
        fill="#D7C1B3" stroke="#D7C1B3" stroke-linecap="round" stroke-linejoin="round" />
    <path
        d="M21.3312 13.2765L19.5195 12.7433L20.798 12.1587L21.3312 13.2765ZM23.9587 13.2765L24.492 12.1587L25.7769 12.7433L23.9587 13.2765Z"
        fill="#233447" stroke="#233447" stroke-linecap="round" stroke-linejoin="round" />
    <path
        d="M19.2733 16.742L19.5816 14.1337L17.5708 14.1915L19.2733 16.742ZM25.7104 14.1337L26.0189 16.742L27.7213 14.1915L25.7104 14.1337ZM27.2395 11.2621L23.6289 11.4227L23.963 13.2793L24.4962 12.1615L25.7811 12.7461L27.2395 11.2621ZM19.5174 12.7461L20.8022 12.1615L21.329 13.2793L21.6695 11.4227L18.0526 11.2621L19.5174 12.7461Z"
        fill="#CD6116" stroke="#CD6116" stroke-linecap="round" stroke-linejoin="round" />
    <path
        d="M18.0527 11.2621L19.5689 14.2173L19.5175 12.7461L18.0527 11.2621ZM25.7813 12.7461L25.717 14.2173L27.2395 11.2621L25.7813 12.7461ZM21.6696 11.4227L21.3292 13.2793L21.7532 15.47L21.8495 12.5854L21.6696 11.4227ZM23.6291 11.4227L23.4556 12.579L23.5327 15.47L23.9631 13.2793L23.6291 11.4227Z"
        fill="#E4751F" stroke="#E4751F" stroke-linecap="round" stroke-linejoin="round" />
    <path
        d="M23.9652 13.2783L23.5348 15.4689L23.8431 15.681L25.719 14.2162L25.7833 12.745L23.9652 13.2783ZM19.5195 12.745L19.5709 14.2162L21.4468 15.681L21.7552 15.4689L21.3312 13.2783L19.5195 12.745Z"
        fill="#F6851B" stroke="#F6851B" stroke-linecap="round" stroke-linejoin="round" />
    <path
        d="M23.9973 17.6989L24.0165 17.1014L23.8559 16.9601H21.434L21.2862 17.1014L21.2991 17.6989L19.2754 16.7417L19.9821 17.3199L21.4147 18.3156H23.8752L25.3143 17.3199L26.021 16.7417L23.9973 17.6989Z"
        fill="#C0AD9E" stroke="#C0AD9E" stroke-linecap="round" stroke-linejoin="round" />
    <path
        d="M23.8425 15.6817L23.5342 15.4696H21.7546L21.4463 15.6817L21.2856 17.1014L21.4334 16.9601H23.8554L24.016 17.1014L23.8425 15.6817Z"
        fill="#161616" stroke="#161616" stroke-linecap="round" stroke-linejoin="round" />
    <path
        d="M30.2925 8.18255L30.8387 5.56141L30.0227 3.12659L23.8425 7.71357L26.2195 9.7244L29.5795 10.7074L30.3247 9.84003L30.0035 9.60875L30.5174 9.13977L30.1191 8.8314L30.6331 8.43952L30.2925 8.18255ZM14.4565 5.56141L15.0026 8.18255L14.6557 8.43952L15.1696 8.8314L14.7778 9.13977L15.2917 9.60875L14.9705 9.84003L15.7093 10.7074L19.0692 9.7244L21.4462 7.71357L15.266 3.12659L14.4565 5.56141Z"
        fill="#763D16" stroke="#763D16" stroke-linecap="round" stroke-linejoin="round" />
    <path
        d="M29.5779 10.7072L26.2179 9.72421L27.2394 11.2596L25.7168 14.2148L27.7212 14.1891H30.7086L29.5779 10.7072ZM19.0676 9.72421L15.7077 10.7072L14.5898 14.1891H17.5707L19.5687 14.2148L18.0526 11.2596L19.0676 9.72421ZM23.629 11.4202L23.8409 7.71339L24.8174 5.07298H20.481L21.4446 7.71339L21.6695 11.4202L21.7466 12.5895L21.753 15.4676H23.5326L23.5454 12.5895L23.629 11.4202Z"
        fill="#F6851B" stroke="#F6851B" stroke-linecap="round" stroke-linejoin="round" />
    <mask id="path-24-outside-1_40260_3436" maskUnits="userSpaceOnUse" x="12.4565" y="0.126587"
        width="21" height="21" fill="black">
        <rect fill="white" x="12.4565" y="0.126587" width="21" height="21" />
        <path d="M30.0212 3.1266L23.629 7.87419L24.8111 5.07318L30.0212 3.1266Z" />
        <path
            d="M15.2644 3.1266L21.6052 7.91916L20.481 5.07317L15.2644 3.1266ZM27.7212 14.1315L26.0188 16.7398L29.6613 17.742L30.7086 14.1893L27.7212 14.1315ZM14.5898 14.1893L15.6306 17.742L19.2732 16.7398L17.5707 14.1315L14.5898 14.1893Z" />
        <path
            d="M19.0678 9.72645L18.0527 11.2619L21.6696 11.4225L21.5412 7.53574L19.0678 9.72645ZM26.2181 9.72645L23.7126 7.49077L23.6291 11.4225L27.2395 11.2619L26.2181 9.72645ZM19.2734 16.7418L21.4448 15.6818L19.5689 14.217L19.2734 16.7418ZM23.8411 15.6818L26.019 16.7418L25.717 14.217L23.8411 15.6818Z" />
        <path
            d="M26.0208 16.7405L23.8429 15.6804L24.0163 17.1002L23.9971 17.6976L26.0208 16.7405ZM19.2752 16.7405L21.2989 17.6976L21.286 17.1002L21.4466 15.6804L19.2752 16.7405Z" />
        <path
            d="M21.3314 13.2765L19.5197 12.7433L20.7982 12.1587L21.3314 13.2765ZM23.9589 13.2765L24.4922 12.1587L25.777 12.7433L23.9589 13.2765Z" />
        <path
            d="M19.2734 16.7418L19.5818 14.1337L17.5709 14.1915L19.2734 16.7418ZM25.7106 14.1337L26.019 16.7418L27.7215 14.1915L25.7106 14.1337ZM27.2395 11.2619L23.6291 11.4225L23.9632 13.2793L24.4964 12.1615L25.7813 12.7461L27.2395 11.2619ZM19.5175 12.7461L20.8024 12.1615L21.3292 13.2793L21.6696 11.4225L18.0527 11.2619L19.5175 12.7461Z" />
        <path
            d="M18.0527 11.2619L19.5689 14.217L19.5175 12.7461L18.0527 11.2619ZM25.7813 12.7461L25.717 14.217L27.2395 11.2619L25.7813 12.7461ZM21.6696 11.4225L21.3292 13.2793L21.7532 15.47L21.8495 12.5854L21.6696 11.4225ZM23.6291 11.4225L23.4556 12.579L23.5327 15.47L23.9632 13.2793L23.6291 11.4225Z" />
        <path
            d="M23.9653 13.2783L23.535 15.4689L23.8429 15.6804L25.7192 14.2162L25.7835 12.745L23.9653 13.2783ZM19.5197 12.745L19.5711 14.2162L21.4466 15.6804L21.7554 15.4689L21.3314 13.2783L19.5197 12.745Z" />
        <path
            d="M23.9971 17.6989L24.0163 17.1014L23.8558 16.9601H21.4338L21.286 17.1014L21.2989 17.6989L19.2752 16.7417L19.9819 17.3199L21.4145 18.3156H23.875L25.3141 17.3199L26.0208 16.7417L23.9971 17.6989Z" />
        <path
            d="M23.8424 15.6817L23.5341 15.4696H21.7545L21.4461 15.6817L21.286 17.1014L21.4338 16.9601H23.8558L24.0163 17.1014L23.8424 15.6817Z" />
        <path
            d="M30.2925 8.18255L30.8387 5.56141L30.0227 3.12659L23.8425 7.71357L26.2195 9.7244L29.5795 10.7074L30.3247 9.84003L30.0035 9.60875L30.5174 9.13977L30.1191 8.8314L30.6331 8.43952L30.2925 8.18255ZM14.4565 5.56141L15.0026 8.18255L14.6557 8.43952L15.1696 8.8314L14.7778 9.13977L15.2917 9.60875L14.9705 9.84003L15.7093 10.7074L19.0692 9.7244L21.4462 7.71357L15.266 3.12659L14.4565 5.56141Z" />
        <path
            d="M29.5779 10.7072L26.2179 9.7242L27.2394 11.2596L25.7168 14.2148L27.7212 14.1891L30.7086 14.1893L29.5779 10.7072ZM19.0676 9.7242L15.7077 10.7072L14.5898 14.1893L17.5707 14.1891L19.5687 14.2148L18.0526 11.2596L19.0676 9.7242ZM23.629 11.4202L23.8409 7.71338L24.8174 5.07298L20.481 5.07317L21.4446 7.71338L21.6695 11.4202L21.7466 12.5895L21.753 15.4675H23.5326L23.5454 12.5895L23.629 11.4202Z" />
    </mask>
    <path d="M30.0212 3.1266L23.629 7.87419L24.8111 5.07318L30.0212 3.1266Z" fill="#E2761B" />
    <path
        d="M15.2644 3.1266L21.6052 7.91916L20.481 5.07317L15.2644 3.1266ZM27.7212 14.1315L26.0188 16.7398L29.6613 17.742L30.7086 14.1893L27.7212 14.1315ZM14.5898 14.1893L15.6306 17.742L19.2732 16.7398L17.5707 14.1315L14.5898 14.1893Z"
        fill="#E4761B" />
    <path
        d="M19.0678 9.72645L18.0527 11.2619L21.6696 11.4225L21.5412 7.53574L19.0678 9.72645ZM26.2181 9.72645L23.7126 7.49077L23.6291 11.4225L27.2395 11.2619L26.2181 9.72645ZM19.2734 16.7418L21.4448 15.6818L19.5689 14.217L19.2734 16.7418ZM23.8411 15.6818L26.019 16.7418L25.717 14.217L23.8411 15.6818Z"
        fill="#E4761B" />
    <path
        d="M26.0208 16.7405L23.8429 15.6804L24.0163 17.1002L23.9971 17.6976L26.0208 16.7405ZM19.2752 16.7405L21.2989 17.6976L21.286 17.1002L21.4466 15.6804L19.2752 16.7405Z"
        fill="#D7C1B3" />
    <path
        d="M21.3314 13.2765L19.5197 12.7433L20.7982 12.1587L21.3314 13.2765ZM23.9589 13.2765L24.4922 12.1587L25.777 12.7433L23.9589 13.2765Z"
        fill="#233447" />
    <path
        d="M19.2734 16.7418L19.5818 14.1337L17.5709 14.1915L19.2734 16.7418ZM25.7106 14.1337L26.019 16.7418L27.7215 14.1915L25.7106 14.1337ZM27.2395 11.2619L23.6291 11.4225L23.9632 13.2793L24.4964 12.1615L25.7813 12.7461L27.2395 11.2619ZM19.5175 12.7461L20.8024 12.1615L21.3292 13.2793L21.6696 11.4225L18.0527 11.2619L19.5175 12.7461Z"
        fill="#CD6116" />
    <path
        d="M18.0527 11.2619L19.5689 14.217L19.5175 12.7461L18.0527 11.2619ZM25.7813 12.7461L25.717 14.217L27.2395 11.2619L25.7813 12.7461ZM21.6696 11.4225L21.3292 13.2793L21.7532 15.47L21.8495 12.5854L21.6696 11.4225ZM23.6291 11.4225L23.4556 12.579L23.5327 15.47L23.9632 13.2793L23.6291 11.4225Z"
        fill="#E4751F" />
    <path
        d="M23.9653 13.2783L23.535 15.4689L23.8429 15.6804L25.7192 14.2162L25.7835 12.745L23.9653 13.2783ZM19.5197 12.745L19.5711 14.2162L21.4466 15.6804L21.7554 15.4689L21.3314 13.2783L19.5197 12.745Z"
        fill="#F6851B" />
    <path
        d="M23.9971 17.6989L24.0163 17.1014L23.8558 16.9601H21.4338L21.286 17.1014L21.2989 17.6989L19.2752 16.7417L19.9819 17.3199L21.4145 18.3156H23.875L25.3141 17.3199L26.0208 16.7417L23.9971 17.6989Z"
        fill="#C0AD9E" />
    <path
        d="M23.8424 15.6817L23.5341 15.4696H21.7545L21.4461 15.6817L21.286 17.1014L21.4338 16.9601H23.8558L24.0163 17.1014L23.8424 15.6817Z"
        fill="#161616" />
    <path
        d="M30.2925 8.18255L30.8387 5.56141L30.0227 3.12659L23.8425 7.71357L26.2195 9.7244L29.5795 10.7074L30.3247 9.84003L30.0035 9.60875L30.5174 9.13977L30.1191 8.8314L30.6331 8.43952L30.2925 8.18255ZM14.4565 5.56141L15.0026 8.18255L14.6557 8.43952L15.1696 8.8314L14.7778 9.13977L15.2917 9.60875L14.9705 9.84003L15.7093 10.7074L19.0692 9.7244L21.4462 7.71357L15.266 3.12659L14.4565 5.56141Z"
        fill="#763D16" />
    <path
        d="M29.5779 10.7072L26.2179 9.7242L27.2394 11.2596L25.7168 14.2148L27.7212 14.1891L30.7086 14.1893L29.5779 10.7072ZM19.0676 9.7242L15.7077 10.7072L14.5898 14.1893L17.5707 14.1891L19.5687 14.2148L18.0526 11.2596L19.0676 9.7242ZM23.629 11.4202L23.8409 7.71338L24.8174 5.07298L20.481 5.07317L21.4446 7.71338L21.6695 11.4202L21.7466 12.5895L21.753 15.4675H23.5326L23.5454 12.5895L23.629 11.4202Z"
        fill="#F6851B" />
    <path
        d="M18.0527 11.2619L18.0971 10.2629C17.6861 10.2446 17.3059 10.4799 17.1389 10.8558C16.9719 11.2317 17.052 11.6716 17.341 11.9643L18.0527 11.2619ZM21.6696 11.4225L22.6532 11.6028C22.7054 11.3185 22.6319 11.0256 22.4519 10.7995C22.2718 10.5734 22.0027 10.4363 21.714 10.4235L21.6696 11.4225ZM23.6291 11.4225L23.5846 10.4235C23.2965 10.4363 23.0279 10.5729 22.8478 10.7983C22.6678 11.0236 22.5938 11.3157 22.6449 11.5996L23.6291 11.4225ZM27.2395 11.2619L27.9528 11.9628C28.2408 11.6696 28.3202 11.2301 28.1529 10.8548C27.9856 10.4794 27.6056 10.2446 27.1951 10.2629L27.2395 11.2619ZM22.979 13.4564C23.0768 13.9999 23.5967 14.3613 24.1403 14.2635C24.6838 14.1657 25.0452 13.6457 24.9474 13.1022L23.9632 13.2793L22.979 13.4564ZM25.068 12.0453C24.6809 12.4392 24.6865 13.0723 25.0804 13.4594C25.4744 13.8465 26.1075 13.8409 26.4946 13.4469L25.7813 12.7461L25.068 12.0453ZM18.8058 13.4485C19.1937 13.8416 19.8269 13.8458 20.22 13.4578C20.613 13.0699 20.6172 12.4367 20.2293 12.0437L19.5175 12.7461L18.8058 13.4485ZM20.3456 13.0989C20.246 13.6422 20.6056 14.1633 21.1488 14.2629C21.6921 14.3625 22.2132 14.0029 22.3128 13.4596L21.3292 13.2793L20.3456 13.0989ZM23.3557 17.8521C23.7703 18.217 24.4022 18.1767 24.767 17.7621C25.1319 17.3475 25.0916 16.7156 24.677 16.3507L24.0163 17.1014L23.3557 17.8521ZM23.8558 16.9601L24.5164 16.2094C24.3338 16.0487 24.099 15.9601 23.8558 15.9601V16.9601ZM21.4338 16.9601V15.9601C21.1763 15.9601 20.9287 16.0594 20.7426 16.2374L21.4338 16.9601ZM20.5949 16.3787C20.1957 16.7605 20.1816 17.3935 20.5634 17.7926C20.9451 18.1917 21.5781 18.2058 21.9772 17.8241L21.286 17.1014L20.5949 16.3787ZM18.0527 11.2619L18.0084 12.2609L21.6253 12.4215L21.6696 11.4225L21.714 10.4235L18.0971 10.2629L18.0527 11.2619ZM23.6291 11.4225L23.6735 12.4215L27.2839 12.2609L27.2395 11.2619L27.1951 10.2629L23.5846 10.4235L23.6291 11.4225ZM23.6291 11.4225L22.6449 11.5996L22.979 13.4564L23.9632 13.2793L24.9474 13.1022L24.6132 11.2454L23.6291 11.4225ZM25.7813 12.7461L26.4946 13.4469L27.9528 11.9628L27.2395 11.2619L26.5262 10.5611L25.068 12.0453L25.7813 12.7461ZM21.3292 13.2793L22.3128 13.4596L22.6532 11.6028L21.6696 11.4225L20.686 11.2421L20.3456 13.0989L21.3292 13.2793ZM18.0527 11.2619L17.341 11.9643L18.8058 13.4485L19.5175 12.7461L20.2293 12.0437L18.7645 10.5595L18.0527 11.2619ZM24.0163 17.1014L24.677 16.3507L24.5164 16.2094L23.8558 16.9601L23.1951 17.7108L23.3557 17.8521L24.0163 17.1014ZM23.8558 16.9601V15.9601H21.4338V16.9601V17.9601H23.8558V16.9601ZM21.4338 16.9601L20.7426 16.2374L20.5949 16.3787L21.286 17.1014L21.9772 17.8241L22.125 17.6828L21.4338 16.9601ZM30.0212 3.1266L31.2137 4.7322C32.0135 4.13818 32.2542 3.04609 31.7781 2.17093C31.3021 1.29576 30.2545 0.904411 29.3213 1.25309L30.0212 3.1266ZM23.629 7.87419L21.7864 7.09655C21.4357 7.92744 21.6845 8.89023 22.3938 9.44721C23.1031 10.0042 24.0975 10.0175 24.8215 9.47979L23.629 7.87419ZM24.8111 5.07318L24.1111 3.19967C23.5957 3.39223 23.1824 3.78862 22.9685 4.29553L24.8111 5.07318ZM15.2644 3.1266L15.9636 1.2528C15.0333 0.905675 13.9893 1.29359 13.5113 2.16392C13.0334 3.03424 13.2663 4.12343 14.0585 4.72213L15.2644 3.1266ZM21.6052 7.91916L20.3993 9.51469C21.1144 10.0552 22.1018 10.0539 22.8154 9.51145C23.5291 8.96904 23.7947 8.01804 23.4654 7.18435L21.6052 7.91916ZM27.7212 14.1315L27.76 12.1318C27.0707 12.1185 26.4232 12.461 26.0464 13.0383L27.7212 14.1315ZM26.0188 16.7398L24.344 15.6467C23.9949 16.1815 23.9222 16.8509 24.1484 17.4482C24.3746 18.0454 24.8724 18.4988 25.4882 18.6682L26.0188 16.7398ZM29.6613 17.742L29.1308 19.6704C30.1821 19.9596 31.2714 19.3534 31.5797 18.3075L29.6613 17.742ZM30.7086 14.1893L32.6269 14.7548C32.741 14.3678 32.7354 13.9554 32.6108 13.5717L30.7086 14.1893ZM14.5898 14.1893L12.6856 13.578C12.5633 13.9589 12.558 14.3677 12.6705 14.7516L14.5898 14.1893ZM15.6306 17.742L13.7112 18.3043C14.0182 19.352 15.1085 19.96 16.1611 19.6704L15.6306 17.742ZM19.2732 16.7398L19.8037 18.6682C20.4195 18.4988 20.9174 18.0454 21.1436 17.4482C21.3698 16.8509 21.2971 16.1815 20.948 15.6467L19.2732 16.7398ZM17.5707 14.1315L19.2456 13.0383C18.8688 12.461 18.2212 12.1185 17.5319 12.1318L17.5707 14.1315ZM19.0678 9.72645L17.7417 8.22927C17.6109 8.34516 17.4958 8.47771 17.3994 8.62352L19.0678 9.72645ZM18.0527 11.2619L16.3843 10.159C15.986 10.7616 15.9435 11.5322 16.2733 12.1749L18.0527 11.2619ZM21.6696 11.4225L19.6707 11.4886C19.6734 11.5688 19.6809 11.6489 19.6932 11.7283L21.6696 11.4225ZM21.5412 7.53574L23.5401 7.46966C23.5145 6.69511 23.0437 6.00506 22.3318 5.69867C21.62 5.39229 20.7952 5.52472 20.2151 6.03856L21.5412 7.53574ZM26.2181 9.72645L27.8833 8.6187C27.7889 8.47683 27.6768 8.34761 27.5497 8.23417L26.2181 9.72645ZM23.7126 7.49077L25.0442 5.99849C24.4618 5.47879 23.6302 5.34542 22.9145 5.65692C22.1987 5.96843 21.7296 6.66787 21.713 7.44828L23.7126 7.49077ZM23.6291 11.4225L25.6069 11.7191C25.6196 11.6349 25.6268 11.5501 25.6286 11.465L23.6291 11.4225ZM27.2395 11.2619L29.0174 12.1779C29.3498 11.5328 29.3066 10.7583 28.9047 10.1542L27.2395 11.2619ZM19.2734 16.7418L17.6099 17.8522C18.1657 18.6848 19.2513 18.9782 20.1508 18.5391L19.2734 16.7418ZM21.4448 15.6818L22.3222 17.4791C22.9419 17.1765 23.362 16.5761 23.4339 15.8902C23.5058 15.2043 23.2192 14.5298 22.6757 14.1054L21.4448 15.6818ZM23.8411 15.6818L22.6102 14.1054C22.0663 14.5301 21.7798 15.2051 21.8521 15.8914C21.9244 16.5776 22.3453 17.1781 22.9658 17.4801L23.8411 15.6818ZM26.019 16.7418L25.1437 18.5401C26.0429 18.9778 27.1271 18.684 27.6824 17.8523L26.019 16.7418ZM26.0208 16.7405L26.8759 18.5485C27.5713 18.2195 28.0165 17.5209 28.0208 16.7517C28.0251 15.9824 27.5878 15.2789 26.8961 14.9422L26.0208 16.7405ZM24.0163 17.1002L26.0153 17.1646C26.0186 17.0621 26.014 16.9595 26.0016 16.8577L24.0163 17.1002ZM23.9971 17.6976L21.9981 17.6332C21.9757 18.3297 22.3174 18.9876 22.9 19.3699C23.4827 19.7521 24.2223 19.8036 24.8522 19.5056L23.9971 17.6976ZM19.2752 16.7405L18.3978 14.9432C17.7069 15.2805 17.2705 15.984 17.2753 16.7528C17.28 17.5217 17.7251 18.2197 18.4201 18.5484L19.2752 16.7405ZM21.2989 17.6976L20.4437 19.5056C21.0702 19.8019 21.8055 19.7528 22.387 19.3758C22.9685 18.9987 23.3133 18.3475 23.2984 17.6546L21.2989 17.6976ZM21.286 17.1002L19.2987 16.8753C19.2887 16.9642 19.2846 17.0537 19.2865 17.1432L21.286 17.1002ZM21.3314 13.2765L20.7666 15.1951C21.5238 15.418 22.3412 15.1747 22.8533 14.5741C23.3654 13.9735 23.4763 13.1279 23.1365 12.4155L21.3314 13.2765ZM19.5197 12.7433L18.6881 10.9244C17.9291 11.2714 17.4653 12.0533 17.5248 12.8857C17.5842 13.7182 18.1543 14.4262 18.9549 14.6619L19.5197 12.7433ZM20.7982 12.1587L22.6033 11.2976C22.1332 10.3121 20.9595 9.88578 19.9665 10.3398L20.7982 12.1587ZM23.9589 13.2765L22.1538 12.4154C21.8141 13.1275 21.9248 13.9727 22.4363 14.5733C22.9479 15.174 23.7648 15.4177 24.5218 15.1957L23.9589 13.2765ZM24.4922 12.1587L25.3204 10.3383C24.3279 9.8867 23.1566 10.3134 22.6871 11.2975L24.4922 12.1587ZM25.777 12.7433L26.34 14.6624C27.1418 14.4272 27.7129 13.7183 27.772 12.8848C27.8312 12.0513 27.3659 11.2688 26.6053 10.9228L25.777 12.7433ZM19.5818 14.1337L21.5679 14.3686C21.6362 13.7912 21.4499 13.2128 21.0575 12.7838C20.6651 12.3548 20.1054 12.1179 19.5243 12.1346L19.5818 14.1337ZM17.5709 14.1915L17.5135 12.1923C16.7863 12.2132 16.1278 12.6274 15.7939 13.2737C15.4601 13.9201 15.5036 14.6968 15.9075 15.3019L17.5709 14.1915ZM25.7106 14.1337L25.768 12.1346C25.1869 12.1179 24.6273 12.3549 24.2349 12.7838C23.8425 13.2128 23.6561 13.7912 23.7244 14.3686L25.7106 14.1337ZM27.7215 14.1915L29.3849 15.3019C29.7888 14.6968 29.8323 13.9202 29.4985 13.2738C29.1646 12.6274 28.5061 12.2132 27.7789 12.1923L27.7215 14.1915ZM23.9632 13.2793L22.158 12.4182C22.0859 12.5695 22.033 12.7292 22.0007 12.8936L23.9632 13.2793ZM24.4964 12.1615L25.3246 10.341C24.3321 9.88941 23.1607 10.3162 22.6912 11.3004L24.4964 12.1615ZM25.7813 12.7461L27.7794 12.8334C27.815 12.0185 27.3521 11.2635 26.6096 10.9257L25.7813 12.7461ZM19.5175 12.7461L18.6892 10.9257C17.9525 11.2609 17.4905 12.007 17.5187 12.8159L19.5175 12.7461ZM20.8024 12.1615L22.6115 11.3089C22.1451 10.3191 20.9699 9.8879 19.9741 10.341L20.8024 12.1615ZM21.3292 13.2793L23.2927 12.8993C23.2611 12.7359 23.2093 12.5772 23.1383 12.4267L21.3292 13.2793ZM21.7532 15.47L19.7896 15.85C19.983 16.8493 20.8961 17.544 21.9108 17.4638C22.9255 17.3836 23.7181 16.5541 23.752 15.5368L21.7532 15.47ZM21.8495 12.5854L23.8484 12.6522C23.8526 12.5276 23.8451 12.4029 23.826 12.2797L21.8495 12.5854ZM23.4556 12.579L21.4777 12.2824C21.4604 12.3982 21.4532 12.5153 21.4563 12.6323L23.4556 12.579ZM23.5327 15.47L21.5334 15.5233C21.5605 16.5423 22.3497 17.3778 23.3655 17.463C24.3812 17.5482 25.2986 16.8559 25.4951 15.8557L23.5327 15.47ZM23.9653 13.2783L23.4024 11.3592C22.6863 11.5692 22.1467 12.1605 22.0029 12.8928L23.9653 13.2783ZM23.535 15.4689L21.5725 15.0834C21.4186 15.8664 21.745 16.6659 22.4028 17.1177L23.535 15.4689ZM25.7192 14.2162L26.9496 15.7929C27.4112 15.4327 27.6917 14.8884 27.7173 14.3035L25.7192 14.2162ZM25.7835 12.745L27.7815 12.8323C27.8097 12.1875 27.525 11.5687 27.0169 11.1707C26.5088 10.7726 25.8399 10.6442 25.2205 10.8259L25.7835 12.745ZM19.5197 12.745L20.0845 10.8264C19.4679 10.6449 18.8017 10.7708 18.2939 11.1647C17.7861 11.5586 17.4985 12.1726 17.5209 12.8149L19.5197 12.745ZM19.5711 14.2162L17.5723 14.286C17.593 14.8771 17.8742 15.4287 18.3404 15.7927L19.5711 14.2162ZM21.7554 15.4689L22.8857 17.1189C23.543 16.6686 23.8703 15.8712 23.7189 15.0889L21.7554 15.4689ZM21.3314 13.2783L23.2949 12.8983C23.1529 12.1643 22.6133 11.5708 21.8961 11.3597L21.3314 13.2783ZM23.9971 17.6989L21.9981 17.6345C21.9757 18.331 22.3174 18.9889 22.9 19.3712C23.4827 19.7534 24.2223 19.8048 24.8523 19.5068L23.9971 17.6989ZM24.0163 17.1014L26.0153 17.1659C26.0186 17.0631 26.014 16.9603 26.0015 16.8582L24.0163 17.1014ZM21.286 17.1014L19.2986 16.8773C19.2886 16.966 19.2846 17.0552 19.2865 17.1444L21.286 17.1014ZM21.2989 17.6989L20.4437 19.5068C21.0702 19.8032 21.8054 19.7541 22.3869 19.377C22.9685 19 23.3133 18.3488 23.2984 17.6559L21.2989 17.6989ZM19.2752 16.7417L20.1304 14.9337C19.217 14.5016 18.1247 14.8188 17.5847 15.6729C17.0448 16.5269 17.2267 17.6496 18.0087 18.2895L19.2752 16.7417ZM19.9819 17.3199L18.7154 18.8678C18.7558 18.9008 18.7975 18.9323 18.8404 18.9621L19.9819 17.3199ZM21.4145 18.3156L20.2731 19.9579C20.6081 20.1908 21.0065 20.3156 21.4145 20.3156V18.3156ZM23.875 18.3156V20.3156C24.2817 20.3156 24.6786 20.1917 25.013 19.9603L23.875 18.3156ZM25.3141 17.3199L26.4521 18.9645C26.4962 18.934 26.5391 18.9017 26.5806 18.8678L25.3141 17.3199ZM26.0208 16.7417L27.2873 18.2896C28.0694 17.6497 28.2513 16.527 27.7113 15.6729C27.1713 14.8188 26.0791 14.5016 25.1656 14.9337L26.0208 16.7417ZM23.8424 15.6817L25.8276 15.4385C25.7579 14.8698 25.4477 14.3583 24.9757 14.0337L23.8424 15.6817ZM23.5341 15.4696L24.6673 13.8217C24.3339 13.5924 23.9388 13.4696 23.5341 13.4696V15.4696ZM21.7545 15.4696V13.4696C21.3498 13.4696 20.9547 13.5924 20.6213 13.8216L21.7545 15.4696ZM21.4461 15.6817L20.3129 14.0337C19.8353 14.3621 19.5237 14.8816 19.4587 15.4576L21.4461 15.6817ZM30.2925 8.18255L28.3346 7.7746C28.1767 8.53218 28.4701 9.31284 29.0878 9.77898L30.2925 8.18255ZM30.8387 5.56141L32.7966 5.96936C32.8689 5.62224 32.8477 5.26213 32.735 4.92593L30.8387 5.56141ZM30.0227 3.12659L31.9191 2.4911C31.7156 1.88374 31.2334 1.41062 30.6223 1.21858C30.0112 1.02654 29.3451 1.13883 28.8308 1.5206L30.0227 3.12659ZM23.8425 7.71357L22.6505 6.10758C22.1602 6.47154 21.863 7.03958 21.8435 7.64994C21.8241 8.2603 22.0846 8.84609 22.5508 9.2405L23.8425 7.71357ZM26.2195 9.7244L24.9278 11.2513C25.1411 11.4318 25.3898 11.5655 25.6579 11.6439L26.2195 9.7244ZM29.5795 10.7074L29.018 12.6269C29.7717 12.8474 30.5847 12.6064 31.0965 12.0107L29.5795 10.7074ZM30.3247 9.84003L31.8417 11.1434C32.2068 10.7185 32.3769 10.1599 32.3107 9.60359C32.2445 9.04727 31.9479 8.54424 31.4933 8.21691L30.3247 9.84003ZM30.0035 9.60875L28.6554 8.1314C28.2102 8.53759 27.972 9.12282 28.0068 9.72441C28.0417 10.326 28.3459 10.8798 28.8349 11.2319L30.0035 9.60875ZM30.5174 9.13977L31.8655 10.6171C32.3016 10.2192 32.5396 9.64885 32.5158 9.05894C32.4919 8.46903 32.2086 7.9198 31.7418 7.55836L30.5174 9.13977ZM30.1191 8.8314L28.9064 7.24102C28.4123 7.61776 28.1214 8.20273 28.1191 8.82404C28.1168 9.44536 28.4034 10.0324 28.8947 10.4128L30.1191 8.8314ZM30.6331 8.43952L31.8458 10.0299C32.3433 9.65052 32.6346 9.06018 32.633 8.43451C32.6315 7.80885 32.3372 7.21997 31.8378 6.84308L30.6331 8.43952ZM14.4565 5.56141L12.5587 4.93046C12.4473 5.26537 12.4266 5.62379 12.4986 5.96932L14.4565 5.56141ZM15.0026 8.18255L16.193 9.78968C16.8201 9.32523 17.1197 8.53854 16.9606 7.77464L15.0026 8.18255ZM14.6557 8.43952L13.4653 6.83239C12.96 7.20667 12.6601 7.7968 12.6557 8.4256C12.6514 9.0544 12.943 9.64865 13.443 10.0299L14.6557 8.43952ZM15.1696 8.8314L16.4064 10.4031C16.8925 10.0206 17.1743 9.43471 17.1696 8.81617C17.1649 8.19762 16.8742 7.61606 16.3823 7.241L15.1696 8.8314ZM14.7778 9.13977L13.541 7.56803C13.0792 7.93143 12.8005 8.47954 12.7791 9.06681C12.7577 9.65407 12.9956 10.221 13.4297 10.6171L14.7778 9.13977ZM15.2917 9.60875L16.4603 11.2318C16.9493 10.8797 17.2535 10.3259 17.2884 9.72433C17.3232 9.12276 17.0849 8.53755 16.6398 8.13138L15.2917 9.60875ZM14.9705 9.84003L13.8019 8.21697C13.3484 8.54345 13.0522 9.04472 12.985 9.5994C12.9178 10.1541 13.0857 10.7116 13.448 11.1369L14.9705 9.84003ZM15.7093 10.7074L14.1868 12.0043C14.698 12.6044 15.5142 12.8483 16.2709 12.6269L15.7093 10.7074ZM19.0692 9.7244L19.6308 11.6439C19.8989 11.5655 20.1476 11.4318 20.3609 11.2513L19.0692 9.7244ZM21.4462 7.71357L22.7379 9.2405C23.2042 8.8461 23.4647 8.26031 23.4452 7.64994C23.4258 7.03958 23.1286 6.47154 22.6382 6.10758L21.4462 7.71357ZM15.266 3.12659L16.458 1.5206C15.9429 1.13833 15.2758 1.02628 14.6641 1.2193C14.0525 1.41232 13.5705 1.88699 13.3681 2.49563L15.266 3.12659ZM29.5779 10.7072L31.4801 10.0895C31.2759 9.4606 30.7741 8.97327 30.1394 8.78762L29.5779 10.7072ZM26.2179 9.7242L26.7794 7.80466C25.9728 7.56868 25.1047 7.86217 24.6067 8.53919C24.1088 9.21622 24.0872 10.1323 24.5527 10.8321L26.2179 9.7242ZM27.2394 11.2596L29.0173 12.1756C29.3497 11.5305 29.3065 10.756 28.9045 10.1518L27.2394 11.2596ZM25.7168 14.2148L23.9389 13.2988C23.6174 13.9228 23.6466 14.6698 24.0158 15.2669C24.3851 15.8639 25.0404 16.2236 25.7424 16.2147L25.7168 14.2148ZM27.7212 14.1891L27.7214 12.1891C27.7128 12.1891 27.7042 12.1892 27.6956 12.1893L27.7212 14.1891ZM19.0676 9.7242L20.736 10.8272C21.1989 10.127 21.1753 9.21225 20.677 8.53682C20.1787 7.8614 19.3116 7.56898 18.506 7.80466L19.0676 9.7242ZM15.7077 10.7072L15.1461 8.78762C14.5092 8.97394 14.0062 9.46403 13.8034 10.0959L15.7077 10.7072ZM17.5707 14.1891L17.5964 12.1893C17.5878 12.1892 17.5792 12.1891 17.5706 12.1891L17.5707 14.1891ZM19.5687 14.2148L19.543 16.2147C20.2444 16.2237 20.8992 15.8646 21.2687 15.2684C21.6382 14.6722 21.6684 13.926 21.3482 13.3019L19.5687 14.2148ZM18.0526 11.2596L16.3842 10.1567C15.9858 10.7593 15.9434 11.5298 16.2731 12.1726L18.0526 11.2596ZM23.629 11.4202L25.6239 11.5627C25.6245 11.5533 25.6252 11.5438 25.6257 11.5344L23.629 11.4202ZM23.8409 7.71338L21.9651 7.01964C21.8962 7.20577 21.8555 7.4011 21.8442 7.59922L23.8409 7.71338ZM24.8174 5.07298L26.6932 5.76672C26.9202 5.15298 26.8326 4.46701 26.4586 3.93002C26.0847 3.39303 25.4717 3.07295 24.8173 3.07298L24.8174 5.07298ZM21.4446 7.71338L23.441 7.59229C23.4293 7.39938 23.3897 7.2092 23.3234 7.02765L21.4446 7.71338ZM21.6695 11.4202L19.6731 11.5413L19.6738 11.5517L21.6695 11.4202ZM21.7466 12.5895L23.7465 12.585C23.7465 12.5426 23.745 12.5002 23.7422 12.4579L21.7466 12.5895ZM21.753 15.4675L19.753 15.472C19.7554 16.5748 20.6501 17.4675 21.753 17.4675V15.4675ZM23.5326 15.4675V17.4675C24.6337 17.4675 25.5276 16.5775 25.5325 15.4765L23.5326 15.4675ZM23.5454 12.5895L21.5505 12.4469C21.5473 12.4914 21.5456 12.536 21.5454 12.5805L23.5454 12.5895ZM30.0212 3.1266L28.8287 1.521L22.4365 6.26859L23.629 7.87419L24.8215 9.47979L31.2137 4.7322L30.0212 3.1266ZM23.629 7.87419L25.4716 8.65184L26.6537 5.85083L24.8111 5.07318L22.9685 4.29553L21.7864 7.09655L23.629 7.87419ZM24.8111 5.07318L25.5111 6.94669L30.7212 5.00011L30.0212 3.1266L29.3213 1.25309L24.1111 3.19967L24.8111 5.07318ZM15.2644 3.1266L14.0585 4.72213L20.3993 9.51469L21.6052 7.91916L22.8112 6.32363L16.4703 1.53107L15.2644 3.1266ZM21.6052 7.91916L23.4654 7.18435L22.3411 4.33836L20.481 5.07317L18.6209 5.80798L19.7451 8.65397L21.6052 7.91916ZM20.481 5.07317L21.1802 3.19937L15.9636 1.2528L15.2644 3.1266L14.5652 5.00039L19.7818 6.94696L20.481 5.07317ZM27.7212 14.1315L26.0464 13.0383L24.344 15.6467L26.0188 16.7398L27.6936 17.833L29.3961 15.2246L27.7212 14.1315ZM26.0188 16.7398L25.4882 18.6682L29.1308 19.6704L29.6613 17.742L30.1919 15.8137L26.5493 14.8115L26.0188 16.7398ZM29.6613 17.742L31.5797 18.3075L32.6269 14.7548L30.7086 14.1893L28.7902 13.6239L27.7429 17.1765L29.6613 17.742ZM30.7086 14.1893L30.7473 12.1897L27.76 12.1318L27.7212 14.1315L27.6825 16.1311L30.6698 16.189L30.7086 14.1893ZM14.5898 14.1893L12.6705 14.7516L13.7112 18.3043L15.6306 17.742L17.5499 17.1798L16.5092 13.6271L14.5898 14.1893ZM15.6306 17.742L16.1611 19.6704L19.8037 18.6682L19.2732 16.7398L18.7427 14.8115L15.1 15.8137L15.6306 17.742ZM19.2732 16.7398L20.948 15.6467L19.2456 13.0383L17.5707 14.1315L15.8959 15.2246L17.5984 17.833L19.2732 16.7398ZM17.5707 14.1315L17.5319 12.1318L14.551 12.1897L14.5898 14.1893L14.6287 16.189L17.6096 16.1311L17.5707 14.1315ZM19.0678 9.72645L17.3994 8.62352L16.3843 10.159L18.0527 11.2619L19.7211 12.3648L20.7362 10.8294L19.0678 9.72645ZM21.6696 11.4225L23.6686 11.3564L23.5401 7.46966L21.5412 7.53574L19.5423 7.60182L19.6707 11.4886L21.6696 11.4225ZM21.5412 7.53574L20.2151 6.03856L17.7417 8.22927L19.0678 9.72645L20.3938 11.2236L22.8672 9.03292L21.5412 7.53574ZM26.2181 9.72645L27.5497 8.23417L25.0442 5.99849L23.7126 7.49077L22.381 8.98304L24.8865 11.2187L26.2181 9.72645ZM23.7126 7.49077L21.713 7.44828L21.6295 11.38L23.6291 11.4225L25.6286 11.465L25.7121 7.53326L23.7126 7.49077ZM27.2395 11.2619L28.9047 10.1542L27.8833 8.6187L26.2181 9.72645L24.5529 10.8342L25.5743 12.3697L27.2395 11.2619ZM19.2734 16.7418L20.1508 18.5391L22.3222 17.4791L21.4448 15.6818L20.5674 13.8845L18.396 14.9446L19.2734 16.7418ZM21.4448 15.6818L22.6757 14.1054L20.7998 12.6407L19.5689 14.217L18.338 15.7934L20.2139 17.2582L21.4448 15.6818ZM19.5689 14.217L17.5824 13.9845L17.2869 16.5093L19.2734 16.7418L21.2598 16.9743L21.5553 14.4495L19.5689 14.217ZM23.8411 15.6818L22.9658 17.4801L25.1437 18.5401L26.019 16.7418L26.8943 14.9435L24.7164 13.8835L23.8411 15.6818ZM26.019 16.7418L28.0048 16.5043L27.7028 13.9795L25.717 14.217L23.7311 14.4545L24.0331 16.9794L26.019 16.7418ZM25.717 14.217L24.4861 12.6407L22.6102 14.1054L23.8411 15.6818L25.072 17.2582L26.9479 15.7934L25.717 14.217ZM26.0208 16.7405L26.8961 14.9422L24.7182 13.8821L23.8429 15.6804L22.9676 17.4787L25.1455 18.5388L26.0208 16.7405ZM23.8429 15.6804L21.8577 15.9229L22.0311 17.3427L24.0163 17.1002L26.0016 16.8577L25.8282 15.4379L23.8429 15.6804ZM24.0163 17.1002L22.0174 17.0357L21.9981 17.6332L23.9971 17.6976L25.996 17.7621L26.0153 17.1646L24.0163 17.1002ZM23.9971 17.6976L24.8522 19.5056L26.8759 18.5485L26.0208 16.7405L25.1657 14.9325L23.142 15.8897L23.9971 17.6976ZM19.2752 16.7405L18.4201 18.5484L20.4437 19.5056L21.2989 17.6976L22.154 15.8897L20.1303 14.9325L19.2752 16.7405ZM21.2989 17.6976L23.2984 17.6546L23.2856 17.0572L21.286 17.1002L19.2865 17.1432L19.2993 17.7406L21.2989 17.6976ZM21.286 17.1002L23.2734 17.325L23.434 15.9052L21.4466 15.6804L19.4593 15.4556L19.2987 16.8753L21.286 17.1002ZM21.4466 15.6804L20.5692 13.8832L18.3978 14.9432L19.2752 16.7405L20.1526 18.5377L22.324 17.4777L21.4466 15.6804ZM21.3314 13.2765L21.8961 11.3579L20.0845 10.8246L19.5197 12.7433L18.9549 14.6619L20.7666 15.1951L21.3314 13.2765ZM19.5197 12.7433L20.3514 14.5621L21.6298 13.9776L20.7982 12.1587L19.9665 10.3398L18.6881 10.9244L19.5197 12.7433ZM20.7982 12.1587L18.993 13.0198L19.5262 14.1376L21.3314 13.2765L23.1365 12.4155L22.6033 11.2976L20.7982 12.1587ZM23.9589 13.2765L25.764 14.1377L26.2973 13.0199L24.4922 12.1587L22.6871 11.2975L22.1538 12.4154L23.9589 13.2765ZM24.4922 12.1587L23.664 13.9792L24.9488 14.5637L25.777 12.7433L26.6053 10.9228L25.3204 10.3383L24.4922 12.1587ZM25.777 12.7433L25.2141 10.8241L23.396 11.3574L23.9589 13.2765L24.5218 15.1957L26.34 14.6624L25.777 12.7433ZM19.2734 16.7418L21.2595 16.9767L21.5679 14.3686L19.5818 14.1337L17.5956 13.8989L17.2872 16.507L19.2734 16.7418ZM19.5818 14.1337L19.5243 12.1346L17.5135 12.1923L17.5709 14.1915L17.6284 16.1907L19.6392 16.1329L19.5818 14.1337ZM17.5709 14.1915L15.9075 15.3019L17.6099 17.8522L19.2734 16.7418L20.9368 15.6314L19.2344 13.0811L17.5709 14.1915ZM25.7106 14.1337L23.7244 14.3686L24.0328 16.9767L26.019 16.7418L28.0051 16.507L27.6967 13.8989L25.7106 14.1337ZM26.019 16.7418L27.6824 17.8523L29.3849 15.3019L27.7215 14.1915L26.058 13.0811L24.3555 15.6314L26.019 16.7418ZM27.7215 14.1915L27.7789 12.1923L25.768 12.1346L25.7106 14.1337L25.6531 16.1329L27.664 16.1907L27.7215 14.1915ZM23.9632 13.2793L25.7683 14.1403L26.3015 13.0225L24.4964 12.1615L22.6912 11.3004L22.158 12.4182L23.9632 13.2793ZM24.4964 12.1615L23.6681 13.9819L24.953 14.5665L25.7813 12.7461L26.6096 10.9257L25.3246 10.341L24.4964 12.1615ZM19.5175 12.7461L20.3458 14.5665L21.6307 13.9819L20.8024 12.1615L19.9741 10.341L18.6892 10.9257L19.5175 12.7461ZM20.8024 12.1615L18.9932 13.0141L19.52 14.1319L21.3292 13.2793L23.1383 12.4267L22.6115 11.3089L20.8024 12.1615ZM18.0527 11.2619L16.2733 12.1749L17.7894 15.13L19.5689 14.217L21.3483 13.3041L19.8322 10.3489L18.0527 11.2619ZM19.5689 14.217L21.5677 14.1472L21.5163 12.6763L19.5175 12.7461L17.5187 12.8159L17.5701 14.2868L19.5689 14.217ZM25.7813 12.7461L23.7832 12.6587L23.7189 14.1297L25.717 14.217L27.7151 14.3044L27.7794 12.8334L25.7813 12.7461ZM25.717 14.217L27.4949 15.133L29.0174 12.1779L27.2395 11.2619L25.4616 10.3459L23.9391 13.301L25.717 14.217ZM21.3292 13.2793L19.3656 13.6593L19.7896 15.85L21.7532 15.47L23.7167 15.09L23.2927 12.8993L21.3292 13.2793ZM21.7532 15.47L23.752 15.5368L23.8484 12.6522L21.8495 12.5854L19.8507 12.5186L19.7543 15.4032L21.7532 15.47ZM21.8495 12.5854L23.826 12.2797L23.6461 11.1167L21.6696 11.4225L19.6932 11.7283L19.8731 12.8912L21.8495 12.5854ZM23.6291 11.4225L21.6512 11.1259L21.4777 12.2824L23.4556 12.579L25.4335 12.8756L25.6069 11.7191L23.6291 11.4225ZM23.4556 12.579L21.4563 12.6323L21.5334 15.5233L23.5327 15.47L25.532 15.4167L25.4549 12.5257L23.4556 12.579ZM23.5327 15.47L25.4951 15.8557L25.9256 13.6649L23.9632 13.2793L22.0007 12.8936L21.5702 15.0844L23.5327 15.47ZM23.9653 13.2783L22.0029 12.8928L21.5725 15.0834L23.535 15.4689L25.4974 15.8545L25.9278 13.6639L23.9653 13.2783ZM23.535 15.4689L22.4028 17.1177L22.7108 17.3291L23.8429 15.6804L24.9751 14.0317L24.6671 13.8202L23.535 15.4689ZM23.8429 15.6804L25.0734 17.2571L26.9496 15.7929L25.7192 14.2162L24.4887 12.6395L22.6125 14.1037L23.8429 15.6804ZM25.7192 14.2162L27.7173 14.3035L27.7815 12.8323L25.7835 12.745L23.7854 12.6577L23.7211 14.1289L25.7192 14.2162ZM25.7835 12.745L25.2205 10.8259L23.4024 11.3592L23.9653 13.2783L24.5283 15.1975L26.3464 14.6642L25.7835 12.745ZM19.5197 12.745L17.5209 12.8149L17.5723 14.286L19.5711 14.2162L21.5699 14.1464L21.5185 12.6752L19.5197 12.745ZM19.5711 14.2162L18.3404 15.7927L20.2159 17.2569L21.4466 15.6804L22.6774 14.1039L20.8018 12.6397L19.5711 14.2162ZM21.4466 15.6804L22.577 17.3304L22.8857 17.1189L21.7554 15.4689L20.625 13.819L20.3163 14.0305L21.4466 15.6804ZM21.7554 15.4689L23.7189 15.0889L23.2949 12.8983L21.3314 13.2783L19.3678 13.6583L19.7918 15.849L21.7554 15.4689ZM21.3314 13.2783L21.8961 11.3597L20.0845 10.8264L19.5197 12.745L18.9549 14.6636L20.7666 15.1969L21.3314 13.2783ZM23.9971 17.6989L25.996 17.7633L26.0153 17.1659L24.0163 17.1014L22.0174 17.037L21.9981 17.6345L23.9971 17.6989ZM21.286 17.1014L19.2865 17.1444L19.2993 17.7419L21.2989 17.6989L23.2984 17.6559L23.2856 17.0584L21.286 17.1014ZM21.2989 17.6989L22.1541 15.891L20.1304 14.9337L19.2752 16.7417L18.42 18.5496L20.4437 19.5068L21.2989 17.6989ZM19.2752 16.7417L18.0087 18.2895L18.7154 18.8678L19.9819 17.3199L21.2484 15.772L20.5417 15.1938L19.2752 16.7417ZM19.9819 17.3199L18.8404 18.9621L20.2731 19.9579L21.4145 18.3156L22.556 16.6734L21.1234 15.6776L19.9819 17.3199ZM21.4145 18.3156V20.3156H23.875V18.3156V16.3156H21.4145V18.3156ZM23.875 18.3156L25.013 19.9603L26.4521 18.9645L25.3141 17.3199L24.1761 15.6752L22.737 16.671L23.875 18.3156ZM25.3141 17.3199L26.5806 18.8678L27.2873 18.2896L26.0208 16.7417L24.7543 15.1937L24.0476 15.772L25.3141 17.3199ZM26.0208 16.7417L25.1656 14.9337L23.1419 15.891L23.9971 17.6989L24.8523 19.5068L26.876 18.5496L26.0208 16.7417ZM23.8424 15.6817L24.9757 14.0337L24.6673 13.8217L23.5341 15.4696L22.4008 17.1176L22.7091 17.3296L23.8424 15.6817ZM23.5341 15.4696V13.4696H21.7545V15.4696V17.4696H23.5341V15.4696ZM21.7545 15.4696L20.6213 13.8216L20.3129 14.0337L21.4461 15.6817L22.5793 17.3297L22.8877 17.1176L21.7545 15.4696ZM21.4461 15.6817L19.4587 15.4576L19.2986 16.8773L21.286 17.1014L23.2734 17.3255L23.4335 15.9058L21.4461 15.6817ZM24.0163 17.1014L26.0015 16.8582L25.8276 15.4385L23.8424 15.6817L21.8572 15.9249L22.0312 17.3446L24.0163 17.1014ZM30.2925 8.18255L32.2505 8.5905L32.7966 5.96936L30.8387 5.56141L28.8807 5.15346L28.3346 7.7746L30.2925 8.18255ZM30.8387 5.56141L32.735 4.92593L31.9191 2.4911L30.0227 3.12659L28.1264 3.76207L28.9423 6.19689L30.8387 5.56141ZM30.0227 3.12659L28.8308 1.5206L22.6505 6.10758L23.8425 7.71357L25.0345 9.31956L31.2147 4.73258L30.0227 3.12659ZM23.8425 7.71357L22.5508 9.2405L24.9278 11.2513L26.2195 9.7244L27.5112 8.19747L25.1342 6.18665L23.8425 7.71357ZM26.2195 9.7244L25.6579 11.6439L29.018 12.6269L29.5795 10.7074L30.1411 8.78781L26.7811 7.80485L26.2195 9.7244ZM29.5795 10.7074L31.0965 12.0107L31.8417 11.1434L30.3247 9.84003L28.8078 8.53663L28.0626 9.40395L29.5795 10.7074ZM30.3247 9.84003L31.4933 8.21691L31.172 7.98563L30.0035 9.60875L28.8349 11.2319L29.1562 11.4632L30.3247 9.84003ZM30.0035 9.60875L31.3516 11.0861L31.8655 10.6171L30.5174 9.13977L29.1693 7.66242L28.6554 8.1314L30.0035 9.60875ZM30.5174 9.13977L31.7418 7.55836L31.3435 7.24999L30.1191 8.8314L28.8947 10.4128L29.293 10.7212L30.5174 9.13977ZM30.1191 8.8314L31.3318 10.4218L31.8458 10.0299L30.6331 8.43952L29.4203 6.84913L28.9064 7.24102L30.1191 8.8314ZM30.6331 8.43952L31.8378 6.84308L31.4973 6.58612L30.2925 8.18255L29.0878 9.77898L29.4283 10.036L30.6331 8.43952ZM14.4565 5.56141L12.4986 5.96932L13.0446 8.59046L15.0026 8.18255L16.9606 7.77464L16.4145 5.15351L14.4565 5.56141ZM15.0026 8.18255L13.8122 6.57542L13.4653 6.83239L14.6557 8.43952L15.8461 10.0466L16.193 9.78968L15.0026 8.18255ZM14.6557 8.43952L13.443 10.0299L13.957 10.4218L15.1696 8.8314L16.3823 7.241L15.8684 6.84911L14.6557 8.43952ZM15.1696 8.8314L13.9329 7.25966L13.541 7.56803L14.7778 9.13977L16.0145 10.7115L16.4064 10.4031L15.1696 8.8314ZM14.7778 9.13977L13.4297 10.6171L13.9436 11.0861L15.2917 9.60875L16.6398 8.13138L16.1259 7.6624L14.7778 9.13977ZM15.2917 9.60875L14.1231 7.98569L13.8019 8.21697L14.9705 9.84003L16.1391 11.4631L16.4603 11.2318L15.2917 9.60875ZM14.9705 9.84003L13.448 11.1369L14.1868 12.0043L15.7093 10.7074L17.2318 9.41045L16.493 8.54313L14.9705 9.84003ZM15.7093 10.7074L16.2709 12.6269L19.6308 11.6439L19.0692 9.7244L18.5077 7.80485L15.1477 8.78781L15.7093 10.7074ZM19.0692 9.7244L20.3609 11.2513L22.7379 9.2405L21.4462 7.71357L20.1545 6.18664L17.7775 8.19747L19.0692 9.7244ZM21.4462 7.71357L22.6382 6.10758L16.458 1.5206L15.266 3.12659L14.074 4.73258L20.2543 9.31956L21.4462 7.71357ZM15.266 3.12659L13.3681 2.49563L12.5587 4.93046L14.4565 5.56141L16.3544 6.19237L17.1639 3.75754L15.266 3.12659ZM29.5779 10.7072L30.1394 8.78762L26.7794 7.80466L26.2179 9.7242L25.6563 11.6438L29.0163 12.6267L29.5779 10.7072ZM26.2179 9.7242L24.5527 10.8321L25.5743 12.3675L27.2394 11.2596L28.9045 10.1518L27.883 8.61636L26.2179 9.7242ZM27.2394 11.2596L25.4615 10.3436L23.9389 13.2988L25.7168 14.2148L27.4947 15.1308L29.0173 12.1756L27.2394 11.2596ZM25.7168 14.2148L25.7424 16.2147L27.7469 16.189L27.7212 14.1891L27.6956 12.1893L25.6912 12.215L25.7168 14.2148ZM27.7212 14.1891L27.7211 16.1891L30.7084 16.1893L30.7086 14.1893L30.7087 12.1893L27.7214 12.1891L27.7212 14.1891ZM30.7086 14.1893L32.6108 13.5717L31.4801 10.0895L29.5779 10.7072L27.6756 11.3248L28.8063 14.807L30.7086 14.1893ZM19.0676 9.7242L18.506 7.80466L15.1461 8.78762L15.7077 10.7072L16.2693 12.6267L19.6292 11.6437L19.0676 9.7242ZM15.7077 10.7072L13.8034 10.0959L12.6856 13.578L14.5898 14.1893L16.4941 14.8007L17.612 11.3185L15.7077 10.7072ZM14.5898 14.1893L14.59 16.1893L17.5709 16.1891L17.5707 14.1891L17.5706 12.1891L14.5897 12.1893L14.5898 14.1893ZM17.5707 14.1891L17.545 16.189L19.543 16.2147L19.5687 14.2148L19.5944 12.215L17.5964 12.1893L17.5707 14.1891ZM19.5687 14.2148L21.3482 13.3019L19.832 10.3467L18.0526 11.2596L16.2731 12.1726L17.7892 15.1278L19.5687 14.2148ZM18.0526 11.2596L19.721 12.3626L20.736 10.8272L19.0676 9.7242L17.3992 8.62125L16.3842 10.1567L18.0526 11.2596ZM23.629 11.4202L25.6257 11.5344L25.8376 7.82755L23.8409 7.71338L21.8442 7.59922L21.6322 11.306L23.629 11.4202ZM23.8409 7.71338L25.7167 8.40713L26.6932 5.76672L24.8174 5.07298L22.9416 4.37923L21.9651 7.01964L23.8409 7.71338ZM24.8174 5.07298L24.8173 3.07298L20.4809 3.07317L20.481 5.07317L20.4811 7.07317L24.8175 7.07298L24.8174 5.07298ZM20.481 5.07317L18.6022 5.7589L19.5659 8.39912L21.4446 7.71338L23.3234 7.02765L22.3597 4.38744L20.481 5.07317ZM21.4446 7.71338L19.4483 7.83448L19.6731 11.5413L21.6695 11.4202L23.6658 11.2991L23.441 7.59229L21.4446 7.71338ZM21.6695 11.4202L19.6738 11.5517L19.7509 12.721L21.7466 12.5895L23.7422 12.4579L23.6651 11.2887L21.6695 11.4202ZM21.7466 12.5895L19.7466 12.5939L19.753 15.472L21.753 15.4675L23.753 15.4631L23.7465 12.585L21.7466 12.5895ZM21.753 15.4675V17.4675H23.5326V15.4675V13.4675H21.753V15.4675ZM23.5326 15.4675L25.5325 15.4765L25.5454 12.5984L23.5454 12.5895L21.5454 12.5805L21.5326 15.4586L23.5326 15.4675ZM23.5454 12.5895L25.5403 12.732L25.6239 11.5627L23.629 11.4202L21.634 11.2777L21.5505 12.4469L23.5454 12.5895Z"
        fill="#33395B" mask="url(#path-24-outside-1_40260_3436)" />
    <path
        d="M11.8379 1.0127C17.1258 1.28048 21.333 5.64902 21.333 11C21.333 16.5237 16.8494 20.999 11.3213 20.999C9.17743 20.9993 7.08977 20.3121 5.36621 19.0371C3.64264 17.7621 2.37419 15.9671 1.74707 13.917L1.35156 12.625H2.90234L3.08496 12.7002L6.49512 14.1055L6.97754 14.3037L7.09082 14.8135C7.14257 15.0476 7.24954 15.2664 7.40332 15.4502C7.55672 15.6336 7.75209 15.7778 7.97266 15.8701H7.97363C8.20466 15.9661 8.45615 16.0025 8.70508 15.9766C8.95377 15.9506 9.19211 15.8632 9.39844 15.7217C9.60478 15.5801 9.77299 15.3889 9.88672 15.166C10.0003 14.9433 10.0562 14.6953 10.0498 14.4453L10.0361 13.9141L10.4688 13.6055L13.623 11.3555L13.8936 11.1631L14.2246 11.1699C14.5475 11.1767 14.8686 11.1188 15.1689 11C15.4692 10.8812 15.7429 10.7042 15.9736 10.4785L16.1377 10.3008C16.2925 10.1158 16.4197 9.90871 16.5137 9.68555C16.6388 9.38826 16.7037 9.06857 16.7041 8.74609L16.6914 8.50684C16.6358 7.95224 16.3907 7.43083 15.9932 7.0332C15.539 6.57896 14.9234 6.32334 14.2812 6.32227C13.7197 6.3234 13.1787 6.51916 12.748 6.87207L12.5703 7.0332C12.1179 7.48577 11.8622 8.09859 11.8594 8.73828L11.8604 8.76562L11.8682 9.09082L11.6836 9.3584L9.47852 12.5576L9.16406 13.0137L8.61035 12.9893C8.29879 12.9751 7.99056 13.0602 7.73047 13.2324L7.28809 13.5244L6.79785 13.3232L1.95605 11.333L1.60938 11.1904L1.44238 10.8555L1.43848 10.8486L1.31738 10.6055L1.33496 10.334C1.5056 7.80161 2.63293 5.42833 4.4873 3.69531C6.3417 1.9625 8.78523 0.999025 11.3232 1L11.8379 1.0127Z"
        fill="white" stroke="#33395B" stroke-width="2" />
    <path
        d="M7.80963 16.2681C8.27834 16.447 8.79832 16.4363 9.25927 16.2382C9.72022 16.0402 10.0859 15.6704 10.2788 15.2073C10.4717 14.7441 10.4765 14.2241 10.2924 13.7574C10.1082 13.2907 9.74955 12.9141 9.29238 12.7074C8.83911 12.5184 8.33054 12.5103 7.87151 12.6849L9.02238 13.1619C9.1945 13.2336 9.35081 13.3384 9.48241 13.4706C9.614 13.6026 9.71829 13.7593 9.78933 13.9316C9.86036 14.1041 9.89675 14.2887 9.89642 14.4751C9.89609 14.6615 9.85904 14.8461 9.78738 15.0182C9.71573 15.1904 9.61088 15.3467 9.47882 15.4783C9.34675 15.6099 9.19006 15.7142 9.01769 15.7852C8.84533 15.8562 8.66065 15.8926 8.47422 15.8923C8.28779 15.8919 8.10325 15.8548 7.93113 15.7832L6.81738 15.3219C7.02006 15.7487 7.37352 16.0865 7.80963 16.2681ZM12.0014 8.74522C12.0017 9.35013 12.2419 9.93021 12.6695 10.3582C13.097 10.7861 13.6769 11.027 14.2818 11.0279C14.8867 11.027 15.4665 10.7861 15.894 10.3582C16.3215 9.93021 16.5618 9.35013 16.5621 8.74522C16.5612 8.1407 16.3207 7.5612 15.8932 7.13374C15.4658 6.70628 14.8863 6.46573 14.2818 6.46484C13.6773 6.46573 13.0977 6.70628 12.6702 7.13374C12.2428 7.5612 12.0023 8.1407 12.0014 8.74522ZM14.2851 7.02734C14.5103 7.0275 14.7332 7.07198 14.9411 7.15828C15.1491 7.24459 15.338 7.37099 15.4971 7.53031C15.6563 7.68962 15.7824 7.87871 15.8684 8.08677C15.9544 8.29484 15.9986 8.51782 15.9985 8.74297C15.9984 8.96812 15.9539 9.19104 15.8676 9.399C15.7813 9.60695 15.6548 9.79587 15.4955 9.95497C15.3362 10.1141 15.1471 10.2402 14.9391 10.3263C14.731 10.4123 14.508 10.4565 14.2829 10.4563C13.8282 10.456 13.3922 10.2751 13.0709 9.95339C12.7495 9.63164 12.5692 9.19543 12.5695 8.74072C12.5698 8.286 12.7507 7.85003 13.0725 7.52872C13.3942 7.2074 13.8304 7.02705 14.2851 7.02734Z"
        fill="white" />
    <defs>
        <linearGradient id="paint0_linear_40260_3436" x1="64.4801" y1="3.95527" x2="52.7599"
            y2="21.1387" gradientUnits="userSpaceOnUse">
            <stop stop-color="#00FFA3" />
            <stop offset="1" stop-color="#DC1FFF" />
        </linearGradient>
        <linearGradient id="paint1_linear_40260_3436" x1="59.2444" y1="0.380772" x2="47.5242"
            y2="17.5642" gradientUnits="userSpaceOnUse">
            <stop stop-color="#00FFA3" />
            <stop offset="1" stop-color="#DC1FFF" />
        </linearGradient>
        <linearGradient id="paint2_linear_40260_3436" x1="61.8529" y1="2.15878" x2="50.1328"
            y2="19.3422" gradientUnits="userSpaceOnUse">
            <stop stop-color="#00FFA3" />
            <stop offset="1" stop-color="#DC1FFF" />
        </linearGradient>
    </defs>
</svg>
    