<svg width="28" height="28" viewBox="0 0 28 28" fill="none" xmlns="http://www.w3.org/2000/svg">
<path d="M14 28C21.732 28 28 21.732 28 14C28 6.26801 21.732 0 14 0C6.26801 0 0 6.26801 0 14C0 21.732 6.26801 28 14 28Z" fill="url(#paint0_linear_39854_57510)"/>
<path d="M26.0011 13.7026C25.9977 13.1412 25.7796 11.6289 25.7243 11.1216C25.669 10.6143 25.6134 10.1541 25.6268 10.0463C25.64 9.94227 25.8002 10.1909 25.8849 10.211C25.9288 10.2022 25.9092 10.0452 25.8296 9.91111C25.7757 9.82006 25.5919 9.4796 25.4805 9.2801C25.428 9.18567 25.4163 9.13091 25.3911 9.11931C25.366 9.10771 25.1631 9.51656 25.1853 9.56188C25.2406 9.64498 25.2786 9.68463 25.2872 9.83139C25.296 9.97815 25.3719 11.026 25.4688 11.8202C25.5417 12.4194 25.7016 13.7103 25.7073 14.5129C25.7089 14.7747 25.6799 15.0243 25.6449 15.1285C25.5554 15.2923 25.4155 15.44 24.8943 15.7446C24.3084 16.0871 23.5268 16.3721 23.1908 16.5628C22.982 16.6818 23.0512 16.6977 23.2331 16.6456C23.4145 16.5936 24.3525 16.4267 24.8083 16.2344C25.2361 16.0533 25.5138 15.7505 25.7246 15.3087C25.9848 14.7626 26.0047 14.2991 26.0011 13.7026Z" fill="white"/>
<path d="M24.1842 9.43744C24.2295 9.41991 24.6045 9.40062 24.7054 9.42139C24.6391 9.51609 24.1895 9.7257 24.1876 9.76415C24.1999 9.79005 24.4981 9.71626 24.5922 9.67526C24.6537 9.6383 24.6947 9.5811 24.7403 9.53362C24.8478 9.41006 24.9753 9.18088 24.9432 9.15215C24.8911 9.10575 24.38 9.13462 24.3126 9.14419C24.2675 9.15067 24.153 9.3557 24.1319 9.40831C24.1113 9.46092 24.1389 9.45498 24.1842 9.43744Z" fill="white"/>
<path d="M24.9483 12.7661C25.0265 12.5017 25.0458 12.1809 24.9394 11.8433C24.8302 11.4957 24.5588 11.2838 24.363 11.1752L24.3281 11.5099C24.3281 11.5099 24.6026 11.6461 24.7903 11.9891C24.9092 12.2067 24.9587 12.5144 24.8648 12.8574C24.8492 12.9425 24.9101 12.8956 24.9483 12.7661Z" fill="white"/>
<path d="M22.0429 14.4417C22.1133 14.2036 22.1306 13.9148 22.0351 13.6108C21.9366 13.2977 21.6922 13.1068 21.5159 13.0094L21.4844 13.3106C21.4844 13.3106 21.7315 13.4334 21.9005 13.742C22.0077 13.9377 22.0521 14.2152 21.9679 14.524C21.9538 14.6003 22.0086 14.5582 22.0429 14.4417Z" fill="white"/>
<path d="M11.9663 9.88835C12.0793 10.0949 12.1262 10.3873 12.0373 10.7131C12.0224 10.7939 12.0799 10.7495 12.1166 10.6265C12.1905 10.3756 12.2089 10.0707 12.1078 9.74981C12.004 9.41947 11.7462 9.21835 11.5602 9.11543L11.5273 9.43323C11.5273 9.43323 11.7881 9.56259 11.9663 9.88835Z" fill="white"/>
<path d="M5.16247 9.99248C5.25741 10.2148 5.26384 10.5149 5.11046 10.8311C5.08067 10.9105 5.15326 10.8729 5.21417 10.7541C5.33862 10.5111 5.40845 10.2071 5.34534 9.87121C5.28064 9.52589 5.02092 9.29051 4.82651 9.16304L4.73828 9.47854C4.73828 9.47854 5.01274 9.64203 5.16247 9.99248Z" fill="white"/>
<path d="M7.04094 14.9629C7.1616 14.7393 7.21184 14.5887 7.26545 14.3238C7.31234 14.0907 7.31541 13.8215 7.29846 13.5474C7.65954 13.4003 8.08986 13.1563 8.23447 13.1384C8.13558 13.4775 8.37163 13.8435 8.8484 13.7957C8.88492 14.1792 8.91618 14.516 8.93516 14.7158C8.97402 15.1253 8.96818 15.6414 8.96701 15.7311C8.9654 15.8212 9.03069 15.8042 9.09774 15.6035C9.18713 15.3348 9.21474 14.6331 9.18231 14.1691C9.17457 14.0531 9.16143 13.8965 9.1455 13.718C9.45459 13.5752 9.506 13.2994 9.62154 13.182C9.72584 13.5468 10.2999 13.5963 10.4771 13.5182C10.6968 13.4213 10.7688 13.2468 10.8253 12.842C10.882 12.4374 10.7169 12.2744 10.6579 12.2303C10.6521 12.2793 10.5083 12.7549 10.5083 12.7549C10.5083 12.7549 10.6446 12.8987 10.6515 12.9694C10.5405 13.0697 10.3063 13.0759 10.1097 13.012C9.91295 12.9481 9.85262 12.8304 9.86431 12.7515C9.8757 12.6723 9.94976 12.6003 9.95224 12.5039C9.95443 12.4074 9.90813 12.4353 9.8294 12.5207C9.75067 12.6062 9.69984 12.6831 9.59087 12.8667C9.50177 13.0169 9.35716 13.2 9.10212 13.2524C9.06005 12.8115 9.012 12.3425 8.97986 12.0479C8.96306 11.8924 8.79523 10.5484 8.78325 10.398C8.77288 10.267 8.75345 10.1125 8.75667 10.04C8.75988 9.98222 8.79611 10.0052 8.8522 10.0656C8.90843 10.1259 9.00674 10.2311 9.02368 10.2229C9.08094 10.1948 9.02237 10.0201 8.94743 9.86366C8.87265 9.70678 8.61732 9.0879 8.56371 9.06241C8.5361 9.04946 8.36374 9.43039 8.35352 9.50539C8.38025 9.55233 8.45007 9.62611 8.45255 9.836C8.45343 9.89455 8.49111 10.4465 8.54341 10.9684C8.58913 11.4293 8.64975 11.8666 8.65559 11.9175C8.69722 12.2693 8.74776 12.7651 8.79581 13.2526C8.51901 13.2 8.4454 13.0177 8.45153 12.9137C8.45854 12.7963 8.51156 12.6638 8.48615 12.6339C8.43283 12.6019 8.11557 12.779 7.67313 12.9694C7.54868 13.0228 7.40845 13.0801 7.26048 13.1345C7.22192 12.8022 7.17109 12.4863 7.15064 12.2447L7.14816 12.2179C7.43913 12.1991 7.67736 12.0524 7.78575 11.9126C7.92115 11.738 8.01581 11.3785 8.02501 11.103C8.03421 10.8273 7.81146 10.3232 7.75843 10.163C7.70497 10.0026 7.67737 9.89144 7.67269 9.836C7.66787 9.78056 7.79305 9.90021 7.87178 9.92368C7.9251 9.93434 7.90669 9.81901 7.84155 9.73983C7.77684 9.66092 7.42686 9.13039 7.40232 9.16762C7.38727 9.18947 7.24705 9.57971 7.23784 9.63947C7.29306 9.67589 7.35762 9.77625 7.36215 9.87242C7.36682 9.9686 7.44395 10.3915 7.5294 10.6265C7.61514 10.8614 7.79773 11.3122 7.80927 11.4362C7.67883 11.5281 7.38187 11.6836 7.08812 11.6743C7.03788 11.2631 6.97419 10.7856 6.94016 10.4475C6.92701 10.3168 6.92613 10.1773 6.92818 10.1044C6.92978 10.0467 6.97141 10.0547 7.02867 10.114C7.08622 10.1734 7.17445 10.2597 7.19256 10.2535C7.232 10.2404 7.19782 10.1094 7.11967 9.9539C7.04153 9.79837 6.73098 9.14051 6.6765 9.11596C6.64889 9.10341 6.50984 9.47288 6.50107 9.54828C6.52883 9.59495 6.59996 9.66712 6.60697 9.87701C6.61252 10.0441 6.69403 10.8632 6.76385 11.5846C6.47317 11.4345 6.37399 11.2198 6.33806 10.8596C6.31294 10.6084 6.31045 10.1457 6.22077 9.75871C6.17023 9.53992 6.06374 9.31762 5.93754 9.19959C5.90745 9.2723 5.77306 9.71865 5.77306 9.71865C5.81689 9.8468 5.95317 10.2783 5.94849 10.6522C5.94397 11.0261 5.91446 11.3917 5.49495 11.6435C5.07573 11.8955 4.44691 11.7953 4.29163 11.4022C4.13636 11.0089 4.48152 10.0227 4.477 9.78987C4.47232 9.55705 4.43069 9.52495 4.33326 9.56339C4.23598 9.60183 4.03689 9.82629 3.86541 10.1914C3.69392 10.5569 3.61767 11.0094 3.52024 11.3171C3.42311 11.6248 3.26754 11.9365 3.02682 11.9192C2.7861 11.9023 2.65654 11.6822 2.58248 11.364C2.50828 11.0456 2.55371 10.6262 2.57386 10.5187C2.62411 10.2494 2.50769 10.3046 2.43641 10.7274C2.3923 10.9881 2.34848 11.4045 2.50375 11.8403C2.65873 12.2762 2.92297 12.4387 3.15449 12.383C3.38615 12.3276 3.58977 11.7849 3.66164 11.5412C3.73336 11.2978 4.05427 10.2169 4.23598 10.1638C4.2614 10.2856 4.09473 10.6783 4.04142 11.1376C3.98825 11.5969 4.11226 12.2138 4.69595 12.3205C5.27964 12.4274 5.67564 12.0493 5.81922 11.7868C5.96295 11.5239 6.03 11.2483 6.04621 11.1095C6.06491 11.4618 6.30563 12.0121 6.7732 12.1689L6.8214 12.1828C6.85018 12.4712 6.89707 12.8477 6.94016 13.2431C6.84915 13.2711 6.75728 13.2965 6.66584 13.3183C6.65415 13.2804 6.6413 13.2433 6.62567 13.2092C6.48296 12.9026 6.24677 12.62 5.91943 12.6396C5.58507 12.6594 5.22049 13.1051 5.23641 13.4306C5.24692 13.6495 5.36758 13.8292 5.80637 13.8752C6.00678 13.8963 6.2196 13.8741 6.43943 13.8262C6.4704 13.9167 6.48997 14.0067 6.49216 14.0887C6.3531 14.2511 5.20252 15.1179 4.34101 15.2013C3.47949 15.2845 3.21671 14.8334 3.2081 14.3806C3.20167 14.0361 3.40909 13.6922 3.55486 13.4543C3.76345 13.3019 3.93464 13.1113 4.04273 12.9642C4.07209 12.9823 4.09999 12.999 4.12658 13.0146C4.22955 13.0743 4.2706 13.1636 4.2706 13.1636C4.28959 13.1345 4.37811 12.9753 4.34349 12.8975C4.32757 12.8783 4.24971 12.8304 4.15608 12.7736C4.25439 12.529 4.25307 12.2847 4.1257 12.2303C3.98328 12.1697 3.79734 12.3381 3.71715 12.4407C3.67552 12.4942 3.65959 12.5547 3.6593 12.6056C3.65872 12.671 3.68954 12.7301 3.76579 12.7827C3.84174 12.8345 3.91229 12.8814 3.97861 12.9238C3.79033 13.1213 3.3454 13.4106 3.07313 13.5806C3.06305 13.5556 3.02317 13.5819 2.96956 13.645L2.8958 13.6905C2.6786 13.8232 2.15771 14.1147 2.05532 14.1861C1.95278 14.2576 2.01705 14.2446 2.05532 14.2287C2.12762 14.1897 2.22257 14.1425 2.3292 14.0904C2.48023 14.0167 2.65595 13.9332 2.82773 13.8494C2.7769 13.9355 2.72431 14.0361 2.67772 14.1459C2.47278 14.6292 2.1415 15.6309 2.85811 16.2336C3.54376 16.8105 4.72225 16.591 5.69959 15.9915C6.67709 15.3917 6.88815 15.1809 7.04094 14.9629ZM3.8543 12.5802C3.82042 12.5553 3.81574 12.5219 3.84335 12.4987C3.87855 12.4688 3.92354 12.4405 3.97466 12.4309C4.08305 12.4108 4.12628 12.5352 4.08276 12.7289C4.00037 12.6785 3.91565 12.6257 3.8543 12.5802ZM6.09617 13.3972C5.59851 13.3995 5.57558 13.3093 5.58493 13.2516C5.59413 13.1941 5.74911 13.0364 5.94572 13.1404C6.02883 13.1845 6.12246 13.2768 6.20908 13.3927C6.17081 13.3955 6.13312 13.397 6.09617 13.3972ZM4.57194 16.0113C3.63169 16.2676 2.71453 15.8705 2.65902 15.0842C2.61652 14.4838 2.83577 14.0314 2.97716 13.7764C3.11198 13.7098 3.23935 13.645 3.34467 13.587C3.09854 13.9829 2.95452 14.5132 3.05078 14.9624C3.15975 15.4712 3.60292 15.7797 4.35328 15.6801C5.09618 15.5818 6.1007 14.876 6.38553 14.6099C6.4723 14.5139 6.52956 14.4273 6.60756 14.2508C6.63969 14.1784 6.68483 14.0828 6.70163 13.9747C6.71258 13.9043 6.71842 13.829 6.71974 13.7524C6.80694 13.7264 6.89458 13.6972 6.98281 13.6659C7.01275 13.9881 7.03481 14.3056 7.03612 14.5802C6.57323 15.1225 5.51219 15.7549 4.57194 16.0113Z" fill="white"/>
<path d="M21.0214 13.9512C20.9895 13.4251 20.9127 12.4729 20.8698 11.9898C20.8318 11.56 20.7572 10.9708 20.7025 10.4521C20.6888 10.3215 20.6873 10.1965 20.6888 10.1238C20.6904 10.0663 20.7479 10.0884 20.8055 10.1475C20.8631 10.2066 20.953 10.2808 20.97 10.2717C21.0262 10.2426 20.9589 10.0985 20.8798 9.94356C20.8008 9.7883 20.4875 9.14609 20.433 9.12167C20.4053 9.10926 20.2585 9.49397 20.25 9.56937C20.278 9.61578 20.3498 9.68767 20.3575 9.89756C20.3654 10.1076 20.4716 11.0731 20.5483 11.854C20.6014 12.3968 20.6701 13.2825 20.72 13.9503C20.7176 13.9514 20.7672 14.5853 20.7726 14.6565C20.8033 15.0666 20.7874 15.5825 20.7843 15.6721C20.781 15.7621 20.8468 15.7464 20.9175 15.5468C20.9895 15.3429 21.0306 14.8878 21.0361 14.477L21.0214 13.9512Z" fill="white"/>
<path d="M18.3434 12.108C18.247 12.1374 18.0957 12.0356 18.1073 11.822C18.1178 11.6291 18.2004 11.4485 18.2323 11.3345C18.2761 11.1773 18.2764 11.0256 18.2393 11.1116C18.1557 11.3036 18.0002 11.675 17.968 11.927C17.9358 12.1789 18.0176 12.3414 18.1287 12.3968C18.2672 12.4663 18.367 12.3561 18.4344 12.1936C18.4993 12.0381 18.487 11.8566 18.442 11.8993C18.4044 11.944 18.3903 12.0936 18.3434 12.108Z" fill="white"/>
<path d="M16.9649 12.8841C17.016 12.7484 17.028 12.6154 16.9887 12.6883C16.9001 12.8518 16.734 13.1677 16.6853 13.3872C16.6369 13.6067 16.6957 13.7552 16.7892 13.8114C16.9058 13.8819 17.0017 13.7916 17.0743 13.6534C17.1437 13.521 17.1472 13.3604 17.1046 13.3952C17.0678 13.4319 17.0434 13.5623 17.0013 13.5719C16.9138 13.5912 16.7891 13.4913 16.8161 13.3041C16.8406 13.1355 16.9278 12.9821 16.9649 12.8841Z" fill="white"/>
<path d="M12.9229 15.7469C13.0083 15.6084 13.0508 15.4647 12.9915 15.5373C12.8592 15.6994 12.6087 16.0141 12.5076 16.2449C12.4068 16.4757 12.4389 16.6491 12.5288 16.728C12.6408 16.8264 12.7657 16.7455 12.8748 16.608C12.9795 16.4763 13.0187 16.3014 12.9639 16.3313C12.9158 16.3648 12.8609 16.5028 12.8126 16.5054C12.7131 16.5103 12.5983 16.3779 12.6687 16.1786C12.7324 15.9986 12.8611 15.8473 12.9229 15.7469Z" fill="white"/>
<path d="M20.0038 11.703C19.9058 11.7276 19.7609 11.6179 19.7851 11.4052C19.8072 11.2133 19.9008 11.0372 19.9392 10.9253C19.9927 10.7703 20.0019 10.6191 19.9597 10.7027C19.865 10.8905 19.6874 11.253 19.6399 11.5031C19.5924 11.7531 19.6642 11.9194 19.772 11.9805C19.9063 12.0566 20.0121 11.9519 20.0895 11.793C20.1636 11.6411 20.1624 11.4593 20.1146 11.4998C20.0745 11.5427 20.0515 11.6912 20.0038 11.703Z" fill="white"/>
<path d="M19.9712 14.3145C20.1053 14.3906 20.2116 14.2859 20.2887 14.127C20.3626 13.9751 20.3616 13.7933 20.3142 13.8337C20.2737 13.8764 20.2508 14.0252 20.203 14.037C20.105 14.0614 19.9598 13.9519 19.9843 13.7392C20.0064 13.5472 20.0999 13.3711 20.1384 13.2592C20.1917 13.1043 20.2009 12.9528 20.1589 13.0367C20.0639 13.2244 19.8866 13.587 19.8391 13.8368C19.7917 14.0871 19.8634 14.2534 19.9712 14.3145Z" fill="white"/>
<path d="M21.6891 10.9793C21.7536 10.7918 21.7647 10.6088 21.7136 10.7101C21.5988 10.9372 21.3841 11.3759 21.3265 11.6787C21.2693 11.9813 21.3562 12.1824 21.4866 12.2565C21.6489 12.3485 21.7773 12.2218 21.8709 12.0297C21.9602 11.8459 21.9589 11.6256 21.9013 11.6748C21.8527 11.7265 21.8248 11.9062 21.7669 11.9206C21.6486 11.9503 21.4729 11.8177 21.5025 11.5603C21.5293 11.328 21.6425 11.115 21.6891 10.9793Z" fill="white"/>
<path d="M7.98575 14.2208C8.09135 13.9923 8.12962 13.7635 8.05192 13.8853C7.87795 14.1579 7.55032 14.6857 7.43843 15.0597C7.32639 15.4337 7.40936 15.6965 7.56346 15.8043C7.75569 15.9381 7.93375 15.7929 8.07646 15.5621C8.21303 15.3408 8.2402 15.0636 8.16147 15.119C8.09355 15.1784 8.03483 15.4015 7.96033 15.4132C7.80725 15.4372 7.60392 15.2508 7.67491 14.9304C7.73918 14.6414 7.9095 14.3862 7.98575 14.2208Z" fill="white"/>
<path d="M22.783 16.4902C22.8639 16.424 23.5677 16.0454 23.6972 15.9685C23.6972 15.9685 23.8297 15.7527 23.79 15.7297C23.7501 15.7068 23.4932 15.9402 23.3334 15.9466C23.1734 15.9531 22.9545 15.8357 22.9475 15.7396C22.9682 15.667 23.1606 15.558 23.2301 15.5536C23.2996 15.5495 23.2884 15.7076 23.3116 15.7269C23.3348 15.7459 23.4273 15.6178 23.439 15.5643C23.4504 15.5111 23.4409 15.288 23.3137 15.3199C23.1122 15.3708 22.8084 15.7439 22.7738 15.8612C22.7389 15.9789 22.9266 16.0812 23.0636 16.137C23.0519 16.1413 22.9496 16.1904 22.8849 16.2543C22.8849 16.2543 22.8154 16.3321 22.783 16.4902Z" fill="white"/>
<path d="M20.3767 16.959C20.4577 16.8928 21.1614 16.5144 21.291 16.4372C21.291 16.4372 21.4238 16.2214 21.3837 16.1985C21.3439 16.1755 21.0869 16.4089 20.9271 16.4154C20.7672 16.4219 20.5482 16.3045 20.5412 16.2083C20.5619 16.1357 20.7543 16.0268 20.8238 16.0226C20.8934 16.0183 20.8821 16.1762 20.9054 16.1954C20.9286 16.2147 21.021 16.0865 21.0327 16.0331C21.0441 15.9798 21.0343 15.7567 20.9074 15.7887C20.706 15.8398 20.4021 16.2126 20.3675 16.3303C20.3326 16.4476 20.5203 16.55 20.657 16.6057C20.6456 16.61 20.5434 16.659 20.4787 16.7231C20.4787 16.7231 20.4092 16.8009 20.3767 16.959Z" fill="white"/>
<path d="M14.9693 10.1694C15.0324 10.2427 15.4457 10.7673 15.7696 11.0971C16.0933 11.4272 16.6482 11.9613 17.0559 12.3274C17.1347 12.3984 17.2184 12.4752 17.3036 12.5552C17.4064 13.3438 17.5253 14.3473 17.5753 14.7622C17.6245 15.1708 17.6318 15.6867 17.6328 15.7766C17.6337 15.8665 17.6986 15.8482 17.7602 15.6462C17.8429 15.3753 17.8524 14.6736 17.8086 14.2101C17.7814 13.9238 17.7173 13.3876 17.6552 12.8933C17.8959 13.1308 18.1233 13.3665 18.2766 13.5429C18.5583 13.8668 18.7954 14.1111 18.9399 14.4592C19.0421 14.7055 19.0317 14.9015 19.0737 14.9402C19.1099 14.9737 19.1499 14.679 19.1052 14.3931C19.0328 13.929 18.9334 13.7322 18.3369 13.0694C18.1093 12.8161 17.8414 12.5513 17.5795 12.3038C17.5694 12.2275 17.5602 12.1568 17.5519 12.094C17.5312 11.9391 17.329 10.5991 17.3131 10.4489C17.2995 10.3182 17.2757 10.1643 17.2776 10.0916C17.2791 10.0337 17.3159 10.0563 17.3737 10.1153C17.4313 10.1743 17.532 10.2775 17.5491 10.2684C17.6055 10.2393 17.5427 10.0662 17.4637 9.91099C17.385 9.756 17.1137 9.14279 17.0592 9.1185C17.0316 9.10609 16.869 9.49067 16.8607 9.56594C16.8889 9.61234 16.9605 9.68464 16.9682 9.89426C16.9704 9.9528 17.0224 10.504 17.0877 11.0244C17.1455 11.4842 17.2171 11.9203 17.2246 11.9708L17.2249 11.9747C16.9548 11.7286 16.7168 11.5197 16.5725 11.3884C16.2351 11.0821 15.4899 10.3552 15.4599 10.2463C15.4532 10.2119 15.511 10.2331 15.6174 10.2501C15.7242 10.2672 15.8191 10.3035 15.802 10.2512C15.7943 10.2265 15.7534 10.1655 15.6516 10.1027C15.5496 10.0397 15.2884 9.87645 15.0942 9.76099C14.8994 9.64566 14.803 9.54894 14.7629 9.57659C14.743 9.59022 14.7607 9.98531 14.7724 10.0345C14.821 10.0387 14.9065 10.0959 14.9693 10.1694Z" fill="white"/>
<path d="M15.503 9.45768C15.5829 9.44015 15.9615 9.44972 16.099 9.47859C16.0414 9.51852 15.654 9.71397 15.5775 9.76051C15.5014 9.80718 15.4821 9.83416 15.5204 9.82957C15.6314 9.79882 15.8816 9.76051 16.0015 9.69806C16.1146 9.64518 16.3073 9.38727 16.3822 9.29109C16.4567 9.19491 16.4567 9.14689 16.4377 9.12113C16.3612 9.07958 15.8677 9.0379 15.6298 9.09685C15.5639 9.1415 15.4351 9.37931 15.4161 9.42881C15.3971 9.47859 15.4231 9.47522 15.503 9.45768Z" fill="white"/>
<path d="M17.6138 9.42837C17.6784 9.4142 17.9835 9.42189 18.0941 9.44509C18.0478 9.47733 17.7358 9.63488 17.6741 9.67265C17.6123 9.71002 17.597 9.73187 17.6278 9.72809C17.7174 9.70354 17.9191 9.67265 18.0156 9.62207C18.1066 9.57944 18.2619 9.37158 18.3222 9.29429C18.3823 9.21659 18.3823 9.17801 18.3669 9.15737C18.3056 9.12352 17.9078 9.09006 17.7161 9.13768C17.6629 9.17356 17.5593 9.36524 17.544 9.40517C17.5284 9.44509 17.5495 9.44253 17.6138 9.42837Z" fill="white"/>
<path d="M19.3249 9.40688C19.3892 9.39272 19.6943 9.40041 19.8049 9.42361C19.7589 9.45585 19.4467 9.6134 19.3849 9.6509C19.3235 9.68853 19.3081 9.71039 19.3389 9.70661C19.4285 9.68206 19.6458 9.6509 19.7424 9.60059C19.8335 9.55796 19.9415 9.35009 20.0018 9.27253C20.0621 9.19511 20.0621 9.15626 20.0465 9.13589C19.9851 9.10203 19.6187 9.06858 19.4272 9.11593C19.374 9.15208 19.2701 9.34375 19.2548 9.38368C19.2395 9.42361 19.2604 9.42105 19.3249 9.40688Z" fill="white"/>
<path d="M18.2546 10.2397C18.1532 10.3992 18.2803 10.5279 18.3266 10.6567C18.2641 10.7137 18.168 10.6617 18.1359 10.6116C18.0675 10.509 18.0904 10.2998 18.0099 10.2675C17.9893 10.324 17.9759 10.3868 17.9759 10.3868C17.9759 10.3868 18.0371 10.5299 18.0218 10.6246C18.012 10.6818 17.9615 10.7485 17.8947 10.7499C17.7168 10.7542 17.8044 10.4912 17.7358 10.3421C17.7218 10.3785 17.7117 10.4177 17.6953 10.4518C17.7079 10.4906 17.7147 10.5451 17.7168 10.5766C17.7209 10.639 17.7159 10.7063 17.7266 10.7596C17.7413 10.835 17.7832 10.8851 17.8472 10.8899C17.9801 10.9004 18.0408 10.7929 18.0608 10.7047C18.0837 10.7947 18.2594 10.8938 18.3459 10.7833C18.4604 10.6377 18.3688 10.5129 18.3101 10.3758C18.2678 10.2745 18.28 10.208 18.2546 10.2397Z" fill="white"/>
<path d="M13.2626 9.81888C13.2718 9.88444 13.3055 9.92922 13.3606 9.93597C13.4742 9.9504 13.5318 9.86016 13.5532 9.78516C13.5683 9.86353 13.7152 9.95579 13.7951 9.86434C13.9007 9.74334 13.8276 9.63219 13.7834 9.51174C13.7519 9.42244 13.7655 9.36578 13.7421 9.39209C13.6472 9.52509 13.7507 9.6415 13.7845 9.7544C13.7278 9.80081 13.6476 9.75211 13.6222 9.708C13.5681 9.61668 13.5976 9.43741 13.5302 9.40625C13.5097 9.45427 13.4952 9.50755 13.4952 9.50755C13.4952 9.50755 13.541 9.63341 13.5231 9.71421C13.5122 9.76317 13.4656 9.81861 13.4078 9.81713C13.2545 9.81375 13.3425 9.59065 13.2902 9.45967C13.2766 9.49029 13.2659 9.52388 13.25 9.5522C13.2592 9.58646 13.2626 9.63341 13.2626 9.66079C13.2637 9.71475 13.2561 9.77221 13.2626 9.81888Z" fill="white"/>
<path d="M16.8867 15.9935C16.9038 15.9664 16.9414 15.8919 16.932 15.8411C16.9225 15.7902 16.8601 15.578 16.739 15.5249C16.6186 15.4718 16.5275 15.5832 16.4698 15.7382L16.4298 15.7372C16.4203 15.7602 16.4083 15.7944 16.3988 15.8563C16.3854 15.9458 16.3599 16.0034 16.2064 16.1426C16.0773 16.2591 15.659 16.539 15.3879 16.6705C15.1165 16.8023 14.9212 16.916 14.8492 16.9506C14.7774 16.9845 14.7983 16.9972 14.87 16.9758C14.9416 16.9545 15.3018 16.8386 15.4454 16.7795C15.5887 16.72 15.764 16.6222 15.9752 16.4853C16.2101 16.3332 16.3505 16.181 16.3976 16.0461C16.4312 15.9499 16.4398 15.9115 16.4398 15.9115C16.4398 15.9115 16.5281 15.9636 16.6778 15.9977C16.8269 16.032 16.8693 16.0209 16.8867 15.9935ZM16.6842 15.692C16.7507 15.7173 16.7911 15.7896 16.8031 15.8334C16.7269 15.8351 16.5865 15.7964 16.5268 15.7695C16.5627 15.7 16.6252 15.6699 16.6842 15.692Z" fill="white"/>
<path d="M15.2994 16.1438C15.0911 16.1149 14.5663 16.0352 14.4379 15.7309C14.5457 15.5739 15.0422 15.3751 15.6641 15.189C16.2861 15.0034 16.936 14.7625 17.1107 14.6462C17.1489 14.6333 17.223 14.6372 17.223 14.6372C17.2542 14.5472 17.4104 14.2313 17.4202 14.1652C17.2464 14.1751 16.1749 14.2537 15.6991 14.2792C15.2229 14.3048 14.3058 14.2986 14.0003 14.2953C14.1877 14.1606 14.6325 13.8979 15.2682 13.6737C15.3505 13.6446 15.4268 13.6182 15.4979 13.5945C15.5508 13.6887 15.5901 13.7817 15.5983 13.8628C15.6387 13.8213 15.6691 13.6835 15.6589 13.5422C16.0295 13.424 16.2204 13.3849 16.3028 13.3626C16.3548 13.2953 16.4469 13.0231 16.4607 12.8252C16.4053 12.7245 16.2319 12.599 16.0777 12.4912C15.8651 12.343 15.636 12.2138 15.4072 12.2703C15.0945 12.3469 15.0318 12.9207 15.1047 13.0424C15.1279 13.0808 15.183 13.149 15.248 13.233C15.0195 13.3227 14.7806 13.4282 14.5699 13.5391C14.1008 13.7859 13.577 14.056 13.4242 14.3156L13.3804 14.3369C13.3681 14.3615 13.2714 14.7633 13.2574 14.8066C13.3549 14.8033 14.0835 14.8046 14.591 14.7888C15.0981 14.7726 15.5416 14.7566 15.7153 14.7566C15.458 14.8174 14.7839 15.0676 14.5901 15.2148C14.3963 15.3624 14.2744 15.5867 14.2712 15.9713C14.0905 15.9006 13.7547 15.7391 13.4686 15.3525C13.1496 14.9217 13.2156 14.4786 13.0879 13.8971C12.9024 13.0532 12.5063 12.3407 12.2596 12.1227C12.1765 12.4206 12.1658 12.645 12.1658 12.645C12.1658 12.645 12.4749 13.3276 12.6313 13.7633C12.7878 14.1991 12.9214 14.6284 12.9148 14.7246C12.786 15.0068 12.0234 15.5979 11.3878 15.9439C10.7852 16.2719 10.2542 16.3073 10.0661 16.0737C10.0291 16.0281 10.004 15.9741 9.98981 15.913C10.0716 15.8748 10.1537 15.8364 10.2378 15.7979C10.7797 15.5514 11.7422 15.0323 11.9677 14.76C12.2111 14.4299 12.2077 13.9652 12.065 13.6992C11.9229 13.4333 11.7 13.1255 11.6826 13.0166C11.669 12.9652 11.8274 13.0375 11.9208 13.0424C11.9661 13.039 11.9435 12.9782 11.8463 12.882C11.7686 12.8054 11.4682 12.5568 11.3534 12.4598C11.3246 12.4351 11.3031 12.4451 11.2973 12.4711C11.2749 12.5704 11.2292 12.783 11.2115 12.888L11.2238 12.9408C11.2568 12.9604 11.2948 12.9824 11.3132 13.0373C11.3392 13.1151 11.4302 13.3323 11.5793 13.6064C11.7288 13.8803 11.9446 14.1828 11.9658 14.3355C11.7903 14.5591 10.9049 15.0354 10.0425 15.4279C10.0959 15.2628 10.18 15.0761 10.2916 14.8688C10.3233 14.8337 10.3522 14.7904 10.3791 14.7416C10.4651 14.5846 10.4734 14.3927 10.4213 14.4333C10.3766 14.4763 10.3445 14.6321 10.2933 14.6426C10.1886 14.6641 10.0417 14.542 10.0786 14.3187C10.1121 14.1173 10.2199 13.9355 10.2665 13.8191C10.331 13.658 10.3487 13.4989 10.2998 13.5855C10.1898 13.7789 9.98338 14.1536 9.91998 14.4155C9.85688 14.6769 9.92393 14.8556 10.0345 14.9248C10.0758 14.9511 10.1154 14.9593 10.1531 14.9542C10.0774 15.098 9.98396 15.2744 9.91575 15.4849C9.56898 15.6398 9.23156 15.7784 8.95228 15.8782C7.94835 16.2371 7.2329 16.4487 6.73247 16.6057L6.7129 16.6144C6.7497 16.4956 6.74474 16.3942 6.7053 16.4246C6.6606 16.4679 6.62861 16.6237 6.57749 16.634C6.47276 16.6554 6.32581 16.5335 6.36262 16.3101C6.39622 16.1087 6.50402 15.9272 6.55061 15.8106C6.61488 15.6497 6.6327 15.4903 6.58392 15.577C6.47378 15.7704 6.26753 16.1451 6.20414 16.4068C6.14089 16.6684 6.20794 16.8471 6.31836 16.9165C6.45596 17.0028 6.57325 16.8969 6.66323 16.7331L6.69478 16.6658C6.72604 16.6658 6.77877 16.6585 6.8575 16.641C7.08683 16.5895 7.66015 16.5064 8.44849 16.4037C9.03218 16.3279 9.43518 16.1678 9.82475 15.9896C9.82299 16.0327 9.82256 16.0765 9.82446 16.1217C9.84564 16.656 10.1962 16.8068 10.6756 16.7068C11.1381 16.6098 11.7829 16.1863 12.1694 15.9006C12.5724 15.6028 12.805 15.3366 12.8643 15.2438C12.9718 15.0163 13.0013 14.7648 13.0086 14.6462C13.0438 14.973 13.0723 15.4251 13.3817 15.8129C13.6665 16.1698 14.2502 16.6678 15.348 16.6815C15.3517 16.551 15.2994 16.1438 15.2994 16.1438ZM15.2268 12.8331C15.384 12.6569 15.7194 12.7721 15.971 12.9955C15.8421 13.0257 15.6669 13.0795 15.4737 13.1484C15.3589 13.0102 15.2308 12.8769 15.2268 12.8331Z" fill="white"/>
<path d="M9.04643 10.4158C9.11771 10.3833 9.33579 10.2854 9.57082 10.1486C9.8054 10.0128 10.0258 9.84821 10.1336 9.73882C10.175 9.69686 10.2118 9.66409 10.2353 9.6251C10.3057 9.65424 10.3542 9.68445 10.3844 9.69632C10.4298 9.71386 10.4905 9.73908 10.5299 9.60986C10.5692 9.48077 10.5171 9.39741 10.4402 9.29786C10.3752 9.21436 10.2721 9.08891 10.1884 9.05775C10.1174 9.03118 10.0837 9.18954 10.0945 9.18563H10.1419L10.1511 9.19008C10.0534 9.23932 9.97776 9.39255 9.97017 9.44637C9.96243 9.50492 9.97353 9.54808 10.1138 9.5841L10.1701 9.60069C10.0531 9.73908 9.83505 9.8822 9.6865 9.98364C9.47573 10.128 9.17658 10.3083 9.09142 10.3604C9.00626 10.4122 9.01342 10.4285 9.04643 10.4158ZM10.3131 9.39903L10.3207 9.32983C10.4193 9.44206 10.4925 9.5756 10.4852 9.59448C10.4399 9.59812 10.3835 9.55631 10.2849 9.51422C10.2959 9.48077 10.3051 9.44381 10.3131 9.39903ZM10.0301 9.39916C10.0295 9.37812 10.0675 9.31958 10.1478 9.28761C10.228 9.25537 10.2635 9.34534 10.2705 9.45487L10.2467 9.49871L10.1744 9.47376C10.0978 9.45136 10.0461 9.43868 10.0301 9.39916Z" fill="white"/>
<path d="M14.3112 12.5313C14.4268 12.4549 14.7448 12.2256 14.9252 12.0753C15.0507 11.9709 15.1981 11.8172 15.2981 11.6871C15.361 11.7277 15.4195 11.7637 15.4728 11.795C15.5757 11.8551 15.617 11.9441 15.617 11.9441C15.636 11.9149 15.7245 11.7555 15.6899 11.6779C15.6692 11.6526 15.5427 11.5788 15.4134 11.4998C15.479 11.3527 15.5692 11.0985 15.44 11.0094C15.3294 10.9339 15.1429 11.0589 15.0565 11.2212C14.9853 11.3556 14.9761 11.4695 15.1121 11.5629C15.1503 11.5892 15.187 11.614 15.2229 11.6376C15.0858 11.7875 14.8331 12.0092 14.6533 12.1602C14.4299 12.3469 14.2187 12.5299 14.1819 12.5736L14.1712 12.5906C14.1224 12.4549 14.1357 12.3711 14.0995 12.4162C13.9431 12.6613 14.1391 12.8599 14.2104 13.0581C14.114 13.1456 13.9663 13.0653 13.9168 12.9888C13.8113 12.8304 13.8465 12.5089 13.7231 12.4591C13.6912 12.546 13.6705 12.6427 13.6705 12.6427C13.6705 12.6427 13.7644 12.863 13.7406 13.0084C13.7259 13.0963 13.6479 13.1992 13.5455 13.201C13.2714 13.208 13.4066 12.8031 13.3008 12.5738C13.2793 12.63 13.264 12.6902 13.2383 12.7422C13.2577 12.8025 13.2684 12.8862 13.2711 12.9346C13.2782 13.0308 13.2703 13.134 13.2865 13.2165C13.3091 13.3325 13.3737 13.4097 13.4723 13.4168C13.6766 13.4334 13.77 13.2675 13.8009 13.1322C13.8361 13.2706 14.1068 13.4228 14.2399 13.2531C14.4162 13.0287 14.2751 12.8367 14.185 12.6257L14.1743 12.5983C14.1869 12.6028 14.234 12.5821 14.3112 12.5313ZM15.1104 11.2681C15.1782 11.1426 15.3209 11.1319 15.3637 11.1977C15.3978 11.2501 15.4005 11.3522 15.3494 11.46C15.2235 11.3811 15.1112 11.3038 15.1104 11.2681Z" fill="white"/>
<path d="M9.8426 11.733C9.60188 11.716 9.47231 11.4957 9.39826 11.1775C9.32405 10.8593 9.36948 10.4397 9.38964 10.3322C9.4098 10.2248 9.2963 10.2802 9.25219 10.541C9.20837 10.8014 9.16425 11.218 9.31952 11.6541C9.4745 12.0896 9.73874 12.2522 9.97026 12.1965C10.2018 12.141 10.4055 11.5984 10.4774 11.3549C10.5491 11.1113 10.87 10.1178 11.0518 10.0644C11.0772 10.1862 10.9105 10.4917 10.8572 10.951C10.8042 11.4103 10.8965 12.0128 11.4802 12.1196C12.0639 12.2266 12.4599 11.8483 12.6034 11.5854C12.7472 11.3229 12.8142 11.0469 12.8304 10.9083C12.8491 11.2607 13.0899 11.8111 13.5574 11.968C14.0092 12.1196 14.3544 11.9808 14.5069 11.7843C14.6423 11.6097 14.7526 11.2502 14.7621 10.9745C14.7713 10.6991 14.5329 10.195 14.4796 10.0345C14.4261 9.87434 14.3985 9.76319 14.3938 9.70775C14.3893 9.65231 14.5145 9.77196 14.5932 9.79543C14.6465 9.80609 14.6278 9.69076 14.563 9.61157C14.4983 9.53266 14.148 9.00214 14.1234 9.0391C14.1084 9.06122 13.9682 9.45146 13.959 9.51122C14.0145 9.54764 14.0787 9.648 14.0836 9.74417C14.0879 9.84035 14.1807 10.2632 14.2664 10.4982C14.3522 10.7332 14.5188 11.184 14.5305 11.308C14.3639 11.4253 13.9885 11.5746 13.6319 11.4233C13.2754 11.2714 13.1616 11.0514 13.1223 10.6583C13.0972 10.4072 13.0947 9.94448 13.005 9.55762C12.9544 9.33896 12.848 9.11666 12.7215 8.99863C12.6917 9.07107 12.5573 9.51769 12.5573 9.51769C12.6011 9.64584 12.7374 10.0774 12.733 10.4513C12.7282 10.8249 12.6987 11.1906 12.2792 11.4426C11.86 11.6946 11.2627 11.5942 11.1074 11.201C10.9521 10.8079 11.2973 9.92358 11.2928 9.69076C11.2881 9.45793 11.2462 9.4257 11.149 9.46427C11.0518 9.50272 10.8524 9.72718 10.6812 10.0923C10.5097 10.4577 10.4336 10.8229 10.336 11.1306C10.2389 11.4383 10.0833 11.75 9.8426 11.733Z" fill="white"/>
<path d="M2.85436 10.3679C3.15059 10.3465 3.40095 10.1221 3.46566 10.0625C3.53051 10.0025 3.56542 9.91305 3.51897 9.94704C3.17629 10.2526 2.71778 10.2612 2.69207 10.2098C2.70376 10.1586 2.82441 10.0752 3.00043 9.95783C3.10735 9.88648 3.20259 9.81957 3.27387 9.72474L3.29329 9.72812C3.42373 9.75671 3.57433 9.81364 3.62034 9.76804C3.69528 9.69426 3.70521 9.5734 3.62399 9.44309C3.55534 9.33248 3.39525 9.22956 3.25619 9.15524C3.11743 9.08132 3.09055 9.19935 3.07273 9.24143C3.05564 9.28069 3.06265 9.31414 3.09201 9.31495C3.04731 9.37578 3.01547 9.45415 3.00379 9.5189C2.99619 9.56072 3.00233 9.59498 3.01942 9.62317C3.02438 9.63113 3.05009 9.66256 3.09873 9.68117L3.15906 9.69992C3.0552 9.7957 2.93557 9.8707 2.87276 9.9086C2.75941 9.97699 2.62503 10.0966 2.5834 10.2203C2.54162 10.3444 2.55784 10.3893 2.85436 10.3679ZM3.37801 9.49516L3.38941 9.43203V9.39157C3.48333 9.45982 3.63349 9.58904 3.62429 9.66647C3.56484 9.65298 3.45149 9.62911 3.34383 9.60145C3.35756 9.56922 3.36881 9.53387 3.37801 9.49516ZM3.09961 9.51486C3.03052 9.45982 3.09785 9.40492 3.15906 9.36958C3.23808 9.32399 3.28438 9.36162 3.32485 9.48127C3.31068 9.51553 3.29081 9.54885 3.26744 9.58082C3.20595 9.5618 3.11933 9.53131 3.09961 9.51486Z" fill="white"/>
<path d="M3.74981 13.7112C3.66465 13.7849 3.63164 14.025 3.64902 14.0395C3.66626 14.0539 3.93239 14.1436 3.97402 14.163L3.99301 14.0907C4.1198 14.2044 4.26032 14.7718 4.29158 14.7734C4.32283 14.7749 4.36812 14.7092 4.39777 14.5585C4.42508 14.4188 4.4524 14.2097 4.48088 14.0395C4.50747 13.8837 4.5488 13.7945 4.64258 13.7767C4.7365 13.7592 4.80603 13.8794 4.83028 13.9611C4.83028 13.9611 4.89616 13.804 4.91018 13.7063C4.89455 13.6549 4.74848 13.4612 4.6287 13.5253C4.50878 13.5895 4.4337 13.8613 4.40945 14.0312C4.38506 14.2009 4.36636 14.4114 4.33686 14.4451C4.30589 14.3002 4.20671 14.041 4.08693 13.8953C3.95226 13.7321 3.7948 13.6722 3.74981 13.7112Z" fill="white"/>
<path d="M2.61019 13.4213C2.72135 13.3908 2.97157 13.3525 3.09134 13.2901C3.20425 13.2372 3.39692 12.9793 3.47171 12.8831C3.54635 12.7869 3.54649 12.7386 3.52751 12.7131C3.45111 12.6713 2.95754 12.6299 2.71945 12.6889C2.65372 12.7332 2.52503 12.9711 2.50605 13.0208C2.48676 13.0703 2.51306 13.0672 2.59281 13.0497C2.67271 13.0319 3.05147 13.0415 3.18848 13.0703C3.13137 13.1105 2.74399 13.306 2.66745 13.3525C2.5912 13.3989 2.57192 13.4262 2.61019 13.4213Z" fill="white"/>
<path d="M25.5572 14.7986C25.5458 14.5104 25.4044 14.0678 24.8669 13.3888C24.6814 13.1543 24.4204 12.8492 24.145 12.5366C24.1374 12.4301 24.1298 12.3327 24.123 12.2491C24.0869 11.8189 23.9646 10.9413 23.9121 10.4225C23.8992 10.2917 23.8982 10.1525 23.9001 10.0798C23.902 10.022 23.9436 10.0297 24.0009 10.0891C24.0581 10.1483 24.1463 10.2347 24.1648 10.2288C24.2039 10.2153 24.1699 10.0843 24.0917 9.92908C24.0137 9.77356 23.7188 9.14456 23.6646 9.12015C23.6367 9.10774 23.4977 9.47707 23.489 9.55261C23.5166 9.59901 23.5879 9.67117 23.5948 9.8812C23.6021 10.0911 23.7289 11.3307 23.8018 12.1119L23.8057 12.1554C23.3941 11.6964 23.0064 11.2779 22.8469 11.1082C22.8193 11.0788 22.7889 11.0453 22.7562 11.0094C22.7302 10.8005 22.7063 10.6014 22.6898 10.4369C22.6763 10.3064 22.6754 10.1669 22.6778 10.0942C22.6791 10.0366 22.721 10.0444 22.7783 10.1038C22.8358 10.163 22.9238 10.2494 22.9422 10.2432C22.9813 10.23 22.9473 10.099 22.869 9.94352C22.7911 9.78799 22.4836 9.14456 22.4292 9.12015C22.4016 9.10774 22.2561 9.50647 22.2475 9.58147C22.2754 9.62814 22.3465 9.70031 22.3535 9.91033C22.3563 9.9995 22.3795 10.2698 22.4105 10.611C22.1376 10.2871 21.8705 9.94797 21.8515 9.87904C21.8447 9.84505 21.9024 9.86596 22.0092 9.88322C22.1156 9.90022 22.2153 9.93219 22.1982 9.87958C22.1902 9.85516 22.1496 9.79419 22.0478 9.73107C21.9458 9.66807 21.6847 9.50485 21.4904 9.38966C21.2957 9.27433 21.1993 9.17734 21.1591 9.20499C21.1392 9.21862 21.1569 9.61398 21.1683 9.66295C21.2172 9.6674 21.3076 9.70368 21.3652 9.78057C21.4233 9.85746 21.7955 10.3787 22.0898 10.7311C22.1746 10.8326 22.3072 10.9899 22.4625 11.1714C22.4928 11.4961 22.5247 11.8316 22.551 12.1119C22.6107 12.7513 22.8254 14.4375 22.8275 14.9856C22.669 15.1341 22.3449 15.3413 22.0114 15.3456C21.6779 15.3498 21.4951 15.2621 21.3607 15.0144C21.3192 14.9377 21.2806 14.8605 21.2424 14.7907C21.1515 14.6246 20.9488 14.5314 20.7533 14.5771L20.7235 14.5851L20.6703 14.6106C20.538 14.6798 20.4011 14.7958 20.2673 14.9757C20.036 15.2879 19.8881 15.6264 19.717 15.9197C19.5386 16.2251 19.4017 16.43 19.0889 16.381C18.8686 16.3465 18.7013 16.1578 18.5982 15.9256C18.8879 15.7255 19.0982 15.4643 19.252 15.1024C19.4523 14.632 19.5237 14.1018 19.5059 13.5056C19.4888 12.9444 19.2327 11.6243 19.1651 11.1183C19.0976 10.612 19.0006 10.1966 19.0119 10.0885C19.0224 9.98425 19.1886 10.2298 19.2738 10.2481C19.3173 10.2384 19.2939 10.0818 19.2113 9.94945C19.1552 9.85948 18.9776 9.45022 18.8613 9.25288C18.8067 9.15954 18.7935 9.10544 18.7681 9.09438C18.743 9.08292 18.5494 9.49582 18.5728 9.54074C18.6301 9.62248 18.6692 9.66146 18.6812 9.80795C18.6935 9.95444 18.8261 11.0298 18.9421 11.8217C19.0294 12.4193 19.2224 13.5048 19.2472 14.3071C19.2554 14.5689 19.218 14.7568 19.1856 14.8618C19.1023 15.0225 18.9666 15.2011 18.4898 15.5401C18.4162 15.0611 18.4963 14.672 18.4264 14.6359C18.3477 14.6444 18.3351 14.8677 18.3262 15.1431C18.3219 15.2703 18.3274 15.4465 18.3514 15.6358C17.7658 16.0267 16.9922 16.3826 16.6289 16.5727C16.4158 16.6844 16.4926 16.7104 16.673 16.6547C16.8534 16.5987 17.8448 16.3391 18.374 16.0611L18.431 16.0295C18.4578 16.1227 18.4904 16.2129 18.5304 16.2962C18.7085 16.6658 18.9629 16.8852 19.2386 16.8638C19.4704 16.846 19.6385 16.5982 19.7852 16.3027C19.9334 16.0035 20.1839 15.4353 20.4296 15.2239C20.524 15.1425 20.6216 15.078 20.7165 15.0393C20.7165 15.0393 20.8843 14.9833 21.0387 15.0841C21.0941 15.1205 21.1354 15.1723 21.1616 15.2303C21.2225 15.3634 21.2945 15.5328 21.4417 15.6747C21.7012 15.9243 22.1183 15.8728 22.4312 15.7276C22.7437 15.5823 22.9032 15.3557 22.9727 15.0865C23.0913 14.6258 23.0723 14.1538 23.0497 13.7346C23.0235 13.2562 22.947 12.7672 22.9034 12.2491C22.8894 12.0825 22.8621 11.8507 22.8307 11.5994C23.1354 11.9507 23.4518 12.3072 23.6437 12.5021C23.7099 12.5694 23.7797 12.6442 23.8514 12.7231C23.9087 13.5073 23.9638 14.4886 23.9928 14.9005C24.0216 15.3108 24.0031 15.8266 23.9997 15.9163C23.9962 16.006 24.0461 15.9906 24.1179 15.7916C24.214 15.5243 24.2743 14.8236 24.2533 14.3589C24.2407 14.0828 24.2131 13.5794 24.1833 13.1032C24.4198 13.3839 24.6443 13.6673 24.7904 13.8586C25.0501 14.1982 25.2886 14.6021 25.372 14.8541C25.4553 15.1063 25.4645 15.181 25.4807 15.226C25.4969 15.2709 25.5686 15.0869 25.5572 14.7986Z" fill="white"/>
<path d="M19.9103 21.5336C19.8914 21.4608 19.8336 21.4074 19.7645 21.4074C19.6953 21.4074 19.6376 21.4608 19.6186 21.5336H18.9641C18.9575 21.4357 18.9639 21.3373 18.9845 21.2414L20.3359 21.2403L20.3735 21.3259C20.4075 21.4029 20.4504 21.4726 20.5002 21.5336L19.9103 21.5336ZM20.8049 20.6868H19.1809C19.3057 20.5654 19.3712 20.3882 19.3536 20.2089C19.3424 20.0958 19.2594 20.0114 19.1581 20H19.1073C18.9841 20.0162 18.8948 20.1359 18.9078 20.2674L18.9128 20.3179L18.9188 20.3956C18.9254 20.4932 18.919 20.5913 18.8986 20.6868H6.89453C7.07278 21.0365 7.39777 21.251 7.74872 21.2506L18.7026 21.2416C18.5774 21.3632 18.5117 21.5407 18.5294 21.7203C18.5423 21.8518 18.6525 21.9454 18.7757 21.9292C18.8987 21.913 18.988 21.7933 18.9751 21.6617L18.9702 21.6113H19.6139C19.6253 21.696 19.688 21.761 19.7645 21.761C19.8409 21.761 19.9037 21.696 19.9151 21.6113H20.5699V21.6092C20.7066 21.7401 20.8804 21.8152 21.0642 21.8152C21.2371 21.8152 21.3773 21.6533 21.3773 21.4533V21.3487C21.3773 20.9833 21.1211 20.6868 20.8049 20.6868Z" fill="white"/>
<defs>
<linearGradient id="paint0_linear_39854_57510" x1="4.9896" y1="4.9896" x2="24.7884" y2="24.7884" gradientUnits="userSpaceOnUse">
<stop stop-color="#3A9700"/>
<stop offset="1" stop-color="#276500"/>
</linearGradient>
</defs>
</svg>
