<svg width="32" height="32" viewBox="0 0 32 32" fill="none" xmlns="http://www.w3.org/2000/svg">
<g clip-path="url(#clip0_36062_79777)">
<path d="M15.8624 31.8614C24.6276 31.8614 31.5841 24.7658 31.5841 16.1397C31.5841 7.37449 24.4885 0.417969 15.8624 0.417969C7.09715 0.417969 0.140625 7.51362 0.140625 16.1397C0.140625 24.7658 7.23628 31.8614 15.8624 31.8614Z" fill="#2C374B"/>
<path fill-rule="evenodd" clip-rule="evenodd" d="M24.486 10.4341C24.3468 10.295 17.5294 6.26018 16.6947 5.98192C16.4164 5.84279 15.7208 5.70366 15.3034 5.84279C14.886 5.98192 7.65119 10.1558 7.37293 10.4341C7.2338 10.5732 7.09467 10.8515 6.95554 10.9906C6.81641 11.2689 6.81641 11.408 6.81641 16.2776V21.2863L7.79032 21.8428C8.34684 22.121 8.76423 22.3993 8.76423 22.3993C8.90336 22.3993 15.4425 11.9645 15.4425 11.8254C15.4425 11.6863 13.9121 11.6863 13.4947 11.8254C12.9381 11.9645 12.5208 12.2428 12.2425 12.521C12.1034 12.6602 11.2686 14.0515 10.1555 15.5819C9.18162 17.1124 8.34684 18.5037 8.34684 18.5037C8.34684 18.5037 8.34684 17.1124 8.34684 15.1645V11.6863L8.48597 11.5471C8.76423 11.2689 15.8599 7.23409 16.1381 7.23409C16.2773 7.23409 16.4164 7.23409 18.086 8.208C18.6425 8.48626 20.1729 9.32105 21.4251 10.1558C22.6773 10.8515 23.7903 11.5471 23.9295 11.6863L24.0686 11.8254V19.0602L20.5903 13.6341C20.4512 13.3558 20.3121 13.0776 20.1729 12.9384C20.1729 12.9384 20.0338 13.2167 19.199 14.608C19.0599 14.7471 18.9208 15.0254 18.9208 15.1645L18.7816 15.4428L18.9208 15.5819L19.0599 15.721C19.0599 15.721 19.0599 15.8602 19.199 15.8602L19.4773 16.2776C19.4773 16.2776 19.4773 16.4167 19.6164 16.4167C19.7555 16.5558 19.8947 16.8341 19.8947 16.9732C19.8947 16.9732 19.8947 16.9732 19.8947 17.1124L22.8164 21.8428L22.5381 21.9819C22.399 22.121 22.2599 22.121 22.1208 22.121L18.5034 16.5558L18.3642 16.4167L18.086 16.9732L16.6947 19.1993L19.4773 23.6515C19.0599 23.9297 16.6947 25.5993 16.5555 25.5993C16.4164 25.5993 13.2164 23.5124 13.3555 23.3732C13.3555 23.3732 14.3295 21.7037 15.4425 19.7558C16.4164 18.0863 17.6686 15.9993 18.5034 14.608C19.4773 12.9384 19.8947 12.1037 19.8947 12.1037C19.8947 12.1037 19.199 12.1037 18.3642 12.1037H16.9729L13.7729 17.3906C12.6599 19.3384 11.5468 21.1471 10.9903 22.121C10.0164 22.2602 9.73815 22.5384 9.73815 22.5384L9.59901 22.8167L12.1034 24.208C13.4947 25.0428 14.7468 25.7384 15.0251 25.8776C15.4425 26.1558 16.1381 26.1558 16.4164 26.1558C16.6947 26.0167 23.9294 21.8428 24.3468 21.5645C24.486 21.4254 24.6251 21.2863 24.7642 21.008L24.9034 20.5906V15.9993V11.408L24.7642 11.1297C24.7642 10.8515 24.486 10.5732 24.486 10.4341Z" fill="white"/>
<path d="M23.7903 18.9215L19.6164 12.5215L18.0859 15.0258L22.1207 21.565L23.9294 20.7302L23.7903 18.9215Z" fill="#24A2EE"/>
<path d="M21.842 22.4L17.6681 16L15.8594 18.7826L19.1985 24.0696L21.2855 23.2348L21.842 22.4Z" fill="#24A2EE"/>
<path fill-rule="evenodd" clip-rule="evenodd" d="M8.21012 11.6861L15.8623 7.23393L23.5145 11.6861V20.5905L15.8623 25.0426L10.1579 21.8426L9.46229 23.0948L15.7232 26.7122C15.8623 26.8513 16.0014 26.8513 16.1406 26.7122L24.9058 21.7035C25.0449 21.5644 25.184 21.4252 25.184 21.2861V11.2687C25.184 11.1296 25.0449 10.9905 24.9058 10.8513L16.1406 5.84263C16.0014 5.7035 15.8623 5.7035 15.7232 5.84263L6.95795 10.7122C6.81882 10.8513 6.67969 10.9905 6.67969 11.1296V21.147C6.67969 21.2861 6.81882 21.4252 6.95795 21.5644L8.76664 22.5383L9.60143 21.2861L8.34925 20.5905V11.6861H8.21012Z" fill="#98BCDC"/>
<path d="M19.2001 11.6875H16.2783L9.46094 22.8179L11.8262 24.2092L19.2001 11.6875Z" fill="white"/>
<path d="M11.8275 12.8008C12.5232 11.6877 14.471 11.6877 15.3058 11.8269L8.62751 22.5399C8.34925 22.4008 7.79273 22.1225 7.37534 21.8443C6.81882 21.566 6.67969 21.566 6.67969 21.1486V20.5921C8.21012 18.366 11.1319 13.9138 11.8275 12.8008Z" fill="white"/>
</g>
<defs>
<clipPath id="clip0_36062_79777">
<rect width="32" height="32" fill="white"/>
</clipPath>
</defs>
</svg>
