<svg width="32" height="32" viewBox="0 0 32 32" fill="none" xmlns="http://www.w3.org/2000/svg">
<g clip-path="url(#clip0_36061_79771)">
<path d="M15.9423 -0.063751C16.0494 -0.0635254 16.1565 -0.0632998 16.2668 -0.0630674C17.9541 -0.0551486 19.5174 0.0675346 21.1183 0.640249C21.2612 0.689594 21.2612 0.689594 21.4069 0.739937C23.3658 1.43258 25.0601 2.47517 26.6223 3.84025C26.719 3.91846 26.8157 3.99667 26.9153 4.07725C29.2062 5.97959 30.8571 8.92703 31.6143 11.7762C31.6476 11.9002 31.681 12.0241 31.7153 12.1517C32.0239 13.4216 32.0698 14.6428 32.0623 15.9442C32.0621 16.0514 32.0618 16.1586 32.0615 16.269C32.0528 17.9557 31.9385 19.5217 31.3583 21.1203C31.3213 21.2244 31.2842 21.3286 31.2461 21.436C30.5323 23.3894 29.5047 25.0409 28.1583 26.6243C28.0385 26.7698 28.0385 26.7698 27.9163 26.9183C25.9877 29.1919 23.082 30.8562 20.2223 31.6163C20.0984 31.6496 19.9745 31.6829 19.8469 31.7173C18.5769 32.0259 17.3558 32.0716 16.0543 32.0643C15.9472 32.064 15.8402 32.0638 15.7298 32.0636C14.0425 32.0556 12.4793 31.933 10.8783 31.3603C10.7831 31.3274 10.6879 31.2945 10.5898 31.2606C8.63087 30.5679 6.93653 29.5253 5.37432 28.1603C5.22928 28.0429 5.22928 28.0429 5.08132 27.9233C2.79042 26.0209 1.13957 23.0735 0.382319 20.2243C0.348989 20.1003 0.315659 19.9764 0.281319 19.8488C-0.0273081 18.5789 -0.0731553 17.3577 -0.0656808 16.0562C-0.0654127 15.9491 -0.0651445 15.8419 -0.0648683 15.7315C-0.0561748 14.0448 0.0581502 12.4788 0.638319 10.8802C0.675362 10.7761 0.712404 10.6719 0.750569 10.5645C1.46435 8.61107 2.4919 6.95964 3.83832 5.37625C3.91818 5.27923 3.99804 5.18221 4.08032 5.08225C6.00898 2.80862 8.91462 1.14429 11.7743 0.384249C11.9602 0.334254 11.9602 0.334254 12.1498 0.283249C13.4197 -0.0253901 14.6409 -0.0710823 15.9423 -0.063751Z" fill="#FDFDFF"/>
<path d="M15.3602 6.01562C15.9515 6.14235 16.5429 6.26907 17.1522 6.39963C16.9902 7.35915 16.7795 8.27994 16.5122 9.21563C16.9768 9.30011 17.4415 9.38459 17.9202 9.47163C17.9342 9.36339 17.9482 9.25515 17.9627 9.14363C18.0799 8.30524 18.2246 7.56152 18.5602 6.78363C19.1093 6.91035 19.6584 7.03707 20.2242 7.16763C20.0705 8.17274 19.8721 9.13654 19.5842 10.1116C19.6525 10.1304 19.7208 10.1492 19.7912 10.1686C21.0724 10.5543 22.1363 11.1749 22.9122 12.2876C23.1948 13.1355 23.1691 14.1496 22.8242 14.9756C22.4233 15.7437 21.9097 16.1628 21.1202 16.5116C21.2099 16.5987 21.2997 16.6859 21.3922 16.7756C22.2709 17.6544 22.6969 18.1654 22.706 19.4431C22.6853 20.4641 22.3273 21.3679 21.7362 22.1996C20.9737 22.8943 20.0351 23.3111 19.0012 23.3126C18.8356 23.3129 18.8356 23.3129 18.6667 23.3131C18.5523 23.3126 18.438 23.3121 18.3202 23.3116C18.1501 23.3124 18.1501 23.3124 17.9767 23.3131C17.3886 23.3122 16.8347 23.2879 16.2562 23.1676C16.203 23.4104 16.203 23.4104 16.1487 23.6581C16.1019 23.8706 16.055 24.0831 16.0082 24.2956C15.9848 24.4023 15.9615 24.509 15.9374 24.6189C15.9147 24.7216 15.8921 24.8243 15.8687 24.9301C15.8479 25.0246 15.8271 25.1192 15.8057 25.2165C15.7442 25.4716 15.7442 25.4716 15.6162 25.8556C15.4348 25.8374 15.2535 25.8186 15.0722 25.7996C14.9207 25.784 14.9207 25.784 14.7662 25.7681C14.4868 25.7307 14.2239 25.6738 13.9522 25.5996C14.0385 24.5981 14.2426 23.6354 14.4642 22.6556C14.0418 22.5711 13.6194 22.4867 13.1842 22.3996C13.131 22.6424 13.131 22.6424 13.0767 22.8901C13.0299 23.1026 12.983 23.3151 12.9362 23.5276C12.9128 23.6343 12.8895 23.741 12.8654 23.8509C12.8427 23.9536 12.8201 24.0563 12.7967 24.1621C12.7759 24.2566 12.7551 24.3512 12.7337 24.4485C12.6722 24.7036 12.6722 24.7036 12.5442 25.0876C12.3628 25.0694 12.1815 25.0506 12.0002 25.0316C11.8487 25.016 11.8487 25.016 11.6942 25.0001C11.4148 24.9627 11.1519 24.9058 10.8802 24.8316C10.9501 23.7845 11.1581 22.7813 11.3922 21.7596C11.3221 21.7563 11.2519 21.753 11.1797 21.7496C10.1454 21.6756 9.18428 21.404 8.19218 21.1196C8.03173 20.7419 8.06284 20.6109 8.21968 20.2216C8.42384 19.8383 8.62801 19.455 8.83218 19.0716C9.71922 19.135 9.71922 19.135 10.6242 19.1996C11.0151 18.3835 11.2194 17.5407 11.4322 16.6636C11.4706 16.5073 11.5089 16.3511 11.5485 16.1901C11.6681 15.7002 11.7863 15.21 11.9042 14.7196C11.9425 14.5612 11.9808 14.4028 12.0203 14.2396C12.1295 13.7865 12.2372 13.3332 12.3442 12.8796C12.3773 12.7414 12.4104 12.6031 12.4446 12.4607C12.6733 11.5513 12.6733 11.5513 12.6722 10.6236C12.4698 10.3141 12.3308 10.2517 11.9752 10.1506C11.862 10.1325 11.7488 10.1143 11.6322 10.0956C11.0188 9.99429 11.0188 9.99429 10.8802 9.85563C10.9075 9.25396 11.0036 8.6506 11.1362 8.06363C12.0743 8.10686 12.9159 8.31722 13.8112 8.59613C14.222 8.72593 14.222 8.72593 14.7202 8.70363C14.9314 7.81659 15.1426 6.92955 15.3602 6.01562Z" fill="#0454FF"/>
<path d="M15.9423 -0.063751C16.0494 -0.0635254 16.1565 -0.0632998 16.2668 -0.0630674C17.9541 -0.0551486 19.5174 0.0675346 21.1183 0.640249C21.2612 0.689594 21.2612 0.689594 21.4069 0.739937C23.3658 1.43258 25.0601 2.47517 26.6223 3.84025C26.719 3.91846 26.8157 3.99667 26.9153 4.07725C29.2062 5.97959 30.8571 8.92703 31.6143 11.7762C31.6476 11.9002 31.681 12.0241 31.7153 12.1517C32.0239 13.4216 32.0698 14.6428 32.0623 15.9442C32.0621 16.0514 32.0618 16.1586 32.0615 16.269C32.0528 17.9557 31.9385 19.5217 31.3583 21.1203C31.3213 21.2244 31.2842 21.3286 31.2461 21.436C30.5323 23.3894 29.5047 25.0409 28.1583 26.6243C28.0385 26.7698 28.0385 26.7698 27.9163 26.9183C25.9877 29.1919 23.082 30.8562 20.2223 31.6163C20.0984 31.6496 19.9745 31.6829 19.8469 31.7173C18.5769 32.0259 17.3558 32.0716 16.0543 32.0643C15.9472 32.064 15.8402 32.0638 15.7298 32.0636C14.0425 32.0556 12.4793 31.933 10.8783 31.3603C10.7831 31.3274 10.6879 31.2945 10.5898 31.2606C8.63087 30.5679 6.93653 29.5253 5.37432 28.1603C5.22928 28.0429 5.22928 28.0429 5.08132 27.9233C2.79042 26.0209 1.13957 23.0735 0.382319 20.2243C0.348989 20.1003 0.315659 19.9764 0.281319 19.8488C-0.0273081 18.5789 -0.0731553 17.3577 -0.0656808 16.0562C-0.0654127 15.9491 -0.0651445 15.8419 -0.0648683 15.7315C-0.0561748 14.0448 0.0581502 12.4788 0.638319 10.8802C0.675362 10.7761 0.712404 10.6719 0.750569 10.5645C1.46435 8.61107 2.4919 6.95964 3.83832 5.37625C3.91818 5.27923 3.99804 5.18221 4.08032 5.08225C6.00898 2.80862 8.91462 1.14429 11.7743 0.384249C11.9602 0.334254 11.9602 0.334254 12.1498 0.283249C13.4197 -0.0253901 14.6409 -0.0710823 15.9423 -0.063751ZM14.5138 1.53825C10.9146 1.67103 7.54347 3.72026 5.11832 6.27225C2.96521 8.66048 1.66143 11.7643 1.53432 14.9762C1.52779 15.1315 1.52779 15.1315 1.52113 15.2898C1.38193 19.1218 2.52783 22.5148 4.99032 25.4723C5.14278 25.6566 5.14278 25.6566 5.29832 25.8448C7.47935 28.3621 10.7129 30.0953 14.0383 30.4163C18.2994 30.6801 21.9599 29.8804 25.3423 27.1363C25.4515 27.0483 25.5608 26.9604 25.6733 26.8698C28.2365 24.6906 29.6244 21.6578 30.3343 18.4323C30.3571 18.3303 30.3799 18.2284 30.4034 18.1233C30.4612 17.7987 30.4789 17.5016 30.4793 17.1723C30.4798 16.9976 30.4798 16.9976 30.4803 16.8195C30.4771 16.205 30.4711 15.5907 30.4623 14.9762C30.4613 14.7483 30.4613 14.7483 30.4603 14.5157C30.3331 11.0681 28.4179 7.72881 25.9823 5.37625C23.7909 3.41805 21.2781 2.29102 18.4303 1.66425C18.3284 1.64147 18.2264 1.61869 18.1214 1.59522C17.7967 1.53739 17.4997 1.51971 17.1703 1.51925C17.0539 1.51894 16.9375 1.51863 16.8175 1.51831C16.0496 1.52232 15.2818 1.53491 14.5138 1.53825Z" fill="#0354FF"/>
<path d="M14.5922 16.5117C16.0955 16.6926 17.6541 17.0081 18.8162 18.0477C19.1804 18.594 19.1511 19.0707 19.0722 19.7117C18.8423 20.2175 18.6504 20.4222 18.1842 20.7197C16.8006 21.2215 15.1762 20.7632 13.8242 20.3517C13.8887 19.4426 14.0475 18.5919 14.2802 17.7117C14.3102 17.5954 14.3401 17.4791 14.371 17.3592C14.4439 17.0765 14.5176 16.794 14.5922 16.5117Z" fill="#F8FAFF"/>
<path d="M15.9985 11.2637C17.2212 11.3584 18.5715 11.7887 19.4545 12.6717C19.7474 13.0901 19.7708 13.4486 19.7105 13.9517C19.4108 14.5177 19.1322 14.8257 18.5585 15.1037C17.5035 15.2235 16.2024 15.2057 15.2305 14.7197C15.2878 13.9319 15.4345 13.1831 15.6145 12.4157C15.6373 12.3176 15.6601 12.2195 15.6836 12.1185C15.854 11.4082 15.854 11.4082 15.9985 11.2637Z" fill="#F8FAFF"/>
</g>
<defs>
<clipPath id="clip0_36061_79771">
<rect width="32" height="32" fill="white"/>
</clipPath>
</defs>
</svg>
