<svg width="32" height="32" viewBox="0 0 32 32" fill="none" xmlns="http://www.w3.org/2000/svg">
<g clip-path="url(#clip0_8123_138206)">
<path d="M16 0C24.84 0 32 7.16 32 16C32 24.84 24.84 32 16 32C7.16 32 0 24.84 0 16C0 7.16 7.16 0 16 0Z" fill="#F5AC37"/>
<path d="M16.5872 17.1331H22.6672C22.8005 17.1331 22.8539 17.1331 22.8672 16.9598C22.9205 16.3464 22.9205 15.7198 22.8672 15.1064C22.8672 14.9864 22.8139 14.9331 22.6805 14.9331H10.5739C10.4272 14.9331 10.3872 14.9864 10.3872 15.1198V16.8931C10.3872 17.0441 10.4672 17.1198 10.6272 17.1198H16.5872V17.1331ZM22.1872 12.8531C22.1872 12.8531 22.2005 12.7598 22.1872 12.7198C22.0805 12.4931 21.9605 12.2931 21.8272 12.0931C21.6139 11.7598 21.3739 11.4398 21.0805 11.1598C20.9472 10.9864 20.7872 10.8398 20.6139 10.7064C19.7472 9.97311 18.7205 9.45311 17.6139 9.18645C17.0539 9.06645 16.4805 8.99978 15.9205 8.99978H10.5605C10.4139 8.99978 10.3872 9.05311 10.3872 9.18645V12.7331C10.3872 12.8798 10.3872 12.9198 10.5739 12.9198H22.1072C22.1072 12.9198 22.2139 12.8931 22.2272 12.8398H22.1739L22.1872 12.8531ZM22.1872 19.2131C22.0139 19.1998 21.8405 19.1998 21.6805 19.2131H10.5872C10.4405 19.2131 10.3872 19.2131 10.3872 19.4131V22.8798C10.3872 23.0398 10.3872 23.0798 10.5872 23.0798H15.7072C15.9472 23.0931 16.2005 23.0798 16.4405 23.0264C17.1872 22.9731 17.9205 22.8131 18.6139 22.5464C18.8672 22.4531 19.1072 22.3464 19.3472 22.2131H19.4139C20.6139 21.5864 21.5872 20.6131 22.2005 19.3998C22.2005 19.3998 22.2672 19.2531 22.2005 19.2131H22.1872ZM8.37385 24.8798V19.3464C8.37385 19.2131 8.37385 19.1998 8.21385 19.1998H6.04052C5.92052 19.1998 5.86719 19.1998 5.86719 19.0398V17.1331H8.18719C8.32052 17.1331 8.37385 17.1331 8.37385 16.9598V15.0798C8.37385 14.9598 8.37385 14.9331 8.21385 14.9331H6.04052C5.92052 14.9331 5.86719 14.9331 5.86719 14.7731V13.0131C5.86719 12.9064 5.86719 12.8798 6.02719 12.8798H8.17385C8.32052 12.8798 8.36052 12.8798 8.36052 12.6931V7.30645C8.36052 7.14645 8.36052 7.10645 8.56052 7.10645H16.0539C16.6005 7.13311 17.1339 7.18645 17.6805 7.29311C18.7872 7.49311 19.8405 7.89311 20.8139 8.45311C21.4539 8.82645 22.0539 9.29311 22.5739 9.81311C22.9739 10.2264 23.3205 10.6664 23.6405 11.1464C23.9605 11.6264 24.2139 12.1464 24.4272 12.6798C24.4539 12.8131 24.5872 12.9198 24.7205 12.8931H26.5072C26.6582 12.8931 26.7382 12.9688 26.7472 13.1198V14.7598C26.7472 14.9198 26.6939 14.9598 26.5205 14.9598H25.1339C25.0005 14.9598 24.9472 14.9598 24.9605 15.1464C25.0139 15.7598 25.0139 16.3731 24.9605 16.9731C24.9605 17.1464 24.9605 17.1598 25.1472 17.1598H26.7205C26.7872 17.2531 26.7205 17.3464 26.7205 17.4264V18.9864C26.7205 19.1598 26.6672 19.2131 26.5205 19.2131H24.6272C24.4939 19.1864 24.3739 19.2664 24.3339 19.3998C23.8805 20.5731 23.1605 21.6131 22.2272 22.4664C21.8939 22.7731 21.5339 23.0664 21.1605 23.3198C20.7605 23.5464 20.3739 23.7864 19.9605 23.9864C19.2005 24.3198 18.4139 24.5731 17.6005 24.7331C16.8272 24.8664 16.0405 24.9331 15.2539 24.9198H8.37385V24.8798Z" fill="#FEFEFD"/>
</g>
<defs>
<clipPath id="clip0_8123_138206">
<rect width="32" height="32" fill="white"/>
</clipPath>
</defs>
</svg>
