<svg xmlns="http://www.w3.org/2000/svg" width="24" height="19" viewBox="0 0 24 19"
    fill="none">
    <path
        d="M20.3171 1.51644C18.7611 0.802225 17.119 0.292911 15.4319 0.00125081C15.4166 -0.00160074 15.4008 0.000451857 15.3867 0.00711663C15.3726 0.0137814 15.3609 0.0247192 15.3534 0.0383758C15.1424 0.41361 14.9088 0.903079 14.7451 1.28783C12.9005 1.01164 11.0652 1.01164 9.25836 1.28783C9.09468 0.894548 8.85252 0.41361 8.6406 0.0383758C8.63276 0.0250077 8.62108 0.0143135 8.60707 0.00769026C8.59306 0.00106701 8.57738 -0.0011773 8.56208 0.00125081C6.84796 0.29647 5.20761 0.813595 3.67696 1.51644C3.66364 1.52209 3.6524 1.53174 3.6448 1.54405C0.533426 6.19241 -0.318949 10.7265 0.0991759 15.2044C0.101051 15.2263 0.113379 15.2473 0.130395 15.2606C2.18319 16.7682 4.17172 17.6833 6.12327 18.29C6.13844 18.2945 6.15464 18.2943 6.16969 18.2894C6.18474 18.2845 6.19792 18.275 6.20746 18.2624C6.66908 17.632 7.0806 16.9672 7.43343 16.2682C7.45424 16.2273 7.43436 16.1787 7.3918 16.1625C6.73907 15.9149 6.11755 15.613 5.51966 15.2702C5.47236 15.2426 5.46857 15.1749 5.51211 15.1425C5.63827 15.0483 5.76225 14.9511 5.88393 14.8511C5.8946 14.8423 5.90751 14.8367 5.92122 14.8348C5.93493 14.833 5.94888 14.835 5.9615 14.8406C9.88925 16.6339 14.1415 16.6339 18.0229 14.8406C18.0356 14.8346 18.0496 14.8323 18.0635 14.834C18.0774 14.8357 18.0906 14.8413 18.1014 14.8501C18.2232 14.9506 18.3475 15.0481 18.4742 15.1425C18.5177 15.1749 18.5148 15.2425 18.4676 15.2701C17.8697 15.6196 17.2482 15.9148 16.5945 16.1615C16.5844 16.1654 16.5753 16.1713 16.5677 16.1789C16.5601 16.1865 16.5542 16.1957 16.5503 16.2057C16.5465 16.2158 16.5448 16.2266 16.5454 16.2373C16.546 16.2481 16.5489 16.2586 16.5538 16.2681C16.9143 16.9662 17.3258 17.6309 17.7789 18.2614C17.7978 18.2881 17.8318 18.2995 17.8631 18.29C19.8241 17.6833 21.8126 16.7681 23.8654 15.2606C23.8742 15.2541 23.8816 15.2458 23.887 15.2363C23.8924 15.2268 23.8957 15.2162 23.8966 15.2053C24.3971 10.0284 23.0585 5.53147 20.3482 1.54499C20.3416 1.53206 20.3305 1.52193 20.3171 1.51644ZM8.02007 12.4778C6.83755 12.4778 5.86316 11.3922 5.86316 10.0589C5.86316 8.72563 6.81861 7.63995 8.02007 7.63995C9.23089 7.63995 10.1959 8.73514 10.1769 10.0589C10.1769 11.3922 9.22143 12.4778 8.02007 12.4778ZM15.9948 12.4778C14.8123 12.4778 13.8379 11.3922 13.8379 10.0589C13.8379 8.72563 14.7934 7.63995 15.9948 7.63995C17.2056 7.63995 18.1706 8.73514 18.1517 10.0589C18.1517 11.3922 17.2057 12.4778 15.9948 12.4778Z"
        fill="white" />
</svg>