<svg xmlns="http://www.w3.org/2000/svg" width="18" height="18" viewBox="0 0 18 18" fill="none">
    <path
        d="M9 0C4.03875 0 0 3.2985 0 7.35225C0 10.983 3.2025 14.025 7.52625 14.6033C7.8195 14.6655 8.2185 14.7983 8.31975 15.0488C8.40975 15.276 8.379 15.627 8.34825 15.864L8.22525 16.6335C8.1915 16.8608 8.04525 17.5283 9.012 17.1203C9.98025 16.7138 14.199 14.0423 16.089 11.856C17.382 10.431 18 8.97075 18 7.35225C18 3.2985 13.9613 0 9 0ZM5.47725 9.76275H3.68775C3.56241 9.76157 3.44258 9.7111 3.35415 9.62226C3.26573 9.53342 3.21584 9.41334 3.21525 9.288V5.68725C3.21525 5.427 3.429 5.21175 3.68775 5.21175C3.94875 5.21175 4.16025 5.427 4.16025 5.68725V8.8125H5.47725C5.59999 8.81738 5.71609 8.86957 5.80121 8.95814C5.88633 9.04671 5.93387 9.16478 5.93387 9.28763C5.93387 9.41047 5.88633 9.52854 5.80121 9.61711C5.71609 9.70568 5.59999 9.75787 5.47725 9.76275ZM7.32675 9.288C7.32655 9.41359 7.27668 9.53401 7.18801 9.62295C7.09935 9.7119 6.97909 9.76216 6.8535 9.76275C6.72837 9.76157 6.60877 9.71102 6.52071 9.62212C6.43264 9.53321 6.38324 9.41314 6.38325 9.288V5.68725C6.38325 5.427 6.59475 5.21175 6.85575 5.21175C7.11525 5.21175 7.32675 5.427 7.32675 5.68725V9.288ZM11.6325 9.288C11.6327 9.3879 11.6014 9.48532 11.543 9.56639C11.4847 9.64747 11.4022 9.70806 11.3074 9.73955C11.2126 9.77105 11.1103 9.77183 11.015 9.74179C10.9197 9.71175 10.8364 9.65242 10.7768 9.57225L8.9445 7.06875V9.28725C8.9446 9.3495 8.93244 9.41115 8.90871 9.4687C8.88498 9.52625 8.85014 9.57856 8.8062 9.62264C8.76225 9.66672 8.71006 9.70172 8.65259 9.72563C8.59511 9.74954 8.5335 9.7619 8.47125 9.762C8.34619 9.76081 8.22667 9.71025 8.13872 9.62132C8.05078 9.5324 8.00155 9.41232 8.00175 9.28725V5.68725C8.00135 5.56245 8.05034 5.44256 8.13802 5.35376C8.2257 5.26495 8.34496 5.21444 8.46975 5.21325C8.616 5.21325 8.751 5.292 8.841 5.40525L10.6875 7.9185V5.68725C10.6875 5.427 10.899 5.21175 11.16 5.21175C11.4187 5.21175 11.6325 5.427 11.6325 5.68725V9.288ZM14.5238 7.01175C14.65 7.01175 14.771 7.06189 14.8602 7.15113C14.9495 7.24038 14.9996 7.36142 14.9996 7.48763C14.9996 7.61384 14.9495 7.73488 14.8602 7.82412C14.771 7.91336 14.65 7.9635 14.5238 7.9635H13.2075V8.8125H14.5238C14.6498 8.8125 14.7706 8.86256 14.8597 8.95166C14.9488 9.04076 14.9989 9.16161 14.9989 9.28763C14.9989 9.41364 14.9488 9.53449 14.8597 9.62359C14.7706 9.71269 14.6498 9.76275 14.5238 9.76275H12.7343C12.6091 9.76157 12.4895 9.71102 12.4015 9.62212C12.3134 9.53321 12.264 9.41314 12.264 9.288V5.68725C12.264 5.427 12.4755 5.21175 12.7365 5.21175H14.526C14.7855 5.21175 14.9963 5.427 14.9963 5.68725C14.9966 5.74955 14.9847 5.81132 14.9611 5.86899C14.9376 5.92666 14.9028 5.97911 14.8589 6.0233C14.815 6.06749 14.7628 6.10257 14.7053 6.1265C14.6477 6.15043 14.5861 6.16275 14.5238 6.16275H13.2075V7.01175H14.5238Z"
        fill="white" />
</svg>