<svg width="956" height="247" viewBox="0 0 956 247" fill="none" xmlns="http://www.w3.org/2000/svg">
<g clip-path="url(#clip0_40846_7683)">
<path d="M355.294 22.1885L357.643 23.5462L339.046 50.8621L336.697 49.5044L355.294 22.1885Z" fill="white"/>
<path d="M337.828 22.9979L340.317 21.6901L356.389 49.9315L353.901 51.2393L337.828 22.9979Z" fill="white"/>
<path d="M329.876 34.6635L364.466 35.6977L364.271 38.3314L329.682 37.2972L329.876 34.6635Z" fill="white"/>
<path d="M346.653 20.6816L349.458 20.6846L348.076 54.0117L345.271 54.0087L346.653 20.6816Z" fill="white"/>
<path d="M329.534 43.4417L361.499 27.7957L362.723 30.1213L330.756 45.7665L329.534 43.4417Z" fill="white"/>
<path d="M332.658 26.5677L363.202 44.222L361.666 46.479L331.122 28.8247L332.658 26.5677Z" fill="white"/>
<path d="M349.752 23.0761C349.138 23.9789 347.777 24.2939 346.837 23.7508C345.898 23.2077 345.613 21.9416 346.228 21.0388C346.842 20.136 348.203 19.821 349.143 20.3641C350.083 20.9072 350.367 22.1733 349.752 23.0761ZM363.598 46.0206C362.983 46.9234 361.622 47.2384 360.682 46.6953C359.743 46.1522 359.458 44.886 360.073 43.9832C360.687 43.0804 362.048 42.7654 362.988 43.3085C363.929 43.8524 364.212 45.1178 363.598 46.0206ZM334.228 29.0451C333.614 29.9479 332.253 30.2629 331.313 29.7198C330.373 29.1767 330.089 27.9106 330.703 27.0078C331.318 26.105 332.679 25.79 333.619 26.3331C334.558 26.8762 334.843 28.1423 334.228 29.0451ZM348.48 53.799C347.865 54.7018 346.504 55.0168 345.565 54.4737C344.625 53.9306 344.341 52.6644 344.955 51.7616C345.57 50.8588 346.931 50.5438 347.87 51.0869C348.81 51.63 349.095 52.8962 348.48 53.799ZM362.675 30.5452C362.06 31.448 360.699 31.763 359.759 31.2199C358.82 30.6768 358.535 29.4106 359.15 28.5078C359.765 27.605 361.126 27.29 362.065 27.8331C363.005 28.3762 363.289 29.6424 362.675 30.5452ZM333.207 44.9714C332.593 45.8742 331.232 46.1892 330.292 45.6461C329.353 45.103 329.068 43.8369 329.683 42.9341C330.297 42.0313 331.658 41.7163 332.598 42.2594C333.539 42.8032 333.822 44.0686 333.207 44.9714Z" fill="white"/>
<path d="M318.52 34.2948L331.406 34.6499L331.218 37.2821L318.332 36.927L318.52 34.2948Z" fill="white"/>
<path d="M363.821 35.6773L376.007 36.0193L375.816 38.652L363.63 38.31L363.821 35.6773Z" fill="white"/>
<path d="M369.468 45.3216L361.055 36.9992L370.289 28.9668L372.06 30.9342L365.145 37.0033L371.515 43.5159L369.468 45.3216ZM324.002 44.0523L322.231 42.0849L329.146 36.0158L322.777 29.5019L324.825 27.697L333.238 36.0194L324.002 44.0523ZM361.34 13.2541L363.689 14.6118L356.773 24.7708L354.424 23.4131L361.34 13.2541Z" fill="white"/>
<path d="M354.605 25.5618L351.891 14.3981L354.611 13.7686L356.757 22.4007L366.125 20.4237L366.694 22.954L354.605 25.5618ZM337.523 48.2484L339.872 49.6061L332.955 59.7651L330.606 58.4074L337.523 48.2484Z" fill="white"/>
<path d="M339.682 59.2611L337.537 50.629L328.168 52.606L327.6 50.0757L339.689 47.4679L342.402 58.6316L339.682 59.2611ZM359.209 60.6374L358.535 59.4612C356.873 56.6135 355.328 53.8333 353.742 50.8714L353.069 49.6951L355.55 48.4549L356.223 49.6312C357.885 52.4789 359.43 55.2591 361.016 58.221L361.69 59.3972L359.209 60.6374Z" fill="white"/>
<path d="M349.85 58.994L353.68 47.8382L365.474 51.1952L364.601 53.6798L355.465 51.2298L352.545 59.6079L349.85 58.994Z" fill="white"/>
<path d="M332.588 13.706L335.077 12.3982L341.126 23.032L338.638 24.3398L332.588 13.706Z" fill="white"/>
<path d="M328.836 21.845L329.71 19.3612L338.846 21.8112L341.767 13.4318L344.461 14.045L340.631 25.2008L328.836 21.845Z" fill="white"/>
</g>
<g clip-path="url(#clip1_40846_7683)">
<path d="M456.34 69.7111L457.372 70.3077L449.201 82.3103L448.168 81.7137L456.34 69.7111Z" fill="white"/>
<path d="M448.7 70.0685L449.793 69.4938L456.855 81.9032L455.762 82.4778L448.7 70.0685Z" fill="white"/>
<path d="M445.207 75.2037L460.406 75.6581L460.321 76.8154L445.122 76.3609L445.207 75.2037Z" fill="white"/>
<path d="M452.56 69.0655L453.792 69.0668L453.185 83.7108L451.953 83.7095L452.56 69.0655Z" fill="white"/>
<path d="M445.04 79.0487L459.086 72.1738L459.624 73.1957L445.577 80.0702L445.04 79.0487Z" fill="white"/>
<path d="M446.412 71.6299L459.833 79.3872L459.158 80.3789L445.737 72.6216L446.412 71.6299Z" fill="white"/>
<path d="M453.933 70.1101C453.663 70.5068 453.065 70.6452 452.652 70.4066C452.239 70.1679 452.114 69.6116 452.384 69.2149C452.655 68.8182 453.253 68.6798 453.665 68.9184C454.078 69.1571 454.203 69.7134 453.933 70.1101ZM460.017 80.192C459.747 80.5887 459.149 80.7271 458.736 80.4884C458.323 80.2498 458.198 79.6934 458.468 79.2967C458.738 78.9 459.336 78.7616 459.749 79.0003C460.162 79.2392 460.287 79.7953 460.017 80.192ZM447.112 72.7329C446.842 73.1296 446.244 73.268 445.831 73.0294C445.418 72.7907 445.293 72.2344 445.563 71.8377C445.833 71.441 446.431 71.3026 446.844 71.5412C447.257 71.7799 447.382 72.3362 447.112 72.7329ZM453.374 83.6098C453.104 84.0065 452.506 84.1449 452.093 83.9063C451.68 83.6676 451.555 83.1113 451.825 82.7146C452.095 82.3179 452.694 82.1795 453.106 82.4181C453.519 82.6567 453.644 83.2131 453.374 83.6098ZM459.611 73.392C459.341 73.7887 458.743 73.9271 458.33 73.6885C457.918 73.4499 457.792 72.8935 458.063 72.4968C458.333 72.1001 458.931 71.9617 459.344 72.2003C459.756 72.439 459.881 72.9953 459.611 73.392ZM446.663 79.7309C446.393 80.1276 445.795 80.266 445.382 80.0274C444.97 79.7888 444.845 79.2324 445.115 78.8357C445.385 78.439 445.983 78.3006 446.396 78.5393C446.809 78.7782 446.934 79.3343 446.663 79.7309Z" fill="white"/>
<path d="M440.207 75.034L445.869 75.1901L445.786 76.3467L440.124 76.1906L440.207 75.034Z" fill="white"/>
<path d="M460.125 75.6271L465.479 75.7774L465.396 76.9342L460.041 76.7839L460.125 75.6271Z" fill="white"/>
<path d="M462.596 79.8673L458.899 76.2104L462.956 72.681L463.735 73.5454L460.696 76.2122L463.495 79.0738L462.596 79.8673ZM442.618 79.3095L441.84 78.445L444.878 75.7782L442.08 72.9161L442.98 72.123L446.676 75.7799L442.618 79.3095ZM459.024 65.7767L460.057 66.3733L457.018 70.8372L455.985 70.2406L459.024 65.7767Z" fill="white"/>
<path d="M456.053 71.1841L454.86 66.2787L456.056 66.0021L456.998 69.7951L461.115 68.9264L461.365 70.0383L456.053 71.1841ZM448.547 81.1526L449.579 81.7492L446.54 86.2131L445.508 85.6165L448.547 81.1526Z" fill="white"/>
<path d="M449.523 85.9989L448.581 82.2059L444.464 83.0746L444.214 81.9628L449.526 80.817L450.719 85.7223L449.523 85.9989ZM458.103 86.6037L457.807 86.0868C457.077 84.8356 456.398 83.6139 455.701 82.3124L455.406 81.7956L456.496 81.2507L456.792 81.7675C457.522 83.0188 458.201 84.2404 458.898 85.5419L459.193 86.0587L458.103 86.6037Z" fill="white"/>
<path d="M453.961 85.8874L455.644 80.9855L460.826 82.4606L460.443 83.5524L456.429 82.4758L455.145 86.1572L453.961 85.8874Z" fill="white"/>
<path d="M446.402 65.9881L447.495 65.4134L450.153 70.086L449.06 70.6606L446.402 65.9881Z" fill="white"/>
<path d="M444.734 69.561L445.117 68.4696L449.132 69.5461L450.415 65.8642L451.599 66.1336L449.916 71.0355L444.734 69.561Z" fill="white"/>
</g>
<g clip-path="url(#clip2_40846_7683)">
<path d="M261.183 153.613L262.215 154.21L254.043 166.213L253.011 165.616L261.183 153.613Z" fill="white"/>
<path d="M253.542 153.971L254.636 153.396L261.698 165.805L260.605 166.38L253.542 153.971Z" fill="white"/>
<path d="M250.05 159.106L265.249 159.56L265.163 160.718L249.965 160.263L250.05 159.106Z" fill="white"/>
<path d="M257.403 152.968L258.635 152.969L258.028 167.613L256.796 167.612L257.403 152.968Z" fill="white"/>
<path d="M249.882 162.951L263.928 156.076L264.465 157.098L250.419 163.973L249.882 162.951Z" fill="white"/>
<path d="M251.255 155.532L264.676 163.29L264.001 164.281L250.58 156.524L251.255 155.532Z" fill="white"/>
<path d="M258.776 154.012C258.506 154.409 257.908 154.548 257.495 154.309C257.082 154.07 256.957 153.514 257.227 153.117C257.497 152.721 258.095 152.582 258.508 152.821C258.921 153.059 259.046 153.616 258.776 154.012ZM264.86 164.094C264.59 164.491 263.992 164.629 263.579 164.391C263.166 164.152 263.041 163.596 263.311 163.199C263.581 162.802 264.179 162.664 264.592 162.903C265.005 163.142 265.13 163.698 264.86 164.094ZM251.955 156.635C251.685 157.032 251.087 157.17 250.674 156.932C250.261 156.693 250.136 156.137 250.406 155.74C250.676 155.343 251.274 155.205 251.687 155.444C252.1 155.682 252.225 156.239 251.955 156.635ZM258.217 167.512C257.947 167.909 257.349 168.047 256.936 167.809C256.523 167.57 256.398 167.014 256.668 166.617C256.938 166.22 257.536 166.082 257.949 166.32C258.362 166.559 258.487 167.115 258.217 167.512ZM264.454 157.294C264.184 157.691 263.586 157.829 263.173 157.591C262.76 157.352 262.635 156.796 262.905 156.399C263.175 156.002 263.773 155.864 264.186 156.103C264.599 156.341 264.724 156.898 264.454 157.294ZM251.506 163.633C251.236 164.03 250.638 164.168 250.225 163.93C249.812 163.691 249.687 163.135 249.957 162.738C250.227 162.341 250.825 162.203 251.238 162.442C251.652 162.681 251.776 163.237 251.506 163.633Z" fill="white"/>
<path d="M245.05 158.936L250.712 159.092L250.629 160.249L244.967 160.093L245.05 158.936Z" fill="white"/>
<path d="M264.968 159.529L270.322 159.68L270.238 160.837L264.884 160.686L264.968 159.529Z" fill="white"/>
<path d="M267.439 163.77L263.742 160.113L267.799 156.583L268.577 157.448L265.539 160.115L268.338 162.976L267.439 163.77ZM247.461 163.212L246.683 162.347L249.721 159.681L246.922 156.818L247.822 156.025L251.519 159.682L247.461 163.212ZM263.867 149.679L264.899 150.276L261.86 154.74L260.828 154.143L263.867 149.679Z" fill="white"/>
<path d="M260.895 155.086L259.702 150.181L260.897 149.904L261.84 153.697L265.957 152.829L266.207 153.941L260.895 155.086ZM253.389 165.055L254.421 165.652L251.382 170.115L250.35 169.519L253.389 165.055Z" fill="white"/>
<path d="M254.366 169.901L253.423 166.108L249.307 166.977L249.057 165.865L254.369 164.719L255.561 169.625L254.366 169.901ZM262.946 170.506L262.65 169.989C261.92 168.738 261.241 167.516 260.544 166.215L260.248 165.698L261.339 165.153L261.634 165.67C262.365 166.921 263.044 168.143 263.74 169.444L264.036 169.961L262.946 170.506Z" fill="white"/>
<path d="M258.804 169.79L260.487 164.888L265.669 166.363L265.286 167.455L261.271 166.378L259.988 170.06L258.804 169.79Z" fill="white"/>
<path d="M251.243 149.89L252.337 149.316L254.995 153.988L253.902 154.563L251.243 149.89Z" fill="white"/>
<path d="M249.576 153.463L249.96 152.372L253.974 153.448L255.258 149.767L256.442 150.036L254.759 154.938L249.576 153.463Z" fill="white"/>
</g>
<g clip-path="url(#clip3_40846_7683)">
<path d="M422.19 194.118L423.223 194.715L415.051 206.718L414.019 206.121L422.19 194.118Z" fill="white"/>
<path d="M414.54 194.476L415.634 193.901L422.696 206.31L421.603 206.885L414.54 194.476Z" fill="white"/>
<path d="M411.048 199.611L426.247 200.065L426.161 201.223L410.963 200.768L411.048 199.611Z" fill="white"/>
<path d="M418.401 193.473L419.633 193.474L419.026 208.118L417.794 208.117L418.401 193.473Z" fill="white"/>
<path d="M410.881 203.456L424.927 196.581L425.464 197.603L411.418 204.477L410.881 203.456Z" fill="white"/>
<path d="M412.253 196.037L425.674 203.794L424.999 204.786L411.578 197.029L412.253 196.037Z" fill="white"/>
<path d="M419.774 194.517C419.504 194.914 418.906 195.052 418.493 194.814C418.08 194.575 417.955 194.019 418.225 193.622C418.495 193.225 419.093 193.087 419.506 193.326C419.919 193.564 420.044 194.121 419.774 194.517ZM425.858 204.599C425.588 204.996 424.99 205.134 424.577 204.896C424.164 204.657 424.039 204.101 424.309 203.704C424.579 203.307 425.177 203.169 425.59 203.408C426.003 203.647 426.128 204.203 425.858 204.599ZM412.953 197.14C412.683 197.537 412.085 197.675 411.672 197.437C411.259 197.198 411.134 196.642 411.404 196.245C411.674 195.848 412.272 195.71 412.685 195.948C413.098 196.187 413.223 196.743 412.953 197.14ZM419.215 208.017C418.945 208.414 418.347 208.552 417.934 208.314C417.521 208.075 417.396 207.519 417.666 207.122C417.936 206.725 418.534 206.587 418.947 206.825C419.36 207.064 419.485 207.62 419.215 208.017ZM425.452 197.799C425.182 198.196 424.584 198.334 424.171 198.096C423.758 197.857 423.633 197.301 423.903 196.904C424.173 196.507 424.771 196.369 425.184 196.608C425.597 196.846 425.722 197.403 425.452 197.799ZM412.504 204.138C412.234 204.535 411.636 204.673 411.223 204.435C410.81 204.196 410.685 203.64 410.955 203.243C411.226 202.846 411.824 202.708 412.236 202.947C412.65 203.185 412.774 203.742 412.504 204.138Z" fill="white"/>
<path d="M406.048 199.441L411.71 199.597L411.627 200.754L405.965 200.598L406.048 199.441Z" fill="white"/>
<path d="M425.966 200.034L431.32 200.185L431.237 201.342L425.882 201.191L425.966 200.034Z" fill="white"/>
<path d="M428.437 204.275L424.74 200.618L428.797 197.088L429.575 197.953L426.537 200.619L429.336 203.481L428.437 204.275ZM408.459 203.717L407.681 202.852L410.719 200.185L407.92 197.323L408.82 196.53L412.517 200.187L408.459 203.717ZM424.865 190.184L425.897 190.781L422.858 195.244L421.826 194.648L424.865 190.184Z" fill="white"/>
<path d="M421.894 195.591L420.701 190.686L421.896 190.409L422.839 194.202L426.956 193.334L427.206 194.446L421.894 195.591ZM414.388 205.56L415.42 206.157L412.381 210.62L411.349 210.024L414.388 205.56Z" fill="white"/>
<path d="M415.364 210.406L414.421 206.613L410.305 207.482L410.055 206.37L415.367 205.224L416.559 210.129L415.364 210.406ZM423.944 211.011L423.648 210.494C422.918 209.243 422.239 208.021 421.542 206.72L421.246 206.203L422.337 205.658L422.632 206.175C423.363 207.426 424.042 208.648 424.738 209.949L425.034 210.466L423.944 211.011Z" fill="white"/>
<path d="M419.802 210.295L421.485 205.393L426.667 206.868L426.284 207.96L422.269 206.883L420.986 210.564L419.802 210.295Z" fill="white"/>
<path d="M412.242 190.395L413.335 189.821L415.993 194.493L414.9 195.068L412.242 190.395Z" fill="white"/>
<path d="M410.574 193.968L410.958 192.877L414.973 193.953L416.256 190.272L417.44 190.541L415.757 195.443L410.574 193.968Z" fill="white"/>
</g>
<g clip-path="url(#clip4_40846_7683)">
<path d="M192.592 47.1888L193.617 47.7815L185.498 59.7076L184.472 59.1148L192.592 47.1888Z" fill="white"/>
<path d="M185.001 47.5406L186.088 46.9696L193.105 59.2998L192.018 59.8708L185.001 47.5406Z" fill="white"/>
<path d="M181.52 52.6432L196.621 53.0947L196.536 54.2446L181.434 53.7931L181.52 52.6432Z" fill="white"/>
<path d="M188.836 46.5514L190.061 46.5528L189.458 61.1033L188.233 61.102L188.836 46.5514Z" fill="white"/>
<path d="M181.384 56.4693L195.34 49.6383L195.874 50.6536L181.917 57.4843L181.384 56.4693Z" fill="white"/>
<path d="M182.743 49.096L196.079 56.8038L195.408 57.7892L182.072 50.0814L182.743 49.096Z" fill="white"/>
<path d="M190.2 47.564C189.931 47.9581 189.337 48.0957 188.927 47.8586C188.516 47.6214 188.392 47.0686 188.661 46.6745C188.929 46.2803 189.523 46.1428 189.933 46.3799C190.344 46.617 190.468 47.1698 190.2 47.564ZM196.244 57.5815C195.976 57.9756 195.382 58.1132 194.971 57.8761C194.561 57.6389 194.437 57.0861 194.705 56.692C194.974 56.2978 195.568 56.1603 195.978 56.3974C196.389 56.6349 196.513 57.1873 196.244 57.5815ZM183.422 50.17C183.153 50.5642 182.559 50.7017 182.149 50.4646C181.739 50.2275 181.614 49.6747 181.883 49.2805C182.151 48.8864 182.745 48.7489 183.156 48.986C183.566 49.2231 183.69 49.7759 183.422 50.17ZM189.644 60.9775C189.376 61.3717 188.781 61.5092 188.371 61.2721C187.961 61.035 187.837 60.4822 188.105 60.088C188.373 59.6939 188.968 59.5563 189.378 59.7934C189.788 60.0306 189.912 60.5834 189.644 60.9775ZM195.841 50.825C195.573 51.2191 194.979 51.3566 194.569 51.1195C194.158 50.8824 194.034 50.3296 194.302 49.9354C194.571 49.5413 195.165 49.4038 195.575 49.6409C195.985 49.878 196.11 50.4308 195.841 50.825ZM182.976 57.1234C182.708 57.5176 182.113 57.6551 181.703 57.418C181.293 57.1809 181.169 56.6281 181.437 56.2339C181.705 55.8398 182.3 55.7022 182.71 55.9394C183.121 56.1768 183.244 56.7293 182.976 57.1234Z" fill="white"/>
<path d="M176.57 52.4743L182.196 52.6293L182.114 53.7786L176.488 53.6235L176.57 52.4743Z" fill="white"/>
<path d="M196.364 53.0682L201.684 53.2175L201.601 54.3669L196.28 54.2176L196.364 53.0682Z" fill="white"/>
<path d="M198.804 57.2808L195.131 53.6473L199.162 50.1404L199.935 50.9993L196.916 53.6491L199.697 56.4925L198.804 57.2808ZM178.953 56.7266L178.18 55.8677L181.199 53.2179L178.418 50.374L179.313 49.586L182.986 53.2195L178.953 56.7266ZM195.255 43.2802L196.281 43.873L193.261 48.3084L192.236 47.7156L195.255 43.2802Z" fill="white"/>
<path d="M192.313 48.6491L191.128 43.7751L192.316 43.5002L193.252 47.269L197.343 46.4059L197.591 47.5106L192.313 48.6491ZM184.855 58.5541L185.88 59.1469L182.861 63.5822L181.835 62.9895L184.855 58.5541Z" fill="white"/>
<path d="M185.811 63.3803L184.874 59.6116L180.784 60.4747L180.535 59.37L185.814 58.2314L186.998 63.1055L185.811 63.3803ZM194.336 63.9812L194.042 63.4677C193.316 62.2244 192.642 61.0106 191.949 59.7174L191.655 59.2038L192.739 58.6624L193.033 59.1759C193.758 60.4192 194.433 61.633 195.125 62.9262L195.419 63.4398L194.336 63.9812Z" fill="white"/>
<path d="M190.228 63.2691L191.9 58.3985L197.049 59.8641L196.668 60.9489L192.679 59.8792L191.404 63.5371L190.228 63.2691Z" fill="white"/>
<path d="M182.701 43.4834L183.788 42.9124L186.429 47.5551L185.343 48.1261L182.701 43.4834Z" fill="white"/>
<path d="M181.061 47.0271L181.442 45.9426L185.431 47.0123L186.706 43.3539L187.882 43.6216L186.21 48.4922L181.061 47.0271Z" fill="white"/>
</g>
<g clip-path="url(#clip5_40846_7683)">
<path d="M60.0957 148.1L61.6387 148.991L49.4233 166.934L47.8803 166.042L60.0957 148.1Z" fill="white"/>
<path d="M48.6255 148.666L50.2602 147.807L60.8174 166.357L59.1827 167.216L48.6255 148.666Z" fill="white"/>
<path d="M43.4004 156.331L66.1207 157.01L65.9928 158.74L43.2724 158.061L43.4004 156.331Z" fill="white"/>
<path d="M54.3977 147.129L56.2401 147.131L55.3328 169.021L53.4903 169.019L54.3977 147.129Z" fill="white"/>
<path d="M43.1691 162.068L64.1656 151.791L64.9695 153.319L43.972 163.595L43.1691 162.068Z" fill="white"/>
<path d="M45.2305 150.989L65.2932 162.586L64.2839 164.068L44.2212 152.472L45.2305 150.989Z" fill="white"/>
<path d="M56.4572 148.702C56.0535 149.295 55.1595 149.502 54.5423 149.145C53.9251 148.789 53.7382 147.957 54.1419 147.364C54.5456 146.771 55.4396 146.564 56.0568 146.921C56.674 147.277 56.8609 148.109 56.4572 148.702ZM65.5514 163.773C65.1477 164.366 64.2536 164.573 63.6365 164.216C63.0193 163.86 62.8323 163.028 63.2361 162.435C63.6398 161.842 64.5338 161.635 65.151 161.992C65.769 162.349 65.9551 163.18 65.5514 163.773ZM46.2601 152.623C45.8564 153.216 44.9624 153.423 44.3452 153.066C43.728 152.709 43.5411 151.878 43.9448 151.285C44.3485 150.692 45.2425 150.485 45.8597 150.841C46.4769 151.198 46.6638 152.03 46.2601 152.623ZM55.6214 168.882C55.2177 169.475 54.3237 169.682 53.7065 169.326C53.0893 168.969 52.9024 168.137 53.3061 167.544C53.7098 166.951 54.6038 166.744 55.221 167.101C55.8382 167.458 56.0251 168.289 55.6214 168.882ZM64.9452 153.608C64.5415 154.201 63.6475 154.408 63.0303 154.051C62.4131 153.695 62.2262 152.863 62.6299 152.27C63.0336 151.677 63.9276 151.47 64.5448 151.827C65.162 152.183 65.3489 153.015 64.9452 153.608ZM45.5896 163.084C45.1858 163.677 44.2918 163.884 43.6747 163.527C43.0575 163.17 42.8705 162.339 43.2743 161.746C43.678 161.153 44.572 160.946 45.1892 161.303C45.8072 161.66 45.9933 162.491 45.5896 163.084Z" fill="white"/>
<path d="M35.9376 156.067L44.4021 156.3L44.2784 158.029L35.8139 157.796L35.9376 156.067Z" fill="white"/>
<path d="M65.7127 156.969L73.717 157.193L73.592 158.923L65.5877 158.698L65.7127 156.969Z" fill="white"/>
<path d="M69.4174 163.328L63.8912 157.862L69.9564 152.586L71.1199 153.878L66.5776 157.865L70.7619 162.142L69.4174 163.328ZM39.553 162.495L38.3896 161.202L42.9319 157.216L38.7482 152.937L40.0935 151.752L45.6197 157.218L39.553 162.495ZM64.0787 142.265L65.6216 143.157L61.0786 149.83L59.5357 148.938L64.0787 142.265Z" fill="white"/>
<path d="M59.6325 150.332L57.8501 143L59.6367 142.586L61.0461 148.256L67.1998 146.958L67.5734 148.62L59.6325 150.332ZM48.4122 165.234L49.9552 166.126L45.4122 172.799L43.8692 171.907L48.4122 165.234Z" fill="white"/>
<path d="M49.8649 172.476L48.4555 166.806L42.3018 168.105L41.9283 166.443L49.8691 164.73L51.6515 172.063L49.8649 172.476ZM62.6907 173.38L62.2486 172.607C61.1569 170.737 60.1419 168.911 59.1001 166.965L58.658 166.193L60.2877 165.378L60.7298 166.151C61.8215 168.021 62.8364 169.847 63.8782 171.793L64.3204 172.565L62.6907 173.38Z" fill="white"/>
<path d="M56.5393 172.305L59.0548 164.977L66.8015 167.182L66.2285 168.814L60.2275 167.205L58.3092 172.708L56.5393 172.305Z" fill="white"/>
<path d="M45.1812 142.551L46.8159 141.692L50.7896 148.677L49.1549 149.536L45.1812 142.551Z" fill="white"/>
<path d="M42.7117 147.887L43.2855 146.256L49.2865 147.865L51.2054 142.361L52.9745 142.764L50.4589 150.091L42.7117 147.887Z" fill="white"/>
</g>
<g clip-path="url(#clip6_40846_7683)">
<path d="M63.9805 47.1547L65.006 47.7474L56.8867 59.6735L55.8611 59.0807L63.9805 47.1547Z" fill="white"/>
<path d="M56.3908 47.5065L57.4773 46.9355L64.4945 59.2657L63.408 59.8367L56.3908 47.5065Z" fill="white"/>
<path d="M52.9092 52.6091L68.0111 53.0606L67.926 54.2105L52.8241 53.759L52.9092 52.6091Z" fill="white"/>
<path d="M60.2261 46.5173L61.4508 46.5187L60.8477 61.0692L59.623 61.0679L60.2261 46.5173Z" fill="white"/>
<path d="M52.7724 56.4352L66.7285 49.6042L67.2628 50.6195L53.3062 57.4502L52.7724 56.4352Z" fill="white"/>
<path d="M54.1338 49.062L67.4692 56.7698L66.7983 57.7552L53.4629 50.0473L54.1338 49.062Z" fill="white"/>
<path d="M61.5882 47.5299C61.3199 47.9241 60.7256 48.0616 60.3154 47.8245C59.9052 47.5874 59.7809 47.0346 60.0493 46.6404C60.3176 46.2463 60.9118 46.1088 61.3221 46.3459C61.7323 46.583 61.8565 47.1358 61.5882 47.5299ZM67.633 57.5474C67.3646 57.9416 66.7704 58.0791 66.3602 57.842C65.9499 57.6049 65.8257 57.0521 66.094 56.6579C66.3624 56.2638 66.9566 56.1263 67.3668 56.3634C67.7776 56.6008 67.9013 57.1533 67.633 57.5474ZM54.8103 50.136C54.542 50.5302 53.9478 50.6677 53.5375 50.4306C53.1273 50.1935 53.003 49.6407 53.2714 49.2465C53.5397 48.8523 54.134 48.7148 54.5442 48.9519C54.9544 49.189 55.0787 49.7418 54.8103 50.136ZM61.0326 60.9435C60.7643 61.3376 60.1701 61.4752 59.7598 61.238C59.3496 61.0009 59.2254 60.4481 59.4937 60.054C59.7621 59.6598 60.3563 59.5223 60.7665 59.7594C61.1767 59.9965 61.301 60.5493 61.0326 60.9435ZM67.23 50.7909C66.9617 51.1851 66.3675 51.3226 65.9572 51.0855C65.547 50.8484 65.4227 50.2956 65.6911 49.9014C65.9594 49.5072 66.5537 49.3697 66.9639 49.6068C67.3741 49.8439 67.4984 50.3968 67.23 50.7909ZM54.3647 57.0894C54.0963 57.4836 53.5021 57.6211 53.0918 57.384C52.6816 57.1469 52.5574 56.5941 52.8257 56.1999C53.0941 55.8057 53.6883 55.6682 54.0985 55.9053C54.5093 56.1428 54.633 56.6952 54.3647 57.0894Z" fill="white"/>
<path d="M47.9587 52.4402L53.5849 52.5953L53.5027 53.7445L47.8765 53.5895L47.9587 52.4402Z" fill="white"/>
<path d="M67.7532 53.0341L73.0735 53.1834L72.9904 54.3328L67.67 54.1835L67.7532 53.0341Z" fill="white"/>
<path d="M70.1935 57.2467L66.5203 53.6132L70.5518 50.1063L71.3251 50.9652L68.3059 53.615L71.0871 56.4584L70.1935 57.2467ZM50.3431 56.6925L49.5698 55.8336L52.589 53.1838L49.8081 50.3399L50.7023 49.5519L54.3755 53.1854L50.3431 56.6925ZM66.6449 43.2461L67.6705 43.8389L64.6508 48.2743L63.6253 47.6815L66.6449 43.2461Z" fill="white"/>
<path d="M63.7024 48.615L62.5177 43.741L63.7052 43.4661L64.642 47.2349L68.7323 46.3718L68.9806 47.4765L63.7024 48.615ZM56.2445 58.52L57.27 59.1128L54.2504 63.5481L53.2248 62.9554L56.2445 58.52Z" fill="white"/>
<path d="M57.1995 63.3462L56.2627 59.5775L52.1724 60.4406L51.9241 59.3359L57.2023 58.1973L58.387 63.0714L57.1995 63.3462ZM65.7246 63.9471L65.4307 63.4336C64.7051 62.1903 64.0304 60.9765 63.338 59.6833L63.0441 59.1697L64.1273 58.6283L64.4212 59.1418C65.1468 60.3851 65.8214 61.5989 66.5139 62.8921L66.8078 63.4056L65.7246 63.9471Z" fill="white"/>
<path d="M61.6173 63.235L63.2894 58.3643L68.4385 59.83L68.0577 60.9148L64.0689 59.8451L62.7938 63.503L61.6173 63.235Z" fill="white"/>
<path d="M54.09 43.4493L55.1765 42.8783L57.8178 47.521L56.7312 48.092L54.09 43.4493Z" fill="white"/>
<path d="M52.4492 46.9929L52.8306 45.9084L56.8194 46.9781L58.0949 43.3197L59.2708 43.5874L57.5987 48.458L52.4492 46.9929Z" fill="white"/>
</g>
<g clip-path="url(#clip7_40846_7683)">
<path d="M808.526 22.192L810.875 23.5497L792.278 50.8656L789.929 49.5079L808.526 22.192Z" fill="white"/>
<path d="M791.061 23.0014L793.549 21.6935L809.622 49.935L807.133 51.2428L791.061 23.0014Z" fill="white"/>
<path d="M783.109 34.667L817.699 35.7012L817.504 38.3349L782.914 37.3007L783.109 34.667Z" fill="white"/>
<path d="M799.885 20.6851L802.69 20.6881L801.309 54.0152L798.504 54.0122L799.885 20.6851Z" fill="white"/>
<path d="M782.766 43.4452L814.731 27.7992L815.955 30.1248L783.988 45.77L782.766 43.4452Z" fill="white"/>
<path d="M785.891 26.5712L816.435 44.2255L814.898 46.4825L784.354 28.8282L785.891 26.5712Z" fill="white"/>
<path d="M802.985 23.0796C802.37 23.9824 801.009 24.2974 800.07 23.7543C799.13 23.2112 798.845 21.9451 799.46 21.0423C800.075 20.1395 801.436 19.8245 802.375 20.3676C803.315 20.9107 803.6 22.1768 802.985 23.0796ZM816.83 46.0241C816.215 46.9269 814.854 47.2419 813.915 46.6988C812.975 46.1557 812.691 44.8895 813.305 43.9867C813.92 43.0839 815.281 42.7689 816.22 43.312C817.161 43.8559 817.445 45.1213 816.83 46.0241ZM787.461 29.0486C786.846 29.9514 785.485 30.2664 784.545 29.7233C783.606 29.1802 783.321 27.9141 783.936 27.0113C784.55 26.1085 785.911 25.7935 786.851 26.3366C787.791 26.8797 788.075 28.1458 787.461 29.0486ZM801.712 53.8025C801.098 54.7053 799.737 55.0202 798.797 54.4772C797.858 53.9341 797.573 52.6679 798.188 51.7651C798.802 50.8623 800.163 50.5473 801.103 51.0904C802.042 51.6335 802.327 52.8997 801.712 53.8025ZM815.907 30.5487C815.293 31.4515 813.931 31.7665 812.992 31.2234C812.052 30.6803 811.768 29.4141 812.382 28.5113C812.997 27.6085 814.358 27.2935 815.298 27.8366C816.237 28.3797 816.522 29.6459 815.907 30.5487ZM786.44 44.9749C785.825 45.8777 784.464 46.1927 783.525 45.6496C782.585 45.1065 782.3 43.8404 782.915 42.9376C783.53 42.0348 784.891 41.7198 785.83 42.2629C786.771 42.8067 787.054 44.0721 786.44 44.9749Z" fill="white"/>
<path d="M771.752 34.2983L784.639 34.6534L784.451 37.2856L771.564 36.9305L771.752 34.2983Z" fill="white"/>
<path d="M817.053 35.6808L829.239 36.0228L829.049 38.6555L816.863 38.3135L817.053 35.6808Z" fill="white"/>
<path d="M822.701 45.3251L814.287 37.0027L823.521 28.9703L825.292 30.9377L818.377 37.0068L824.747 43.5194L822.701 45.3251ZM777.234 44.0558L775.463 42.0884L782.378 36.0193L776.009 29.5054L778.057 27.7005L786.47 36.0229L777.234 44.0558ZM814.573 13.2576L816.922 14.6153L810.005 24.7743L807.656 23.4166L814.573 13.2576Z" fill="white"/>
<path d="M807.837 25.5652L805.124 14.4015L807.844 13.7721L809.989 22.4042L819.358 20.4272L819.926 22.9575L807.837 25.5652ZM790.755 48.2519L793.104 49.6096L786.188 59.7686L783.839 58.4109L790.755 48.2519Z" fill="white"/>
<path d="M792.915 59.2646L790.769 50.6325L781.401 52.6095L780.832 50.0792L792.921 47.4714L795.635 58.6351L792.915 59.2646ZM812.441 60.6409L811.768 59.4647C810.106 56.617 808.561 53.8368 806.975 50.8749L806.302 49.6986L808.783 48.4584L809.456 49.6347C811.118 52.4824 812.663 55.2626 814.249 58.2245L814.922 59.4007L812.441 60.6409Z" fill="white"/>
<path d="M803.083 58.9975L806.912 47.8417L818.706 51.1987L817.834 53.6833L808.698 51.2333L805.777 59.6114L803.083 58.9975Z" fill="white"/>
<path d="M785.82 13.7095L788.309 12.4016L794.359 23.0355L791.87 24.3433L785.82 13.7095Z" fill="white"/>
<path d="M782.069 21.8485L782.942 19.3647L792.078 21.8147L795 13.4353L797.693 14.0485L793.863 25.2043L782.069 21.8485Z" fill="white"/>
</g>
<g clip-path="url(#clip8_40846_7683)">
<path d="M909.573 69.7146L910.605 70.3112L902.434 82.3138L901.402 81.7172L909.573 69.7146Z" fill="white"/>
<path d="M901.933 70.072L903.026 69.4973L910.089 81.9067L908.995 82.4813L901.933 70.072Z" fill="white"/>
<path d="M898.441 75.2071L913.64 75.6616L913.554 76.8189L898.355 76.3644L898.441 75.2071Z" fill="white"/>
<path d="M905.793 69.069L907.026 69.0703L906.419 83.7143L905.186 83.713L905.793 69.069Z" fill="white"/>
<path d="M898.274 79.0521L912.319 72.1773L912.857 73.1991L898.811 80.0737L898.274 79.0521Z" fill="white"/>
<path d="M899.646 71.6333L913.066 79.3907L912.391 80.3824L898.97 72.6251L899.646 71.6333Z" fill="white"/>
<path d="M907.167 70.1136C906.897 70.5103 906.299 70.6487 905.886 70.41C905.473 70.1714 905.348 69.6151 905.618 69.2184C905.888 68.8217 906.486 68.6833 906.899 68.9219C907.312 69.1605 907.437 69.7169 907.167 70.1136ZM913.25 80.1954C912.98 80.5921 912.382 80.7305 911.969 80.4919C911.556 80.2533 911.431 79.6969 911.701 79.3002C911.972 78.9035 912.57 78.7651 912.982 79.0038C913.396 79.2427 913.52 79.7987 913.25 80.1954ZM900.345 72.7364C900.075 73.1331 899.477 73.2715 899.064 73.0328C898.652 72.7942 898.526 72.2378 898.797 71.8412C899.067 71.4445 899.665 71.3061 900.078 71.5447C900.49 71.7833 900.615 72.3397 900.345 72.7364ZM906.608 83.6133C906.338 84.01 905.74 84.1484 905.327 83.9097C904.914 83.6711 904.789 83.1147 905.059 82.7181C905.329 82.3214 905.927 82.183 906.34 82.4216C906.753 82.6602 906.878 83.2166 906.608 83.6133ZM912.845 73.3955C912.575 73.7922 911.977 73.9306 911.564 73.692C911.151 73.4533 911.026 72.897 911.296 72.5003C911.566 72.1036 912.164 71.9652 912.577 72.2038C912.99 72.4425 913.115 72.9988 912.845 73.3955ZM899.897 79.7344C899.627 80.1311 899.029 80.2695 898.616 80.0309C898.203 79.7922 898.078 79.2359 898.348 78.8392C898.618 78.4425 899.216 78.3041 899.629 78.5427C900.042 78.7817 900.167 79.3377 899.897 79.7344Z" fill="white"/>
<path d="M893.44 75.0375L899.102 75.1935L899.02 76.3501L893.357 76.1941L893.44 75.0375Z" fill="white"/>
<path d="M913.358 75.6306L918.713 75.7809L918.629 76.9377L913.275 76.7874L913.358 75.6306Z" fill="white"/>
<path d="M915.829 79.8708L912.132 76.2139L916.19 72.6844L916.968 73.5489L913.93 76.2157L916.729 79.0773L915.829 79.8708ZM895.851 79.313L895.073 78.4485L898.112 75.7817L895.313 72.9195L896.213 72.1264L899.91 75.7833L895.851 79.313ZM912.258 65.7802L913.29 66.3768L910.251 70.8407L909.219 70.2441L912.258 65.7802Z" fill="white"/>
<path d="M909.286 71.1876L908.094 66.2822L909.289 66.0056L910.232 69.7986L914.348 68.9299L914.598 70.0417L909.286 71.1876ZM901.78 81.1561L902.812 81.7527L899.773 86.2166L898.741 85.62L901.78 81.1561Z" fill="white"/>
<path d="M902.757 86.0024L901.814 82.2094L897.698 83.0781L897.448 81.9663L902.76 80.8204L903.952 85.7258L902.757 86.0024ZM911.337 86.6072L911.041 86.0903C910.311 84.839 909.632 83.6174 908.935 82.3159L908.639 81.7991L909.729 81.2541L910.025 81.771C910.755 83.0223 911.434 84.2439 912.131 85.5454L912.427 86.0622L911.337 86.6072Z" fill="white"/>
<path d="M907.195 85.8909L908.877 80.989L914.06 82.4641L913.676 83.5558L909.662 82.4793L908.379 86.1607L907.195 85.8909Z" fill="white"/>
<path d="M899.635 65.9916L900.729 65.4169L903.387 70.0894L902.293 70.6641L899.635 65.9916Z" fill="white"/>
<path d="M897.967 69.5645L898.351 68.4731L902.365 69.5496L903.649 65.8677L904.832 66.1371L903.149 71.039L897.967 69.5645Z" fill="white"/>
</g>
<g clip-path="url(#clip9_40846_7683)">
<path d="M714.415 153.617L715.447 154.214L707.276 166.216L706.244 165.62L714.415 153.617Z" fill="white"/>
<path d="M706.775 153.974L707.868 153.4L714.93 165.809L713.837 166.384L706.775 153.974Z" fill="white"/>
<path d="M703.283 159.109L718.481 159.564L718.396 160.721L703.197 160.267L703.283 159.109Z" fill="white"/>
<path d="M710.635 152.971L711.868 152.973L711.261 167.617L710.028 167.615L710.635 152.971Z" fill="white"/>
<path d="M703.114 162.955L717.16 156.08L717.698 157.102L703.652 163.976L703.114 162.955Z" fill="white"/>
<path d="M704.487 155.536L717.908 163.293L717.233 164.285L703.812 156.527L704.487 155.536Z" fill="white"/>
<path d="M712.009 154.016C711.738 154.413 711.14 154.551 710.728 154.312C710.315 154.074 710.19 153.517 710.46 153.121C710.73 152.724 711.328 152.586 711.741 152.824C712.154 153.063 712.279 153.619 712.009 154.016ZM718.092 164.098C717.822 164.494 717.224 164.633 716.811 164.394C716.398 164.156 716.273 163.599 716.543 163.203C716.813 162.806 717.411 162.667 717.824 162.906C718.238 163.145 718.362 163.701 718.092 164.098ZM705.187 156.639C704.917 157.035 704.319 157.174 703.906 156.935C703.493 156.697 703.368 156.14 703.638 155.743C703.908 155.347 704.506 155.208 704.919 155.447C705.332 155.686 705.457 156.242 705.187 156.639ZM711.449 167.516C711.179 167.912 710.581 168.051 710.168 167.812C709.756 167.573 709.631 167.017 709.901 166.62C710.171 166.224 710.769 166.085 711.182 166.324C711.594 166.563 711.719 167.119 711.449 167.516ZM717.687 157.298C717.417 157.695 716.818 157.833 716.406 157.594C715.993 157.356 715.868 156.799 716.138 156.403C716.408 156.006 717.006 155.868 717.419 156.106C717.832 156.345 717.957 156.901 717.687 157.298ZM704.739 163.637C704.469 164.033 703.871 164.172 703.458 163.933C703.045 163.695 702.92 163.138 703.19 162.742C703.46 162.345 704.058 162.206 704.471 162.445C704.884 162.684 705.009 163.24 704.739 163.637Z" fill="white"/>
<path d="M698.282 158.94L703.944 159.096L703.862 160.252L698.199 160.096L698.282 158.94Z" fill="white"/>
<path d="M718.2 159.533L723.555 159.683L723.471 160.84L718.116 160.69L718.2 159.533Z" fill="white"/>
<path d="M720.671 163.773L716.974 160.116L721.032 156.587L721.81 157.451L718.771 160.118L721.57 162.98L720.671 163.773ZM700.693 163.215L699.915 162.351L702.954 159.684L700.155 156.822L701.055 156.029L704.752 159.686L700.693 163.215ZM717.1 149.683L718.132 150.279L715.093 154.743L714.061 154.146L717.1 149.683Z" fill="white"/>
<path d="M714.127 155.09L712.935 150.185L714.13 149.908L715.073 153.701L719.189 152.832L719.439 153.944L714.127 155.09ZM706.621 165.058L707.653 165.655L704.614 170.119L703.582 169.522L706.621 165.058Z" fill="white"/>
<path d="M707.599 169.905L706.656 166.112L702.539 166.98L702.289 165.869L707.601 164.723L708.794 169.628L707.599 169.905ZM716.178 170.51L715.883 169.993C715.152 168.741 714.473 167.52 713.777 166.218L713.481 165.701L714.571 165.156L714.867 165.673C715.597 166.925 716.276 168.146 716.973 169.448L717.269 169.965L716.178 170.51Z" fill="white"/>
<path d="M712.036 169.793L713.719 164.891L718.901 166.366L718.518 167.458L714.504 166.382L713.22 170.063L712.036 169.793Z" fill="white"/>
<path d="M704.476 149.894L705.569 149.319L708.228 153.992L707.134 154.566L704.476 149.894Z" fill="white"/>
<path d="M702.809 153.467L703.193 152.375L707.207 153.452L708.491 149.77L709.674 150.039L707.991 154.941L702.809 153.467Z" fill="white"/>
</g>
<g clip-path="url(#clip10_40846_7683)">
<path d="M875.422 194.122L876.454 194.718L868.283 206.721L867.25 206.124L875.422 194.122Z" fill="white"/>
<path d="M867.772 194.479L868.865 193.905L875.928 206.314L874.834 206.889L867.772 194.479Z" fill="white"/>
<path d="M864.28 199.614L879.479 200.069L879.393 201.226L864.194 200.772L864.28 199.614Z" fill="white"/>
<path d="M871.632 193.476L872.865 193.478L872.258 208.122L871.025 208.12L871.632 193.476Z" fill="white"/>
<path d="M864.112 203.459L878.158 196.585L878.696 197.606L864.65 204.481L864.112 203.459Z" fill="white"/>
<path d="M865.484 196.041L878.905 203.798L878.23 204.79L864.809 197.032L865.484 196.041Z" fill="white"/>
<path d="M873.006 194.521C872.736 194.918 872.137 195.056 871.725 194.817C871.312 194.579 871.187 194.022 871.457 193.626C871.727 193.229 872.325 193.091 872.738 193.329C873.151 193.568 873.276 194.124 873.006 194.521ZM879.089 204.603C878.819 204.999 878.221 205.138 877.808 204.899C877.395 204.661 877.27 204.104 877.54 203.707C877.81 203.311 878.408 203.172 878.821 203.411C879.235 203.65 879.359 204.206 879.089 204.603ZM866.184 197.144C865.914 197.54 865.316 197.679 864.903 197.44C864.49 197.201 864.365 196.645 864.635 196.248C864.905 195.852 865.504 195.713 865.916 195.952C866.329 196.191 866.454 196.747 866.184 197.144ZM872.446 208.021C872.176 208.417 871.578 208.556 871.166 208.317C870.753 208.078 870.628 207.522 870.898 207.125C871.168 206.729 871.766 206.59 872.179 206.829C872.592 207.067 872.717 207.624 872.446 208.021ZM878.684 197.803C878.414 198.199 877.816 198.338 877.403 198.099C876.99 197.861 876.865 197.304 877.135 196.908C877.405 196.511 878.003 196.372 878.416 196.611C878.829 196.85 878.954 197.406 878.684 197.803ZM865.736 204.142C865.466 204.538 864.868 204.677 864.455 204.438C864.042 204.2 863.917 203.643 864.187 203.246C864.457 202.85 865.055 202.711 865.468 202.95C865.881 203.189 866.006 203.745 865.736 204.142Z" fill="white"/>
<path d="M859.279 199.445L864.941 199.601L864.859 200.757L859.196 200.601L859.279 199.445Z" fill="white"/>
<path d="M879.197 200.038L884.552 200.188L884.468 201.345L879.113 201.195L879.197 200.038Z" fill="white"/>
<path d="M881.668 204.278L877.971 200.621L882.029 197.092L882.807 197.956L879.768 200.623L882.567 203.485L881.668 204.278ZM861.69 203.72L860.912 202.856L863.951 200.189L861.152 197.327L862.052 196.534L865.749 200.191L861.69 203.72ZM878.097 190.187L879.129 190.784L876.09 195.248L875.058 194.651L878.097 190.187Z" fill="white"/>
<path d="M875.125 195.595L873.933 190.69L875.128 190.413L876.071 194.206L880.187 193.337L880.437 194.449L875.125 195.595ZM867.619 205.563L868.651 206.16L865.612 210.624L864.58 210.027L867.619 205.563Z" fill="white"/>
<path d="M868.596 210.41L867.653 206.617L863.536 207.485L863.287 206.373L868.599 205.228L869.791 210.133L868.596 210.41ZM877.176 211.014L876.88 210.497C876.149 209.246 875.471 208.025 874.774 206.723L874.478 206.206L875.568 205.661L875.864 206.178C876.594 207.429 877.273 208.651 877.97 209.953L878.266 210.469L877.176 211.014Z" fill="white"/>
<path d="M873.034 210.298L874.716 205.396L879.898 206.871L879.515 207.963L875.501 206.887L874.217 210.568L873.034 210.298Z" fill="white"/>
<path d="M865.473 190.399L866.566 189.824L869.225 194.497L868.131 195.071L865.473 190.399Z" fill="white"/>
<path d="M863.806 193.972L864.19 192.88L868.204 193.957L869.488 190.275L870.671 190.544L868.988 195.446L863.806 193.972Z" fill="white"/>
</g>
<g clip-path="url(#clip11_40846_7683)">
<path d="M645.824 47.1923L646.85 47.7851L638.73 59.7111L637.705 59.1184L645.824 47.1923Z" fill="white"/>
<path d="M638.234 47.5441L639.32 46.9731L646.337 59.3033L645.251 59.8743L638.234 47.5441Z" fill="white"/>
<path d="M634.752 52.6467L649.854 53.0983L649.769 54.2481L634.667 53.7966L634.752 52.6467Z" fill="white"/>
<path d="M642.069 46.555L643.294 46.5563L642.69 61.1068L641.466 61.1055L642.069 46.555Z" fill="white"/>
<path d="M634.615 56.4728L648.571 49.6418L649.106 50.6571L635.149 57.4878L634.615 56.4728Z" fill="white"/>
<path d="M635.976 49.0995L649.311 56.8074L648.64 57.7928L635.305 50.0849L635.976 49.0995Z" fill="white"/>
<path d="M643.436 47.5675C643.168 47.9616 642.573 48.0992 642.163 47.8621C641.753 47.6249 641.629 47.0721 641.897 46.678C642.165 46.2838 642.759 46.1463 643.17 46.3834C643.58 46.6205 643.704 47.1733 643.436 47.5675ZM649.481 57.585C649.212 57.9791 648.618 58.1167 648.208 57.8796C647.798 57.6424 647.673 57.0896 647.942 56.6955C648.21 56.3013 648.804 56.1638 649.214 56.4009C649.625 56.6383 649.749 57.1908 649.481 57.585ZM636.658 50.1735C636.39 50.5677 635.795 50.7052 635.385 50.4681C634.975 50.231 634.851 49.6782 635.119 49.284C635.387 48.8899 635.982 48.7524 636.392 48.9895C636.802 49.2266 636.926 49.7794 636.658 50.1735ZM642.88 60.981C642.612 61.3752 642.018 61.5127 641.607 61.2756C641.197 61.0385 641.073 60.4857 641.341 60.0915C641.61 59.6973 642.204 59.5598 642.614 59.7969C643.024 60.034 643.149 60.5869 642.88 60.981ZM649.078 50.8284C648.809 51.2226 648.215 51.3601 647.805 51.123C647.395 50.8859 647.27 50.3331 647.539 49.9389C647.807 49.5448 648.401 49.4073 648.812 49.6444C649.222 49.8815 649.346 50.4343 649.078 50.8284ZM636.212 57.1269C635.944 57.5211 635.35 57.6586 634.939 57.4215C634.529 57.1844 634.405 56.6316 634.673 56.2374C634.942 55.8433 635.536 55.7057 635.946 55.9429C636.357 56.1803 636.481 56.7328 636.212 57.1269Z" fill="white"/>
<path d="M629.802 52.4778L635.429 52.6328L635.346 53.782L629.72 53.627L629.802 52.4778Z" fill="white"/>
<path d="M649.596 53.0717L654.916 53.221L654.833 54.3705L649.513 54.2211L649.596 53.0717Z" fill="white"/>
<path d="M652.036 57.2844L648.363 53.6508L652.395 50.1439L653.168 51.0028L650.149 53.6526L652.93 56.496L652.036 57.2844ZM632.186 56.7302L631.413 55.8712L634.432 53.2214L631.651 50.3775L632.545 49.5895L636.218 53.223L632.186 56.7302ZM648.488 43.2837L649.513 43.8765L646.494 48.3119L645.468 47.7191L648.488 43.2837Z" fill="white"/>
<path d="M645.545 48.6526L644.36 43.7786L645.548 43.5038L646.485 47.2725L650.575 46.4094L650.823 47.5141L645.545 48.6526ZM638.087 58.5576L639.113 59.1504L636.093 63.5858L635.068 62.993L638.087 58.5576Z" fill="white"/>
<path d="M639.043 63.3839L638.106 59.6151L634.016 60.4782L633.768 59.3735L639.046 58.235L640.231 63.109L639.043 63.3839ZM647.568 63.9847L647.274 63.4712C646.549 62.2279 645.874 61.0141 645.182 59.7209L644.888 59.2074L645.971 58.6659L646.265 59.1794C646.991 60.4227 647.665 61.6366 648.358 62.9297L648.652 63.4433L647.568 63.9847Z" fill="white"/>
<path d="M643.46 63.2726L645.132 58.402L650.281 59.8677L649.9 60.9524L645.912 59.8828L644.637 63.5406L643.46 63.2726Z" fill="white"/>
<path d="M635.933 43.4869L637.019 42.9159L639.661 47.5586L638.574 48.1296L635.933 43.4869Z" fill="white"/>
<path d="M634.292 47.0305L634.673 45.9461L638.662 47.0158L639.938 43.3574L641.114 43.625L639.441 48.4957L634.292 47.0305Z" fill="white"/>
</g>
<g clip-path="url(#clip12_40846_7683)">
<path d="M513.329 148.103L514.872 148.995L502.657 166.937L501.114 166.046L513.329 148.103Z" fill="white"/>
<path d="M501.859 148.669L503.494 147.81L514.051 166.361L512.416 167.22L501.859 148.669Z" fill="white"/>
<path d="M496.634 156.334L519.354 157.014L519.226 158.744L496.506 158.064L496.634 156.334Z" fill="white"/>
<path d="M507.631 147.132L509.474 147.134L508.566 169.025L506.724 169.023L507.631 147.132Z" fill="white"/>
<path d="M496.402 162.072L517.399 151.795L518.203 153.322L497.205 163.599L496.402 162.072Z" fill="white"/>
<path d="M498.464 150.993L518.527 162.589L517.517 164.072L497.455 152.475L498.464 150.993Z" fill="white"/>
<path d="M509.691 148.706C509.287 149.299 508.393 149.505 507.776 149.149C507.158 148.792 506.972 147.96 507.375 147.367C507.779 146.774 508.673 146.567 509.29 146.924C509.907 147.281 510.094 148.113 509.691 148.706ZM518.785 163.777C518.381 164.37 517.487 164.577 516.87 164.22C516.253 163.863 516.066 163.031 516.469 162.438C516.873 161.845 517.767 161.638 518.384 161.995C519.002 162.352 519.188 163.184 518.785 163.777ZM499.493 152.626C499.09 153.219 498.196 153.426 497.579 153.069C496.961 152.713 496.774 151.881 497.178 151.288C497.582 150.695 498.476 150.488 499.093 150.845C499.71 151.202 499.897 152.033 499.493 152.626ZM508.855 168.886C508.451 169.479 507.557 169.686 506.94 169.329C506.323 168.972 506.136 168.141 506.539 167.548C506.943 166.955 507.837 166.748 508.454 167.104C509.072 167.461 509.259 168.293 508.855 168.886ZM518.179 153.612C517.775 154.205 516.881 154.412 516.264 154.055C515.646 153.698 515.46 152.866 515.863 152.273C516.267 151.68 517.161 151.473 517.778 151.83C518.395 152.187 518.582 153.019 518.179 153.612ZM498.823 163.088C498.419 163.681 497.525 163.887 496.908 163.531C496.291 163.174 496.104 162.342 496.508 161.749C496.911 161.156 497.805 160.949 498.423 161.306C499.041 161.663 499.227 162.495 498.823 163.088Z" fill="white"/>
<path d="M489.171 156.07L497.635 156.304L497.512 158.033L489.047 157.799L489.171 156.07Z" fill="white"/>
<path d="M518.946 156.972L526.95 157.197L526.825 158.926L518.821 158.701L518.946 156.972Z" fill="white"/>
<path d="M522.651 163.332L517.125 157.865L523.19 152.589L524.353 153.881L519.811 157.868L523.995 162.146L522.651 163.332ZM492.786 162.498L491.623 161.206L496.165 157.219L491.982 152.941L493.327 151.755L498.853 157.222L492.786 162.498ZM517.312 142.268L518.855 143.16L514.312 149.833L512.769 148.941L517.312 142.268Z" fill="white"/>
<path d="M512.866 150.336L511.084 143.003L512.87 142.59L514.28 148.26L520.433 146.961L520.807 148.623L512.866 150.336ZM501.646 165.238L503.189 166.129L498.646 172.802L497.103 171.911L501.646 165.238Z" fill="white"/>
<path d="M503.098 172.48L501.689 166.81L495.535 168.108L495.162 166.446L503.103 164.733L504.885 172.066L503.098 172.48ZM515.924 173.384L515.482 172.611C514.39 170.74 513.375 168.914 512.334 166.969L511.891 166.196L513.521 165.382L513.963 166.154C515.055 168.025 516.07 169.851 517.112 171.796L517.554 172.569L515.924 173.384Z" fill="white"/>
<path d="M509.773 172.308L512.288 164.98L520.035 167.185L519.462 168.817L513.461 167.208L511.543 172.711L509.773 172.308Z" fill="white"/>
<path d="M498.415 142.555L500.049 141.696L504.023 148.68L502.388 149.539L498.415 142.555Z" fill="white"/>
<path d="M495.945 147.891L496.519 146.259L502.52 147.868L504.439 142.364L506.208 142.767L503.692 150.095L495.945 147.891Z" fill="white"/>
</g>
<g clip-path="url(#clip13_40846_7683)">
<path d="M517.213 47.1582L518.238 47.751L510.119 59.6771L509.094 59.0843L517.213 47.1582Z" fill="white"/>
<path d="M509.622 47.5101L510.709 46.9391L517.726 59.2693L516.639 59.8402L509.622 47.5101Z" fill="white"/>
<path d="M506.142 52.6127L521.243 53.0642L521.158 54.2141L506.057 53.7626L506.142 52.6127Z" fill="white"/>
<path d="M513.458 46.5209L514.682 46.5222L514.079 61.0728L512.854 61.0715L513.458 46.5209Z" fill="white"/>
<path d="M506.005 56.4388L519.961 49.6078L520.495 50.6231L506.539 57.4538L506.005 56.4388Z" fill="white"/>
<path d="M507.366 49.0654L520.702 56.7733L520.031 57.7587L506.695 50.0508L507.366 49.0654Z" fill="white"/>
<path d="M514.821 47.5334C514.552 47.9276 513.958 48.0651 513.548 47.828C513.138 47.5909 513.013 47.0381 513.282 46.6439C513.55 46.2498 514.144 46.1122 514.554 46.3494C514.965 46.5865 515.089 47.1393 514.821 47.5334ZM520.865 57.5509C520.597 57.9451 520.003 58.0826 519.593 57.8455C519.182 57.6084 519.058 57.0556 519.326 56.6614C519.595 56.2673 520.189 56.1298 520.599 56.3669C521.01 56.6043 521.134 57.1568 520.865 57.5509ZM508.043 50.1395C507.774 50.5337 507.18 50.6712 506.77 50.4341C506.36 50.197 506.235 49.6442 506.504 49.25C506.772 48.8558 507.366 48.7183 507.777 48.9554C508.187 49.1925 508.311 49.7453 508.043 50.1395ZM514.265 60.947C513.997 61.3411 513.402 61.4787 512.992 61.2415C512.582 61.0044 512.458 60.4516 512.726 60.0575C512.994 59.6633 513.589 59.5258 513.999 59.7629C514.409 60 514.533 60.5528 514.265 60.947ZM520.462 50.7944C520.194 51.1886 519.6 51.3261 519.19 51.089C518.779 50.8519 518.655 50.2991 518.924 49.9049C519.192 49.5107 519.786 49.3732 520.196 49.6103C520.607 49.8474 520.731 50.4002 520.462 50.7944ZM507.597 57.0929C507.329 57.4871 506.734 57.6246 506.324 57.3875C505.914 57.1503 505.79 56.5975 506.058 56.2034C506.326 55.8092 506.921 55.6717 507.331 55.9088C507.742 56.1463 507.865 56.6987 507.597 57.0929Z" fill="white"/>
<path d="M501.191 52.4437L506.817 52.5988L506.735 53.748L501.109 53.5929L501.191 52.4437Z" fill="white"/>
<path d="M520.986 53.0377L526.306 53.187L526.223 54.3364L520.902 54.1871L520.986 53.0377Z" fill="white"/>
<path d="M523.425 57.2503L519.752 53.6167L523.783 50.1098L524.557 50.9688L521.537 53.6186L524.319 56.4619L523.425 57.2503ZM503.575 56.6961L502.801 55.8372L505.82 53.1874L503.04 50.3435L503.934 49.5554L507.607 53.189L503.575 56.6961ZM519.876 43.2497L520.902 43.8425L517.882 48.2779L516.857 47.6851L519.876 43.2497Z" fill="white"/>
<path d="M516.934 48.6186L515.749 43.7446L516.937 43.4697L517.873 47.2385L521.964 46.3754L522.212 47.4801L516.934 48.6186ZM509.476 58.5236L510.501 59.1164L507.482 63.5517L506.456 62.959L509.476 58.5236Z" fill="white"/>
<path d="M510.432 63.3498L509.495 59.581L505.405 60.4442L505.157 59.3395L510.435 58.2009L511.619 63.075L510.432 63.3498ZM518.957 63.9507L518.663 63.4372C517.937 62.1939 517.263 60.98 516.57 59.6869L516.277 59.1733L517.36 58.6318L517.654 59.1454C518.379 60.3887 519.054 61.6025 519.746 62.8957L520.04 63.4092L518.957 63.9507Z" fill="white"/>
<path d="M514.849 63.2386L516.521 58.3679L521.67 59.8336L521.289 60.9184L517.3 59.8487L516.025 63.5066L514.849 63.2386Z" fill="white"/>
<path d="M507.322 43.4529L508.409 42.8819L511.05 47.5246L509.964 48.0956L507.322 43.4529Z" fill="white"/>
<path d="M505.682 46.9965L506.063 45.9121L510.052 46.9817L511.327 43.3233L512.503 43.591L510.831 48.4616L505.682 46.9965Z" fill="white"/>
</g>
<defs>
<clipPath id="clip0_40846_7683">
<rect width="48.6961" height="53.3401" fill="white" transform="matrix(0.865785 0.500421 -0.562766 0.826613 340.931 1.67691)"/>
</clipPath>
<clipPath id="clip1_40846_7683">
<rect width="21.3971" height="23.4377" fill="white" transform="matrix(0.865783 0.500424 -0.562763 0.826615 450.038 60.8605)"/>
</clipPath>
<clipPath id="clip2_40846_7683">
<rect width="21.3971" height="23.4377" fill="white" transform="matrix(0.865782 0.500426 -0.562762 0.826616 254.881 144.751)"/>
</clipPath>
<clipPath id="clip3_40846_7683">
<rect width="21.3971" height="23.4377" fill="white" transform="matrix(0.865783 0.500424 -0.562763 0.826615 415.905 185.279)"/>
</clipPath>
<clipPath id="clip4_40846_7683">
<rect width="21.2606" height="23.2882" fill="white" transform="matrix(0.865785 0.500421 -0.562766 0.826613 186.316 38.396)"/>
</clipPath>
<clipPath id="clip5_40846_7683">
<rect width="31.986" height="35.0365" fill="white" transform="matrix(0.865785 0.500421 -0.562766 0.826613 50.6045 134.787)"/>
</clipPath>
<clipPath id="clip6_40846_7683">
<rect width="21.2606" height="23.2882" fill="white" transform="matrix(0.865785 0.500421 -0.562766 0.826613 57.7051 38.3965)"/>
</clipPath>
<clipPath id="clip7_40846_7683">
<rect width="48.6961" height="53.3401" fill="white" transform="matrix(0.865785 0.500421 -0.562766 0.826613 794.163 1.6804)"/>
</clipPath>
<clipPath id="clip8_40846_7683">
<rect width="21.3971" height="23.4377" fill="white" transform="matrix(0.865783 0.500424 -0.562763 0.826615 903.271 60.864)"/>
</clipPath>
<clipPath id="clip9_40846_7683">
<rect width="21.3971" height="23.4377" fill="white" transform="matrix(0.865782 0.500426 -0.562762 0.826616 708.113 144.755)"/>
</clipPath>
<clipPath id="clip10_40846_7683">
<rect width="21.3971" height="23.4377" fill="white" transform="matrix(0.865783 0.500424 -0.562763 0.826615 869.137 185.283)"/>
</clipPath>
<clipPath id="clip11_40846_7683">
<rect width="21.2606" height="23.2882" fill="white" transform="matrix(0.865785 0.500421 -0.562766 0.826613 639.549 38.3995)"/>
</clipPath>
<clipPath id="clip12_40846_7683">
<rect width="31.986" height="35.0365" fill="white" transform="matrix(0.865785 0.500421 -0.562766 0.826613 503.838 134.791)"/>
</clipPath>
<clipPath id="clip13_40846_7683">
<rect width="21.2606" height="23.2882" fill="white" transform="matrix(0.865785 0.500421 -0.562766 0.826613 510.938 38.4)"/>
</clipPath>
</defs>
</svg>
