<svg width="98" height="6" viewBox="0 0 98 6" fill="none" xmlns="http://www.w3.org/2000/svg">
<path d="M142.605 0.599986C153.91 1.55999 166.156 0.999988 170.866 0.599986C173.515 1.79998 180.581 0.599986 185.88 0.599986C191.178 0.599986 189.412 1.19999 192.062 1.80001C194.711 2.40003 197.36 2.69998 202.659 1.80001C206.898 1.08003 204.426 4.30001 202.659 6H-61.4022L-72 4.79999C-71.7056 3.99999 -70.7636 2.39998 -69.3506 2.39998C-67.5843 2.39998 -60.5191 3.59999 -58.7528 2.69998C-56.9865 1.79998 -49.0381 1.19999 -44.6224 0.599986C-40.2066 -1.67371e-05 -26.0762 1.19997 -24.3099 0.599986C-22.5437 0 -16.3616 1.8 -12.829 1.19999C-9.29641 0.599978 -0.464928 0.599986 0.418228 1.19999C1.12475 1.67999 2.4789 1.39999 3.06767 1.19999C4.2452 0.999988 5.89375 1.07998 10.1329 0.599994C15.4318 7.65328e-06 15.4318 0.599986 17.1981 1.19999C18.9644 1.79999 19.8475 1.80001 24.2633 1.19999C28.679 0.599969 27.7958 1.19999 31.3284 0.599986C34.861 -1.68801e-05 34.861 1.19999 38.3936 1.19999C41.9262 1.19999 48.1083 1.80001 51.6409 1.19999C55.1735 0.599969 58.7061 0 64.005 0C69.3038 0 69.3038 1.19999 75.4859 1.80001C81.6679 2.40003 82.5511 1.19999 89.6163 0.599986C96.6815 -1.68801e-05 101.097 1.19999 104.63 1.80001C108.162 2.40003 115.228 2.09999 119.643 1.19999C124.059 0.299984 128.475 -0.60002 142.605 0.599986Z" fill="white"/>
</svg>
