<svg width="23" height="18" viewBox="0 0 23 18" fill="none" xmlns="http://www.w3.org/2000/svg">
    <path
        d="M3.77484 13.7322C3.84322 13.6625 3.92476 13.607 4.01474 13.569C4.10471 13.5309 4.20134 13.5111 4.29902 13.5107H22.6083C22.7108 13.5165 22.807 13.5623 22.876 13.6382C22.9451 13.7142 22.9815 13.8142 22.9775 13.9168C22.9712 14.0095 22.9349 14.0976 22.8741 14.1678L19.2565 17.778C19.1882 17.8478 19.1066 17.9032 19.0167 17.9413C18.9267 17.9793 18.83 17.9991 18.7324 17.9995H0.423057C0.343858 18.0045 0.265081 17.9845 0.197975 17.9421C0.130869 17.8997 0.0788649 17.8372 0.0493907 17.7636C0.0199166 17.6899 0.0144795 17.6088 0.0338546 17.5318C0.0532297 17.4548 0.0964259 17.386 0.157277 17.335L3.77484 13.7322Z"
        fill="url(#paint0_linear_37677_18293)" />
    <path
        d="M3.7747 0.221485C3.84307 0.151726 3.92461 0.0962293 4.01459 0.0582104C4.10457 0.0201916 4.20119 0.000405618 4.29887 1.18225e-07H22.6082C22.6579 -3.96935e-05 22.7072 0.00997576 22.7529 0.0294432C22.7987 0.0489107 22.8401 0.0774291 22.8746 0.113286C22.909 0.149143 22.9359 0.191599 22.9536 0.238104C22.9712 0.284608 22.9793 0.334201 22.9773 0.383905C22.9764 0.479934 22.9395 0.57213 22.874 0.642303L19.2564 4.26725C19.188 4.33701 19.1065 4.39251 19.0165 4.43053C18.9265 4.46854 18.8299 4.48833 18.7322 4.48874H0.422909C0.320415 4.483 0.224278 4.43722 0.155225 4.36127C0.0861729 4.28531 0.0497355 4.18526 0.0537693 4.08268C0.0600864 3.99002 0.0963627 3.90191 0.157128 3.83167L3.7747 0.221485Z"
        fill="url(#paint1_linear_37677_18293)" />
    <path
        d="M19.2564 6.93242C19.188 6.86266 19.1065 6.80717 19.0165 6.76915C18.9265 6.73113 18.8299 6.71134 18.7322 6.71094H0.422909C0.320415 6.71667 0.224278 6.76245 0.155225 6.83841C0.0861729 6.91436 0.0497355 7.01442 0.0537693 7.11699C0.0600864 7.20966 0.0963627 7.29776 0.157128 7.36801L3.77469 10.9708C3.84307 11.0406 3.92461 11.0961 4.01459 11.1341C4.10456 11.1721 4.20119 11.1919 4.29887 11.1923H22.6082C22.6576 11.1913 22.7064 11.1806 22.7517 11.1608C22.797 11.141 22.838 11.1125 22.8723 11.0768C22.9066 11.0412 22.9335 10.9991 22.9515 10.953C22.9695 10.907 22.9783 10.8578 22.9773 10.8084C22.9764 10.7124 22.9395 10.6202 22.874 10.55L19.2564 6.93242Z"
        fill="url(#paint2_linear_37677_18293)" />
    <defs>
        <linearGradient id="paint0_linear_37677_18293" x1="21.8774" y1="0.54657" x2="7.81323"
            y2="21.1667" gradientUnits="userSpaceOnUse">
            <stop stop-color="#00FFA3" />
            <stop offset="1" stop-color="#DC1FFF" />
        </linearGradient>
        <linearGradient id="paint1_linear_37677_18293" x1="15.5945" y1="-3.74307" x2="1.53033"
            y2="16.8771" gradientUnits="userSpaceOnUse">
            <stop stop-color="#00FFA3" />
            <stop offset="1" stop-color="#DC1FFF" />
        </linearGradient>
        <linearGradient id="paint2_linear_37677_18293" x1="18.7248" y1="-1.60946" x2="4.66062"
            y2="19.0107" gradientUnits="userSpaceOnUse">
            <stop stop-color="#00FFA3" />
            <stop offset="1" stop-color="#DC1FFF" />
        </linearGradient>
    </defs>
</svg>