<svg width="31" height="32" viewBox="0 0 31 32" fill="none" xmlns="http://www.w3.org/2000/svg">
<g clip-path="url(#clip0_8123_138200)">
<path d="M30.9262 15.9934C30.9262 24.4915 24.0212 31.3728 15.4937 31.3728C6.96627 31.3728 0.0742188 24.4915 0.0742188 15.9934C0.0742188 7.49529 6.97925 0.626953 15.4937 0.626953C24.0082 0.626953 30.9262 7.50823 30.9262 15.9934Z" fill="black"/>
<path d="M11.4703 8.12931C14.4426 6.61595 18.0119 6.90051 20.6986 8.85365L20.478 8.97007L19.0373 9.70734C16.7918 8.45268 14.0532 8.49148 11.8337 9.78495C9.61423 11.0784 8.2514 13.4455 8.2514 16.0195C8.2514 16.3299 8.27736 16.6533 8.3163 16.9637L20.5039 10.7809L23.0219 9.50039L25.9812 7.99996V9.79789L22.996 11.3112L21.5553 12.0485L8.70568 18.5676L7.99181 18.9298L7.26496 19.3049L5.01953 20.4432V18.6452L5.78532 18.2572C6.36939 17.9597 6.70685 17.3518 6.65493 16.705C6.64195 16.4851 6.62898 16.2523 6.62898 16.0324C6.64195 12.6823 8.51099 9.64267 11.4703 8.12931Z" fill="white"/>
<path d="M25.9807 11.583V13.3809L25.2149 13.769C24.6308 14.0665 24.2933 14.6744 24.3453 15.3211C24.3582 15.541 24.3712 15.7739 24.3712 15.9937C24.3712 19.318 22.5022 22.3576 19.5299 23.8581C16.5576 25.3585 12.9883 25.0869 10.3016 23.1337L11.8721 22.3318L11.9629 22.28C14.2084 23.5347 16.96 23.5088 19.1795 22.2153C21.3989 20.9219 22.7748 18.5419 22.7748 15.9808C22.7748 15.6574 22.7488 15.347 22.7099 15.0366L10.5092 21.2323L7.99124 22.5128L5.04492 24.0133V22.2153L8.0172 20.702L9.45791 19.9647L25.9807 11.583Z" fill="white"/>
</g>
<defs>
<clipPath id="clip0_8123_138200">
<rect width="31" height="32" fill="white"/>
</clipPath>
</defs>
</svg>
